<svg xmlns="http://www.w3.org/2000/svg" fill="none" viewBox="0 0 1366 1366" height="1366" width="1366">
<g clip-path="url(#clip0_1_66)">
<path fill="#FEFEFE" d="M0 0H1365.33V1365.33H0V0ZM914.147 323.027C905.493 314.867 898.693 303.027 900.787 290.773C901.8 284.453 906.293 279.667 910.013 274.773C903.067 278.533 897.693 285.32 896.2 293.147C894.067 303.8 897.307 315.347 904.6 323.4C909.547 329.347 916.56 332.853 922.867 337.08C915.013 336.133 907.773 332.387 901.293 328.013C890.2 320.427 884.827 306.427 885.827 293.267C879.427 308.707 887.467 326.427 899.84 336.32C913.12 347.387 930.907 351.187 943.773 362.84C954.093 371.813 960.48 386.467 956.093 400C951.507 415.72 936.547 424.88 922.627 431.493C928 421.84 936.08 414.12 942.373 405.12C945.907 399.333 949.827 392.48 947.84 385.493C946.88 391.16 944.44 396.56 940.293 400.613C931.72 409.36 921.067 415.733 912.267 424.253C905.8 430.747 899.373 437.427 894.667 445.347C895.92 428.44 909.627 416.293 922.227 406.653L923.573 408.213C923.333 405.773 920.84 406.147 919.053 406.507C918.733 406.347 918.08 406 917.76 405.827C917.787 406.307 917.84 407.253 917.867 407.733C910.707 411.013 904.013 415.427 898.32 420.893C890.6 428.64 885.147 438.347 881.36 448.547C878.533 437.427 882.693 425.36 890.84 417.52C893.96 414.72 897.853 413.027 901.36 410.76C890.373 410.747 880.787 418.4 874.92 427.16C866.813 439.733 867.6 455.413 869.253 469.653C862.227 459.627 855.52 447.453 858.933 434.813C860.733 425.853 867.587 419.333 874.827 414.4C857.68 419.387 846.92 438.853 850 456.147C851.773 469.36 861.08 479.667 865.693 491.827C868.933 500.213 870.413 510.013 866.147 518.32C860.507 518.32 855.027 516.613 849.4 516.467C824.773 514.893 798.8 518.813 777.72 532.32C769.973 537.813 762.867 544.227 754.547 548.88C736 559.28 714.667 565.253 693.333 564.213C677.96 563.36 661.933 557.56 652.4 544.907C646.267 537.68 643.88 528.333 641.933 519.28C648.573 524.48 655.533 529.453 663.413 532.6C677.293 538.373 693.333 538.587 707.453 533.44C707.813 533.613 708.547 533.933 708.907 534.107C709.147 533.68 709.64 532.813 709.893 532.387C711.88 531.2 713.88 529.987 715.6 528.4C710.813 529.827 706.227 532.04 701.2 532.44C689.84 533.507 678.507 530.613 668.133 526.173C679.227 527.147 690.84 525.827 700.68 520.28C707.667 515.84 714.973 510.76 718.547 502.987C706.227 515.173 687.947 522.427 670.693 518.053C660.92 515.28 650.987 510.333 645.347 501.533C649.987 504.413 654.627 507.587 660.053 508.773C673.307 511.693 687.213 509.707 699.947 505.373C707.52 502.32 715.68 498.853 720.467 491.88C714.067 495.827 707.68 500.093 700.16 501.573C687.747 504.187 674.04 505.027 662.36 499.253C678.653 501.947 696.4 498.88 709.387 488.2C712.853 485.027 717.08 482.027 718.373 477.253C712.8 480.707 707.547 484.84 701.24 486.907C688.813 491.813 674.44 491.627 662.387 485.707C672.267 486.453 682.373 487.067 691.987 484.107C701.947 481.107 712.893 476.533 717.92 466.8C709.973 472.773 700.573 476.96 690.587 477.787C673.707 479.093 656.493 471.813 645.373 459.107C655.133 464.347 666.2 466.947 677.253 466.933C694.627 467.133 710.973 460.813 727.053 454.987C713.013 455.107 698.973 459.413 684.933 456.493C701.573 453.76 719.053 446.32 735.76 452.613C735.733 452.24 735.693 451.48 735.68 451.107C712.48 438.173 685.4 453.907 661.387 444.733C675.213 445.613 689.133 442.467 701.267 435.773C702.68 435.013 703.667 433.72 704.64 432.48C692.533 436.893 679.28 438.587 666.573 436.027C658.813 434.227 650.587 430.92 646.293 423.787C654.16 428.307 662.533 433.067 671.947 432.6C684.36 432.213 697.653 428.8 706.64 419.76C691.2 425.88 673.64 425.493 658.333 419.133C667.947 418.613 678.013 419.293 687.147 415.747C680.253 414.787 673.213 414.667 666.467 412.827C654.413 409.747 642.853 404.347 633.2 396.44C649 394.653 665.587 395.707 680.16 402.56C686.373 405.133 691.573 409.547 697.587 412.493C690.813 404.12 681.533 398.027 671.813 393.6C659.893 388.093 646.773 386.28 634.4 382.32C648.933 381.347 663.573 383.707 677.413 388.133C686.867 391.44 696.507 394.72 704.84 400.427C708.653 402.973 711.573 406.547 715.053 409.493C708.573 395.867 694.733 387.693 681.547 381.573C669.387 376.867 657 372.413 644.053 370.547C663 367.907 682.76 372.32 699.053 382.267C695.667 377.92 690.853 375.08 686.16 372.36C674.44 365.827 661.187 362.48 647.92 360.987C635.8 359.707 623.64 361.68 611.893 364.6C617.707 360.84 624.253 358.44 630.747 356.16C642.44 352.6 654.8 353.933 666.813 353.627C661.053 350.507 654.373 350.027 647.987 349.36C638.147 348.293 628.467 350.747 618.853 352.387C631.653 348.093 645.213 346.373 658.693 346.907C667.707 346.387 676.08 350.133 684.347 353.147C680.373 348.693 674.827 346.147 669.227 344.4C652.907 339.653 635.533 338.427 618.813 341.707C627.133 336.8 637.08 336.2 646.507 336.307C653.48 336.307 660.067 338.827 666.907 339.787C656.387 334.773 644.96 331.587 633.267 331.413C617.68 330.707 602.933 336.467 588.267 340.853C593.747 336.827 599.2 332.653 605.44 329.84C617.507 323.6 631.293 322.053 644.68 321.92C624.28 316.72 603.627 323.907 584.213 329.8C599.253 320.16 617.293 316.373 635 316.427C619.68 313.187 604.013 316.787 588.933 319.667C609.36 308.613 634.2 306.947 656.307 313.573C656.96 314.267 657.653 314.92 658.4 315.547C657.627 311.893 653.88 310.573 650.92 309.147C629.053 299.72 603.88 302.36 581.973 310.227C572.973 313.373 564.88 318.44 556.48 322.84C566.547 309.813 582.28 302.493 597.973 298.747C591.893 297.333 585.72 299.24 579.773 300.467C570.187 302.493 561.147 306.573 552.813 311.667C560.68 301.067 573.68 296.96 585.427 292.413C576.333 291.987 567.36 294.093 558.667 296.533C548.52 299.373 539.853 305.6 530.56 310.293C534.867 300.72 544.787 295.653 553.84 291.427C562.533 287.187 572.307 286.307 581.827 285.84C563.133 282.213 542.72 285.107 526.733 295.84C520.853 299.627 516.347 305.067 511.307 309.827C514.573 315.16 518.36 320.187 521.107 325.827C536.12 328.6 550.773 333.533 564.187 340.853C576.907 348.16 588.48 357.507 598.2 368.493C615.267 387.147 625.147 411.427 629.547 436.093C632.28 450.64 634.4 465.36 635.04 480.16C632.04 467.653 630.107 454.907 626.48 442.56C618.12 412.973 603.667 384.253 580.68 363.333C564.587 347.907 543.933 337.493 522.173 332.96C521.187 336 521.427 340.293 517.853 341.6C515.773 333.947 513.467 326.333 510.093 319.133C503.68 304.813 492.08 293.453 486.453 278.707C482.773 278.893 482.173 283.613 480.88 286.32C478.533 296.08 478.533 306.72 482.4 316.107C474.587 306.04 469.227 294.053 468.373 281.24C466.373 283.587 464.467 286.133 463.693 289.187C460.84 299.773 462.613 311.293 467.613 320.973C463.92 318.28 460.387 315.2 458.093 311.2C455.387 306.8 454.88 301.56 453.68 296.667C451.16 304.187 453.853 312.4 458.253 318.653C460.787 322.4 464.627 325.04 467.067 328.853C459.8 329.08 453.293 324.387 449.613 318.387C446.787 314.053 447.293 308.72 447 303.8C442.88 314.413 448.44 325.48 456.08 332.827C445.613 331.773 439.387 321.92 436.707 312.693C433.173 319.52 434.493 328.173 439.547 333.893C443.8 338.707 449.267 343.067 455.773 344.147C445.32 345.547 434.36 339.48 430.96 329.32C430.8 329.933 430.493 331.173 430.333 331.787C433.227 342.307 443.16 350.56 454.333 349.88C447.533 355.627 440.427 361.213 434.693 368.067C431.2 372.173 432.4 377.733 432.52 382.64C430.707 387.027 426.773 390.027 423.573 393.387C417.427 399.027 411.947 405.347 406.04 411.24C402.587 414.747 397.76 416.347 393.987 419.427C389.267 423.827 388.813 431.6 392.373 436.867C394.92 440.56 392.587 445.467 394.947 449.28C397.227 453.4 401.613 456.973 406.547 456.653C418 454.733 425.56 444.227 436.773 441.733C434.613 451.2 425.84 457 418.053 461.72C421.96 465.88 427.613 471.013 433.747 468.387C439.653 464.787 441.947 457.8 444.787 451.88C446.64 447.227 449.413 442.493 449.027 437.347C446.88 433.987 442.48 433.12 438.773 433.453C429.293 434 421.373 439.627 412.973 443.36C420.28 435.853 430.933 431.427 441.4 431.36C446.48 431.093 450.027 435.173 452.16 439.293C463.573 438.693 474.667 432.68 481.48 423.507C492.547 426.533 504.587 424.173 514.16 418.053C525.773 410.187 532.947 394.973 528.973 381.107C527.507 374.227 522.76 368.853 518.773 363.307C529.76 368.88 537.613 380.72 536.84 393.253C536.907 406.373 528.8 418.173 517.96 424.973C522.773 440.2 521.747 456.68 517.867 472C512.187 491.347 498.933 507 486.787 522.613C476.027 536.827 466.72 552.84 464.027 570.72C461.48 587.333 461.933 604.853 467.533 620.813C470.427 624.28 475.787 624.133 479.88 625.4C477.253 615.867 475.107 606.027 475.667 596.08C476.56 581.24 481.8 566.573 491.027 554.88C499.72 543.573 513.827 536.493 528.147 536.84C520.92 539.6 514.133 543.453 508.053 548.213C493.48 560.547 485.467 579.68 485.6 598.653C485.613 612.16 489.373 626.24 498.68 636.387C476.587 634.453 455.227 627.347 435.067 618.387C429.04 615.827 422.92 610.72 416.013 613.107C408.013 615.733 400.28 620.347 395.333 627.293C390.507 635.12 393.293 644.653 393.84 653.227C395.28 664.347 393.467 675.533 391.293 686.427C389.12 697.507 383.84 708.32 385.507 719.867C386.733 731.08 395.413 739.32 402.88 746.973C381.68 742.027 359.653 745.053 338.813 750.293C319.76 755.627 300.707 762.48 284.52 774.12C281.453 776.533 276.813 773.827 273.96 776.813C268.347 782.36 266.24 790.427 264.907 797.973C263.253 811.52 263.56 825.88 269.64 838.4C274.853 849.573 285.04 858.787 297.253 861.467C304.987 863.24 314.067 863.213 320.307 857.64C327.48 851.107 328.467 840.88 332.693 832.6C338.533 819.013 348.08 807.267 359.467 797.92C374.573 785.76 392.667 776.493 412.093 774.16C419.187 773.307 429.2 775.613 430.56 783.907C432.053 794.973 427.653 805.867 422.147 815.24C407.067 839.507 386.92 860.04 366.44 879.747C350.08 896.32 332.293 911.387 314.747 926.68C305.08 934.493 296.2 943.36 285.547 949.88C275.013 946.067 263.053 944.16 252.387 948.533C244.613 951.413 239.213 958.64 237.12 966.467C233.24 980.96 235.533 996.373 240.827 1010.19C241.4 1016.15 240.613 1022.32 242.533 1028.13C245.347 1039.23 254.973 1048.71 266.64 1049.69C277.76 1051.01 288.08 1045.76 297.427 1040.41C311.48 1043.44 324.773 1032.17 328.893 1019.33C359.333 1013.47 390.413 1012.25 421.333 1011.79C441.4 1012.49 461.56 1012.39 481.533 1014.81C483.507 1015.11 485.573 1015.11 487.467 1014.35C485.587 1014.05 481.8 1013.48 479.907 1013.2C481.027 1012.53 482.173 1011.96 483.373 1011.47C493.067 1012.84 502.84 1014.81 512.68 1014.21C500.813 1012.01 488.72 1011.17 476.747 1009.65C477.88 1009.95 480.147 1010.51 481.28 1010.79C480.227 1011.36 479.173 1011.93 478.12 1012.52C475.867 1012.27 473.627 1012.09 471.387 1012.03C470.56 1010.8 472.293 1010 472.827 1009.16C463.56 1006.73 453.907 1007.95 444.547 1006.35C439.267 1005.65 433.947 1005.37 428.64 1005.17C429.693 1007.76 432.373 1007.11 434.52 1007.27C446.44 1007.75 458.333 1008.68 470.253 1009.2C469.693 1009.63 468.573 1010.47 468.013 1010.88C451.947 1011.03 435.947 1008.75 419.933 1007.72C416.653 1007.6 413.28 1007.67 410.173 1006.49C415.067 1006.16 419.987 1006.49 424.893 1006.37L425 1004.8C405.547 1002.59 385.907 1002.92 366.413 1001.27C380.813 998.893 395.507 1000.52 409.96 999.187C400.107 998.48 390.427 996.227 380.507 996.12C380.52 995.96 380.547 995.667 380.56 995.52C389.253 994.44 397.933 997.653 406.52 995.733C413.96 995 421.467 996.293 428.893 995.133L428.547 996.48C434.08 996.387 439.627 996.573 445.173 996.8L443.987 994.533C445.027 994.813 447.093 995.373 448.12 995.653C454.947 998.04 462.267 999.653 469.573 999.533C463.96 998.107 458.16 997.56 452.587 996L451.213 993.533C455.933 993.747 460.653 993.96 465.347 994.453C471.387 997.133 477.973 994.16 484.2 995.04C483.813 994.32 483.027 992.88 482.64 992.16C485.627 992.427 488.627 992.747 491.64 992.773L491.053 993.787C495.44 993.84 498.12 997.68 501.107 1000.32C513.733 1013.01 530.48 1021.43 548.08 1024.49C570.053 1028 592.427 1020.11 610.053 1007.23C618.52 1001.29 625.12 993.267 632.613 986.24C634.413 984.72 635.453 982.613 636.12 980.4C640.107 972.947 646.533 967 649.547 959.04C652.4 955.467 654.96 951.627 656.027 947.093C655.16 947.573 653.413 948.507 652.547 948.987C656.2 941.373 661.693 934.667 664.267 926.573C662.76 928.133 661.28 929.733 659.72 931.267C670.707 906.36 676.04 879.147 676.253 851.973C675.653 833.867 673.52 815.187 664.88 798.96C654.84 780.067 637.067 765.253 616.493 759.227C598.413 753.493 578.013 753.707 560.747 761.987C550.04 766.52 541.267 774.347 532.44 781.693C527.453 780.507 522.28 779.947 517.2 780.893C512.573 781.813 507.56 779.667 503.267 782.267C494.467 786.853 490.827 797.08 489.987 806.413C489.667 812.413 485.6 817.16 483.493 822.587C472.08 849.48 466.773 878.893 467.44 908.08C467.947 932.347 473.853 956.547 485.387 977.96C469.16 974.947 452.707 973.013 436.253 971.667C436.573 970.907 437.24 969.413 437.56 968.653C416.733 965.507 395.773 962.6 374.72 961.427C383.24 948.333 393.213 936.28 402.24 923.533C417.733 901.88 432.72 879.533 442.947 854.827C450 838.493 455.147 820.64 453.28 802.693C452.347 790.507 446.84 779.267 439.52 769.667C444.107 760.027 446.267 749.267 446.4 738.613C446.387 732.12 445.667 724.88 441 719.907C436.787 715.573 429.747 715.453 424.547 717.947C420.227 720.133 415.293 719.813 410.6 719.84C414.347 715.373 418.787 711.12 420.56 705.413C420.253 700.8 415.84 697.92 413.987 693.907C408.373 684.92 411.84 673.587 417.32 665.427C420.413 661.013 423.813 655.747 429.32 654.28C438.4 653.787 446.373 659.24 453.88 663.653C473.8 676.44 494.413 690.547 518.587 693.107C535.813 695.587 552.813 688.44 566.667 678.693C583.547 666.027 594.64 646.907 600.307 626.8C599.187 643.72 593.027 660.173 583.133 673.907C571.907 689.24 554.053 698.2 535.773 702.027C542.613 705.24 548.92 709.453 555.853 712.453C569.88 718.467 584.4 723.467 599.427 726.307C616.293 729.773 633.44 732.413 650.693 732.32C677.707 732.72 704.547 727.493 730.227 719.373C757.947 710.027 784.72 697.2 807.92 679.213C802.32 673.987 797.147 668.293 792.493 662.227C780.16 646.2 774.293 625.227 777.173 605.16C781.107 628.733 791.32 651.773 809.013 668.24C825.733 683.84 847.76 693.813 870.68 695C894.747 696.36 918.227 687.213 937.773 673.72C946.92 667.533 954.533 659.44 962.4 651.773C965.893 648.56 969.64 644.787 974.72 644.667C981.773 643.64 987.987 647.907 992.947 652.387C1006.07 664.64 1018.07 678.093 1031.88 689.587C1035.23 692.413 1039.4 694.733 1043.93 694.093C1058.92 692.427 1074.07 688.027 1086.27 678.893C1081.31 670.667 1073.59 664.813 1067.56 657.48C1076.96 661.387 1084.08 668.867 1091.63 675.413C1100.29 671.04 1108.61 664.293 1111.2 654.52C1103.61 647.707 1094.47 642.8 1085.19 638.747C1078.03 635.693 1068.08 634.427 1062.83 641.493C1055.65 649.28 1057.89 660.387 1057.85 669.96C1054.88 665.187 1052.76 659.453 1048.03 656.107C1043.76 655.027 1039.21 656.8 1034.91 655.627C1026.23 653.6 1019.99 646.68 1014.44 640.173C1006.16 629.8 998.947 618.48 994.013 606.12C992.187 602.2 991.027 597.853 988.267 594.48C984.667 590.253 978.48 591.867 974.067 593.707C959.573 600.72 952.173 616.12 939.333 625.267C939.413 604.613 937 583.36 927.093 564.893C917.947 546.547 901.573 532.533 883.053 524.173C884.92 512.4 887.16 498.32 898.04 491.36C911.187 484.88 925.933 490.547 938.787 494.933C953.28 500.253 969.307 503.613 984.52 499.293C976.707 498.733 968.707 498.707 961.28 495.827C943.84 489.96 929.747 475.173 910.6 474.493C920.96 470.973 932.373 471.853 942.64 475.293C955.227 479.347 968.04 483.893 981.44 483.747C992.24 483.747 1002.72 480.04 1011.97 474.667C1017 471.533 1022 468.027 1025.47 463.12C1019.15 466.48 1012.72 469.893 1005.56 471.027C984.067 475.027 962.12 467.773 943.973 456.427C949.893 457.68 955.56 459.84 961.387 461.44C973.44 464.84 986.107 466.133 998.6 465.12C1011.4 464.147 1025.72 461.947 1034.19 451.16C1022.04 460.72 1005.65 462.973 990.773 460.067C1020.71 456.587 1048.85 434.28 1056.05 404.547C1050.84 413.093 1045.84 422.013 1038.07 428.56C1021.72 442.307 999.627 449.347 978.347 446.853C987.427 444.387 996.573 441.613 1004.63 436.6C1021.67 426.08 1035.2 409.147 1039.64 389.413C1043.75 373.347 1041.88 355.907 1035.01 340.88C1035.2 345.987 1036.52 350.973 1036.77 356.093C1037.96 371.84 1034.63 388.32 1025.44 401.373C1017.08 413.613 1004.2 423.547 989.24 425.68C995.96 420.747 1003.57 416.907 1009.09 410.48C1025.65 393.68 1031.23 367.28 1023.48 345.107C1023.17 354.56 1023.55 364.133 1021.35 373.413C1018.49 388.267 1008.36 400.853 996.173 409.36C1005.27 399.573 1012.33 387.667 1015.21 374.533C1019.15 356.013 1015.23 336.013 1004.63 320.333C1004.28 320.293 1003.59 320.187 1003.25 320.147C1014.77 341.787 1013.72 371.453 996.013 389.493C998.92 382.92 1002.03 376.333 1003.09 369.16C1004.52 359.253 1004.25 349 1001.71 339.293C997.827 326.093 988.52 315.093 977.52 307.12C980.48 312.28 984.707 316.573 987.653 321.76C995.093 333.813 998.52 348.827 994.56 362.693C994.027 355.467 993.267 348.133 990.427 341.413C985.8 330.48 978.173 321.253 970.827 312.08C965.307 305.04 961.893 295.4 965.4 286.693C967.413 281.28 972.68 278.493 977.32 275.68C967.707 276.307 960.08 285.2 960.107 294.667C959.347 307.813 968.12 318.56 972.72 330.213C977.333 339.773 979.493 350.413 978.813 361.027C973.387 345.853 963.013 332.893 950.693 322.707C942.147 314.84 931.64 308.013 927.053 296.867C923.987 290.347 924.507 282.907 926.72 276.227C920.587 282.32 921.093 292 922.133 299.907C925.867 316.613 940.787 326.68 951.6 338.68C944.387 334.667 937.36 330.307 930.64 325.533C920.56 318.227 913.173 306.12 914.387 293.347C914.68 286.253 918.667 280.24 920.987 273.733C907.453 285.84 904.64 307.667 914.147 323.027ZM389.8 556.52C378.467 568.76 365.013 579.76 348.933 584.987C341.24 587.48 333 591.4 329.973 599.507C324.067 614.24 326.267 630.627 327.067 646.08C336.027 642 343.8 635.933 352.2 630.907C349.32 637.64 342.88 641.84 337.253 646.12C334.293 648.533 330.2 649.933 328 653.04C328.547 661.293 330.573 669.413 332.6 677.413C343.413 672.24 353.093 664.587 360.693 655.32C364.76 650.187 368.747 643.96 367.6 637.08C365.96 630.88 360.76 626.533 356.067 622.533C351.387 620.04 345.36 622.267 340.787 619.413C346.133 616.427 352.427 616.947 358.08 615.173C365.507 610.24 367.413 600.827 372.707 594.16C379.04 588.773 387.053 585.747 394.96 583.493C401.44 581.92 408.667 581.08 414.907 583.947C423.373 588.867 427.373 598.267 432.907 605.88C439.16 613.52 449.24 615.933 458.147 619.093C453.227 602.493 452.8 584.667 455.853 567.68C444.04 556.427 430.187 545.2 413.333 543.667C403.613 542.627 395.72 549.693 389.8 556.52ZM957.093 669.093C935.893 689.04 907.8 701.64 878.707 703.453C856.267 704.68 834.08 697.293 815.507 684.987C807.027 690.627 798.973 696.893 790.427 702.44C805.093 717.013 822.973 729.067 843.347 733.733C861.013 737.24 880.013 736.573 896.56 728.947C913.013 722.04 927.427 711.053 939.6 698.147C949.147 698.56 958.133 703.107 965.347 709.187C976.907 718.6 986.387 730.2 995.453 741.947C998.907 745.8 1001.73 750.773 1006.79 752.72C1012.88 753.853 1019.12 753.373 1025.28 753.8C1034.81 754.347 1044.64 752.867 1053.09 748.28C1052.4 741.173 1048.35 735.093 1043.92 729.747C1050.89 733.107 1055.55 739.52 1061.27 744.333C1067.21 743.96 1073.17 742.373 1078.53 739.787C1083.39 737.52 1085.79 730.307 1081.8 726.213C1075.96 720.253 1068.6 716.093 1061.55 711.773C1056.76 709.027 1050.93 706.24 1045.37 708.293C1041.01 709.867 1038.73 714.293 1036.65 718.133C1034.09 723.293 1031.21 728.293 1027.97 733.053C1027.79 728.227 1026.97 722.693 1022.68 719.747C1019.37 717.933 1015.4 718.52 1011.8 717.96C1005.59 717.413 1000.6 713.2 996.173 709.187C985.053 698.293 976.84 683.867 975.333 668.2C974.693 663.36 975.533 658.293 973.627 653.68C966.987 657.493 962.973 664.347 957.093 669.093ZM1040.09 756.293C998.48 770.227 961.987 798.373 937.347 834.627C922.547 855.653 912.96 880.08 908.187 905.267C903.587 930.627 903.427 957.493 912.587 981.88C898.387 979.08 884.053 977.067 869.733 975.027C868.667 975.773 867.6 976.547 866.56 977.32C882.2 978.72 897.733 981.253 913.187 984.04C913.493 984.693 914.133 985.987 914.453 986.627C895.413 982.947 876.053 981.013 857.107 976.827C859.72 976.68 862.32 976.733 864.947 976.92C865.987 976.173 867.027 975.44 868.08 974.707C855.973 973.64 843.973 971.68 831.88 970.453C828.213 970.027 824.467 969.907 820.933 968.773C836.8 967.613 852.587 971.32 868.413 971.493C847.867 967.72 827.12 964.947 806.32 963.12C816.32 948.107 828.293 934.547 838.347 919.573C850.6 901.253 863.16 882.973 872.32 862.84C880.48 845.373 887.12 826.347 885.893 806.787C884.613 783.387 868.827 761.573 847.227 752.667C829.013 745.24 808.707 744.733 789.48 747.72C763.693 751.787 738.373 760.467 716.547 774.96C713.32 777.68 708.387 775.107 705.333 778.133C699.667 783.147 697.6 790.853 696.133 797.987C694.107 811.467 695.027 825.693 700.427 838.307C704.92 848.947 713.747 857.827 724.733 861.627C733.253 864.787 743.853 865.28 751.293 859.307C758.373 853.333 759.88 843.733 763.68 835.747C776.133 806.24 804.333 785.76 834.493 777.04C841.96 774.987 850.253 773.987 857.573 777.12C862.2 779.12 862.96 784.88 862.893 789.32C861.96 801.587 856.6 813.093 849.52 823.013C827.32 854.853 798.88 881.613 770.467 907.8C752.947 922.507 736.32 938.44 717.32 951.253C711.08 950.28 705.107 947.427 698.653 947.413C687.493 946.653 674.72 950.933 669.427 961.493C662.32 976.013 663.987 993.387 669.44 1008.17C672.067 1013.6 670.013 1019.72 671.107 1025.45C672.573 1037.73 682.2 1048.95 694.613 1050.95C704.867 1052.85 715.013 1048.81 723.747 1043.77C727.853 1041.25 732.893 1043.35 737.347 1042.04C747.453 1039.04 755.387 1030.8 759.187 1021.11C799.773 1014.03 841.253 1012.92 882.32 1015.57C883.293 1014.81 884.28 1014.08 885.267 1013.35C881.893 1012.45 877.187 1014.25 874.413 1012C874.533 1011.56 874.76 1010.68 874.88 1010.23C880.12 1010.87 885.373 1011.91 890.693 1011.59C890.92 1012.24 891.373 1013.55 891.6 1014.2C888.667 1013.17 886.147 1014.09 884 1015.99C895.333 1015.67 906.493 1018.73 917.8 1018.15C913.44 1016.8 908.893 1016.24 904.36 1015.91C904.387 1015.08 904.427 1013.41 904.44 1012.59C901.28 1012.51 898.107 1012.51 894.973 1012.77L895.28 1011.41C883.84 1010.12 872.333 1009.41 860.907 1007.97C860.213 1009.11 859.533 1010.25 858.813 1011.37C852.853 1010.04 846.653 1010.45 840.733 1008.96C846.453 1008.61 852.2 1009.47 857.907 1008.76C856.547 1008.04 855.12 1007.23 853.547 1007.17C840.12 1005.97 826.693 1004.8 813.24 1004.15C807.8 1003.75 802.293 1003.84 796.96 1002.67C809.067 1001.52 821.24 1002.52 833.373 1001.97C840.947 1002.67 848.453 1004.44 856.107 1004.16C862.387 1004.03 868.547 1006.01 874.84 1005.32C868.92 1004.35 862.907 1004.31 856.973 1003.55C857.413 1000.72 855.613 1002.52 854.627 1003.57C846.253 1002.25 837.72 1002.35 829.44 1000.44C824.907 999.347 820.013 1000.15 815.68 998.293C822.48 998.04 829.28 998.36 836.08 998.627C846.347 997.507 856.44 1000.48 866.707 1000.71C870.573 1000.63 874.987 1001.69 878.347 999.213C883.747 1000.93 889.147 1003.11 894.893 1003.28C891.307 1001.59 887.213 1001.6 883.613 999.973C883.4 999.08 882.973 997.28 882.773 996.387C890.16 997.387 897.68 999.707 905.173 998.347L903.253 996.64C905.053 996.733 906.88 996.827 908.72 996.907L907.947 1000.09C909.813 996 914.373 997.947 917.72 997.68C921.787 1004.64 926.6 1011.11 931.56 1017.44C923.533 1016.73 915.907 1013.29 907.787 1013.72C915.907 1014.92 923.653 1017.95 931.92 1018.4C937.147 1022 940.96 1027.32 946.067 1031.13C964.16 1045.81 987.427 1053.69 1010.64 1054.23C1015.33 1054.31 1020.31 1054.96 1024.76 1053.07C1021.11 1052.61 1017.37 1052.48 1013.76 1051.95C1022.28 1050.47 1031.15 1050.41 1039.25 1047C1030.53 1047.56 1021.88 1049.52 1013.07 1048.68C1026.56 1046.41 1040.23 1044.27 1052.84 1038.69C1053.19 1038.89 1053.88 1039.28 1054.23 1039.47C1054.8 1038.15 1055.33 1036.83 1055.84 1035.51C1058.48 1034.75 1061.04 1033.72 1063.57 1032.63L1062.84 1031.51C1066.84 1031.29 1069.71 1027.96 1072.52 1025.47C1061.71 1029.07 1051.27 1034.07 1039.85 1035.69C1049.53 1031.77 1059.41 1027.71 1067.48 1020.89C1070.64 1018.24 1074.8 1016.29 1076.44 1012.25C1069.92 1016.17 1063.23 1019.84 1056.01 1022.32C1067.43 1015.79 1077.77 1007.57 1086.69 997.907C1087.59 996.267 1088.56 994.693 1089.55 993.12C1091.13 992.253 1092.6 991.147 1093.55 989.573C1099.67 980.28 1104.43 970.147 1107.71 959.52C1106.49 976.787 1099.57 993.627 1088.31 1006.8C1094 1002.67 1098.09 996.827 1103.09 991.947C1106.48 988.533 1108.67 984.2 1110.55 979.84C1109.09 989.52 1105.11 998.667 1099.71 1006.79C1105.68 1001.56 1109.64 994.56 1114.29 988.227C1112.76 993.907 1110.03 999.24 1106.31 1003.8C1107.39 1003.53 1109.53 1002.99 1110.61 1002.72C1108.61 1005.76 1106.51 1008.79 1105.12 1012.19C1110.93 1006.27 1114.67 998.733 1118.32 991.387C1125.35 975.707 1129.59 958.48 1128.55 941.227C1127.65 923.64 1120.69 906.653 1109.48 893.16C1107.17 890.493 1103.23 889.6 1101.61 886.347C1098.71 881 1094.17 876.773 1089.32 873.227C1072.35 861.533 1050.71 858.933 1030.6 860.64C1010.75 862.053 992 869.693 974.613 878.973C981.88 844.653 1003.43 814.96 1029.76 792.48C1055.53 770.027 1086.6 751.813 1121.01 747.56C1093.8 743.053 1066.24 748.827 1040.09 756.293Z"></path>
<path fill="#E8E8E8" d="M463.76 368.36C474.427 372.467 485.853 366.44 493.453 359.04C490.693 363.213 487.613 367.253 483.573 370.293C477.173 375.36 474 383.893 466.387 387.507C461.427 389.96 455.853 388.507 450.613 388.147C448.64 390.533 447.307 393.533 444.533 395.147C446.573 386.507 448.533 377.227 454.093 370.08C456.267 366.72 460.467 367.187 463.76 368.36ZM458.853 373.587C455.867 375.787 455 379.72 453.293 382.853C457.36 384.027 461.973 385.347 466 383.24C469.04 381.747 470.28 378.427 471.747 375.613C467.573 374.36 463.253 372.907 458.853 373.587Z"></path>
<path fill="#E8E8E8" d="M459.333 380.853C459.387 379.467 459.453 378.08 459.52 376.693C461.693 377.453 463.853 378.227 466.013 379.04C464.387 381.187 461.667 380.733 459.333 380.853Z"></path>
<path fill="#E8E8E8" d="M402.387 422.24C405.8 422.613 409.2 423.413 412.307 424.907C411.093 430.707 408.827 436.52 404.053 440.32C406 436.787 407.707 433.107 408.613 429.16C406.987 426.467 404.547 424.453 402.387 422.24Z"></path>
<path fill="#E8E8E8" d="M422.787 720.2C425.213 719.107 424.92 722.613 425.547 724C426.693 731.467 425.667 739.08 423.787 746.333C422.907 749.28 422.347 752.587 419.733 754.587C418.68 745.653 422.453 737 422.373 728.067C422.693 725.453 421.587 722.64 422.787 720.2Z"></path>
<path fill="#E8E8E8" d="M578.813 782.933C589.907 778.347 603.56 777.947 613.813 784.853C624.64 792.16 630.72 804.853 632.507 817.52C636.253 839.307 631.507 861.613 623.573 881.947C613.987 905.2 599.96 926.92 581.293 943.933C570.027 954.173 556.48 961.72 541.84 965.88C533.84 957.533 530.333 945.867 528.813 934.653C526.16 908.76 531.933 882.44 542.867 859C554.933 860.08 567.48 851.133 568.333 838.667C569.533 824.093 560.467 811.68 552.667 800.293C560.64 793.48 568.88 786.667 578.813 782.933Z"></path>
<path fill="#E8E8E8" d="M649.32 791.507C659.88 800.387 664.84 814.2 668.093 827.227C668.813 827.453 670.267 827.907 670.987 828.133C670.333 828.2 669 828.32 668.333 828.387C669.093 833.333 669.493 838.32 669.947 843.293C673.027 840.093 670.853 835.4 671.08 831.547C673.187 839.053 673.107 846.96 673.573 854.693C672.693 863.027 673.387 871.627 670.987 879.733C670.653 879.76 669.973 879.8 669.64 879.813C668.853 879.08 668.133 878.32 667.453 877.533C666.627 883.347 664.627 888.933 664.32 894.827C665.667 890.6 666.64 885.96 669.12 882.307L670.093 882.2C668.253 893.707 663.093 904.48 657.52 914.627C657.8 912.52 658.173 910.493 658.533 908.427C660.093 906.667 660.84 904.467 661.067 902.16C660.587 902.64 659.613 903.573 659.133 904.04C651.52 922.773 641.48 940.8 627.733 955.747C627.72 955.08 627.68 953.76 627.667 953.093C629.293 951.013 630.92 948.88 631.933 946.44C631.44 946.36 630.427 946.2 629.933 946.133C630.88 943.813 632.827 941.867 634.027 939.627C633.987 940.8 633.907 943.173 633.867 944.36C636.44 940.72 640.787 937.08 639.133 932.053L641.4 933.253C641.067 932.427 640.4 930.787 640.067 929.96L641.613 930.213C641.787 927.227 644.253 925.267 645.733 922.92L642.773 923.013C644.387 919.747 646.053 916.52 647.453 913.16C648.333 911.973 649.213 910.773 650.08 909.573C649.293 906.213 649.64 901.893 653.88 901.36C654.4 899.733 654.92 898.133 655.413 896.507C654.547 896.707 652.813 897.08 651.96 897.267C652.853 894.12 654.067 891.08 656.16 888.547C656.733 885.96 657.333 883.4 657.973 880.853C657.08 874.347 660.52 868.387 661.747 862.16C662.013 852.147 663.013 842.067 661.6 832.08C660.307 823.88 658.72 815.693 655.893 807.88C654.013 802.293 651.027 797.147 649.32 791.507Z"></path>
<path fill="#E8E8E8" d="M646.107 840.2C645.453 834.12 646.347 827.84 648.933 822.307C653.747 840.4 651.24 859.533 646.64 877.4C640.987 898.107 630.253 917.28 616.2 933.453C613.733 936.56 611.413 939.867 608.08 942.133C609.773 939.56 611.573 937.053 613.267 934.467C613.013 933.733 612.493 932.267 612.24 931.533C614.933 931.16 616.96 929.027 616.933 926.267C623.32 918.787 629.933 909.48 628.827 899.213C629.467 898.787 630.733 897.96 631.373 897.547C631.773 898 632.547 898.92 632.933 899.387C633.493 898.387 634.6 896.373 635.147 895.373C632.907 896.253 630.707 897.253 628.413 898C629.387 897.48 631.333 896.44 632.293 895.933C634.333 885.707 637.627 875.733 640.053 865.56C640.947 865.88 642.747 866.507 643.653 866.813C641.613 871.453 642.48 877.36 638.36 880.933L641.293 878.56C641.213 879.507 641.04 881.387 640.96 882.333C642.147 877.08 642.573 871.693 644.427 866.613C642.96 866.267 641.427 865.733 640.027 865.4C640.773 859.667 644.933 854.4 642.76 848.48C643.28 848.64 644.307 848.947 644.827 849.107C644.573 846.933 644.413 844.747 644.24 842.6C644.84 841.787 645.467 840.987 646.107 840.2Z"></path>
<path fill="#E8E8E8" d="M378.573 923.987C399.8 900.973 420.787 877.427 437.213 850.64C428.36 874.053 413.227 894.4 397.733 913.813C384.787 929.44 371.693 944.973 358.12 960.067C353.693 961.333 348.8 959.92 344.213 960.08C355.907 948.28 367.12 936.013 378.573 923.987Z"></path>
<path fill="#E8E8E8" d="M847.64 882.64C855.347 873.187 862.227 863.093 869.147 853.067C861.8 871.2 851.08 887.813 839.2 903.28C823.813 924.427 805.933 943.573 788.573 963.08C783.987 962.56 779.387 962.187 774.787 961.84C783.04 953.96 790.973 945.76 798.773 937.44C816.28 920.293 832.04 901.507 847.64 882.64Z"></path>
<path fill="#E8E8E8" d="M1034.43 893.04C1045.75 889.72 1057.99 888.88 1069.53 891.627C1075.24 892.973 1081.59 896.84 1081.81 903.387C1084.2 921.013 1080.25 939.227 1072.28 955.013C1062.55 973.64 1047.87 990.16 1028.97 999.773C1017.35 1006.05 1002.73 1008.4 990.613 1002.12C997.16 1003.45 1003.92 1004 1010.55 1002.77C1003.41 1001.68 995.88 1001.61 989.387 998.067C980.707 993.853 975.6 984.96 972.693 976.12C970.053 967.907 969.173 959.173 969.587 950.573C969.28 947.013 972.787 945.093 974.373 942.333C978.373 936.053 983.64 930.667 987.067 924C999.347 909.32 1016.21 898.747 1034.43 893.04Z"></path>
<path fill="#E8E8E8" d="M652.427 897.693C654.253 896.067 655.027 899.507 653.813 900.547C652.107 902.307 651.093 898.64 652.427 897.693Z"></path>
<path fill="#E8E8E8" d="M636.467 936.907C636.107 934.973 636.8 934.12 638.547 934.333C638.947 936.227 638.253 937.08 636.467 936.907Z"></path>
<path fill="#E8E8E8" d="M390.293 966.773C394.413 965.8 398.6 966.8 402.747 966.96C409.827 967.32 416.893 967.707 423.973 968C422.987 968.787 422 969.6 421.027 970.413C410.8 969.12 400.453 968.587 390.293 966.773Z"></path>
<path fill="#E8E8E8" d="M422.587 970.653C423.64 969.867 424.693 969.093 425.747 968.333C429.253 968.693 432.747 968.96 436.267 969.36C432.44 972.867 427.147 970.533 422.587 970.653Z"></path>
<path fill="#E8E8E8" d="M426.253 973.973C435.12 973.04 443.947 974.6 452.747 975.573C463.573 976.907 474.4 978.307 485.253 979.493C487.413 979.667 488.067 982.293 489.44 983.667C468.653 978.907 447.253 977.52 426.253 973.973Z"></path>
<path fill="#E8E8E8" d="M831.373 996.44C836.36 995.52 841.533 995.56 846.573 996.053C851.08 996.6 855.627 996.667 860.16 996.907C860.347 996.307 860.733 995.08 860.92 994.48L860.533 997C866.307 996.907 872.067 997.533 877.76 998.48C875.667 1001.87 871.227 999.787 868.067 999.8C855.8 999.027 843.68 996.707 831.373 996.44Z"></path>
<path fill="#E8E8E8" d="M876.76 996.04C878.467 995.067 879.387 995.52 879.52 997.413C877.827 998.333 876.907 997.867 876.76 996.04Z"></path>
<path fill="#E8E8E8" d="M861.16 1012.28C861.067 1011.67 860.867 1010.44 860.76 1009.83C864.307 1010.92 869.667 1009.04 872.267 1011.85C868.627 1012.77 864.84 1011.63 861.16 1012.28Z"></path>
<path fill="#E8E8E8" d="M893.64 1014.19C893.587 1013.96 893.48 1013.51 893.427 1013.28C896.48 1013.76 901.573 1012.43 903.493 1014.76C900.293 1015.23 896.8 1014.73 893.64 1014.19Z"></path>
<path fill="#DB302D" d="M914.147 323.027C904.64 307.667 907.453 285.84 920.987 273.733C918.667 280.24 914.68 286.253 914.387 293.347C913.173 306.12 920.56 318.227 930.64 325.533C937.36 330.307 944.387 334.667 951.6 338.68C940.787 326.68 925.867 316.613 922.133 299.907C921.093 292 920.587 282.32 926.72 276.227C924.507 282.907 923.987 290.347 927.053 296.867C931.64 308.013 942.147 314.84 950.693 322.707C963.013 332.893 973.387 345.853 978.813 361.027C979.493 350.413 977.333 339.773 972.72 330.213C968.12 318.56 959.347 307.813 960.107 294.667C960.08 285.2 967.707 276.307 977.32 275.68C972.68 278.493 967.413 281.28 965.4 286.693C961.893 295.4 965.307 305.04 970.827 312.08C978.173 321.253 985.8 330.48 990.427 341.413C993.267 348.133 994.027 355.467 994.56 362.693C998.52 348.827 995.093 333.813 987.653 321.76C984.707 316.573 980.48 312.28 977.52 307.12C988.52 315.093 997.827 326.093 1001.71 339.293C1004.25 349 1004.52 359.253 1003.09 369.16C1002.03 376.333 998.92 382.92 996.013 389.493C1013.72 371.453 1014.77 341.787 1003.25 320.147C1003.59 320.187 1004.28 320.293 1004.63 320.333C1015.23 336.013 1019.15 356.013 1015.21 374.533C1012.33 387.667 1005.27 399.573 996.173 409.36C1008.36 400.853 1018.49 388.267 1021.35 373.413C1023.55 364.133 1023.17 354.56 1023.48 345.107C1031.23 367.28 1025.65 393.68 1009.09 410.48C1003.57 416.907 995.96 420.747 989.24 425.68C1004.2 423.547 1017.08 413.613 1025.44 401.373C1034.63 388.32 1037.96 371.84 1036.77 356.093C1036.52 350.973 1035.2 345.987 1035.01 340.88C1041.88 355.907 1043.75 373.347 1039.64 389.413C1035.2 409.147 1021.67 426.08 1004.63 436.6C996.573 441.613 987.427 444.387 978.347 446.853C999.627 449.347 1021.72 442.307 1038.07 428.56C1045.84 422.013 1050.84 413.093 1056.05 404.547C1048.85 434.28 1020.71 456.587 990.773 460.067C1005.65 462.973 1022.04 460.72 1034.19 451.16C1025.72 461.947 1011.4 464.147 998.6 465.12C986.107 466.133 973.44 464.84 961.387 461.44C955.56 459.84 949.893 457.68 943.973 456.427C962.12 467.773 984.067 475.027 1005.56 471.027C1012.72 469.893 1019.15 466.48 1025.47 463.12C1022 468.027 1017 471.533 1011.97 474.667C1002.72 480.04 992.24 483.747 981.44 483.747C968.04 483.893 955.227 479.347 942.64 475.293C932.373 471.853 920.96 470.973 910.6 474.493C929.747 475.173 943.84 489.96 961.28 495.827C968.707 498.707 976.707 498.733 984.52 499.293C969.307 503.613 953.28 500.253 938.787 494.933C925.933 490.547 911.187 484.88 898.04 491.36C887.16 498.32 884.92 512.4 883.053 524.173C901.573 532.533 917.947 546.547 927.093 564.893C937 583.36 939.413 604.613 939.333 625.267C952.173 616.12 959.573 600.72 974.067 593.707C978.48 591.867 984.667 590.253 988.267 594.48C991.027 597.853 992.187 602.2 994.013 606.12C998.947 618.48 1006.16 629.8 1014.44 640.173C1019.99 646.68 1026.23 653.6 1034.91 655.627C1039.21 656.8 1043.76 655.027 1048.03 656.107C1052.76 659.453 1054.88 665.187 1057.85 669.96C1057.89 660.387 1055.65 649.28 1062.83 641.493C1068.08 634.427 1078.03 635.693 1085.19 638.747C1094.47 642.8 1103.61 647.707 1111.2 654.52C1108.61 664.293 1100.29 671.04 1091.63 675.413C1084.08 668.867 1076.96 661.387 1067.56 657.48C1073.59 664.813 1081.31 670.667 1086.27 678.893C1074.07 688.027 1058.92 692.427 1043.93 694.093C1039.4 694.733 1035.23 692.413 1031.88 689.587C1018.07 678.093 1006.07 664.64 992.947 652.387C987.987 647.907 981.773 643.64 974.72 644.667C969.64 644.787 965.893 648.56 962.4 651.773C954.533 659.44 946.92 667.533 937.773 673.72C918.227 687.213 894.747 696.36 870.68 695C847.76 693.813 825.733 683.84 809.013 668.24C791.32 651.773 781.107 628.733 777.173 605.16C774.293 625.227 780.16 646.2 792.493 662.227C797.147 668.293 802.32 673.987 807.92 679.213C784.72 697.2 757.947 710.027 730.227 719.373C704.547 727.493 677.707 732.72 650.693 732.32C633.44 732.413 616.293 729.773 599.427 726.307C584.4 723.467 569.88 718.467 555.853 712.453C548.92 709.453 542.613 705.24 535.773 702.027C554.053 698.2 571.907 689.24 583.133 673.907C593.027 660.173 599.187 643.72 600.307 626.8C594.64 646.907 583.547 666.027 566.667 678.693C552.813 688.44 535.813 695.587 518.587 693.107C494.413 690.547 473.8 676.44 453.88 663.653C446.373 659.24 438.4 653.787 429.32 654.28C423.813 655.747 420.413 661.013 417.32 665.427C411.84 673.587 408.373 684.92 413.987 693.907C415.84 697.92 420.253 700.8 420.56 705.413C418.787 711.12 414.347 715.373 410.6 719.84C415.293 719.813 420.227 720.133 424.547 717.947C429.747 715.453 436.787 715.573 441 719.907C445.667 724.88 446.387 732.12 446.4 738.613C446.267 749.267 444.107 760.027 439.52 769.667C446.84 779.267 452.347 790.507 453.28 802.693C455.147 820.64 450 838.493 442.947 854.827C432.72 879.533 417.733 901.88 402.24 923.533C393.213 936.28 383.24 948.333 374.72 961.427C395.773 962.6 416.733 965.507 437.56 968.653C437.24 969.413 436.573 970.907 436.253 971.667C452.707 973.013 469.16 974.947 485.387 977.96C473.853 956.547 467.947 932.347 467.44 908.08C466.773 878.893 472.08 849.48 483.493 822.587C485.6 817.16 489.667 812.413 489.987 806.413C490.827 797.08 494.467 786.853 503.267 782.267C507.56 779.667 512.573 781.813 517.2 780.893C522.28 779.947 527.453 780.507 532.44 781.693C541.267 774.347 550.04 766.52 560.747 761.987C578.013 753.707 598.413 753.493 616.493 759.227C637.067 765.253 654.84 780.067 664.88 798.96C673.52 815.187 675.653 833.867 676.253 851.973C676.04 879.147 670.707 906.36 659.72 931.267C661.28 929.733 662.76 928.133 664.267 926.573C661.693 934.667 656.2 941.373 652.547 948.987C653.413 948.507 655.16 947.573 656.027 947.093C654.96 951.627 652.4 955.467 649.547 959.04C646.533 967 640.107 972.947 636.12 980.4C635.453 982.613 634.413 984.72 632.613 986.24C625.12 993.267 618.52 1001.29 610.053 1007.23C592.427 1020.11 570.053 1028 548.08 1024.49C530.48 1021.43 513.733 1013.01 501.107 1000.32C498.12 997.68 495.44 993.84 491.053 993.787L491.64 992.773C488.627 992.747 485.627 992.427 482.64 992.16C483.027 992.88 483.813 994.32 484.2 995.04C477.973 994.16 471.387 997.133 465.347 994.453C460.653 993.96 455.933 993.747 451.213 993.533L452.587 996C458.16 997.56 463.96 998.107 469.573 999.533C462.267 999.653 454.947 998.04 448.12 995.653C447.093 995.373 445.027 994.813 443.987 994.533L445.173 996.8C439.627 996.573 434.08 996.387 428.547 996.48L428.893 995.133C421.467 996.293 413.96 995 406.52 995.733C397.933 997.653 389.253 994.44 380.56 995.52C380.547 995.667 380.52 995.96 380.507 996.12C390.427 996.227 400.107 998.48 409.96 999.187C395.507 1000.52 380.813 998.893 366.413 1001.27C385.907 1002.92 405.547 1002.59 425 1004.8L424.893 1006.37C419.987 1006.49 415.067 1006.16 410.173 1006.49C413.28 1007.67 416.653 1007.6 419.933 1007.72C435.947 1008.75 451.947 1011.03 468.013 1010.88C468.573 1010.47 469.693 1009.63 470.253 1009.2C458.333 1008.68 446.44 1007.75 434.52 1007.27C432.373 1007.11 429.693 1007.76 428.64 1005.17C433.947 1005.37 439.267 1005.65 444.547 1006.35C453.907 1007.95 463.56 1006.73 472.827 1009.16C472.293 1010 470.56 1010.8 471.387 1012.03C473.627 1012.09 475.867 1012.27 478.12 1012.52C479.173 1011.93 480.227 1011.36 481.28 1010.79C480.147 1010.51 477.88 1009.95 476.747 1009.65C488.72 1011.17 500.813 1012.01 512.68 1014.21C502.84 1014.81 493.067 1012.84 483.373 1011.47C482.173 1011.96 481.027 1012.53 479.907 1013.2C481.8 1013.48 485.587 1014.05 487.467 1014.35C485.573 1015.11 483.507 1015.11 481.533 1014.81C461.56 1012.39 441.4 1012.49 421.333 1011.79C390.413 1012.25 359.333 1013.47 328.893 1019.33C324.773 1032.17 311.48 1043.44 297.427 1040.41C288.08 1045.76 277.76 1051.01 266.64 1049.69C254.973 1048.71 245.347 1039.23 242.533 1028.13C240.613 1022.32 241.4 1016.15 240.827 1010.19C235.533 996.373 233.24 980.96 237.12 966.467C239.213 958.64 244.613 951.413 252.387 948.533C263.053 944.16 275.013 946.067 285.547 949.88C296.2 943.36 305.08 934.493 314.747 926.68C332.293 911.387 350.08 896.32 366.44 879.747C386.92 860.04 407.067 839.507 422.147 815.24C427.653 805.867 432.053 794.973 430.56 783.907C429.2 775.613 419.187 773.307 412.093 774.16C392.667 776.493 374.573 785.76 359.467 797.92C348.08 807.267 338.533 819.013 332.693 832.6C328.467 840.88 327.48 851.107 320.307 857.64C314.067 863.213 304.987 863.24 297.253 861.467C285.04 858.787 274.853 849.573 269.64 838.4C263.56 825.88 263.253 811.52 264.907 797.973C266.24 790.427 268.347 782.36 273.96 776.813C276.813 773.827 281.453 776.533 284.52 774.12C300.707 762.48 319.76 755.627 338.813 750.293C359.653 745.053 381.68 742.027 402.88 746.973C395.413 739.32 386.733 731.08 385.507 719.867C383.84 708.32 389.12 697.507 391.293 686.427C393.467 675.533 395.28 664.347 393.84 653.227C393.293 644.653 390.507 635.12 395.333 627.293C400.28 620.347 408.013 615.733 416.013 613.107C422.92 610.72 429.04 615.827 435.067 618.387C455.227 627.347 476.587 634.453 498.68 636.387C489.373 626.24 485.613 612.16 485.6 598.653C485.467 579.68 493.48 560.547 508.053 548.213C514.133 543.453 520.92 539.6 528.147 536.84C513.827 536.493 499.72 543.573 491.027 554.88C481.8 566.573 476.56 581.24 475.667 596.08C475.107 606.027 477.253 615.867 479.88 625.4C475.787 624.133 470.427 624.28 467.533 620.813C461.933 604.853 461.48 587.333 464.027 570.72C466.72 552.84 476.027 536.827 486.787 522.613C498.933 507 512.187 491.347 517.867 472C521.747 456.68 522.773 440.2 517.96 424.973C528.8 418.173 536.907 406.373 536.84 393.253C537.613 380.72 529.76 368.88 518.773 363.307C522.76 368.853 527.507 374.227 528.973 381.107C532.947 394.973 525.773 410.187 514.16 418.053C504.587 424.173 492.547 426.533 481.48 423.507C474.667 432.68 463.573 438.693 452.16 439.293C450.027 435.173 446.48 431.093 441.4 431.36C430.933 431.427 420.28 435.853 412.973 443.36C421.373 439.627 429.293 434 438.773 433.453C442.48 433.12 446.88 433.987 449.027 437.347C449.413 442.493 446.64 447.227 444.787 451.88C441.947 457.8 439.653 464.787 433.747 468.387C427.613 471.013 421.96 465.88 418.053 461.72C425.84 457 434.613 451.2 436.773 441.733C425.56 444.227 418 454.733 406.547 456.653C401.613 456.973 397.227 453.4 394.947 449.28C392.587 445.467 394.92 440.56 392.373 436.867C388.813 431.6 389.267 423.827 393.987 419.427C397.76 416.347 402.587 414.747 406.04 411.24C411.947 405.347 417.427 399.027 423.573 393.387C426.773 390.027 430.707 387.027 432.52 382.64C432.4 377.733 431.2 372.173 434.693 368.067C440.427 361.213 447.533 355.627 454.333 349.88C443.16 350.56 433.227 342.307 430.333 331.787C430.493 331.173 430.8 329.933 430.96 329.32C434.36 339.48 445.32 345.547 455.773 344.147C449.267 343.067 443.8 338.707 439.547 333.893C434.493 328.173 433.173 319.52 436.707 312.693C439.387 321.92 445.613 331.773 456.08 332.827C448.44 325.48 442.88 314.413 447 303.8C447.293 308.72 446.787 314.053 449.613 318.387C453.293 324.387 459.8 329.08 467.067 328.853C464.627 325.04 460.787 322.4 458.253 318.653C453.853 312.4 451.16 304.187 453.68 296.667C454.88 301.56 455.387 306.8 458.093 311.2C460.387 315.2 463.92 318.28 467.613 320.973C462.613 311.293 460.84 299.773 463.693 289.187C464.467 286.133 466.373 283.587 468.373 281.24C469.227 294.053 474.587 306.04 482.4 316.107C478.533 306.72 478.533 296.08 480.88 286.32C482.173 283.613 482.773 278.893 486.453 278.707C492.08 293.453 503.68 304.813 510.093 319.133C513.467 326.333 515.773 333.947 517.853 341.6C521.427 340.293 521.187 336 522.173 332.96C543.933 337.493 564.587 347.907 580.68 363.333C603.667 384.253 618.12 412.973 626.48 442.56C630.107 454.907 632.04 467.653 635.04 480.16C634.4 465.36 632.28 450.64 629.547 436.093C625.147 411.427 615.267 387.147 598.2 368.493C588.48 357.507 576.907 348.16 564.187 340.853C550.773 333.533 536.12 328.6 521.107 325.827C518.36 320.187 514.573 315.16 511.307 309.827C516.347 305.067 520.853 299.627 526.733 295.84C542.72 285.107 563.133 282.213 581.827 285.84C572.307 286.307 562.533 287.187 553.84 291.427C544.787 295.653 534.867 300.72 530.56 310.293C539.853 305.6 548.52 299.373 558.667 296.533C567.36 294.093 576.333 291.987 585.427 292.413C573.68 296.96 560.68 301.067 552.813 311.667C561.147 306.573 570.187 302.493 579.773 300.467C585.72 299.24 591.893 297.333 597.973 298.747C582.28 302.493 566.547 309.813 556.48 322.84C564.88 318.44 572.973 313.373 581.973 310.227C603.88 302.36 629.053 299.72 650.92 309.147C653.88 310.573 657.627 311.893 658.4 315.547C657.653 314.92 656.96 314.267 656.307 313.573C634.2 306.947 609.36 308.613 588.933 319.667C604.013 316.787 619.68 313.187 635 316.427C617.293 316.373 599.253 320.16 584.213 329.8C603.627 323.907 624.28 316.72 644.68 321.92C631.293 322.053 617.507 323.6 605.44 329.84C599.2 332.653 593.747 336.827 588.267 340.853C602.933 336.467 617.68 330.707 633.267 331.413C644.96 331.587 656.387 334.773 666.907 339.787C660.067 338.827 653.48 336.307 646.507 336.307C637.08 336.2 627.133 336.8 618.813 341.707C635.533 338.427 652.907 339.653 669.227 344.4C674.827 346.147 680.373 348.693 684.347 353.147C676.08 350.133 667.707 346.387 658.693 346.907C645.213 346.373 631.653 348.093 618.853 352.387C628.467 350.747 638.147 348.293 647.987 349.36C654.373 350.027 661.053 350.507 666.813 353.627C654.8 353.933 642.44 352.6 630.747 356.16C624.253 358.44 617.707 360.84 611.893 364.6C623.64 361.68 635.8 359.707 647.92 360.987C661.187 362.48 674.44 365.827 686.16 372.36C690.853 375.08 695.667 377.92 699.053 382.267C682.76 372.32 663 367.907 644.053 370.547C657 372.413 669.387 376.867 681.547 381.573C694.733 387.693 708.573 395.867 715.053 409.493C711.573 406.547 708.653 402.973 704.84 400.427C696.507 394.72 686.867 391.44 677.413 388.133C663.573 383.707 648.933 381.347 634.4 382.32C646.773 386.28 659.893 388.093 671.813 393.6C681.533 398.027 690.813 404.12 697.587 412.493C691.573 409.547 686.373 405.133 680.16 402.56C665.587 395.707 649 394.653 633.2 396.44C642.853 404.347 654.413 409.747 666.467 412.827C673.213 414.667 680.253 414.787 687.147 415.747C678.013 419.293 667.947 418.613 658.333 419.133C673.64 425.493 691.2 425.88 706.64 419.76C697.653 428.8 684.36 432.213 671.947 432.6C662.533 433.067 654.16 428.307 646.293 423.787C650.587 430.92 658.813 434.227 666.573 436.027C679.28 438.587 692.533 436.893 704.64 432.48C703.667 433.72 702.68 435.013 701.267 435.773C689.133 442.467 675.213 445.613 661.387 444.733C685.4 453.907 712.48 438.173 735.68 451.107C735.693 451.48 735.733 452.24 735.76 452.613C719.053 446.32 701.573 453.76 684.933 456.493C698.973 459.413 713.013 455.107 727.053 454.987C710.973 460.813 694.627 467.133 677.253 466.933C666.2 466.947 655.133 464.347 645.373 459.107C656.493 471.813 673.707 479.093 690.587 477.787C700.573 476.96 709.973 472.773 717.92 466.8C712.893 476.533 701.947 481.107 691.987 484.107C682.373 487.067 672.267 486.453 662.387 485.707C674.44 491.627 688.813 491.813 701.24 486.907C707.547 484.84 712.8 480.707 718.373 477.253C717.08 482.027 712.853 485.027 709.387 488.2C696.4 498.88 678.653 501.947 662.36 499.253C674.04 505.027 687.747 504.187 700.16 501.573C707.68 500.093 714.067 495.827 720.467 491.88C715.68 498.853 707.52 502.32 699.947 505.373C687.213 509.707 673.307 511.693 660.053 508.773C654.627 507.587 649.987 504.413 645.347 501.533C650.987 510.333 660.92 515.28 670.693 518.053C687.947 522.427 706.227 515.173 718.547 502.987C714.973 510.76 707.667 515.84 700.68 520.28C690.84 525.827 679.227 527.147 668.133 526.173C678.507 530.613 689.84 533.507 701.2 532.44C706.227 532.04 710.813 529.827 715.6 528.4C713.88 529.987 711.88 531.2 709.893 532.387C709.64 532.813 709.147 533.68 708.907 534.107C708.547 533.933 707.813 533.613 707.453 533.44C693.333 538.587 677.293 538.373 663.413 532.6C655.533 529.453 648.573 524.48 641.933 519.28C643.88 528.333 646.267 537.68 652.4 544.907C661.933 557.56 677.96 563.36 693.333 564.213C714.667 565.253 736 559.28 754.547 548.88C762.867 544.227 769.973 537.813 777.72 532.32C798.8 518.813 824.773 514.893 849.4 516.467C855.027 516.613 860.507 518.32 866.147 518.32C870.413 510.013 868.933 500.213 865.693 491.827C861.08 479.667 851.773 469.36 850 456.147C846.92 438.853 857.68 419.387 874.827 414.4C867.587 419.333 860.733 425.853 858.933 434.813C855.52 447.453 862.227 459.627 869.253 469.653C867.6 455.413 866.813 439.733 874.92 427.16C880.787 418.4 890.373 410.747 901.36 410.76C897.853 413.027 893.96 414.72 890.84 417.52C882.693 425.36 878.533 437.427 881.36 448.547C885.147 438.347 890.6 428.64 898.32 420.893C904.013 415.427 910.707 411.013 917.867 407.733C917.84 407.253 917.787 406.307 917.76 405.827C918.08 406 918.733 406.347 919.053 406.507C920.84 406.147 923.333 405.773 923.573 408.213L922.227 406.653C909.627 416.293 895.92 428.44 894.667 445.347C899.373 437.427 905.8 430.747 912.267 424.253C921.067 415.733 931.72 409.36 940.293 400.613C944.44 396.56 946.88 391.16 947.84 385.493C949.827 392.48 945.907 399.333 942.373 405.12C936.08 414.12 928 421.84 922.627 431.493C936.547 424.88 951.507 415.72 956.093 400C960.48 386.467 954.093 371.813 943.773 362.84C930.907 351.187 913.12 347.387 899.84 336.32C887.467 326.427 879.427 308.707 885.827 293.267C884.827 306.427 890.2 320.427 901.293 328.013C907.773 332.387 915.013 336.133 922.867 337.08C916.56 332.853 909.547 329.347 904.6 323.4C897.307 315.347 894.067 303.8 896.2 293.147C897.693 285.32 903.067 278.533 910.013 274.773C906.293 279.667 901.8 284.453 900.787 290.773C898.693 303.027 905.493 314.867 914.147 323.027ZM463.76 368.36C460.467 367.187 456.267 366.72 454.093 370.08C448.533 377.227 446.573 386.507 444.533 395.147C447.307 393.533 448.64 390.533 450.613 388.147C455.853 388.507 461.427 389.96 466.387 387.507C474 383.893 477.173 375.36 483.573 370.293C487.613 367.253 490.693 363.213 493.453 359.04C485.853 366.44 474.427 372.467 463.76 368.36ZM402.387 422.24C404.547 424.453 406.987 426.467 408.613 429.16C407.707 433.107 406 436.787 404.053 440.32C408.827 436.52 411.093 430.707 412.307 424.907C409.2 423.413 405.8 422.613 402.387 422.24ZM422.787 720.2C421.587 722.64 422.693 725.453 422.373 728.067C422.453 737 418.68 745.653 419.733 754.587C422.347 752.587 422.907 749.28 423.787 746.333C425.667 739.08 426.693 731.467 425.547 724C424.92 722.613 425.213 719.107 422.787 720.2ZM578.813 782.933C568.88 786.667 560.64 793.48 552.667 800.293C560.467 811.68 569.533 824.093 568.333 838.667C567.48 851.133 554.933 860.08 542.867 859C531.933 882.44 526.16 908.76 528.813 934.653C530.333 945.867 533.84 957.533 541.84 965.88C556.48 961.72 570.027 954.173 581.293 943.933C599.96 926.92 613.987 905.2 623.573 881.947C631.507 861.613 636.253 839.307 632.507 817.52C630.72 804.853 624.64 792.16 613.813 784.853C603.56 777.947 589.907 778.347 578.813 782.933ZM649.32 791.507C651.027 797.147 654.013 802.293 655.893 807.88C658.72 815.693 660.307 823.88 661.6 832.08C663.013 842.067 662.013 852.147 661.747 862.16C660.52 868.387 657.08 874.347 657.973 880.853C657.333 883.4 656.733 885.96 656.16 888.547C654.067 891.08 652.853 894.12 651.96 897.267C652.813 897.08 654.547 896.707 655.413 896.507C654.92 898.133 654.4 899.733 653.88 901.36C649.64 901.893 649.293 906.213 650.08 909.573C649.213 910.773 648.333 911.973 647.453 913.16C646.053 916.52 644.387 919.747 642.773 923.013L645.733 922.92C644.253 925.267 641.787 927.227 641.613 930.213L640.067 929.96C640.4 930.787 641.067 932.427 641.4 933.253L639.133 932.053C640.787 937.08 636.44 940.72 633.867 944.36C633.907 943.173 633.987 940.8 634.027 939.627C632.827 941.867 630.88 943.813 629.933 946.133C630.427 946.2 631.44 946.36 631.933 946.44C630.92 948.88 629.293 951.013 627.667 953.093C627.68 953.76 627.72 955.08 627.733 955.747C641.48 940.8 651.52 922.773 659.133 904.04C659.613 903.573 660.587 902.64 661.067 902.16C660.84 904.467 660.093 906.667 658.533 908.427C658.173 910.493 657.8 912.52 657.52 914.627C663.093 904.48 668.253 893.707 670.093 882.2L669.12 882.307C666.64 885.96 665.667 890.6 664.32 894.827C664.627 888.933 666.627 883.347 667.453 877.533C668.133 878.32 668.853 879.08 669.64 879.813C669.973 879.8 670.653 879.76 670.987 879.733C673.387 871.627 672.693 863.027 673.573 854.693C673.107 846.96 673.187 839.053 671.08 831.547C670.853 835.4 673.027 840.093 669.947 843.293C669.493 838.32 669.093 833.333 668.333 828.387C669 828.32 670.333 828.2 670.987 828.133C670.267 827.907 668.813 827.453 668.093 827.227C664.84 814.2 659.88 800.387 649.32 791.507ZM646.107 840.2C645.467 840.987 644.84 841.787 644.24 842.6C644.413 844.747 644.573 846.933 644.827 849.107C644.307 848.947 643.28 848.64 642.76 848.48C644.933 854.4 640.773 859.667 640.027 865.4C641.427 865.733 642.96 866.267 644.427 866.613C642.573 871.693 642.147 877.08 640.96 882.333C641.04 881.387 641.213 879.507 641.293 878.56L638.36 880.933C642.48 877.36 641.613 871.453 643.653 866.813C642.747 866.507 640.947 865.88 640.053 865.56C637.627 875.733 634.333 885.707 632.293 895.933C631.333 896.44 629.387 897.48 628.413 898C630.707 897.253 632.907 896.253 635.147 895.373C634.6 896.373 633.493 898.387 632.933 899.387C632.547 898.92 631.773 898 631.373 897.547C630.733 897.96 629.467 898.787 628.827 899.213C629.933 909.48 623.32 918.787 616.933 926.267C616.96 929.027 614.933 931.16 612.24 931.533C612.493 932.267 613.013 933.733 613.267 934.467C611.573 937.053 609.773 939.56 608.08 942.133C611.413 939.867 613.733 936.56 616.2 933.453C630.253 917.28 640.987 898.107 646.64 877.4C651.24 859.533 653.747 840.4 648.933 822.307C646.347 827.84 645.453 834.12 646.107 840.2ZM378.573 923.987C367.12 936.013 355.907 948.28 344.213 960.08C348.8 959.92 353.693 961.333 358.12 960.067C371.693 944.973 384.787 929.44 397.733 913.813C413.227 894.4 428.36 874.053 437.213 850.64C420.787 877.427 399.8 900.973 378.573 923.987ZM652.427 897.693C651.093 898.64 652.107 902.307 653.813 900.547C655.027 899.507 654.253 896.067 652.427 897.693ZM636.467 936.907C638.253 937.08 638.947 936.227 638.547 934.333C636.8 934.12 636.107 934.973 636.467 936.907ZM390.293 966.773C400.453 968.587 410.8 969.12 421.027 970.413C422 969.6 422.987 968.787 423.973 968C416.893 967.707 409.827 967.32 402.747 966.96C398.6 966.8 394.413 965.8 390.293 966.773ZM422.587 970.653C427.147 970.533 432.44 972.867 436.267 969.36C432.747 968.96 429.253 968.693 425.747 968.333C424.693 969.093 423.64 969.867 422.587 970.653ZM426.253 973.973C447.253 977.52 468.653 978.907 489.44 983.667C488.067 982.293 487.413 979.667 485.253 979.493C474.4 978.307 463.573 976.907 452.747 975.573C443.947 974.6 435.12 973.04 426.253 973.973Z"></path>
<path fill="#DB302D" d="M458.853 373.587C463.253 372.907 467.573 374.36 471.747 375.613C470.28 378.427 469.04 381.747 466 383.24C461.973 385.347 457.36 384.027 453.293 382.853C455 379.72 455.867 375.787 458.853 373.587ZM459.333 380.853C461.667 380.733 464.387 381.187 466.013 379.04C463.853 378.227 461.693 377.453 459.52 376.693C459.453 378.08 459.387 379.467 459.333 380.853Z"></path>
<path fill="#DB302D" d="M389.8 556.52C395.72 549.693 403.613 542.627 413.333 543.667C430.187 545.2 444.04 556.427 455.853 567.68C452.8 584.667 453.227 602.493 458.147 619.093C449.24 615.933 439.16 613.52 432.907 605.88C427.373 598.267 423.373 588.867 414.907 583.947C408.667 581.08 401.44 581.92 394.96 583.493C387.053 585.747 379.04 588.773 372.707 594.16C367.413 600.827 365.507 610.24 358.08 615.173C352.427 616.947 346.133 616.427 340.787 619.413C345.36 622.267 351.387 620.04 356.067 622.533C360.76 626.533 365.96 630.88 367.6 637.08C368.747 643.96 364.76 650.187 360.693 655.32C353.093 664.587 343.413 672.24 332.6 677.413C330.573 669.413 328.547 661.293 328 653.04C330.2 649.933 334.293 648.533 337.253 646.12C342.88 641.84 349.32 637.64 352.2 630.907C343.8 635.933 336.027 642 327.067 646.08C326.267 630.627 324.067 614.24 329.973 599.507C333 591.4 341.24 587.48 348.933 584.987C365.013 579.76 378.467 568.76 389.8 556.52Z"></path>
<path fill="#DB302D" d="M957.093 669.093C962.973 664.347 966.987 657.493 973.627 653.68C975.533 658.293 974.693 663.36 975.333 668.2C976.84 683.867 985.053 698.293 996.173 709.187C1000.6 713.2 1005.59 717.413 1011.8 717.96C1015.4 718.52 1019.37 717.933 1022.68 719.747C1026.97 722.693 1027.79 728.227 1027.97 733.053C1031.21 728.293 1034.09 723.293 1036.65 718.133C1038.73 714.293 1041.01 709.867 1045.37 708.293C1050.93 706.24 1056.76 709.027 1061.55 711.773C1068.6 716.093 1075.96 720.253 1081.8 726.213C1085.79 730.307 1083.39 737.52 1078.53 739.787C1073.17 742.373 1067.21 743.96 1061.27 744.333C1055.55 739.52 1050.89 733.107 1043.92 729.747C1048.35 735.093 1052.4 741.173 1053.09 748.28C1044.64 752.867 1034.81 754.347 1025.28 753.8C1019.12 753.373 1012.88 753.853 1006.79 752.72C1001.73 750.773 998.907 745.8 995.453 741.947C986.387 730.2 976.907 718.6 965.347 709.187C958.133 703.107 949.147 698.56 939.6 698.147C927.427 711.053 913.013 722.04 896.56 728.947C880.013 736.573 861.013 737.24 843.347 733.733C822.973 729.067 805.093 717.013 790.427 702.44C798.973 696.893 807.027 690.627 815.507 684.987C834.08 697.293 856.267 704.68 878.707 703.453C907.8 701.64 935.893 689.04 957.093 669.093Z"></path>
<path fill="#DB302D" d="M1040.09 756.293C1066.24 748.827 1093.8 743.053 1121.01 747.56C1086.6 751.813 1055.53 770.027 1029.76 792.48C1003.43 814.96 981.88 844.653 974.613 878.973C992 869.693 1010.75 862.053 1030.6 860.64C1050.71 858.933 1072.35 861.533 1089.32 873.227C1094.17 876.773 1098.71 881 1101.61 886.347C1103.23 889.6 1107.17 890.493 1109.48 893.16C1120.69 906.653 1127.65 923.64 1128.55 941.227C1129.59 958.48 1125.35 975.707 1118.32 991.387C1114.67 998.733 1110.93 1006.27 1105.12 1012.19C1106.51 1008.79 1108.61 1005.76 1110.61 1002.72C1109.53 1002.99 1107.39 1003.53 1106.31 1003.8C1110.03 999.24 1112.76 993.907 1114.29 988.227C1109.64 994.56 1105.68 1001.56 1099.71 1006.79C1105.11 998.667 1109.09 989.52 1110.55 979.84C1108.67 984.2 1106.48 988.533 1103.09 991.947C1098.09 996.827 1094 1002.67 1088.31 1006.8C1099.57 993.627 1106.49 976.787 1107.71 959.52C1104.43 970.147 1099.67 980.28 1093.55 989.573C1092.6 991.147 1091.13 992.253 1089.55 993.12C1088.56 994.693 1087.59 996.267 1086.69 997.907C1077.77 1007.57 1067.43 1015.79 1056.01 1022.32C1063.23 1019.84 1069.92 1016.17 1076.44 1012.25C1074.8 1016.29 1070.64 1018.24 1067.48 1020.89C1059.41 1027.71 1049.53 1031.77 1039.85 1035.69C1051.27 1034.07 1061.71 1029.07 1072.52 1025.47C1069.71 1027.96 1066.84 1031.29 1062.84 1031.51L1063.57 1032.63C1061.04 1033.72 1058.48 1034.75 1055.84 1035.51C1055.33 1036.83 1054.8 1038.15 1054.23 1039.47C1053.88 1039.28 1053.19 1038.89 1052.84 1038.69C1040.23 1044.27 1026.56 1046.41 1013.07 1048.68C1021.88 1049.52 1030.53 1047.56 1039.25 1047C1031.15 1050.41 1022.28 1050.47 1013.76 1051.95C1017.37 1052.48 1021.11 1052.61 1024.76 1053.07C1020.31 1054.96 1015.33 1054.31 1010.64 1054.23C987.427 1053.69 964.16 1045.81 946.067 1031.13C940.96 1027.32 937.147 1022 931.92 1018.4C923.653 1017.95 915.907 1014.92 907.787 1013.72C915.907 1013.29 923.533 1016.73 931.56 1017.44C926.6 1011.11 921.787 1004.64 917.72 997.68C914.373 997.947 909.813 996 907.947 1000.09L908.72 996.907C906.88 996.827 905.053 996.733 903.253 996.64L905.173 998.347C897.68 999.707 890.16 997.387 882.773 996.387C882.973 997.28 883.4 999.08 883.613 999.973C887.213 1001.6 891.307 1001.59 894.893 1003.28C889.147 1003.11 883.747 1000.93 878.347 999.213C874.987 1001.69 870.573 1000.63 866.707 1000.71C856.44 1000.48 846.347 997.507 836.08 998.627C829.28 998.36 822.48 998.04 815.68 998.293C820.013 1000.15 824.907 999.347 829.44 1000.44C837.72 1002.35 846.253 1002.25 854.627 1003.57C855.613 1002.52 857.413 1000.72 856.973 1003.55C862.907 1004.31 868.92 1004.35 874.84 1005.32C868.547 1006.01 862.387 1004.03 856.107 1004.16C848.453 1004.44 840.947 1002.67 833.373 1001.97C821.24 1002.52 809.067 1001.52 796.96 1002.67C802.293 1003.84 807.8 1003.75 813.24 1004.15C826.693 1004.8 840.12 1005.97 853.547 1007.17C855.12 1007.23 856.547 1008.04 857.907 1008.76C852.2 1009.47 846.453 1008.61 840.733 1008.96C846.653 1010.45 852.853 1010.04 858.813 1011.37C859.533 1010.25 860.213 1009.11 860.907 1007.97C872.333 1009.41 883.84 1010.12 895.28 1011.41L894.973 1012.77C898.107 1012.51 901.28 1012.51 904.44 1012.59C904.427 1013.41 904.387 1015.08 904.36 1015.91C908.893 1016.24 913.44 1016.8 917.8 1018.15C906.493 1018.73 895.333 1015.67 884 1015.99C886.147 1014.09 888.667 1013.17 891.6 1014.2C891.373 1013.55 890.92 1012.24 890.693 1011.59C885.373 1011.91 880.12 1010.87 874.88 1010.23C874.76 1010.68 874.533 1011.56 874.413 1012C877.187 1014.25 881.893 1012.45 885.267 1013.35C884.28 1014.08 883.293 1014.81 882.32 1015.57C841.253 1012.92 799.773 1014.03 759.187 1021.11C755.387 1030.8 747.453 1039.04 737.347 1042.04C732.893 1043.35 727.853 1041.25 723.747 1043.77C715.013 1048.81 704.867 1052.85 694.613 1050.95C682.2 1048.95 672.573 1037.73 671.107 1025.45C670.013 1019.72 672.067 1013.6 669.44 1008.17C663.987 993.387 662.32 976.013 669.427 961.493C674.72 950.933 687.493 946.653 698.653 947.413C705.107 947.427 711.08 950.28 717.32 951.253C736.32 938.44 752.947 922.507 770.467 907.8C798.88 881.613 827.32 854.853 849.52 823.013C856.6 813.093 861.96 801.587 862.893 789.32C862.96 784.88 862.2 779.12 857.573 777.12C850.253 773.987 841.96 774.987 834.493 777.04C804.333 785.76 776.133 806.24 763.68 835.747C759.88 843.733 758.373 853.333 751.293 859.307C743.853 865.28 733.253 864.787 724.733 861.627C713.747 857.827 704.92 848.947 700.427 838.307C695.027 825.693 694.107 811.467 696.133 797.987C697.6 790.853 699.667 783.147 705.333 778.133C708.387 775.107 713.32 777.68 716.547 774.96C738.373 760.467 763.693 751.787 789.48 747.72C808.707 744.733 829.013 745.24 847.227 752.667C868.827 761.573 884.613 783.387 885.893 806.787C887.12 826.347 880.48 845.373 872.32 862.84C863.16 882.973 850.6 901.253 838.347 919.573C828.293 934.547 816.32 948.107 806.32 963.12C827.12 964.947 847.867 967.72 868.413 971.493C852.587 971.32 836.8 967.613 820.933 968.773C824.467 969.907 828.213 970.027 831.88 970.453C843.973 971.68 855.973 973.64 868.08 974.707C867.027 975.44 865.987 976.173 864.947 976.92C862.32 976.733 859.72 976.68 857.107 976.827C876.053 981.013 895.413 982.947 914.453 986.627C914.133 985.987 913.493 984.693 913.187 984.04C897.733 981.253 882.2 978.72 866.56 977.32C867.6 976.547 868.667 975.773 869.733 975.027C884.053 977.067 898.387 979.08 912.587 981.88C903.427 957.493 903.587 930.627 908.187 905.267C912.96 880.08 922.547 855.653 937.347 834.627C961.987 798.373 998.48 770.227 1040.09 756.293ZM847.64 882.64C832.04 901.507 816.28 920.293 798.773 937.44C790.973 945.76 783.04 953.96 774.787 961.84C779.387 962.187 783.987 962.56 788.573 963.08C805.933 943.573 823.813 924.427 839.2 903.28C851.08 887.813 861.8 871.2 869.147 853.067C862.227 863.093 855.347 873.187 847.64 882.64ZM1034.43 893.04C1016.21 898.747 999.347 909.32 987.067 924C983.64 930.667 978.373 936.053 974.373 942.333C972.787 945.093 969.28 947.013 969.587 950.573C969.173 959.173 970.053 967.907 972.693 976.12C975.6 984.96 980.707 993.853 989.387 998.067C995.88 1001.61 1003.41 1001.68 1010.55 1002.77C1003.92 1004 997.16 1003.45 990.613 1002.12C1002.73 1008.4 1017.35 1006.05 1028.97 999.773C1047.87 990.16 1062.55 973.64 1072.28 955.013C1080.25 939.227 1084.2 921.013 1081.81 903.387C1081.59 896.84 1075.24 892.973 1069.53 891.627C1057.99 888.88 1045.75 889.72 1034.43 893.04ZM831.373 996.44C843.68 996.707 855.8 999.027 868.067 999.8C871.227 999.787 875.667 1001.87 877.76 998.48C872.067 997.533 866.307 996.907 860.533 997L860.92 994.48C860.733 995.08 860.347 996.307 860.16 996.907C855.627 996.667 851.08 996.6 846.573 996.053C841.533 995.56 836.36 995.52 831.373 996.44ZM876.76 996.04C876.907 997.867 877.827 998.333 879.52 997.413C879.387 995.52 878.467 995.067 876.76 996.04ZM861.16 1012.28C864.84 1011.63 868.627 1012.77 872.267 1011.85C869.667 1009.04 864.307 1010.92 860.76 1009.83C860.867 1010.44 861.067 1011.67 861.16 1012.28ZM893.64 1014.19C896.8 1014.73 900.293 1015.23 903.493 1014.76C901.573 1012.43 896.48 1013.76 893.427 1013.28C893.48 1013.51 893.587 1013.96 893.64 1014.19Z"></path>
</g>
<defs>
<clipPath id="clip0_1_66">
<rect fill="white" height="1365.33" width="1365.33"></rect>
</clipPath>
</defs>
</svg>
