<?xml version="1.0" standalone="no"?><!DOCTYPE svg PUBLIC "-//W3C//DTD SVG 1.1//EN" "http://www.w3.org/Graphics/SVG/1.1/DTD/svg11.dtd"><svg height="1024" node-id="1" sillyvg="true" template-height="1024" template-width="1024" version="1.1" viewBox="0 0 1024 1024" width="1024" xmlns="http://www.w3.org/2000/svg" xmlns:xlink="http://www.w3.org/1999/xlink"><defs node-id="84"></defs><path d="M 0.00 0.00 L 1024.00 0.00 L 1024.00 1024.00 L 0.00 1024.00 Z" fill="#ffffff" fill-rule="nonzero" node-id="86" stroke="none" target-height="1024" target-width="1024" target-x="0" target-y="0"></path><path d="M 472.48 348.84 C 498.13 337.35 528.24 340.10 553.42 351.43 C 568.72 358.65 581.97 369.41 596.43 378.09 C 591.22 401.85 609.93 429.97 635.77 427.03 C 656.92 425.11 666.92 402.36 668.31 383.71 C 678.47 393.55 687.46 404.47 696.80 415.10 C 685.76 416.37 673.20 415.77 664.59 424.00 C 654.11 432.21 647.89 448.49 655.94 460.35 C 667.39 475.72 687.71 477.93 704.72 483.36 C 677.96 508.35 643.38 523.21 608.20 531.86 C 556.32 544.04 502.11 546.12 449.54 537.25 C 403.78 529.90 356.96 516.14 321.55 484.87 C 340.70 482.92 361.81 480.77 376.87 467.52 C 385.13 460.76 387.50 447.57 380.72 439.02 C 374.50 431.39 366.90 424.60 363.49 415.07 L 367.43 413.81 C 378.63 427.03 397.69 433.72 414.10 426.34 C 433.35 419.08 441.71 396.45 437.80 377.30 C 448.18 366.57 458.44 354.87 472.48 348.84 Z M 490.18 432.46 C 494.12 442.08 503.75 447.13 509.43 455.37 C 509.65 469.38 492.96 476.04 481.03 474.71 C 470.40 473.73 465.57 463.54 458.88 456.82 C 458.81 458.84 458.66 462.88 458.59 464.90 C 467.65 487.33 500.56 485.47 513.72 467.74 C 521.01 477.05 532.40 483.07 544.46 482.03 C 557.90 482.06 574.53 470.64 570.80 455.59 C 565.03 462.41 560.33 471.52 551.02 473.99 C 538.05 478.75 522.46 471.43 517.41 458.68 C 519.12 447.70 534.61 442.72 533.66 431.61 C 520.00 427.16 503.81 427.82 490.18 432.46 Z" fill="#fdfdfd" fill-rule="nonzero" node-id="88" stroke="none" target-height="208.767" target-width="383.17203" target-x="321.551" target-y="337.353"></path><path d="M 437.17 580.17 C 469.95 571.46 504.22 570.48 537.96 569.85 C 564.37 569.88 591.79 569.88 616.53 580.48 C 634.51 587.24 655.47 605.22 645.72 626.49 C 630.44 658.55 604.03 683.51 584.97 713.24 C 573.58 728.95 561.94 745.80 544.58 755.39 C 525.33 765.11 501.16 758.64 487.25 742.83 C 467.68 721.69 452.85 696.76 434.30 674.77 C 422.40 659.53 408.77 645.39 399.96 628.04 C 396.24 620.84 394.13 611.22 399.43 604.28 C 408.45 591.81 422.94 584.90 437.17 580.17 Z" fill="#fdfdfd" fill-rule="nonzero" node-id="90" stroke="none" target-height="195.26202" target-width="261.33798" target-x="394.12704" target-y="569.85"></path><path d="M 427.36 881.77 L 429.12 880.22 L 431.68 881.68 L 431.43 884.58 L 428.65 885.75 C 428.33 884.77 427.67 882.78 427.36 881.77 Z" fill="#fdfdfd" fill-rule="nonzero" node-id="92" stroke="none" target-height="5.5219727" target-width="4.322998" target-x="427.355" target-y="880.224"></path><path d="M 425.59 894.01 C 423.19 889.69 430.73 886.41 433.76 889.06 C 437.07 893.54 428.59 897.29 425.59 894.01 Z" fill="#fdfdfd" fill-rule="nonzero" node-id="94" stroke="none" target-height="10.885986" target-width="13.884003" target-x="423.19" target-y="886.409"></path><path d="M 532.65 902.94 C 533.19 897.71 541.62 899.66 542.53 903.83 C 541.68 908.75 533.25 907.33 532.65 902.94 Z" fill="#fdfdfd" fill-rule="nonzero" node-id="96" stroke="none" target-height="11.044983" target-width="9.877014" target-x="532.654" target-y="897.705"></path><path d="M 694.97 154.90 C 700.37 147.68 706.52 141.14 712.99 134.90 C 698.54 161.88 676.32 183.77 653.48 203.72 C 652.37 204.10 650.10 204.85 649.00 205.23 C 664.59 188.70 681.12 172.95 694.97 154.90 Z" fill="#351a22" fill-rule="nonzero" node-id="98" stroke="none" target-height="70.33598" target-width="63.99402" target-x="648.997" target-y="134.896"></path><path d="M 634.39 867.57 C 636.34 870.47 637.79 873.66 638.74 877.13 C 640.73 877.13 644.67 877.10 646.63 877.10 C 645.94 878.87 645.24 880.70 644.61 882.56 C 642.81 882.15 639.18 881.30 637.38 880.86 C 636.75 888.21 635.97 899.44 647.13 896.95 C 645.18 902.69 638.14 901.52 634.61 898.40 C 629.81 892.47 636.53 880.45 625.87 880.00 C 627.32 879.28 630.16 877.79 631.58 877.07 C 632.27 874.70 633.69 869.94 634.39 867.57 Z" fill="#351a22" fill-rule="nonzero" node-id="100" stroke="none" target-height="35.12097" target-width="21.268005" target-x="625.867" target-y="867.57"></path><path d="M 649.50 364.68 C 659.03 361.97 663.16 376.32 654.99 380.68 C 646.85 381.37 641.80 368.69 649.50 364.68 Z" fill="#ffffff" fill-rule="nonzero" node-id="102" stroke="none" target-height="19.406006" target-width="21.362976" target-x="641.802" target-y="361.966"></path><path d="M 600.94 882.53 C 604.60 874.10 615.14 877.32 621.64 880.03 C 620.76 887.10 627.03 900.99 616.46 901.33 C 616.18 894.58 616.37 887.83 614.89 881.27 C 611.38 881.58 604.41 882.21 600.94 882.53 Z" fill="#341922" fill-rule="nonzero" node-id="104" stroke="none" target-height="27.231995" target-width="26.095947" target-x="600.939" target-y="874.102"></path><path d="M 316.60 134.77 C 329.06 148.40 340.26 163.11 353.01 176.45 C 361.44 185.48 370.84 193.65 377.97 203.81 C 353.04 185.89 331.87 162.70 315.24 136.95 L 316.60 134.77 Z" fill="#311922" fill-rule="nonzero" node-id="106" stroke="none" target-height="69.043" target-width="62.731995" target-x="315.24" target-y="134.77"></path><path d="M 463.52 866.06 C 466.36 861.35 475.86 865.77 471.53 870.69 C 468.50 874.39 460.20 870.79 463.52 866.06 Z" fill="#311922" fill-rule="nonzero" node-id="108" stroke="none" target-height="13.031982" target-width="15.652008" target-x="460.20398" target-y="861.354"></path><path d="M 481.44 868.26 C 486.81 866.62 488.70 868.26 487.06 873.19 C 481.72 874.67 479.86 873.03 481.44 868.26 Z" fill="#311922" fill-rule="nonzero" node-id="110" stroke="none" target-height="8.045898" target-width="8.834991" target-x="479.86298" target-y="866.6241"></path><path d="M 381.88 876.50 C 392.30 876.50 402.71 876.56 413.12 876.50 C 413.91 884.14 414.23 891.87 414.04 899.60 C 412.81 899.09 410.38 898.05 409.15 897.55 C 408.20 891.02 412.02 876.88 400.75 880.86 C 398.48 886.76 404.48 898.78 394.98 899.35 C 394.98 893.45 395.11 887.61 395.23 881.77 C 392.96 881.33 388.45 880.45 386.18 880.00 C 385.83 885.71 385.64 891.52 385.55 897.29 C 384.35 897.23 381.95 897.14 380.72 897.07 C 380.91 890.16 381.25 883.32 381.88 876.50 Z" fill="#311922" fill-rule="nonzero" node-id="112" stroke="none" target-height="23.098999" target-width="33.510986" target-x="380.717" target-y="876.5"></path><path d="M 423.00 878.46 C 427.55 877.48 432.44 876.03 436.98 878.17 C 441.11 884.17 439.16 891.87 439.79 898.75 C 434.01 898.46 428.21 898.94 422.56 898.12 C 417.16 892.97 423.38 884.74 423.00 878.46 Z M 427.36 881.77 C 427.67 882.78 428.33 884.77 428.65 885.75 L 431.43 884.58 L 431.68 881.67 L 429.12 880.22 L 427.36 881.77 Z M 425.59 894.01 C 428.59 897.29 437.07 893.54 433.76 889.06 C 430.73 886.41 423.19 889.69 425.59 894.01 Z" fill="#311922" fill-rule="nonzero" node-id="114" stroke="none" target-height="22.909058" target-width="23.950073" target-x="417.16296" target-y="876.027"></path><path d="M 529.28 881.14 C 532.53 874.92 540.76 878.24 546.38 877.35 C 547.67 882.81 546.76 888.11 544.27 893.22 C 541.90 889.85 538.02 885.34 542.78 881.27 C 536.76 880.07 533.13 882.27 531.99 887.96 C 536.79 889.69 538.78 895.72 544.17 896.41 C 548.68 896.60 549.47 903.10 547.64 906.29 C 544.83 913.45 534.99 913.29 529.75 909.03 C 529.06 899.73 529.15 890.38 529.28 881.14 Z M 532.65 902.94 C 533.25 907.33 541.68 908.75 542.53 903.83 C 541.62 899.66 533.19 897.71 532.65 902.94 Z" fill="#311922" fill-rule="nonzero" node-id="116" stroke="none" target-height="38.528015" target-width="20.416016" target-x="529.057" target-y="874.923"></path><path d="M 480.87 877.67 C 482.26 877.89 485.04 878.30 486.43 878.52 C 486.27 885.40 486.20 892.31 486.11 899.22 C 484.75 899.00 482.07 898.59 480.75 898.37 C 480.84 891.43 480.84 884.51 480.87 877.67 Z" fill="#311922" fill-rule="nonzero" node-id="118" stroke="none" target-height="21.55194" target-width="5.6799927" target-x="480.746" target-y="877.668"></path><path d="M 598.63 893.35 C 597.94 886.63 606.90 886.16 610.88 883.32 C 609.24 886.06 605.99 891.52 604.38 894.27 C 607.22 896.44 610.18 898.49 613.06 900.77 C 606.84 903.38 599.80 899.50 598.63 893.35 Z" fill="#311922" fill-rule="nonzero" node-id="120" stroke="none" target-height="20.06903" target-width="15.115051" target-x="597.941" target-y="883.316"></path><path d="M 374.41 367.11 C 377.50 363.64 385.89 363.99 385.89 369.95 C 387.31 376.70 384.41 385.19 376.77 386.39 C 366.77 385.38 366.77 371.37 374.41 367.11 Z" fill="#fffffe" fill-rule="nonzero" node-id="122" stroke="none" target-height="22.750977" target-width="20.542053" target-x="366.76996" target-y="363.638"></path><path d="M 286.31 139.94 C 291.42 126.75 300.47 109.78 317.32 112.24 C 357.75 117.19 388.57 146.82 424.07 163.99 C 478.54 142.82 540.70 140.35 595.99 159.98 C 601.73 161.66 607.25 164.91 613.37 164.87 C 639.72 146.67 664.77 125.24 695.45 114.48 C 705.64 111.36 718.70 109.94 727.10 117.95 C 734.92 125.75 738.93 136.38 742.56 146.63 C 756.54 190.28 756.44 237.35 747.70 282.04 C 762.34 310.50 776.16 340.07 780.52 372.19 C 792.70 370.99 805.04 366.54 817.31 369.54 C 811.44 382.73 793.24 378.78 781.53 381.56 C 782.16 392.32 782.57 403.14 782.16 413.97 C 803.96 412.96 825.80 408.16 847.63 410.94 C 847.67 412.93 847.79 416.87 847.86 418.86 C 825.58 421.64 802.95 421.79 780.52 423.31 C 779.35 432.71 777.52 442.05 774.96 451.20 C 791.75 452.78 808.60 454.42 825.01 458.56 C 824.70 460.61 824.03 464.68 823.69 466.73 C 806.39 464.33 789.29 460.54 771.87 459.31 C 766.95 470.17 761.33 480.74 754.55 490.55 C 764.14 494.69 778.25 493.74 783.83 503.84 C 771.75 505.00 760.54 499.58 749.18 496.42 C 736.06 511.00 721.48 524.25 705.07 535.08 C 712.93 549.78 722.71 563.41 730.12 578.40 C 725.52 574.84 720.34 572.37 714.95 570.42 C 718.99 579.66 723.88 589.03 722.80 599.54 C 712.55 580.04 702.92 560.23 692.13 541.04 C 656.19 553.76 617.85 558.24 579.86 558.80 C 578.03 558.65 574.40 558.36 572.57 558.21 C 585.07 556.28 597.63 554.58 610.00 551.93 C 654.46 542.65 701.85 527.44 730.35 489.67 C 722.30 487.52 714.25 485.25 706.96 481.18 C 716.87 480.14 727.88 486.01 737.07 481.18 C 741.36 474.11 745.55 466.98 749.06 459.47 L 749.28 457.74 C 738.45 457.07 727.63 456.50 716.87 455.40 C 716.81 454.01 716.71 451.20 716.68 449.78 C 723.18 449.94 729.72 450.04 736.25 450.13 C 741.83 450.13 747.42 450.16 753.03 450.22 C 755.62 441.96 758.21 433.72 760.73 425.45 C 752.43 426.24 744.20 427.25 735.96 428.48 C 728.33 429.37 720.75 430.50 713.15 431.58 C 711.79 430.19 709.08 427.41 707.75 425.99 C 725.04 421.01 742.94 418.67 760.64 415.67 C 761.62 405.86 762.50 396.08 763.23 386.29 C 746.44 389.01 730.19 394.85 713.05 395.10 C 715.04 391.06 718.36 388.06 722.87 387.24 C 735.74 383.36 748.87 380.39 761.71 376.29 C 757.39 347.42 745.27 320.72 734.10 294.06 C 729.75 284.85 730.72 274.53 732.59 264.90 C 739.56 227.57 736.94 188.32 725.77 152.09 C 722.87 143.86 719.52 135.81 715.74 127.99 L 712.49 124.39 C 692.73 127.92 677.11 141.30 661.30 152.66 C 646.41 163.39 632.59 175.82 616.59 184.94 C 609.65 184.59 603.21 181.69 596.71 179.58 C 588.16 176.55 579.48 173.80 570.68 171.66 C 560.58 169.29 550.33 167.59 540.04 166.42 C 522.97 164.75 505.77 165.31 488.73 166.64 C 478.10 167.49 467.52 168.60 457.05 170.40 C 448.06 171.91 439.22 174.28 430.64 177.31 C 424.64 178.44 418.43 183.27 412.43 181.38 C 385.23 165.57 360.08 146.38 332.82 130.73 C 325.59 127.48 317.13 120.95 309.25 125.81 C 290.47 170.52 287.22 221.64 298.55 268.69 C 301.89 281.72 295.33 294.09 290.53 305.83 C 280.50 328.55 272.48 352.25 268.16 376.77 C 285.17 383.39 305.30 383.90 319.72 395.98 C 307.67 395.79 295.87 393.20 284.32 389.99 C 278.48 388.47 272.61 387.12 266.74 385.76 C 266.17 395.82 266.08 405.92 266.58 416.02 C 271.03 416.71 275.51 417.44 279.99 418.20 C 291.32 419.93 302.56 422.43 314.04 423.31 C 313.19 425.14 311.49 428.80 310.63 430.63 C 305.71 429.84 300.79 429.08 295.87 428.58 C 286.08 427.32 276.27 426.56 266.46 426.02 C 268.70 433.82 270.91 441.64 273.08 449.50 C 277.12 449.53 281.19 449.59 285.26 449.69 C 291.13 449.85 297.06 450.07 302.90 450.82 L 303.91 454.96 C 294.86 455.87 285.83 456.85 276.81 458.02 L 278.73 461.14 C 282.77 468.21 286.59 475.47 291.20 482.25 L 292.93 484.68 C 300.88 484.27 308.77 483.04 316.69 482.06 L 319.34 483.61 C 311.96 486.32 304.45 488.56 296.78 490.36 C 320.76 523.59 360.05 541.58 399.11 550.07 C 411.99 553.00 425.34 553.76 437.93 557.99 C 404.16 561.17 368.95 558.39 337.77 544.10 C 332.12 557.48 325.65 570.51 319.09 583.48 C 308.99 601.03 300.22 619.36 293.25 638.36 C 285.52 660.70 282.68 684.30 278.80 707.52 C 275.83 731.22 278.64 758.04 296.21 775.84 C 315.68 796.67 346.16 798.78 372.80 801.62 C 365.66 753.40 342.22 707.40 347.71 657.63 C 355.16 704.37 379.64 746.27 386.46 793.13 C 387.88 800.86 389.71 809.57 396.59 814.46 C 409.94 824.53 429.91 824.91 443.76 815.57 C 452.98 809.16 454.97 797.11 455.06 786.66 C 455.34 751.13 445.59 716.11 430.32 684.24 C 462.13 714.56 472.61 762.14 468.72 804.71 C 505.36 808.25 542.37 810.05 578.91 804.49 C 573.87 775.05 580.55 744.95 591.88 717.75 C 598.48 703.36 608.86 690.77 622.08 682.03 C 604.47 711.72 593.59 745.70 593.37 780.38 C 593.24 792.41 596.21 805.47 605.86 813.52 C 622.93 828.35 651.33 818.06 661.59 800.14 C 669.13 749.05 691.63 701.53 697.75 650.12 C 704.60 686.38 692.95 722.67 686.83 758.20 C 684.18 772.40 682.16 786.73 680.08 801.02 C 724.98 793.23 755.37 745.80 751.74 701.81 C 751.36 694.71 750.82 687.61 750.19 680.61 C 760.51 690.48 756.25 706.48 763.70 718.00 C 764.84 704.21 763.10 689.95 768.65 676.92 L 769.25 681.30 C 769.57 691.05 770.04 700.83 769.66 710.62 C 769.06 722.04 766.60 733.24 763.95 744.35 C 763.04 746.53 761.14 750.85 760.20 752.99 C 758.49 756.72 756.82 760.47 755.18 764.26 C 778.15 769.91 801.63 772.84 825.07 775.78 C 801.44 774.48 777.93 770.54 754.99 764.83 C 751.87 769.25 748.80 773.73 745.78 778.21 C 756.22 779.82 766.63 782.25 776.04 787.33 C 763.19 793.83 748.71 790.01 735.14 791.97 C 723.69 798.15 714.19 807.84 701.51 811.72 C 689.48 816.61 675.57 814.68 664.17 821.31 C 655.31 826.45 645.40 829.26 635.30 830.75 C 626.43 831.76 617.13 832.39 608.54 829.58 C 600.05 826.26 591.57 821.31 582.10 822.64 C 561.05 824.15 540.01 825.86 518.90 825.89 C 497.53 826.77 475.98 825.41 454.87 829.29 C 434.64 832.48 413.31 835.32 393.24 830.49 C 386.08 826.20 379.93 819.04 371.00 818.91 C 350.17 817.34 329.31 814.37 309.65 807.05 C 291.70 800.01 271.82 801.40 253.74 794.84 C 262.86 789.60 273.68 790.39 283.84 789.79 C 279.46 784.46 275.04 779.15 271.19 773.50 C 266.74 764.48 263.65 754.89 261.56 745.11 C 261.15 743.12 260.37 739.08 259.96 737.06 C 259.51 720.71 260.02 704.27 262.92 688.15 C 263.14 686.82 263.58 684.11 263.77 682.78 C 272.33 630.37 300.00 584.24 326.19 539.05 C 307.76 529.30 292.74 514.57 278.80 499.32 C 268.79 501.22 258.92 504.85 248.63 503.58 C 253.68 495.44 264.75 495.89 272.77 492.26 C 265.42 482.19 260.02 470.96 255.00 459.60 C 237.52 459.98 220.58 465.31 203.09 465.24 C 203.57 461.24 205.24 457.23 209.85 457.17 C 223.70 454.04 237.90 452.94 252.07 452.31 C 249.64 442.84 248.12 433.19 246.86 423.53 C 224.93 421.13 202.87 420.31 181.01 417.88 C 181.01 416.05 181.01 412.36 181.04 410.53 C 202.68 407.72 224.36 413.27 246.01 414.25 C 246.04 403.14 246.80 392.07 247.46 380.99 C 233.17 378.37 217.89 378.34 204.55 372.19 C 204.45 370.52 204.20 367.17 204.07 365.50 C 219.75 365.91 234.84 370.86 250.46 371.84 C 255.79 340.41 266.30 309.30 284.00 282.61 C 272.01 236.19 269.36 185.48 286.31 139.94 Z" fill="#321922" fill-rule="nonzero" node-id="124" stroke="none" target-height="725.542" target-width="666.85004" target-x="181.00598" target-y="109.77899"></path><path d="M 564.43 887.54 C 561.40 873.19 582.29 862.77 591.66 874.16 C 585.13 875.14 576.33 871.74 572.16 878.52 C 567.08 884.17 570.96 894.99 578.85 895.40 C 583.27 895.31 587.72 895.18 592.17 894.93 C 585.79 905.66 565.50 900.04 564.43 887.54 Z" fill="#321922" fill-rule="nonzero" node-id="126" stroke="none" target-height="42.882996" target-width="30.765991" target-x="561.401" target-y="862.774"></path><path d="M 301.92 184.69 C 304.86 169.39 303.19 151.72 313.82 139.09 C 305.33 179.07 301.10 222.68 317.29 261.27 C 316.25 262.88 314.20 266.04 313.16 267.62 C 303.79 241.14 297.00 212.84 301.92 184.69 Z" fill="#c0794d" fill-rule="nonzero" node-id="128" stroke="none" target-height="128.524" target-width="20.28897" target-x="297.002" target-y="139.093"></path><path d="M 309.25 125.81 C 317.13 120.95 325.59 127.48 332.82 130.73 C 360.08 146.38 385.23 165.57 412.43 181.38 C 418.43 183.27 424.64 178.44 430.64 177.31 L 433.73 177.78 C 435.53 199.33 438.34 221.86 450.77 240.23 C 454.84 243.98 459.57 248.56 465.69 247.58 C 472.54 246.85 475.25 239.63 477.72 234.20 C 485.64 212.65 489.11 189.55 488.73 166.64 C 505.77 165.31 522.97 164.75 540.04 166.42 C 540.70 191.10 543.73 216.78 556.04 238.62 C 559.92 246.60 569.86 252.06 577.84 246.10 C 593.93 227.86 595.38 202.65 596.71 179.58 C 603.21 181.69 609.65 184.59 616.59 184.94 C 632.59 175.82 646.41 163.39 661.30 152.66 C 677.11 141.30 692.73 127.92 712.48 124.39 L 715.74 127.99 C 715.20 129.44 714.13 132.31 713.59 133.76 L 712.99 134.90 C 706.52 141.14 700.37 147.68 694.97 154.90 C 681.12 172.95 664.59 188.70 649.00 205.23 C 650.10 204.85 652.37 204.10 653.48 203.72 C 678.82 218.20 697.43 241.11 715.04 263.77 L 716.43 259.38 C 718.58 262.22 720.78 265.15 722.99 268.09 C 726.15 266.99 729.37 265.94 732.59 264.90 C 730.72 274.53 729.75 284.85 734.10 294.06 C 745.27 320.72 757.39 347.42 761.71 376.29 C 748.87 380.39 735.74 383.36 722.87 387.24 C 718.36 388.06 715.04 391.06 713.05 395.10 C 730.19 394.85 746.44 389.01 763.23 386.30 C 762.50 396.08 761.62 405.86 760.64 415.67 C 742.94 418.67 725.04 421.01 707.75 425.99 C 704.03 422.36 700.27 418.86 696.80 415.10 C 687.46 404.47 678.47 393.55 668.31 383.71 C 667.52 377.62 666.35 371.59 665.28 365.63 C 676.23 366.10 687.97 366.29 697.09 359.13 C 687.05 360.01 676.70 362.09 666.92 358.81 C 650.70 353.67 633.03 347.20 616.15 353.57 C 605.26 357.04 599.77 367.99 596.43 378.09 C 581.97 369.41 568.72 358.65 553.42 351.43 C 528.24 340.10 498.13 337.35 472.48 348.84 C 458.44 354.87 448.18 366.57 437.80 377.30 C 430.76 356.44 405.68 348.21 385.83 354.08 C 370.24 358.81 354.24 361.93 337.96 362.53 C 346.38 367.46 356.14 367.93 365.66 366.95 C 360.05 380.30 361.12 395.13 364.31 408.95 C 346.95 411.51 330.73 418.39 314.04 423.31 C 302.56 422.43 291.32 419.93 279.99 418.20 C 281.16 408.73 282.55 399.33 284.32 389.99 C 295.87 393.20 307.67 395.79 319.72 395.98 C 305.30 383.90 285.17 383.39 268.16 376.77 C 272.48 352.25 280.50 328.55 290.53 305.83 C 295.33 294.09 301.89 281.72 298.55 268.69 C 301.55 270.58 304.57 272.54 307.60 274.53 C 309.43 272.19 311.36 269.95 313.16 267.62 C 314.20 266.04 316.25 262.88 317.29 261.27 C 331.71 236.82 355.25 219.94 377.97 203.81 C 370.84 193.65 361.44 185.48 353.01 176.45 C 340.26 163.11 329.06 148.40 316.60 134.77 C 314.07 131.84 311.64 128.78 309.25 125.81 Z M 369.42 291.03 C 388.61 280.24 412.02 283.65 429.94 295.35 C 422.72 279.86 403.31 269.45 386.68 275.85 C 379.20 278.50 373.87 284.72 369.42 291.03 Z M 606.46 292.20 C 616.65 287.94 627.19 282.86 638.62 284.44 C 649.00 284.59 657.77 290.43 666.29 295.70 C 662.31 286.42 655.05 278.09 645.18 275.13 C 630.47 271.06 614.03 279.32 606.46 292.20 Z" fill="#f7b253" fill-rule="nonzero" node-id="130" stroke="none" target-height="305.042" target-width="495.066" target-x="268.16" target-y="120.949005"></path><path d="M 298.55 268.69 C 287.22 221.64 290.47 170.52 309.25 125.81 C 311.64 128.78 314.07 131.84 316.60 134.77 L 315.24 136.95 L 313.82 139.09 C 303.19 151.72 304.86 169.39 301.92 184.69 C 297.00 212.84 303.79 241.14 313.16 267.62 C 311.36 269.95 309.43 272.19 307.60 274.53 C 304.57 272.54 301.55 270.58 298.55 268.69 Z" fill="#ea9f52" fill-rule="nonzero" node-id="132" stroke="none" target-height="148.71802" target-width="29.376984" target-x="287.22" target-y="125.809"></path><path d="M 715.74 127.99 C 719.52 135.81 722.87 143.86 725.77 152.09 C 722.11 156.80 722.14 162.54 723.21 168.09 C 728.11 198.48 725.64 230.00 716.43 259.38 L 715.04 263.77 C 697.43 241.11 678.82 218.20 653.48 203.72 C 676.32 183.77 698.54 161.88 712.99 134.90 L 713.59 133.76 C 714.13 132.31 715.20 129.44 715.74 127.99 Z" fill="#de7d9f" fill-rule="nonzero" node-id="134" stroke="none" target-height="135.781" target-width="74.62695" target-x="653.478" target-y="127.986"></path><path d="M 313.82 139.09 L 315.24 136.95 C 331.87 162.70 353.04 185.89 377.97 203.81 C 355.25 219.94 331.71 236.82 317.29 261.27 C 301.10 222.68 305.33 179.07 313.82 139.09 Z" fill="#e7829e" fill-rule="nonzero" node-id="136" stroke="none" target-height="124.32599" target-width="76.86798" target-x="301.104" target-y="136.948"></path><path d="M 723.21 168.09 C 722.14 162.54 722.11 156.80 725.77 152.09 C 736.94 188.32 739.56 227.57 732.59 264.90 C 729.37 265.94 726.15 266.99 722.99 268.09 C 720.78 265.15 718.58 262.22 716.43 259.38 C 725.64 230.00 728.11 198.48 723.21 168.09 Z" fill="#eaa648" fill-rule="nonzero" node-id="138" stroke="none" target-height="115.996" target-width="23.129028" target-x="716.43" target-y="152.094"></path><path d="M 457.05 170.40 C 467.52 168.60 478.10 167.49 488.73 166.64 C 489.11 189.55 485.64 212.65 477.72 234.20 C 475.25 239.63 472.54 246.85 465.69 247.58 C 459.57 248.56 454.84 243.98 450.77 240.23 C 456.13 217.51 457.46 193.72 457.05 170.40 Z" fill="#ae684d" fill-rule="nonzero" node-id="140" stroke="none" target-height="81.916016" target-width="38.33899" target-x="450.769" target-y="166.641"></path><path d="M 540.04 166.42 C 550.33 167.59 560.58 169.29 570.68 171.66 C 572.54 196.52 574.12 221.42 577.84 246.10 C 569.86 252.06 559.92 246.60 556.04 238.62 C 543.73 216.78 540.70 191.10 540.04 166.42 Z" fill="#b2694e" fill-rule="nonzero" node-id="142" stroke="none" target-height="85.64" target-width="37.80298" target-x="540.038" target-y="166.42"></path><path d="M 430.64 177.31 C 439.22 174.28 448.06 171.91 457.05 170.40 C 457.46 193.72 456.13 217.51 450.77 240.23 C 438.34 221.86 435.53 199.33 433.73 177.78 L 430.64 177.31 Z" fill="#8f5449" fill-rule="nonzero" node-id="144" stroke="none" target-height="69.83101" target-width="26.821014" target-x="430.63696" target-y="170.396"></path><path d="M 570.68 171.66 C 579.48 173.80 588.16 176.55 596.71 179.58 C 595.38 202.65 593.93 227.86 577.84 246.10 C 574.12 221.42 572.54 196.52 570.68 171.66 Z" fill="#9b5a4a" fill-rule="nonzero" node-id="146" stroke="none" target-height="74.43799" target-width="26.03302" target-x="570.677" target-y="171.658"></path><path d="M 369.42 291.03 C 373.87 284.72 379.20 278.50 386.68 275.85 C 403.31 269.45 422.72 279.86 429.94 295.35 C 412.02 283.65 388.61 280.24 369.42 291.03 Z" fill="#241a1d" fill-rule="nonzero" node-id="148" stroke="none" target-height="25.906006" target-width="60.522003" target-x="369.421" target-y="269.447"></path><path d="M 606.46 292.20 C 614.03 279.32 630.47 271.06 645.18 275.13 C 655.06 278.09 662.31 286.42 666.29 295.70 C 657.77 290.43 649.00 284.59 638.62 284.44 C 627.19 282.86 616.65 287.94 606.46 292.20 Z" fill="#2d1f1f" fill-rule="nonzero" node-id="150" stroke="none" target-height="24.644012" target-width="59.828003" target-x="606.461" target-y="271.056"></path><path d="M 385.83 354.08 C 405.68 348.21 430.76 356.44 437.80 377.30 C 441.71 396.45 433.35 419.08 414.10 426.34 C 397.69 433.72 378.63 427.03 367.43 413.81 C 366.64 412.61 365.10 410.18 364.31 408.95 C 361.12 395.13 360.05 380.30 365.67 366.95 C 356.14 367.93 346.38 367.46 337.96 362.53 C 354.24 361.93 370.24 358.81 385.83 354.08 Z M 374.41 367.11 C 366.77 371.37 366.77 385.38 376.77 386.39 C 384.41 385.19 387.31 376.70 385.89 369.95 C 385.89 363.99 377.50 363.64 374.41 367.11 Z" fill="#361d2c" fill-rule="nonzero" node-id="152" stroke="none" target-height="85.51398" target-width="103.75302" target-x="337.96" target-y="348.208"></path><path d="M 616.15 353.57 C 633.03 347.20 650.70 353.67 666.92 358.81 C 676.70 362.09 687.05 360.01 697.09 359.13 C 687.97 366.29 676.23 366.10 665.28 365.63 C 666.35 371.59 667.52 377.62 668.31 383.71 C 666.92 402.36 656.92 425.11 635.78 427.03 C 609.93 429.97 591.22 401.85 596.43 378.09 C 599.77 367.99 605.26 357.04 616.15 353.57 Z M 649.50 364.68 C 641.80 368.69 646.85 381.37 654.99 380.68 C 663.16 376.32 659.03 361.97 649.50 364.68 Z" fill="#391d2b" fill-rule="nonzero" node-id="154" stroke="none" target-height="82.76895" target-width="105.86694" target-x="591.22" target-y="347.19803"></path><path d="M 266.74 385.76 C 272.61 387.12 278.48 388.47 284.32 389.99 C 282.55 399.33 281.16 408.73 279.99 418.20 C 275.51 417.44 271.03 416.71 266.58 416.02 C 266.08 405.92 266.17 395.82 266.74 385.76 Z" fill="#dd904f" fill-rule="nonzero" node-id="156" stroke="none" target-height="32.43802" target-width="18.238983" target-x="266.078" target-y="385.758"></path><path d="M 314.04 423.31 C 330.73 418.39 346.95 411.51 364.31 408.95 C 365.10 410.18 366.64 412.61 367.43 413.81 L 363.49 415.07 C 366.90 424.60 374.50 431.39 380.72 439.02 C 387.50 447.57 385.13 460.76 376.87 467.52 C 361.81 480.77 340.70 482.92 321.55 484.87 C 321.11 484.62 320.19 484.12 319.75 483.83 L 319.34 483.61 L 316.69 482.06 C 310.98 473.80 306.09 464.84 303.91 454.96 L 302.90 450.82 C 303.56 445.74 304.51 440.73 305.39 435.71 C 307.16 434.04 308.93 432.37 310.63 430.63 C 311.49 428.80 313.19 425.14 314.04 423.31 Z" fill="#fcc5d8" fill-rule="nonzero" node-id="158" stroke="none" target-height="75.92105" target-width="84.599" target-x="302.902" target-y="408.951"></path><path d="M 696.80 415.10 C 700.27 418.86 704.03 422.36 707.75 425.99 C 709.08 427.41 711.79 430.19 713.15 431.58 C 715.01 437.48 716.05 443.60 716.68 449.78 C 716.71 451.20 716.81 454.01 716.87 455.40 C 717.72 465.12 714.41 474.71 706.96 481.18 C 706.39 481.72 705.29 482.82 704.72 483.36 C 687.72 477.93 667.39 475.72 655.94 460.35 C 647.89 448.49 654.11 432.21 664.59 424.00 C 673.20 415.77 685.76 416.37 696.80 415.10 Z M 683.99 427.19 C 680.39 431.80 677.11 436.66 674.12 441.67 C 683.36 442.02 692.64 442.05 701.95 441.80 C 702.26 431.89 690.65 431.07 683.99 427.19 Z" fill="#fbc8d6" fill-rule="nonzero" node-id="160" stroke="none" target-height="68.25397" target-width="69.83099" target-x="647.893" target-y="415.104"></path><path d="M 266.46 426.02 C 276.27 426.56 286.08 427.32 295.87 428.58 C 291.64 428.64 287.44 428.86 283.27 429.15 C 283.65 432.55 284.03 436.02 284.41 439.50 C 284.63 442.05 285.04 447.13 285.26 449.69 C 281.19 449.59 277.12 449.53 273.08 449.50 C 270.91 441.64 268.70 433.82 266.46 426.02 Z" fill="#c67654" fill-rule="nonzero" node-id="162" stroke="none" target-height="23.665985" target-width="29.408997" target-x="266.457" target-y="426.022"></path><path d="M 295.87 428.58 C 300.79 429.08 305.71 429.84 310.63 430.63 C 308.93 432.37 307.16 434.04 305.39 435.71 C 303.69 437.07 300.28 439.75 298.58 441.07 C 293.81 440.51 289.11 440.00 284.41 439.50 C 284.03 436.02 283.65 432.55 283.27 429.15 C 287.44 428.86 291.64 428.64 295.87 428.58 Z" fill="#f4c792" fill-rule="nonzero" node-id="164" stroke="none" target-height="12.496002" target-width="27.359009" target-x="283.275" target-y="428.578"></path><path d="M 683.99 427.19 C 690.65 431.07 702.26 431.89 701.95 441.80 C 692.64 442.05 683.36 442.02 674.12 441.67 C 677.11 436.66 680.39 431.80 683.99 427.19 Z" fill="#f6eaeb" fill-rule="nonzero" node-id="166" stroke="none" target-height="14.86203" target-width="28.146973" target-x="674.115" target-y="427.18997"></path><path d="M 735.96 428.48 C 744.20 427.25 752.43 426.24 760.73 425.45 C 758.21 433.72 755.62 441.96 753.03 450.22 C 747.42 450.16 741.83 450.13 736.25 450.13 C 738.90 442.97 741.86 435.93 744.99 428.99 C 742.72 428.86 738.23 428.61 735.96 428.48 Z" fill="#b46652" fill-rule="nonzero" node-id="168" stroke="none" target-height="24.770966" target-width="24.770996" target-x="735.962" target-y="425.454"></path><path d="M 490.18 432.46 C 503.81 427.82 520.00 427.16 533.66 431.61 C 534.61 442.72 519.12 447.70 517.41 458.68 C 522.46 471.43 538.05 478.75 551.02 473.99 C 560.33 471.52 565.03 462.41 570.80 455.59 C 574.53 470.64 557.90 482.06 544.46 482.03 C 532.40 483.07 521.01 477.05 513.72 467.74 C 500.56 485.47 467.65 487.33 458.59 464.90 C 458.66 462.88 458.81 458.84 458.88 456.82 C 465.57 463.54 470.40 473.73 481.03 474.71 C 492.96 476.04 509.65 469.38 509.43 455.37 C 503.75 447.13 494.12 442.08 490.18 432.46 Z M 499.24 433.97 C 503.21 443.28 522.11 443.91 525.96 434.13 C 517.03 433.53 508.13 433.50 499.24 433.97 Z" fill="#391623" fill-rule="nonzero" node-id="170" stroke="none" target-height="60.176025" target-width="115.933014" target-x="458.59396" target-y="427.158"></path><path d="M 713.15 431.58 C 720.75 430.50 728.33 429.37 735.96 428.48 C 738.23 428.61 742.72 428.86 744.99 428.99 C 741.86 435.93 738.90 442.97 736.25 450.13 C 729.71 450.04 723.18 449.94 716.68 449.78 C 716.05 443.60 715.01 437.48 713.15 431.58 Z" fill="#f3c682" fill-rule="nonzero" node-id="172" stroke="none" target-height="21.645996" target-width="31.83905" target-x="713.148" target-y="428.484"></path><path d="M 499.24 433.97 C 508.14 433.50 517.03 433.53 525.96 434.13 C 522.11 443.91 503.21 443.28 499.24 433.97 Z" fill="#794f61" fill-rule="nonzero" node-id="174" stroke="none" target-height="10.412994" target-width="26.72699" target-x="499.237" target-y="433.501"></path><path d="M 298.58 441.07 C 300.28 439.75 303.69 437.07 305.39 435.71 C 304.51 440.73 303.56 445.74 302.90 450.82 C 297.06 450.07 291.13 449.85 285.26 449.69 C 285.04 447.13 284.63 442.05 284.41 439.50 C 289.11 440.00 293.81 440.51 298.58 441.07 Z" fill="#f19865" fill-rule="nonzero" node-id="176" stroke="none" target-height="15.113983" target-width="20.983978" target-x="284.411" target-y="435.71"></path><path d="M 276.81 458.02 C 285.83 456.85 294.86 455.87 303.91 454.96 C 306.09 464.84 310.98 473.80 316.69 482.06 C 308.77 483.04 300.88 484.27 292.93 484.68 L 291.19 482.25 C 292.65 480.90 295.52 478.15 296.97 476.76 C 294.92 472.16 292.93 467.55 290.91 463.00 C 286.81 462.41 282.77 461.77 278.73 461.14 L 276.81 458.02 Z" fill="#df8191" fill-rule="nonzero" node-id="178" stroke="none" target-height="29.724976" target-width="39.885986" target-x="276.806" target-y="454.958"></path><path d="M 716.87 455.40 C 727.63 456.50 738.45 457.07 749.28 457.74 L 749.06 459.47 C 743.35 459.85 737.67 460.26 732.02 460.67 C 731.23 468.05 729.40 476.48 737.07 481.18 C 727.88 486.01 716.87 480.14 706.96 481.18 C 714.41 474.71 717.72 465.12 716.87 455.40 Z" fill="#d59f75" fill-rule="nonzero" node-id="180" stroke="none" target-height="30.608032" target-width="42.31494" target-x="706.9631" target-y="455.4"></path><path d="M 732.02 460.67 C 737.67 460.26 743.35 459.85 749.06 459.47 C 745.56 466.98 741.36 474.11 737.07 481.18 C 729.40 476.48 731.23 468.05 732.02 460.67 Z" fill="#ae6857" fill-rule="nonzero" node-id="182" stroke="none" target-height="21.70996" target-width="19.658997" target-x="729.399" target-y="459.47"></path><path d="M 278.73 461.14 C 282.77 461.77 286.81 462.41 290.91 463.00 C 292.93 467.55 294.92 472.16 296.97 476.76 C 295.52 478.15 292.65 480.90 291.19 482.25 C 286.59 475.47 282.77 468.21 278.73 461.14 Z" fill="#c76c6b" fill-rule="nonzero" node-id="184" stroke="none" target-height="21.109985" target-width="18.239014" target-x="278.731" target-y="461.143"></path><path d="M 319.34 483.61 L 319.75 483.83 C 320.19 484.12 321.11 484.62 321.55 484.87 C 356.96 516.14 403.78 529.90 449.54 537.25 C 502.11 546.12 556.32 544.04 608.20 531.86 C 607.38 534.92 606.59 538.01 605.80 541.17 C 610.31 542.52 614.82 543.94 619.34 545.39 C 616.24 547.57 613.12 549.75 610.00 551.93 C 597.63 554.58 585.07 556.28 572.57 558.21 C 574.40 558.36 578.03 558.65 579.86 558.80 C 594.94 565.62 611.79 561.52 627.67 564.30 C 624.70 566.50 621.73 568.75 618.80 571.02 C 618.01 574.14 617.25 577.26 616.53 580.48 C 591.79 569.88 564.37 569.88 537.96 569.85 C 504.22 570.48 469.95 571.46 437.17 580.17 C 434.33 578.53 431.52 576.89 428.74 575.31 C 431.71 569.47 434.74 563.70 437.93 557.99 C 425.34 553.76 411.99 553.00 399.11 550.07 C 360.05 541.58 320.76 523.59 296.78 490.36 C 304.45 488.56 311.96 486.32 319.34 483.61 Z" fill="#f0ab53" fill-rule="nonzero" node-id="186" stroke="none" target-height="96.874054" target-width="330.885" target-x="296.781" target-y="483.60995"></path><path d="M 704.72 483.36 C 705.29 482.82 706.39 481.72 706.96 481.18 C 714.25 485.25 722.30 487.52 730.35 489.67 C 701.85 527.44 654.46 542.65 610.00 551.93 C 613.12 549.75 616.24 547.57 619.34 545.39 C 614.82 543.94 610.31 542.52 605.80 541.17 C 606.59 538.01 607.38 534.92 608.20 531.86 C 643.38 523.21 677.96 508.35 704.72 483.36 Z" fill="#edab59" fill-rule="nonzero" node-id="188" stroke="none" target-height="70.74606" target-width="124.548096" target-x="605.798" target-y="481.17996"></path><path d="M 579.86 558.81 C 617.85 558.24 656.19 553.76 692.13 541.04 C 702.92 560.23 712.55 580.04 722.80 599.54 C 726.62 609.10 730.72 618.60 734.86 628.10 C 725.04 648.99 727.28 672.72 721.67 694.74 C 726.02 696.35 730.38 697.84 734.89 699.35 C 728.48 724.37 711.16 748.17 686.83 758.20 C 692.95 722.67 704.60 686.38 697.75 650.12 C 691.63 701.53 669.13 749.05 661.59 800.14 C 651.33 818.06 622.93 828.35 605.86 813.52 C 596.21 805.47 593.24 792.41 593.37 780.38 C 593.59 745.70 604.47 711.72 622.08 682.03 C 608.86 690.77 598.48 703.36 591.88 717.75 C 590.15 716.61 586.68 714.37 584.97 713.24 C 604.03 683.51 630.44 658.55 645.72 626.49 C 655.47 605.22 634.51 587.24 616.53 580.48 C 617.25 577.26 618.01 574.14 618.80 571.02 C 621.73 568.75 624.70 566.50 627.67 564.30 C 611.79 561.52 594.94 565.62 579.86 558.81 Z" fill="#f7b054" fill-rule="nonzero" node-id="190" stroke="none" target-height="287.30804" target-width="155.02997" target-x="579.86" target-y="541.04"></path><path d="M 337.77 544.10 C 368.95 558.39 404.16 561.17 437.93 557.99 C 434.74 563.70 431.71 569.47 428.74 575.31 C 431.52 576.89 434.33 578.53 437.17 580.17 C 422.94 584.90 408.45 591.81 399.43 604.28 C 394.13 611.22 396.24 620.84 399.96 628.04 C 408.77 645.39 422.40 659.53 434.30 674.77 C 432.12 677.04 429.97 679.38 427.83 681.74 C 428.46 682.37 429.69 683.61 430.32 684.24 C 445.59 716.11 455.34 751.13 455.06 786.66 C 454.96 797.11 452.98 809.16 443.76 815.57 C 429.91 824.91 409.94 824.53 396.59 814.46 C 389.71 809.57 387.88 800.86 386.46 793.13 C 379.64 746.27 355.16 704.37 347.71 657.63 C 342.22 707.40 365.66 753.40 372.80 801.62 C 346.16 798.78 315.68 796.67 296.21 775.84 C 278.64 758.04 275.83 731.22 278.79 707.52 C 291.51 703.71 304.48 700.77 317.54 698.40 C 315.46 680.51 313.57 662.53 314.20 644.51 C 314.45 624.06 318.05 603.87 319.09 583.48 C 325.65 570.51 332.12 557.48 337.77 544.10 Z" fill="#f7b154" fill-rule="nonzero" node-id="192" stroke="none" target-height="280.807" target-width="179.51599" target-x="275.828" target-y="544.101"></path><path d="M 714.95 570.42 C 720.34 572.37 725.52 574.84 730.12 578.40 C 741.55 598.66 751.52 619.90 758.93 641.98 C 763.29 653.28 767.23 664.80 768.65 676.92 C 763.10 689.95 764.84 704.21 763.70 718.00 C 756.25 706.48 760.51 690.48 750.19 680.61 C 746.60 662.72 742.62 644.70 734.86 628.10 C 730.73 618.60 726.62 609.10 722.80 599.54 C 723.88 589.03 718.99 579.66 714.95 570.42 Z" fill="#361e2a" fill-rule="nonzero" node-id="194" stroke="none" target-height="147.58197" target-width="53.70697" target-x="714.947" target-y="570.418"></path><path d="M 209.56 594.15 C 206.97 589.16 210.42 583.17 216.22 583.80 C 222.72 586.51 227.20 592.28 231.30 597.77 C 245.19 616.87 253.68 639.05 263.11 660.54 C 266.99 667.45 264.66 675.37 263.77 682.78 C 263.58 684.11 263.14 686.82 262.92 688.15 C 258.60 689.70 254.24 691.24 249.95 692.85 C 249.32 690.61 248.03 686.16 247.40 683.95 C 246.10 679.60 244.81 675.27 243.52 671.01 C 241.65 671.05 237.90 671.05 236.01 671.08 C 233.80 678.11 231.65 685.18 229.57 692.28 C 226.85 687.83 224.17 683.38 221.52 678.93 L 218.02 680.26 C 210.54 682.44 202.72 682.78 195.02 683.07 C 186.78 669.47 175.39 658.08 167.50 644.26 C 164.94 637.91 173.43 634.50 178.29 634.28 C 197.79 637.47 211.93 652.65 225.03 666.19 C 222.72 641.64 214.55 618.19 209.56 594.15 Z" fill="#eeb058" fill-rule="nonzero" node-id="196" stroke="none" target-height="109.68396" target-width="102.04901" target-x="164.944" target-y="583.166"></path><path d="M 293.25 638.36 C 300.22 619.36 308.99 601.03 319.09 583.48 C 318.05 603.87 314.45 624.06 314.20 644.51 C 307.70 643.69 301.17 642.90 294.73 641.76 L 293.25 638.36 Z" fill="#c37d53" fill-rule="nonzero" node-id="198" stroke="none" target-height="61.027954" target-width="25.842987" target-x="293.247" target-y="583.481"></path><path d="M 780.80 597.46 C 783.74 592.35 789.98 592.92 795.06 592.88 C 794.40 616.90 787.33 640.15 786.73 664.20 C 780.99 664.33 775.47 665.71 770.96 669.34 C 770.51 672.34 769.66 678.34 769.25 681.30 L 768.65 676.91 C 767.23 664.80 763.29 653.28 758.93 641.98 C 764.58 626.46 770.80 610.75 780.80 597.46 Z" fill="#f2b559" fill-rule="nonzero" node-id="200" stroke="none" target-height="88.953" target-width="36.129944" target-x="758.934" target-y="592.348"></path><path d="M 734.86 628.10 C 742.62 644.70 746.60 662.72 750.19 680.61 C 750.82 687.61 751.36 694.71 751.74 701.81 C 746.06 700.99 740.44 700.46 734.89 699.35 C 730.38 697.84 726.02 696.35 721.67 694.74 C 727.28 672.72 725.04 648.99 734.86 628.10 Z" fill="#a45d4a" fill-rule="nonzero" node-id="202" stroke="none" target-height="73.712036" target-width="30.072021" target-x="721.668" target-y="628.1"></path><path d="M 278.80 707.52 C 282.68 684.30 285.52 660.70 293.25 638.36 L 294.73 641.76 C 301.17 642.90 307.70 643.69 314.20 644.51 C 313.57 662.53 315.46 680.51 317.54 698.40 C 304.48 700.77 291.51 703.71 278.80 707.52 Z" fill="#9f5a45" fill-rule="nonzero" node-id="204" stroke="none" target-height="69.168945" target-width="38.748993" target-x="278.795" target-y="638.355"></path><path d="M 823.18 639.81 C 829.21 637.60 842.55 638.07 839.43 647.66 C 829.97 663.63 818.64 678.52 806.42 692.50 C 804.03 692.88 801.66 693.32 799.32 693.86 C 793.80 690.11 786.92 690.58 780.77 688.91 C 776.73 686.41 774.84 681.49 771.87 678.12 C 775.97 677.01 781.56 677.45 783.86 672.91 C 793.74 658.71 807.53 647.10 823.18 639.81 Z" fill="#ecb257" fill-rule="nonzero" node-id="206" stroke="none" target-height="56.263" target-width="70.68298" target-x="771.872" target-y="637.598"></path><path d="M 236.01 671.08 C 237.90 671.05 241.65 671.05 243.52 671.01 C 244.81 675.27 246.10 679.60 247.40 683.95 C 244.34 695.82 243.80 708.16 243.61 720.40 C 239.51 710.74 235.12 701.18 229.57 692.28 C 231.65 685.18 233.80 678.11 236.01 671.08 Z" fill="#a0b27d" fill-rule="nonzero" node-id="208" stroke="none" target-height="49.382996" target-width="17.828003" target-x="229.569" target-y="671.015"></path><path d="M 427.83 681.74 C 429.97 679.38 432.12 677.04 434.30 674.77 C 452.85 696.76 467.68 721.69 487.25 742.83 C 501.16 758.64 525.33 765.11 544.58 755.39 C 561.94 745.80 573.58 728.95 584.97 713.24 C 586.68 714.37 590.15 716.61 591.88 717.75 C 580.55 744.95 573.86 775.05 578.91 804.49 C 542.37 810.05 505.36 808.25 468.72 804.71 C 472.61 762.14 462.13 714.56 430.32 684.24 C 429.69 683.61 428.46 682.37 427.83 681.74 Z" fill="#eda556" fill-rule="nonzero" node-id="210" stroke="none" target-height="135.276" target-width="164.05399" target-x="427.82803" target-y="674.77"></path><path d="M 195.02 683.07 C 202.72 682.78 210.54 682.44 218.02 680.26 C 219.94 696.23 231.02 708.82 235.28 724.12 C 224.87 714.25 216.25 702.76 206.91 691.97 C 203.79 687.83 199.02 685.91 194.29 684.49 C 195.08 685.94 196.69 688.84 197.48 690.29 C 195.65 697.24 194.07 704.27 193.03 711.44 C 187.51 705.85 181.48 699.98 180.03 691.97 C 181.60 685.06 188.48 682.15 195.02 683.07 Z" fill="#bbb369" fill-rule="nonzero" node-id="212" stroke="none" target-height="43.862" target-width="55.252" target-x="180.028" target-y="680.26"></path><path d="M 218.02 680.26 L 221.52 678.93 C 224.17 683.38 226.85 687.83 229.57 692.28 C 235.12 701.18 239.51 710.74 243.61 720.40 C 243.80 708.16 244.34 695.82 247.40 683.95 C 248.03 686.16 249.32 690.61 249.95 692.85 C 253.04 707.65 254.84 722.73 259.96 737.06 C 260.37 739.08 261.15 743.12 261.56 745.11 C 259.29 745.58 254.81 746.49 252.57 746.94 C 247.21 739.02 241.37 731.44 235.28 724.12 C 231.02 708.82 219.94 696.23 218.02 680.26 Z" fill="#86a97e" fill-rule="nonzero" node-id="214" stroke="none" target-height="68.00098" target-width="43.545" target-x="218.02" target-y="678.935"></path><path d="M 769.25 681.30 L 771.87 678.12 C 774.84 681.49 776.73 686.41 780.77 688.91 C 786.92 690.58 793.80 690.11 799.32 693.86 C 788.69 698.06 778.94 704.05 769.66 710.62 C 770.04 700.83 769.57 691.05 769.25 681.30 Z" fill="#e5be67" fill-rule="nonzero" node-id="216" stroke="none" target-height="32.501038" target-width="30.07196" target-x="769.253" target-y="678.115"></path><path d="M 194.29 684.49 C 199.02 685.91 203.79 687.83 206.91 691.97 C 216.25 702.76 224.87 714.25 235.28 724.12 C 241.37 731.44 247.21 739.02 252.57 746.94 C 244.87 748.61 237.30 750.72 229.63 752.46 C 223.98 745.29 217.96 738.45 212.09 731.47 C 213.29 716.14 205.52 702.63 197.48 690.29 C 196.69 688.84 195.08 685.94 194.29 684.49 Z" fill="#6f9b7e" fill-rule="nonzero" node-id="218" stroke="none" target-height="67.96893" target-width="58.281998" target-x="194.29" target-y="684.489"></path><path d="M 249.95 692.85 C 254.24 691.24 258.60 689.70 262.92 688.15 C 260.02 704.27 259.51 720.71 259.96 737.06 C 254.84 722.73 253.05 707.65 249.95 692.85 Z" fill="#dfbd7c" fill-rule="nonzero" node-id="220" stroke="none" target-height="48.910095" target-width="12.969009" target-x="249.95299" target-y="688.149"></path><path d="M 809.67 691.93 C 816.99 684.01 832.24 693.67 827.35 704.02 C 820.47 717.18 807.75 726.01 799.86 738.54 C 808.19 733.15 818.95 726.46 828.58 733.27 C 833.18 743.18 821.16 750.09 814.72 755.61 C 803.36 746.65 784.18 748.61 779.03 732.77 C 791.85 721.28 800.05 705.98 809.67 691.93 Z" fill="#c3b365" fill-rule="nonzero" node-id="222" stroke="none" target-height="71.59796" target-width="54.14801" target-x="779.035" target-y="684.015"></path><path d="M 197.48 690.29 C 205.52 702.63 213.29 716.14 212.09 731.47 C 217.96 738.45 223.98 745.29 229.63 752.46 C 219.00 750.31 212.72 741.00 205.21 734.12 C 207.51 724.82 196.88 718.79 193.03 711.44 C 194.07 704.27 195.65 697.24 197.48 690.29 Z" fill="#a9b176" fill-rule="nonzero" node-id="224" stroke="none" target-height="62.163025" target-width="36.604004" target-x="193.028" target-y="690.2949"></path><path d="M 799.32 693.86 C 801.66 693.32 804.03 692.88 806.42 692.50 L 809.67 691.93 C 800.05 705.98 791.85 721.28 779.03 732.77 C 774.21 737.50 769.85 742.64 765.59 747.88 C 765.18 747.00 764.36 745.23 763.95 744.35 C 766.60 733.24 769.06 722.04 769.66 710.62 C 778.94 704.05 788.69 698.06 799.32 693.86 Z" fill="#c7bd77" fill-rule="nonzero" node-id="226" stroke="none" target-height="55.947998" target-width="45.72296" target-x="763.952" target-y="691.935"></path><path d="M 734.89 699.35 C 740.44 700.46 746.06 700.99 751.74 701.81 C 755.37 745.80 724.98 793.23 680.08 801.02 C 682.16 786.73 684.18 772.40 686.83 758.20 C 711.16 748.17 728.48 724.37 734.89 699.35 Z" fill="#eda153" fill-rule="nonzero" node-id="228" stroke="none" target-height="101.66998" target-width="75.29004" target-x="680.079" target-y="699.351"></path><path d="M 184.67 735.92 C 183.94 723.62 200.13 728.10 205.21 734.12 C 212.72 741.00 219.00 750.31 229.63 752.46 C 222.12 753.94 214.77 756.12 207.64 758.93 C 199.87 751.58 187.92 746.78 184.67 735.92 Z" fill="#8aac7c" fill-rule="nonzero" node-id="230" stroke="none" target-height="35.31006" target-width="45.692017" target-x="183.93999" target-y="723.61694"></path><path d="M 765.59 747.88 C 769.85 742.64 774.21 737.50 779.03 732.77 C 784.18 748.61 803.36 746.65 814.72 755.61 L 814.63 760.16 C 796.55 757.19 776.35 763.94 760.20 752.99 C 761.14 750.85 763.04 746.53 763.95 744.35 C 764.36 745.23 765.18 747.00 765.59 747.88 Z" fill="#b0b46f" fill-rule="nonzero" node-id="232" stroke="none" target-height="31.175964" target-width="54.526978" target-x="760.197" target-y="732.768"></path><path d="M 252.57 746.94 C 254.81 746.49 259.29 745.58 261.57 745.11 C 263.65 754.89 266.74 764.48 271.19 773.50 C 234.43 776.47 197.00 782.47 160.40 774.93 C 173.02 762.49 192.15 764.83 207.64 758.93 C 214.77 756.12 222.12 753.94 229.63 752.46 C 237.30 750.72 244.87 748.61 252.57 746.94 Z" fill="#618478" fill-rule="nonzero" node-id="234" stroke="none" target-height="37.361023" target-width="110.789" target-x="160.401" target-y="745.10596"></path><path d="M 755.18 764.26 C 756.82 760.47 758.49 756.72 760.20 752.99 C 776.35 763.94 796.55 757.19 814.63 760.16 C 831.95 765.87 855.56 765.11 865.05 783.63 C 858.96 796.32 844.67 799.92 832.27 803.45 C 767.80 819.80 701.28 824.53 635.30 830.75 C 645.40 829.26 655.31 826.45 664.17 821.31 C 675.57 814.68 689.48 816.61 701.50 811.72 C 714.19 807.84 723.69 798.15 735.14 791.97 C 748.71 790.01 763.19 793.83 776.04 787.33 C 766.63 782.25 756.22 779.82 745.78 778.21 C 748.80 773.73 751.87 769.25 754.99 764.83 C 777.93 770.54 801.44 774.48 825.07 775.78 C 801.63 772.84 778.15 769.91 755.18 764.26 Z" fill="#88a593" fill-rule="nonzero" node-id="236" stroke="none" target-height="77.75189" target-width="229.75098" target-x="635.302" target-y="752.9941"></path><path d="M 158.85 774.67 L 160.40 774.93 C 197.00 782.47 234.43 776.47 271.19 773.50 C 275.04 779.15 279.46 784.45 283.84 789.79 C 273.68 790.39 262.86 789.60 253.74 794.84 C 271.82 801.40 291.70 800.01 309.65 807.05 C 329.31 814.37 350.17 817.34 371.00 818.91 C 379.93 819.04 386.08 826.20 393.24 830.49 C 341.02 828.54 288.95 822.48 237.62 812.85 C 215.84 807.96 193.69 803.70 173.15 794.80 C 164.94 791.33 155.00 785.02 158.85 774.67 Z" fill="#89aa94" fill-rule="nonzero" node-id="238" stroke="none" target-height="56.987976" target-width="238.23898" target-x="155.005" target-y="773.505"></path><path d="M 518.90 825.89 C 540.01 825.86 561.05 824.15 582.10 822.64 C 591.57 821.31 600.05 826.26 608.54 829.58 C 592.61 833.21 576.23 829.48 560.11 830.21 C 525.05 829.36 489.90 831.47 454.87 829.29 C 475.98 825.41 497.53 826.77 518.90 825.89 Z" fill="#a7acad" fill-rule="nonzero" node-id="240" stroke="none" target-height="11.896057" target-width="153.67203" target-x="454.871" target-y="821.311"></path><path d="M 446.76 867.35 C 450.99 869.37 464.94 879.97 453.32 881.64 C 453.67 887.48 454.11 893.35 454.65 899.25 C 453.10 899.06 450.07 898.65 448.53 898.43 C 447.74 891.36 451.46 881.86 443.70 877.79 C 445.06 877.38 447.77 876.53 449.13 876.12 C 448.56 873.91 447.36 869.53 446.76 867.35 Z" fill="#221109" fill-rule="nonzero" node-id="242" stroke="none" target-height="31.901978" target-width="21.236023" target-x="443.701" target-y="867.349"></path><path d="M 464.69 877.35 C 465.98 877.16 468.63 876.78 469.92 876.60 C 470.02 884.01 470.14 891.49 470.46 898.97 C 468.85 898.90 465.60 898.81 463.99 898.78 C 464.24 891.62 464.50 884.48 464.69 877.35 Z" fill="#221116" fill-rule="nonzero" node-id="244" stroke="none" target-height="22.373047" target-width="6.4680176" target-x="463.991" target-y="876.595"></path><path d="M 495.80 876.31 C 502.20 883.41 511.67 872.40 517.60 879.78 C 522.81 884.86 523.85 896.35 517.03 900.58 C 516.28 894.49 517.29 888.08 514.73 882.40 C 510.12 880.32 505.42 882.56 500.91 883.51 C 500.81 888.52 500.81 893.60 500.88 898.71 C 499.49 898.68 496.71 898.68 495.29 898.68 C 495.23 891.20 495.07 883.73 495.80 876.31 Z" fill="#170607" fill-rule="nonzero" node-id="246" stroke="none" target-height="28.179016" target-width="28.777954" target-x="495.07202" target-y="872.398"></path></svg>