<svg xmlns="http://www.w3.org/2000/svg" fill="none" viewBox="0 0 1024 1025" height="1025" width="1024">
<rect fill="#E0F4FF" height="1024" width="1024"></rect>
<path fill="#D4A37A" d="M426.079 757.958L412.3 578.207H613.814V757.958C615.822 787.87 628.744 808.512 717.317 814.691C710.255 871.188 758.807 975.949 520.462 975.448C282.117 974.947 315.662 861.54 313.014 813.871C378.041 816.519 424 788.937 426.079 757.958Z" clip-rule="evenodd" fill-rule="evenodd"></path>
<path stroke-linecap="round" stroke-width="7.06207" stroke="#BB7E4B" d="M483.107 840.172L422.407 820.177"></path>
<path stroke-linecap="round" stroke-width="7.06207" stroke="#BB7E4B" d="M561.885 840.172L622.585 820.177"></path>
<path fill="#BB7E4B" d="M613.813 632.042C613.813 632.042 534.785 714.021 422.675 706.076C422.675 696.366 412.299 578.206 412.299 578.206H613.813V632.042Z" clip-rule="evenodd" fill-rule="evenodd"></path>
<path fill="#D4A37A" d="M369.232 458.755C369.232 458.755 340.863 431.097 320.894 451.925C303.625 469.924 320.258 558.891 382.769 558.052L369.232 458.755Z" clip-rule="evenodd" fill-rule="evenodd"></path>
<path fill="#D4A37A" d="M661.205 458.755C661.205 458.755 689.574 431.097 709.543 451.925C726.812 469.924 710.179 558.891 647.668 558.052L661.205 458.755Z" clip-rule="evenodd" fill-rule="evenodd"></path>
<path fill="#DDB390" d="M510.959 208.712C393.262 208.712 329.655 316.687 350.257 436.454C360.382 495.319 363.531 497.69 376.897 556.282C382.966 582.925 433.655 671.278 519.997 669.512C596.966 668.63 648.746 585.054 654.815 557.806C667.597 500.393 671.832 495.561 679.582 436.454C695.384 315.95 636.567 208.712 518.87 208.712H510.959Z" clip-rule="evenodd" fill-rule="evenodd"></path>
<path fill="#654840" d="M391.944 395.379C391.997 392.455 394.411 390.127 397.336 390.18L397.24 395.476C397.336 390.18 397.337 390.18 397.338 390.18L397.381 390.181L397.495 390.183C397.595 390.186 397.739 390.189 397.928 390.194C398.304 390.203 398.855 390.219 399.563 390.243C400.978 390.29 403.025 390.371 405.571 390.504C410.661 390.769 417.761 391.245 425.816 392.084C441.807 393.749 462.017 396.892 477.697 402.887C480.429 403.932 481.797 406.994 480.753 409.726C479.708 412.458 476.646 413.826 473.914 412.782C459.58 407.301 440.507 404.264 424.719 402.62C416.884 401.804 409.971 401.341 405.019 401.082C402.545 400.953 400.564 400.875 399.207 400.83C398.529 400.807 398.007 400.792 397.657 400.783C397.483 400.779 397.351 400.776 397.265 400.774L397.17 400.772L397.144 400.771C394.219 400.718 391.891 398.304 391.944 395.379Z" clip-rule="evenodd" fill-rule="evenodd"></path>
<path fill="#654840" d="M634.702 395.379C634.649 392.455 632.235 390.127 629.31 390.18L629.407 395.476C629.31 390.18 629.31 390.18 629.309 390.18L629.266 390.181L629.151 390.183C629.052 390.186 628.907 390.189 628.719 390.194C628.342 390.203 627.792 390.219 627.084 390.243C625.668 390.29 623.622 390.371 621.075 390.504C615.986 390.769 608.885 391.245 600.83 392.084C584.84 393.749 564.629 396.892 548.949 402.887C546.217 403.932 544.849 406.994 545.894 409.726C546.938 412.458 550 413.826 552.733 412.782C567.067 407.301 586.139 404.264 601.928 402.62C609.762 401.804 616.676 401.341 621.627 401.082C624.102 400.953 626.083 400.875 627.439 400.83C628.118 400.807 628.64 400.792 628.989 400.783C629.164 400.779 629.295 400.776 629.382 400.774L629.477 400.772L629.503 400.771C632.427 400.718 634.755 398.304 634.702 395.379Z" clip-rule="evenodd" fill-rule="evenodd"></path>
<path fill="#8E685E" d="M647.151 314.663C655.55 349.834 653.674 388.769 653.674 388.769L664.825 405.193L676.162 461.31C682.129 436.091 687.055 384.745 687.055 378.022C687.055 270.808 631.187 192.748 521.614 192.748C394.697 192.748 341.014 266.654 341.014 377.872C341.014 422.415 354.947 462.565 354.947 462.565L361.595 405.193C361.595 405.193 371.107 390.611 371.756 388.37C374.178 379.954 372.766 347.134 380.939 314.514C380.939 314.514 641.348 314.663 647.151 314.663Z" clip-rule="evenodd" fill-rule="evenodd"></path>
<path fill="#654840" d="M641.578 325.292C641.578 325.292 674.168 366.513 684.708 402.187C690.468 355.863 691.653 319.32 688.548 293.794C686.628 278.04 683.748 256.275 652.843 218.756C642.211 205.854 641.343 227.097 641.343 227.097C641.343 227.097 639.657 211.343 614.737 194.671C591.124 178.867 600.357 199.3 600.357 199.3C600.357 199.3 588.857 188.719 573.516 173.359C558.176 158.01 536.595 149.472 526.546 148.347C517.875 147.379 503.321 162.827 477.665 171.504C439.324 184.474 419.633 211.195 417.815 212.241C419.143 204.384 421.114 189.321 400.984 207.641C383.785 223.277 366.667 248.763 365.758 249.622C365.932 242.327 365.013 229.91 354.973 246.542C341.553 268.781 336.763 292.866 336.763 292.866C331.074 313.536 344.423 409.6 344.423 409.6C355.933 363.276 386.123 325.756 386.123 325.756C386.123 325.756 445.799 322.983 519.846 332.705C574.476 322.983 641.578 325.292 641.578 325.292Z" clip-rule="evenodd" fill-rule="evenodd"></path>
<path fill="#BB6957" d="M535.618 429.252C535.623 429.253 535.627 429.255 534.069 434.317L535.627 429.255C538.422 430.115 539.992 433.079 539.131 435.874C538.277 438.65 535.351 440.216 532.573 439.398C532.566 439.396 532.555 439.393 532.54 439.389C532.479 439.374 532.356 439.346 532.184 439.315C531.831 439.253 531.319 439.191 530.736 439.199C529.541 439.216 528.408 439.511 527.508 440.295C526.654 441.04 525.265 442.873 524.817 447.49C524.362 452.178 524.932 459.34 527.719 470.06C527.726 470.086 527.733 470.112 527.739 470.138C529.946 479.187 531.771 487.237 532.743 494.034C533.695 500.694 533.947 506.864 532.458 511.826C531.682 514.412 530.392 516.819 528.367 518.765C526.331 520.721 523.823 521.948 521.031 522.581C515.687 523.792 508.982 522.897 501.099 520.672C498.284 519.877 496.646 516.95 497.441 514.135C498.235 511.32 501.162 509.682 503.977 510.477C511.439 512.583 516.017 512.855 518.69 512.25C519.906 511.974 520.59 511.547 521.028 511.126C521.478 510.693 521.946 510 522.311 508.783C523.104 506.141 523.167 501.903 522.256 495.533C521.366 489.308 519.659 481.717 517.457 472.686C514.514 461.357 513.653 452.862 514.273 446.467C514.901 439.995 517.097 435.318 520.547 432.311C523.95 429.344 527.839 428.645 530.588 428.607C531.977 428.588 533.169 428.732 534.027 428.884C534.459 428.96 534.818 429.04 535.088 429.107C535.223 429.141 535.336 429.171 535.427 429.196C535.472 429.209 535.511 429.22 535.544 429.23L535.59 429.243L535.61 429.249L535.618 429.252Z" clip-rule="evenodd" fill-rule="evenodd"></path>
<path fill="#654840" d="M438.731 478.455C452.855 478.455 457.269 461.647 457.269 448.441C457.269 435.235 448.089 444.91 437.849 444.91C427.608 444.91 420.193 435.235 420.193 448.441C420.193 461.647 424.607 478.455 438.731 478.455Z" clip-rule="evenodd" fill-rule="evenodd"></path>
<path fill="#654840" d="M406.706 451.043L406.727 451.04L406.808 451.028C406.883 451.018 406.996 451.002 407.147 450.981C407.449 450.94 407.9 450.88 408.485 450.806C409.656 450.658 411.363 450.455 413.483 450.239C417.728 449.805 423.609 449.317 430.159 449.1C443.476 448.66 458.766 449.38 468.871 453.422C471.134 454.327 473.703 453.226 474.608 450.963C475.513 448.699 474.413 446.131 472.149 445.225C460.185 440.44 443.254 439.835 429.868 440.278C423.066 440.503 416.975 441.008 412.585 441.457C410.388 441.681 408.612 441.892 407.38 442.048C406.763 442.126 406.283 442.19 405.953 442.235C405.788 442.257 405.661 442.275 405.573 442.287L405.472 442.302L405.433 442.307C405.432 442.308 405.432 442.308 406.062 446.632L405.432 442.308C403.02 442.659 401.349 444.9 401.701 447.312C402.053 449.724 404.294 451.394 406.706 451.043Z" clip-rule="evenodd" fill-rule="evenodd"></path>
<path fill="#654840" d="M589.683 478.455C575.559 478.455 571.145 461.647 571.145 448.441C571.145 435.235 580.325 444.91 590.566 444.91C600.806 444.91 608.221 435.235 608.221 448.441C608.221 461.647 603.807 478.455 589.683 478.455Z" clip-rule="evenodd" fill-rule="evenodd"></path>
<path fill="#654840" d="M621.708 451.043L621.687 451.04L621.606 451.028C621.531 451.018 621.418 451.002 621.267 450.981C620.965 450.94 620.514 450.88 619.929 450.806C618.758 450.658 617.051 450.455 614.931 450.239C610.687 449.805 604.805 449.317 598.255 449.1C584.938 448.66 569.648 449.38 559.543 453.422C557.28 454.327 554.711 453.226 553.806 450.963C552.901 448.699 554.001 446.131 556.265 445.225C568.229 440.44 585.16 439.835 598.546 440.278C605.348 440.503 611.439 441.008 615.829 441.457C618.026 441.681 619.802 441.892 621.034 442.048C621.651 442.126 622.131 442.19 622.461 442.235C622.626 442.257 622.753 442.275 622.841 442.287L622.942 442.302L622.981 442.307C622.982 442.308 622.982 442.308 622.352 446.632L622.982 442.308C625.394 442.659 627.065 444.9 626.713 447.312C626.361 449.724 624.12 451.394 621.708 451.043Z" clip-rule="evenodd" fill-rule="evenodd"></path>
<path fill="#BB6855" d="M475.886 564.526C472.478 563.507 470.605 560.14 471.71 556.988C472.816 553.86 476.699 554 480.185 555.031C480.497 555.127 513.938 564.726 557.212 554.911C560.75 554.108 563.93 554.196 564.775 557.395C565.634 560.607 563.5 563.855 560.015 564.646C544.12 568.253 529.539 569.463 517.131 569.463C492.821 569.463 476.874 564.825 475.886 564.526Z" clip-rule="evenodd" fill-rule="evenodd"></path>
<path fill="#BB6855" d="M517.411 595.013C506.083 595.013 498.679 591.465 498.211 591.238C495.99 590.147 495.078 587.451 496.17 585.222C497.263 582.993 499.987 582.118 502.171 583.161C502.735 583.448 516.415 589.836 534.992 582.633C537.344 581.747 539.924 582.885 540.812 585.198C541.713 587.511 540.572 590.111 538.244 591.01C530.504 594.018 523.4 595.013 517.411 595.013Z" clip-rule="evenodd" fill-rule="evenodd" opacity="0.2"></path>
<path stroke-width="7.06207" stroke="#697A8D" d="M370.758 423.792C370.758 421.805 372.369 420.193 374.357 420.193H494.276C496.264 420.193 497.875 421.805 497.875 423.792V450.207C497.875 485.31 469.419 513.766 434.316 513.766V513.766C399.214 513.766 370.758 485.31 370.758 450.207V423.792Z"></path>
<path stroke-width="7.06207" stroke="#697A8D" d="M529.654 423.792C529.654 421.805 531.266 420.193 533.253 420.193H653.173C655.16 420.193 656.772 421.805 656.772 423.792V450.207C656.772 485.31 628.315 513.766 593.213 513.766V513.766C558.11 513.766 529.654 485.31 529.654 450.207V423.792Z"></path>
<path stroke-width="7.06207" stroke="#697A8D" d="M497.875 458.152C497.875 458.152 508.468 454.621 514.647 454.621C520.827 454.621 529.654 458.152 529.654 458.152"></path>
<path fill="#FFC17F" d="M612.149 796.218C617.257 790.556 622.443 784.807 627.908 779.177C653.006 801.563 748.5 821.5 792.5 825.5C836.5 829.5 905.586 854.03 923.043 918.482L941.698 1024.13H98.2832L108.042 943.183C118 845.5 191.384 830.449 256.992 818.573C262.094 817.65 267.353 816.698 272.772 815.669L346.322 807.733C371.026 803.237 393.942 797.715 406.767 786.27C421.958 814.786 458.156 848.246 518.178 849.214C563.677 849.948 586.972 824.126 612.149 796.218Z"></path>
<path fill="#D88F42" d="M526.123 850.979C516.835 869.555 389.173 847.949 363.695 820.082C348.159 803.089 352.785 793.769 359.286 786.511L360.002 785.727V785.727L360.727 784.958V784.958L362.186 783.457V783.457L363.266 782.359V782.359L364.314 781.277V781.277L364.986 780.562V780.562L365.63 779.851C368.358 776.774 370.167 773.748 369.125 770.179L368.992 769.765C362.813 752.11 379.452 729.572 406.951 733.572C417.001 735.034 421.414 739.571 424.352 746.183L424.744 747.097V747.097L425.12 748.037V748.037L425.482 749.001V749.001L425.833 749.99V749.99L426.344 751.516V751.516L426.677 752.562V752.562L427.172 754.172V754.172L428.695 759.281V759.281L429.241 761.071V761.071L429.821 762.901V762.901L430.229 764.143V764.143L430.658 765.401V765.401L431.11 766.674C431.342 767.315 431.583 767.961 431.835 768.613L432.354 769.924C433.421 772.56 434.675 775.28 436.199 778.063C448.029 799.666 469.124 814.582 487.942 825.422L490.382 826.813C490.787 827.041 491.19 827.268 491.591 827.492L493.982 828.816V828.816L496.333 830.097V830.097L499.773 831.941V831.941L510.246 837.466V837.466L512.115 838.466V838.466L513.896 839.434V839.434L515.583 840.37C523.225 844.673 527.606 848.013 526.123 850.979Z" clip-rule="evenodd" fill-rule="evenodd"></path>
<path fill="#D88F42" d="M508.41 849.213C517.698 867.789 645.36 846.183 670.837 818.317C685.527 802.251 682.192 793.043 676.291 785.952L675.599 785.143C675.482 785.01 675.365 784.877 675.247 784.745L674.531 783.961V783.961L673.805 783.192V783.192L671.985 781.323V781.323L671.267 780.593V780.593L670.219 779.511V779.511L669.547 778.797C666.36 775.352 664.131 772.027 665.541 768C671.72 750.344 655.081 727.807 627.582 731.806C616.846 733.368 612.543 738.438 609.599 745.799L609.23 746.751V746.751L608.874 747.727V747.727L608.528 748.727V748.727L608.189 749.75V749.75L607.691 751.328V751.328L607.196 752.954V752.954L605.838 757.516V757.516L605.291 759.306V759.306L604.909 760.521V760.521L604.51 761.754V761.754L604.092 763.004V763.004L603.652 764.27V764.27L603.188 765.551C603.029 765.981 602.866 766.413 602.698 766.848L602.179 768.159C601.111 770.795 599.858 773.514 598.334 776.297C585.989 798.839 563.557 814.1 544.151 825.048L541.742 826.394C541.343 826.615 540.946 826.833 540.551 827.051L538.199 828.332V828.332L534.76 830.176V830.176L524.287 835.7V835.7L522.418 836.7V836.7L520.637 837.668V837.668L518.95 838.605C511.308 842.907 506.927 846.247 508.41 849.213Z" clip-rule="evenodd" fill-rule="evenodd"></path>
<path fill="#D88F42" d="M492.579 844.809C492.564 842.371 490.575 840.407 488.138 840.423C485.7 840.438 483.737 842.427 483.752 844.865L484.396 945.843C478.881 947.766 474.924 953.012 474.924 959.183C474.924 965.417 478.962 970.708 484.566 972.581L484.635 983.372C484.65 985.81 486.639 987.773 489.077 987.758C491.514 987.742 493.478 985.753 493.462 983.316L493.394 972.626C499.068 970.793 503.172 965.467 503.172 959.183C503.172 952.836 498.985 947.466 493.222 945.686L492.579 844.809Z"></path>
<path fill="#D88F42" d="M540.892 945.843C535.377 947.766 531.42 953.012 531.42 959.183C531.42 965.417 535.459 970.708 541.062 972.581L541.131 983.372C541.146 985.81 543.135 987.773 545.573 987.758C548.01 987.742 549.974 985.753 549.958 983.316L549.89 972.626C555.564 970.793 559.668 965.467 559.668 959.183C559.668 952.836 555.481 947.466 549.718 945.686L549.076 844.809C549.06 842.371 547.071 840.407 544.634 840.423C542.196 840.438 540.233 842.427 540.248 844.865L540.892 945.843Z"></path>
</svg>
