<?xml version="1.0" standalone="no"?><!DOCTYPE svg PUBLIC "-//W3C//DTD SVG 1.1//EN" "http://www.w3.org/Graphics/SVG/1.1/DTD/svg11.dtd"><svg height="1024" node-id="1" sillyvg="true" template-height="1024" template-width="1024" version="1.1" viewBox="0 0 1024 1024" width="1024" xmlns="http://www.w3.org/2000/svg" xmlns:xlink="http://www.w3.org/1999/xlink"><defs node-id="95"></defs><path d="M 0.00 0.00 L 1024.00 0.00 L 1024.00 1024.00 L 0.00 1024.00 Z" fill="#ffffff" fill-rule="nonzero" node-id="97" stroke="none" target-height="1024" target-width="1024" target-x="0" target-y="0"></path><path d="M 467.16 200.54 C 478.90 187.41 491.58 172.94 509.44 168.67 C 517.55 166.80 529.35 167.09 532.69 176.37 C 536.90 188.60 533.90 201.84 530.72 213.95 C 520.60 248.22 499.92 277.81 483.64 309.26 C 472.15 331.42 460.41 353.87 453.74 378.05 C 451.58 383.00 458.34 387.39 462.30 384.11 C 468.08 379.55 470.71 372.37 473.50 365.80 C 490.11 382.22 503.96 402.25 509.60 425.17 C 514.14 443.17 512.27 463.43 501.64 479.03 C 491.32 494.17 475.51 504.56 459.32 512.58 C 442.55 520.71 423.88 527.09 405.00 524.12 C 375.91 520.75 344.14 516.85 321.77 495.96 C 316.56 491.03 310.90 484.24 312.44 476.60 C 316.93 470.75 324.58 465.71 323.29 457.31 C 321.04 457.37 318.80 457.50 316.56 457.62 C 309.97 457.91 302.97 458.97 296.98 455.51 C 302.19 439.91 309.05 424.93 315.33 409.74 C 329.43 373.54 364.20 345.05 403.29 341.58 C 406.06 353.36 410.02 364.92 415.38 375.79 C 417.78 381.19 426.61 381.13 429.13 375.83 C 431.94 370.76 427.53 366.02 425.81 361.49 C 415.40 336.41 413.60 307.74 421.82 281.78 C 431.02 251.94 447.27 224.50 467.16 200.54 Z M 490.39 196.95 C 475.84 213.12 464.25 231.78 454.66 251.28 C 443.91 274.16 435.99 299.30 437.77 324.88 C 438.37 330.89 438.88 337.39 442.43 342.55 C 444.91 346.67 451.87 345.50 453.06 340.86 C 456.22 332.10 460.63 323.91 464.45 315.45 C 477.59 289.76 493.51 265.64 507.59 240.48 C 515.95 224.41 525.51 206.31 520.81 187.66 C 519.80 184.45 517.07 182.42 513.67 182.91 C 504.12 183.45 496.69 190.43 490.39 196.95 Z M 376.92 360.46 C 351.27 372.84 331.73 396.56 322.86 423.45 C 327.25 419.34 329.68 413.78 332.77 408.75 C 346.52 386.26 366.27 367.19 390.24 355.91 C 385.54 356.58 381.09 358.25 376.92 360.46 Z M 471.04 375.77 C 469.64 386.38 461.07 393.52 452.26 398.41 C 457.76 398.39 463.24 398.35 468.74 398.16 C 479.39 416.06 485.90 438.96 477.44 459.01 C 468.08 480.56 446.33 493.95 424.53 500.33 C 394.16 508.85 362.04 503.02 332.69 493.29 C 336.90 499.80 344.84 501.95 351.39 505.27 C 367.38 511.49 384.41 514.84 401.40 516.69 C 431.39 518.31 461.66 505.89 482.66 484.61 C 495.52 472.05 502.48 453.37 500.08 435.45 C 497.25 413.15 486.37 392.05 471.04 375.77 Z M 386.77 420.62 C 375.63 423.04 364.13 421.13 353.36 417.89 C 350.42 421.21 343.43 423.78 345.44 429.28 C 348.15 432.79 352.48 430.84 355.78 429.54 C 374.89 434.29 396.58 428.44 409.22 413.00 C 401.79 415.63 394.65 419.34 386.77 420.62 Z M 397.34 440.73 C 381.89 444.32 376.28 466.47 388.08 477.01 C 398.80 488.32 420.70 483.17 424.21 467.62 C 429.65 451.94 412.90 435.58 397.34 440.73 Z M 352.52 459.51 C 348.70 460.21 344.90 461.15 341.29 462.59 C 339.16 463.37 333.94 465.38 337.21 468.25 C 344.02 466.47 350.73 464.17 357.83 463.76 C 360.28 462.79 365.16 464.21 365.18 460.25 C 361.43 457.74 356.66 459.06 352.52 459.51 Z M 340.25 471.19 C 339.73 472.05 338.69 473.77 338.17 474.63 C 347.71 477.55 357.18 481.06 367.09 482.64 C 360.19 475.37 349.79 472.77 340.25 471.19 Z" fill="#fefefe" fill-rule="nonzero" node-id="99" stroke="none" target-height="360.28796" target-width="239.91904" target-x="296.981" target-y="166.804"></path><path d="M 535.44 494.25 C 544.58 493.04 553.54 496.82 561.94 499.98 C 598.47 515.82 631.43 542.48 650.27 578.01 C 661.54 600.40 667.61 627.76 657.78 651.75 C 651.61 667.45 636.52 677.01 621.52 683.09 C 618.07 684.34 613.86 686.17 610.54 683.54 C 604.57 680.20 607.38 672.64 607.09 667.16 C 600.17 673.94 597.61 683.38 597.01 692.78 C 587.04 681.88 579.55 669.11 571.56 656.78 C 571.05 659.41 570.58 662.16 571.79 664.74 C 579.01 684.12 595.68 698.13 603.05 717.43 C 604.36 721.43 606.68 726.70 603.13 730.29 C 597.03 736.53 588.50 739.47 580.49 742.38 C 557.57 749.61 533.35 751.37 509.48 752.38 C 506.96 752.34 504.82 753.79 502.67 754.84 C 515.10 757.06 527.79 756.26 540.33 755.46 C 559.87 753.94 579.57 751.04 597.83 743.63 C 603.58 740.99 609.82 737.99 613.25 732.41 C 617.41 724.85 611.58 716.93 611.05 709.16 C 616.51 716.26 622.28 724.01 623.24 733.21 C 621.54 741.68 612.34 745.44 605.35 748.87 C 585.95 756.30 565.06 758.51 544.58 760.77 C 524.79 762.64 504.82 763.95 485.00 762.27 C 479.50 761.47 473.21 761.26 468.93 757.26 C 467.16 752.54 471.53 748.58 474.82 745.93 C 484.50 738.75 496.16 734.83 507.67 731.63 C 516.29 729.60 524.93 726.02 533.94 727.93 C 544.99 726.89 555.97 724.90 567.07 724.16 C 565.02 722.84 562.96 721.39 560.54 720.93 C 543.79 716.83 526.37 713.47 511.43 704.41 C 486.66 689.31 468.80 661.93 468.02 632.58 C 467.51 617.00 473.67 600.50 486.70 591.33 C 502.13 580.23 522.41 579.14 540.61 581.89 C 567.66 586.26 591.33 601.14 613.90 615.81 C 595.45 585.46 560.48 567.97 525.74 565.10 C 528.01 560.50 531.28 555.23 527.99 550.26 C 523.44 554.74 518.90 559.25 513.93 563.29 C 509.83 567.34 503.57 566.64 498.34 567.79 C 500.90 559.62 508.06 554.47 512.52 547.45 C 504.14 551.90 497.21 558.64 488.42 562.33 C 455.71 577.62 418.46 577.44 383.34 573.31 C 390.24 579.10 399.76 579.00 408.22 580.25 C 427.18 582.42 446.14 579.84 465.01 578.01 C 466.85 579.77 468.72 581.56 470.59 583.39 C 468.68 584.89 466.55 585.87 464.19 586.36 C 445.22 590.08 425.66 589.46 406.60 586.94 C 390.88 584.70 375.20 581.05 361.01 573.72 L 358.39 573.33 C 364.28 567.42 372.61 565.33 380.47 563.48 C 372.32 560.24 364.05 563.73 357.46 568.63 C 358.20 561.98 364.46 558.74 369.88 556.48 C 382.50 551.41 395.49 547.21 407.68 541.15 C 415.55 536.72 424.92 537.62 433.38 535.08 C 458.52 528.69 482.10 516.01 501.25 498.52 C 513.46 498.44 525.35 502.46 534.03 511.23 C 533.64 505.73 528.18 497.00 535.44 494.25 Z M 492.65 601.51 C 478.59 613.13 476.54 633.88 481.51 650.44 C 487.25 668.39 498.83 684.59 514.04 695.77 C 525.24 704.56 539.14 708.70 552.52 712.95 C 562.16 715.50 571.83 719.21 581.97 718.53 C 577.86 714.43 572.16 712.77 567.05 710.37 C 551.14 702.77 534.05 696.76 520.62 684.92 C 509.32 674.16 499.67 660.70 497.17 644.98 C 495.07 633.73 496.35 620.19 505.81 612.51 C 516.58 603.75 531.40 602.93 544.66 604.22 C 569.96 607.09 593.05 619.10 614.03 632.93 C 610.80 626.75 605.47 622.14 600.28 617.68 C 584.62 605.41 565.71 597.67 546.44 593.18 C 528.46 589.71 507.80 589.81 492.65 601.51 Z M 481.98 753.90 C 481.61 759.56 486.78 754.37 488.81 753.44 C 494.91 748.72 503.08 748.64 509.56 744.78 C 499.94 742.28 487.56 745.28 481.98 753.90 Z" fill="#fefefe" fill-rule="nonzero" node-id="101" stroke="none" target-height="270.90802" target-width="310.14996" target-x="357.463" target-y="493.044"></path><path d="M 696.10 615.53 C 703.24 618.34 709.81 623.26 712.91 630.49 C 719.48 645.80 712.05 665.09 697.68 673.10 C 692.84 675.87 687.29 677.00 681.88 678.06 C 693.68 659.57 697.11 637.12 696.10 615.53 Z" fill="#fefefe" fill-rule="nonzero" node-id="103" stroke="none" target-height="62.535034" target-width="37.59906" target-x="681.876" target-y="615.527"></path><path d="M 340.24 471.19 C 349.79 472.77 360.19 475.37 367.09 482.64 C 357.18 481.06 347.71 477.55 338.17 474.63 C 338.68 473.77 339.73 472.05 340.24 471.19 Z" fill="#48387a" fill-rule="nonzero" node-id="105" stroke="none" target-height="11.451965" target-width="28.91803" target-x="338.171" target-y="471.18604"></path><path d="M 481.98 753.90 C 487.56 745.28 499.94 742.28 509.56 744.78 C 503.08 748.64 494.91 748.72 488.81 753.44 C 486.78 754.37 481.61 759.56 481.98 753.90 Z" fill="#48387a" fill-rule="nonzero" node-id="107" stroke="none" target-height="17.279968" target-width="27.953033" target-x="481.60898" target-y="742.2801"></path><path d="M 554.02 269.24 C 557.71 274.69 559.68 281.39 564.65 285.92 C 568.08 288.81 571.87 291.22 575.52 293.84 C 565.28 298.93 558.33 308.11 554.10 318.51 C 550.53 307.80 543.02 298.83 532.84 293.84 C 542.87 288.73 550.69 280.09 554.02 269.24 Z" fill="#fdfdfd" fill-rule="nonzero" node-id="109" stroke="none" target-height="49.277008" target-width="42.689026" target-x="532.836" target-y="269.236"></path><path d="M 199.27 384.15 C 205.73 376.76 207.11 366.70 210.06 357.69 C 211.77 366.56 213.37 375.90 218.91 383.31 C 222.23 388.00 227.63 390.37 232.56 392.97 C 217.93 397.81 212.14 413.58 210.13 427.49 C 206.53 413.97 201.59 398.23 186.87 393.20 C 191.02 390.20 196.01 388.21 199.27 384.15 Z" fill="#fdfdfd" fill-rule="nonzero" node-id="111" stroke="none" target-height="69.80002" target-width="45.684998" target-x="186.873" target-y="357.69202"></path><path d="M 518.24 474.70 C 519.33 471.45 520.44 468.23 521.57 465.03 C 560.75 473.79 598.37 491.05 628.97 517.28 C 652.77 537.21 671.70 563.64 680.13 593.73 C 685.90 614.30 687.17 636.91 679.43 657.17 C 670.01 683.01 645.47 701.83 618.73 706.71 C 616.61 704.56 614.48 702.42 612.36 700.33 C 625.42 695.47 639.13 691.55 650.60 683.34 C 671.63 669.54 680.48 642.33 677.36 618.11 C 673.93 590.18 660.55 564.01 642.25 542.89 C 618.91 517.16 589.77 496.12 556.89 484.44 C 544.37 479.87 531.13 477.88 518.24 474.70 Z" fill="#fdfdfd" fill-rule="nonzero" node-id="113" stroke="none" target-height="241.68298" target-width="168.92804" target-x="518.243" target-y="465.029"></path><path d="M 764.75 476.40 C 767.58 485.70 774.72 492.67 783.63 496.27 C 774.60 499.30 767.40 506.47 764.83 515.72 C 761.96 506.36 754.47 499.38 745.40 496.14 C 754.39 492.63 761.92 485.82 764.75 476.40 Z" fill="#fdfdfd" fill-rule="nonzero" node-id="115" stroke="none" target-height="39.322998" target-width="38.234985" target-x="745.396" target-y="476.399"></path><path d="M 221.80 630.63 C 224.00 639.79 226.77 650.40 236.64 654.03 C 227.26 658.26 223.90 668.23 221.82 677.55 C 220.31 667.94 215.98 657.97 206.37 654.15 C 216.39 650.81 220.16 640.09 221.80 630.63 Z" fill="#fdfdfd" fill-rule="nonzero" node-id="117" stroke="none" target-height="46.916992" target-width="30.272003" target-x="206.37" target-y="630.632"></path><path d="M 692.84 726.23 C 694.15 731.01 694.75 736.55 691.91 740.97 C 686.84 750.14 675.29 753.65 665.40 752.23 C 659.67 751.43 653.29 747.80 653.25 741.31 C 659.16 745.07 665.85 748.81 673.13 747.06 C 683.72 745.87 691.61 736.53 692.84 726.23 Z" fill="#fcfcfa" fill-rule="nonzero" node-id="119" stroke="none" target-height="27.419006" target-width="41.497986" target-x="653.247" target-y="726.23"></path><path d="M 729.72 646.15 C 738.81 646.83 747.82 650.11 754.53 656.39 C 765.45 665.99 769.14 682.51 763.97 696.02 C 759.31 708.93 747.24 718.35 734.03 721.28 C 732.16 721.72 730.29 722.13 728.44 722.56 C 728.59 721.22 728.90 718.55 729.06 717.22 C 738.05 712.19 748.66 707.84 752.72 697.48 C 759.72 683.23 750.28 666.32 736.18 661.15 C 733.06 660.27 729.92 659.53 726.78 658.79 C 727.95 654.62 728.90 650.38 729.72 646.15 Z" fill="#fcfcfb" fill-rule="nonzero" node-id="121" stroke="none" target-height="76.409" target-width="42.360046" target-x="726.782" target-y="646.148"></path><path d="M 443.15 157.92 C 448.65 155.72 455.71 153.83 460.88 157.84 C 466.13 162.90 466.34 170.76 467.69 177.50 C 467.04 178.22 465.70 179.67 465.03 180.41 C 463.65 174.46 460.74 165.37 452.80 167.34 C 436.56 171.44 425.46 185.25 414.60 197.08 C 396.05 220.72 380.31 248.77 379.65 279.58 C 378.70 295.81 381.48 312.01 385.95 327.61 C 384.59 327.69 381.91 327.89 380.57 327.97 C 373.14 303.92 368.48 277.92 374.97 253.10 C 380.37 233.30 390.07 214.93 401.08 197.69 C 411.58 181.38 424.96 165.76 443.15 157.92 Z" fill="#fefdfd" fill-rule="nonzero" node-id="123" stroke="none" target-height="174.141" target-width="99.21005" target-x="368.48495" target-y="153.833"></path><path d="M 571.23 197.12 C 580.65 193.07 587.74 185.46 591.53 176.02 C 595.35 185.36 602.16 193.30 611.85 196.75 C 602.84 201.59 595.35 208.61 590.94 217.93 C 587.65 208.41 579.96 201.61 571.23 197.12 Z" fill="#fefdfd" fill-rule="nonzero" node-id="125" stroke="none" target-height="41.90898" target-width="40.615967" target-x="571.234" target-y="176.01901"></path><path d="M 323.99 252.53 C 327.50 255.61 327.01 260.99 328.92 265.01 C 331.48 273.30 337.97 279.56 345.58 283.38 C 341.00 286.41 335.89 289.16 332.98 294.03 C 328.38 300.82 327.03 309.07 324.07 316.60 C 321.30 303.80 316.01 289.19 302.52 284.36 C 307.65 280.61 313.61 277.44 316.91 271.82 C 320.52 265.91 322.00 259.06 323.99 252.53 Z" fill="#fefdfd" fill-rule="nonzero" node-id="127" stroke="none" target-height="64.074005" target-width="43.057953" target-x="302.522" target-y="252.53"></path><path d="M 730.76 286.37 C 739.88 282.02 746.34 274.26 750.34 265.15 C 753.71 274.72 760.75 282.21 769.94 286.45 C 761.14 291.34 753.44 298.34 750.36 308.23 C 746.50 298.79 739.34 291.63 730.76 286.37 Z" fill="#fefdfd" fill-rule="nonzero" node-id="129" stroke="none" target-height="43.078003" target-width="39.179016" target-x="730.763" target-y="265.152"></path><path d="M 544.47 378.13 C 548.93 371.83 549.75 363.93 553.15 357.14 C 555.64 365.61 557.32 374.91 563.58 381.58 C 566.64 384.25 570.11 386.40 573.29 388.95 C 560.50 394.72 555.86 408.61 553.20 421.29 C 548.88 408.84 544.43 393.83 530.25 389.52 C 535.52 386.51 541.19 383.47 544.47 378.13 Z" fill="#fefdfd" fill-rule="nonzero" node-id="131" stroke="none" target-height="64.15604" target-width="43.036987" target-x="530.25" target-y="357.13797"></path><path d="M 674.36 448.10 C 677.22 454.87 679.80 462.05 684.93 467.51 C 689.74 472.85 696.35 475.97 702.61 479.27 C 689.16 485.78 677.18 497.09 674.61 512.42 L 674.45 512.38 C 670.81 497.27 659.46 485.18 645.18 479.44 C 651.99 476.21 659.12 472.95 664.23 467.23 C 669.32 461.89 671.78 454.83 674.36 448.10 Z" fill="#fefdfd" fill-rule="nonzero" node-id="133" stroke="none" target-height="64.321045" target-width="57.424988" target-x="645.18" target-y="448.097"></path><path d="M 376.92 360.46 C 381.09 358.25 385.54 356.58 390.24 355.91 C 366.27 367.19 346.52 386.26 332.77 408.75 C 329.68 413.78 327.25 419.34 322.86 423.45 C 331.73 396.56 351.26 372.84 376.92 360.46 Z" fill="#d3d8e5" fill-rule="nonzero" node-id="135" stroke="none" target-height="67.543" target-width="67.37802" target-x="322.861" target-y="355.90598"></path><path d="M 476.85 89.70 C 550.14 83.79 624.66 97.70 691.36 128.47 C 714.92 139.47 737.45 152.62 758.78 167.50 C 829.50 217.50 884.96 289.51 912.58 371.81 C 904.16 374.48 895.83 377.33 887.52 380.29 C 885.72 371.79 882.25 363.85 878.41 356.13 C 849.57 291.98 805.02 234.41 747.82 193.16 C 677.03 141.21 589.09 112.42 501.17 114.82 C 424.12 116.66 347.24 141.03 285.12 187.02 C 276.68 181.66 270.22 173.60 260.88 169.64 C 323.56 123.56 399.29 95.59 476.85 89.70 Z" fill="#fee3bc" fill-rule="nonzero" node-id="137" stroke="none" target-height="296.50128" target-width="651.7" target-x="260.88" target-y="83.7867"></path><path d="M 443.39 77.14 C 526.35 64.10 612.73 76.19 689.61 109.71 C 691.11 110.28 692.49 111.04 693.78 112.03 C 697.02 116.91 702.40 119.31 707.06 122.53 C 707.80 124.53 706.32 126.82 706.16 128.92 C 701.23 128.84 696.28 128.77 691.36 128.47 C 624.66 97.70 550.14 83.79 476.85 89.70 C 399.29 95.59 323.56 123.56 260.88 169.64 C 256.39 172.96 252.01 176.43 247.60 179.90 C 242.33 180.27 237.05 180.25 231.76 180.04 C 231.16 177.62 230.57 175.24 229.95 172.86 C 290.56 122.19 365.34 89.02 443.39 77.14 Z" fill="#4a5294" fill-rule="nonzero" node-id="139" stroke="none" target-height="116.16222" target-width="477.84598" target-x="229.952" target-y="64.1048"></path><path d="M 693.78 112.03 C 722.23 123.91 748.99 139.94 773.72 158.25 C 775.79 161.86 778.93 165.35 779.26 169.66 C 777.84 170.93 775.98 171.96 774.13 170.81 C 769.20 168.94 764.09 167.52 758.78 167.50 C 737.45 152.62 714.92 139.47 691.36 128.47 C 696.28 128.77 701.23 128.84 706.16 128.92 C 706.32 126.82 707.80 124.53 707.06 122.53 C 702.40 119.31 697.02 116.91 693.78 112.03 Z" fill="#4e4a90" fill-rule="nonzero" node-id="141" stroke="none" target-height="59.928" target-width="87.90204" target-x="691.358" target-y="112.027"></path><path d="M 285.12 187.02 C 347.24 141.03 424.12 116.66 501.17 114.82 C 589.09 112.42 677.03 141.21 747.82 193.16 C 805.02 234.41 849.57 291.98 878.41 356.13 C 882.25 363.85 885.72 371.79 887.52 380.29 C 882.49 382.05 877.49 383.94 872.52 385.85 C 869.19 377.46 865.85 369.06 862.19 360.81 C 840.60 311.90 809.37 267.04 769.63 231.15 C 720.09 184.93 657.82 152.79 591.84 137.68 C 509.60 119.09 421.02 129.41 345.44 166.78 C 317.13 180.80 290.74 198.57 266.81 219.14 C 261.99 205.88 257.45 188.83 242.39 183.98 C 244.11 182.59 245.86 181.23 247.60 179.90 C 252.01 176.43 256.39 172.96 260.88 169.64 C 270.22 173.60 276.68 181.66 285.12 187.02 Z" fill="#fbce91" fill-rule="nonzero" node-id="143" stroke="none" target-height="273.433" target-width="645.1321" target-x="242.389" target-y="112.417"></path><path d="M 345.44 166.78 C 421.02 129.41 509.60 119.09 591.84 137.68 C 657.82 152.79 720.09 184.93 769.63 231.15 C 766.72 230.84 763.85 230.41 760.99 229.93 C 758.51 233.12 755.45 235.78 751.68 237.30 C 701.11 192.25 637.75 161.94 571.13 150.10 C 537.19 143.55 502.38 143.59 468.08 146.90 C 473.19 152.99 476.29 160.36 477.75 168.14 C 490.60 157.73 507.22 150.45 524.03 153.12 C 533.99 154.24 543.79 160.22 547.26 169.99 C 553.75 187.92 549.03 207.50 543.63 225.11 C 528.42 269.93 498.54 307.74 480.25 351.21 C 509.62 375.94 527.85 414.93 523.93 453.58 C 556.40 460.29 586.75 474.22 615.34 490.66 C 631.80 503.90 648.65 516.95 661.80 533.68 C 677.46 553.10 688.30 576.27 693.47 600.65 C 701.43 602.66 709.62 605.08 715.86 610.70 C 722.31 615.77 725.90 623.30 729.22 630.59 C 742.98 631.53 756.75 636.38 766.58 646.33 C 780.10 659.39 785.73 680.09 779.86 698.07 C 776.14 711.37 766.66 722.27 755.02 729.41 C 756.87 747.21 751.37 766.52 736.94 777.93 C 715.99 795.52 685.26 795.17 661.15 784.66 C 650.39 795.04 636.01 799.52 621.68 802.13 C 612.51 814.73 601.96 826.69 588.21 834.45 C 556.11 853.74 515.08 855.36 480.48 842.04 C 460.76 834.70 443.64 821.75 429.68 806.17 C 410.78 812.59 389.21 811.22 371.79 801.22 C 357.36 793.44 346.48 780.12 340.53 764.96 C 325.30 767.24 309.50 767.34 294.64 762.91 C 278.41 758.39 263.61 747.62 255.83 732.49 C 246.29 713.83 249.74 689.66 263.69 674.12 C 269.25 667.51 276.66 662.88 284.19 658.87 C 282.55 642.60 286.45 624.48 299.92 613.99 C 319.02 598.74 345.60 599.97 368.01 605.92 C 370.04 602.23 372.04 598.51 373.96 594.78 C 364.93 591.33 354.69 587.76 349.62 578.87 C 345.44 571.07 349.07 561.78 353.91 555.19 C 361.67 544.39 375.48 541.75 386.95 536.70 C 367.33 533.04 347.22 530.15 328.92 521.82 C 308.11 512.19 291.69 494.46 282.14 473.79 C 279.06 476.48 275.90 479.09 272.56 481.49 C 271.63 475.06 277.71 472.05 282.02 468.93 C 277.28 464.74 269.97 462.13 268.76 455.24 C 272.97 456.53 276.89 458.58 280.54 461.07 C 282.72 439.29 294.60 420.35 301.91 400.13 C 313.62 369.53 338.44 344.41 368.85 332.24 C 361.63 308.62 355.62 283.58 360.05 258.81 C 364.56 233.16 377.00 209.70 391.10 188.09 C 398.88 176.08 408.46 165.31 419.67 156.38 C 349.15 175.07 285.57 216.53 237.98 271.58 C 193.67 323.30 162.22 386.65 151.82 454.21 C 140.06 534.25 154.47 618.34 194.59 688.82 C 213.92 723.42 238.69 755.00 268.04 781.68 C 272.93 785.81 277.32 790.74 282.98 793.83 C 291.09 791.25 299.67 788.58 308.17 791.17 C 326.45 795.11 336.06 814.64 354.36 818.40 C 367.01 820.70 379.98 820.06 392.66 822.28 C 411.32 825.11 430.01 832.91 442.29 847.75 C 448.44 854.73 451.17 863.80 453.92 872.50 C 512.48 881.92 573.25 876.46 629.23 856.96 C 627.65 843.56 630.86 829.01 641.01 819.55 C 653.60 806.68 672.95 804.49 689.98 806.74 C 707.24 808.67 727.77 809.49 741.27 796.65 C 796.13 750.96 836.97 689.21 859.69 621.71 C 883.62 551.33 884.07 473.36 861.13 402.70 C 858.23 394.14 854.93 385.75 851.46 377.44 C 854.40 375.69 857.84 374.58 860.27 372.10 C 861.52 368.47 861.83 364.59 862.19 360.81 C 865.85 369.06 869.19 377.46 872.52 385.85 C 877.49 383.94 882.49 382.05 887.52 380.29 C 895.83 377.33 904.16 374.48 912.58 371.81 C 884.96 289.51 829.50 217.50 758.78 167.50 C 764.09 167.52 769.20 168.94 774.13 170.81 C 775.98 171.96 777.84 170.93 779.26 169.66 C 778.93 165.35 775.79 161.86 773.72 158.25 C 834.18 201.63 882.72 261.25 913.34 329.06 C 948.74 406.95 959.09 495.20 945.79 579.51 C 935.61 641.88 912.81 702.28 878.59 755.44 C 843.79 809.00 796.75 854.46 742.30 887.81 C 632.19 955.07 491.71 971.10 369.80 928.18 C 299.89 904.43 235.86 862.94 186.50 807.93 C 137.21 753.08 102.09 685.72 84.65 614.11 C 65.09 533.82 68.02 447.89 94.81 369.62 C 120.77 293.35 167.62 224.06 229.95 172.86 C 230.57 175.24 231.16 177.62 231.76 180.04 C 237.05 180.25 242.33 180.27 247.60 179.90 C 245.86 181.23 244.11 182.59 242.39 183.98 C 230.38 193.96 218.79 204.42 207.87 215.57 C 203.54 220.00 199.31 224.56 195.16 229.17 C 193.77 230.73 192.37 232.31 191.00 233.92 C 189.95 235.09 188.93 236.28 187.92 237.49 C 150.85 281.65 122.66 333.23 105.70 388.33 C 112.93 391.66 120.38 394.53 128.05 396.71 C 134.05 398.45 140.10 399.87 146.20 401.16 C 161.85 352.23 186.93 306.46 219.55 266.77 C 222.67 263.08 225.83 259.43 229.07 255.85 C 234.94 249.41 240.93 243.09 247.17 237.03 C 253.55 230.88 260.06 224.86 266.81 219.14 C 290.74 198.57 317.13 180.80 345.44 166.78 Z M 443.15 157.92 C 424.96 165.76 411.58 181.38 401.07 197.69 C 390.07 214.93 380.37 233.30 374.97 253.10 C 368.48 277.92 373.14 303.92 380.57 327.97 C 381.91 327.89 384.59 327.69 385.95 327.61 C 390.98 326.64 396.09 326.11 401.20 325.76 C 399.64 301.50 405.61 277.34 415.24 255.20 C 427.51 227.76 443.89 201.88 465.03 180.41 C 465.70 179.67 467.04 178.22 467.69 177.50 C 466.34 170.76 466.13 162.90 460.88 157.84 C 455.71 153.83 448.65 155.72 443.15 157.92 Z M 467.16 200.54 C 447.27 224.50 431.02 251.94 421.82 281.78 C 413.60 307.74 415.40 336.41 425.81 361.49 C 427.53 366.02 431.94 370.76 429.13 375.83 C 426.61 381.13 417.78 381.19 415.38 375.79 C 410.02 364.92 406.06 353.36 403.29 341.58 C 364.19 345.05 329.43 373.54 315.33 409.74 C 309.05 424.93 302.19 439.91 296.98 455.51 L 296.32 455.24 C 294.03 462.83 298.29 472.68 306.13 475.02 C 310.96 468.48 320.89 465.77 322.88 457.54 C 321.30 457.56 318.14 457.60 316.56 457.62 C 318.80 457.50 321.03 457.37 323.29 457.31 C 324.58 465.71 316.93 470.75 312.44 476.60 C 310.90 484.24 316.56 491.03 321.77 495.96 C 344.14 516.85 375.91 520.75 405.00 524.12 C 423.88 527.09 442.55 520.71 459.32 512.58 C 475.51 504.56 491.32 494.17 501.64 479.03 C 512.27 463.43 514.14 443.17 509.60 425.17 C 503.96 402.25 490.11 382.22 473.50 365.80 C 470.71 372.37 468.08 379.55 462.30 384.11 C 458.34 387.39 451.58 383.00 453.74 378.05 C 460.41 353.87 472.15 331.42 483.64 309.26 C 499.92 277.81 520.60 248.22 530.72 213.95 C 533.90 201.84 536.90 188.60 532.69 176.37 C 529.35 167.09 517.55 166.80 509.44 168.67 C 491.58 172.94 478.90 187.41 467.16 200.54 Z M 890.54 394.72 C 885.96 396.13 881.47 397.75 877.01 399.54 C 880.75 411.38 883.44 423.51 886.04 435.66 C 887.38 443.15 888.71 450.66 889.74 458.22 C 891.09 467.70 891.73 477.26 892.92 486.76 C 894.52 514.43 892.53 542.18 888.32 569.53 C 886.99 576.63 885.65 583.74 884.30 590.84 C 870.77 647.63 845.24 701.56 809.47 747.72 C 772.24 797.10 722.12 836.67 665.38 861.23 C 667.53 866.40 670.61 871.12 673.54 875.89 C 677.69 883.46 682.12 890.89 686.12 898.57 C 739.20 875.23 787.06 840.22 825.95 797.26 C 873.85 743.94 907.26 678.16 923.87 608.55 C 925.00 603.89 926.00 599.23 926.93 594.55 C 930.35 578.01 932.61 561.26 933.99 544.43 C 935.40 525.80 936.24 506.96 934.73 488.34 C 933.88 453.54 927.25 419.00 917.24 385.71 C 908.37 388.78 899.49 391.82 890.54 394.72 Z M 92.98 446.09 C 92.47 449.94 91.95 453.82 91.46 457.72 C 91.09 461.03 90.70 464.33 90.31 467.68 C 82.16 551.39 99.59 637.24 139.22 711.41 C 172.36 774.21 221.43 828.70 281.24 867.14 C 346.61 909.63 423.84 933.91 501.82 935.61 C 502.26 927.57 502.83 919.54 502.65 911.51 C 503.86 905.67 503.40 899.67 503.36 893.80 C 407.95 892.53 314.12 851.85 246.60 784.66 C 195.18 734.42 158.59 669.34 141.70 599.52 C 131.89 558.78 129.37 516.48 132.51 474.76 C 133.00 468.78 133.63 462.85 134.27 456.94 C 136.10 442.45 139.57 428.27 142.38 413.99 C 128.48 411.65 114.75 407.81 102.15 401.43 C 98.07 416.08 95.30 431.06 92.98 446.09 Z M 518.24 474.70 C 513.89 483.50 508.27 491.63 501.25 498.52 C 482.10 516.01 458.52 528.69 433.38 535.08 C 424.92 537.62 415.54 536.72 407.68 541.15 C 395.49 547.21 382.50 551.41 369.88 556.48 C 364.46 558.74 358.20 561.98 357.46 568.63 C 364.05 563.73 372.32 560.24 380.47 563.48 C 372.61 565.33 364.28 567.42 358.39 573.33 L 361.01 573.72 C 375.19 581.05 390.88 584.70 406.60 586.94 C 425.66 589.46 445.22 590.08 464.19 586.36 C 466.55 585.87 468.68 584.89 470.59 583.39 C 478.47 576.29 488.12 571.44 498.13 568.20 L 498.34 567.79 C 503.57 566.64 509.83 567.34 513.93 563.29 C 518.90 559.25 523.44 554.74 527.99 550.26 C 531.28 555.23 528.01 560.50 525.74 565.10 C 560.48 567.97 595.45 585.46 613.90 615.81 C 591.33 601.14 567.66 586.26 540.61 581.89 C 522.41 579.14 502.13 580.23 486.70 591.33 C 473.67 600.50 467.51 617.00 468.02 632.58 C 468.80 661.93 486.66 689.31 511.43 704.41 C 526.37 713.47 543.79 716.83 560.54 720.93 C 562.96 721.39 565.02 722.84 567.07 724.16 C 555.97 724.90 544.99 726.89 533.94 727.93 C 524.93 726.02 516.29 729.60 507.67 731.63 C 496.16 734.83 484.50 738.75 474.82 745.93 C 471.53 748.58 467.16 752.54 468.93 757.26 C 473.21 761.26 479.50 761.47 485.00 762.27 C 504.82 763.95 524.79 762.64 544.58 760.77 C 565.06 758.51 585.95 756.30 605.35 748.87 C 612.34 745.44 621.54 741.68 623.24 733.21 C 622.28 724.01 616.51 716.26 611.05 709.16 C 608.96 705.38 605.74 702.18 605.02 697.78 C 607.46 698.57 609.92 699.47 612.36 700.33 C 614.48 702.42 616.61 704.56 618.73 706.71 C 645.47 701.83 670.01 683.01 679.43 657.17 C 687.17 636.91 685.90 614.30 680.13 593.73 C 671.70 563.64 652.77 537.21 628.97 517.28 C 598.37 491.05 560.75 473.79 521.57 465.03 C 520.44 468.23 519.33 471.45 518.24 474.70 Z M 304.70 479.38 C 305.93 480.48 305.93 480.48 304.70 479.38 Z M 370.56 661.27 C 371.19 667.37 376.14 672.07 382.48 670.82 C 376.12 664.89 371.69 656.14 374.11 647.30 C 377.90 652.98 377.95 661.40 384.68 664.93 C 387.90 667.21 390.88 663.90 393.17 661.99 C 409.74 645.96 421.91 625.30 426.98 602.74 C 425.07 602.72 421.27 602.66 419.38 602.64 C 411.46 601.98 403.56 601.20 395.74 599.95 C 392.31 599.29 388.88 598.64 385.46 597.98 C 375.36 617.21 366.93 639.19 370.56 661.27 Z M 438.08 602.82 C 435.64 611.77 433.56 620.82 430.24 629.50 C 437.07 632.17 443.93 634.86 450.41 638.37 C 450.08 625.67 451.99 612.78 457.60 601.28 C 451.11 602.11 444.61 602.60 438.08 602.82 Z M 322.53 618.56 C 313.54 621.19 305.09 627.31 301.66 636.28 C 297.88 646.25 299.24 657.25 301.74 667.37 C 288.24 672.05 275.02 680.69 268.99 694.11 C 262.83 708.31 266.18 726.43 277.98 736.76 C 292.61 749.93 313.65 753.47 332.69 751.23 C 340.29 750.02 348.93 749.28 353.93 742.67 C 353.75 747.02 351.76 751.47 353.54 755.80 C 359.82 779.69 384.59 796.58 409.06 794.68 C 419.05 793.77 429.19 790.94 437.12 784.56 C 437.61 787.31 437.38 790.49 439.45 792.73 C 464.55 825.24 508.64 841.00 548.74 832.68 C 576.06 827.62 600.52 810.05 613.94 785.73 C 630.51 786.98 649.94 780.39 656.90 764.14 C 673.20 776.08 695.79 779.98 714.90 772.94 C 727.58 768.45 737.78 756.95 739.42 743.43 C 740.22 736.21 739.75 727.28 733.00 722.90 C 733.27 722.50 733.78 721.70 734.03 721.28 C 747.24 718.35 759.31 708.93 763.97 696.02 C 769.14 682.51 765.45 665.99 754.53 656.39 C 747.82 650.11 738.81 646.83 729.72 646.15 C 728.90 650.38 727.95 654.62 726.78 658.79 C 718.51 679.68 696.35 697.66 672.89 691.44 C 661.00 703.78 646.90 714.22 630.47 719.62 C 633.73 727.67 637.12 737.09 632.35 745.30 C 625.68 756.67 613.08 762.95 600.97 766.91 C 579.26 773.17 556.64 775.44 534.23 777.42 C 515.80 778.63 497.19 779.61 478.84 777.19 C 469.05 775.92 458.42 771.22 454.74 761.37 C 450.91 752.17 456.24 742.30 463.28 736.39 C 475.25 726.29 490.72 721.88 505.58 717.98 C 481.61 704.17 459.81 683.21 453.51 655.34 C 443.99 650.56 434.20 646.27 424.10 642.82 C 415.89 656.25 406.10 669.09 393.28 678.41 C 387.86 682.41 380.94 685.72 374.09 683.81 C 367.11 681.84 363.21 674.96 360.93 668.60 C 356.62 655.05 358.82 640.65 361.12 626.96 C 361.69 625.05 362.84 621.23 363.39 619.32 C 350.05 616.37 335.85 614.50 322.53 618.56 Z M 696.10 615.53 C 697.11 637.12 693.68 659.57 681.88 678.06 C 687.29 677.00 692.84 675.87 697.68 673.10 C 712.05 665.09 719.48 645.80 712.91 630.49 C 709.81 623.26 703.24 618.34 696.10 615.53 Z M 293.74 801.51 C 294.87 804.88 298.23 806.50 300.90 808.51 C 314.40 817.89 327.95 827.55 342.89 834.49 C 354.92 841.30 367.60 846.97 380.49 851.98 C 397.67 858.17 414.93 865.24 433.11 867.60 L 433.28 867.78 C 436.11 868.66 438.98 869.52 441.86 870.37 C 437.01 849.76 415.93 838.23 396.70 834.02 C 375.87 828.54 351.80 834.53 333.47 820.95 C 321.69 812.12 310.28 798.16 293.74 801.51 Z M 672.31 818.20 L 676.01 815.75 C 663.32 817.07 649.92 822.59 643.21 834.04 C 639.43 839.79 639.00 846.87 639.27 853.56 C 639.87 853.11 641.08 852.16 641.69 851.71 C 645.08 851.07 648.46 850.25 651.67 848.96 C 675.95 838.95 699.14 826.38 720.87 811.63 C 704.95 815.71 688.05 813.85 672.31 818.20 Z M 519.54 893.72 C 518.47 900.99 518.65 908.36 518.33 915.70 C 518.00 922.43 517.79 929.16 517.73 935.92 C 570.56 934.46 623.12 924.10 672.33 904.78 C 668.72 897.23 664.25 890.15 660.68 882.60 C 658.15 877.10 655.61 871.62 653.08 866.16 C 610.54 882.66 565.30 893.19 519.54 893.72 Z" fill="#4f4384" fill-rule="nonzero" node-id="145" stroke="none" target-height="852.008" target-width="893.9988" target-x="65.0872" target-y="119.087"></path><path d="M 468.08 146.90 C 502.38 143.59 537.19 143.55 571.13 150.10 C 637.75 161.94 701.11 192.25 751.68 237.30 C 795.06 275.62 829.23 324.03 851.46 377.44 C 854.93 385.75 858.23 394.14 861.13 402.70 C 843.93 399.42 826.98 394.14 809.31 394.12 C 810.97 387.37 816.10 382.50 821.00 377.93 C 813.14 373.02 809.49 364.44 807.95 355.66 C 805.94 364.49 801.98 372.92 794.39 378.32 C 799.25 382.61 804.17 387.33 805.86 393.85 C 793.59 395.72 781.09 399.85 772.55 409.33 C 751.55 431.52 746.98 463.86 727.44 487.09 C 714.69 502.53 695.44 515.19 674.61 512.42 C 677.18 497.09 689.16 485.78 702.61 479.27 C 696.35 475.97 689.74 472.85 684.93 467.51 C 679.80 462.05 677.22 454.87 674.37 448.10 C 671.78 454.83 669.32 461.89 664.23 467.23 C 659.12 472.95 651.99 476.21 645.18 479.44 C 659.47 485.18 670.81 497.27 674.45 512.38 C 653.18 509.77 635.72 495.96 615.34 490.66 C 586.75 474.22 556.40 460.29 523.93 453.58 C 527.85 414.93 509.62 375.94 480.25 351.21 C 498.54 307.74 528.42 269.93 543.63 225.11 C 549.03 207.50 553.75 187.92 547.26 169.99 C 543.79 160.22 533.99 154.24 524.03 153.12 C 507.22 150.45 490.60 157.73 477.75 168.14 C 476.29 160.36 473.19 152.99 468.08 146.90 Z M 571.24 197.12 C 579.96 201.61 587.65 208.41 590.94 217.93 C 595.35 208.61 602.84 201.59 611.85 196.75 C 602.16 193.30 595.35 185.36 591.53 176.02 C 587.74 185.46 580.65 193.07 571.24 197.12 Z M 644.36 236.03 C 621.91 247.67 605.86 269.73 599.87 294.11 C 592.60 323.64 600.71 356.67 621.66 378.87 C 643.33 402.39 677.49 412.65 708.76 407.32 C 746.77 401.57 780.92 371.26 787.06 332.65 C 788.62 326.95 787.00 319.07 780.35 317.67 C 775.91 316.01 772.38 319.48 769.18 321.90 C 764.11 326.00 757.57 327.34 751.47 329.10 C 735.34 332.10 717.24 329.68 704.43 318.78 C 696.06 311.99 691.17 300.47 694.17 289.82 C 698.40 273.77 712.72 261.21 728.96 258.26 C 733.82 257.50 738.46 253.93 738.58 248.67 C 739.14 241.04 731.54 236.77 725.76 233.71 C 700.31 221.70 669.21 223.08 644.36 236.03 Z M 730.76 286.37 C 739.34 291.63 746.50 298.79 750.36 308.23 C 753.44 298.34 761.14 291.34 769.94 286.45 C 760.75 282.21 753.71 274.72 750.34 265.15 C 746.34 274.26 739.88 282.02 730.76 286.37 Z M 554.02 269.24 C 550.69 280.09 542.87 288.73 532.84 293.84 C 543.01 298.83 550.53 307.80 554.10 318.51 C 558.33 308.11 565.28 298.93 575.52 293.84 C 571.87 291.22 568.07 288.81 564.65 285.92 C 559.68 281.39 557.71 274.69 554.02 269.24 Z M 544.47 378.13 C 541.19 383.47 535.52 386.51 530.25 389.52 C 544.43 393.83 548.88 408.84 553.20 421.29 C 555.86 408.61 560.50 394.72 573.29 388.95 C 570.11 386.40 566.64 384.25 563.58 381.58 C 557.32 374.91 555.64 365.61 553.15 357.14 C 549.75 363.93 548.93 371.83 544.47 378.13 Z M 596.52 433.28 C 603.29 437.47 608.44 443.62 611.99 450.70 C 615.07 443.25 620.49 437.22 627.49 433.26 C 620.88 429.11 615.50 423.43 611.99 416.47 C 608.32 423.33 603.13 429.15 596.52 433.28 Z M 711.14 438.10 C 709.40 439.29 705.07 441.43 708.68 443.38 C 715.62 447.19 719.60 454.01 723.78 460.41 C 727.03 452.37 732.92 445.94 740.35 441.55 C 732.63 436.85 726.02 430.22 723.89 421.19 C 720.71 427.51 717.59 434.43 711.14 438.10 Z" fill="#c4cfe9" fill-rule="nonzero" node-id="147" stroke="none" target-height="371.637" target-width="393.044" target-x="468.08398" target-y="143.551"></path><path d="M 237.98 271.58 C 285.57 216.53 349.15 175.07 419.67 156.38 C 408.46 165.31 398.88 176.08 391.10 188.09 C 377.00 209.70 364.56 233.16 360.05 258.81 C 355.62 283.58 361.63 308.62 368.85 332.24 C 338.44 344.41 313.63 369.53 301.91 400.13 C 295.69 390.10 289.90 379.82 284.65 369.25 C 290.80 360.24 300.53 354.90 310.22 350.53 C 302.07 346.44 293.23 342.75 287.42 335.42 C 281.61 328.92 278.69 320.56 276.05 312.42 C 274.55 315.87 273.07 319.31 271.59 322.80 C 261.82 304.84 252.18 286.56 237.98 271.58 Z M 323.99 252.53 C 322.00 259.06 320.52 265.91 316.91 271.82 C 313.61 277.44 307.65 280.61 302.52 284.36 C 316.01 289.19 321.30 303.80 324.07 316.60 C 327.03 309.07 328.38 300.82 332.98 294.03 C 335.89 289.16 341.00 286.41 345.58 283.38 C 337.97 279.56 331.48 273.30 328.92 265.01 C 327.01 260.99 327.50 255.61 323.99 252.53 Z" fill="#c4cfe9" fill-rule="nonzero" node-id="149" stroke="none" target-height="243.75603" target-width="181.69301" target-x="237.977" target-y="156.378"></path><path d="M 452.80 167.34 C 460.74 165.37 463.65 174.46 465.03 180.41 C 443.89 201.88 427.51 227.76 415.24 255.20 C 405.61 277.34 399.64 301.50 401.20 325.76 C 396.09 326.11 390.98 326.64 385.95 327.60 C 381.48 312.01 378.71 295.81 379.65 279.58 C 380.31 248.77 396.05 220.72 414.60 197.08 C 425.46 185.25 436.56 171.44 452.80 167.34 Z" fill="#e2dfee" fill-rule="nonzero" node-id="151" stroke="none" target-height="162.237" target-width="86.320984" target-x="378.706" target-y="165.367"></path><path d="M 794.39 378.32 C 801.98 372.92 805.94 364.49 807.95 355.66 C 809.49 364.44 813.14 373.02 821.00 377.93 C 816.10 382.50 810.97 387.37 809.31 394.12 C 808.96 395.93 808.28 399.52 807.95 401.30 C 807.27 398.80 806.60 396.30 805.86 393.85 C 804.17 387.33 799.25 382.61 794.39 378.32 Z" fill="#fdfdfc" fill-rule="nonzero" node-id="153" stroke="none" target-height="45.643982" target-width="26.618958" target-x="794.38605" target-y="355.66003"></path><path d="M 596.52 433.28 C 603.13 429.15 608.32 423.33 611.99 416.47 C 615.50 423.43 620.88 429.11 627.49 433.26 C 620.49 437.22 615.07 443.25 611.99 450.70 C 608.44 443.62 603.29 437.47 596.52 433.28 Z" fill="#fdfdfc" fill-rule="nonzero" node-id="155" stroke="none" target-height="34.233" target-width="30.968994" target-x="596.52" target-y="416.471"></path><path d="M 794.30 644.22 C 803.66 639.89 807.25 629.75 808.50 620.23 C 810.29 629.85 813.64 640.67 823.77 644.49 C 813.68 648.67 810.15 659.51 808.44 669.38 C 807.85 659.26 802.78 649.82 794.30 644.22 Z" fill="#fdfdfc" fill-rule="nonzero" node-id="157" stroke="none" target-height="49.153015" target-width="29.471985" target-x="794.303" target-y="620.227"></path><path d="M 490.39 196.95 C 496.69 190.43 504.12 183.45 513.67 182.91 C 517.07 182.42 519.80 184.45 520.81 187.66 C 517.75 188.25 514.71 188.83 511.68 189.48 C 505.05 190.45 499.79 195.00 495.71 200.03 C 485.57 212.41 477.94 226.57 470.69 240.77 C 459.61 263.22 450.41 287.30 448.94 312.54 C 448.14 322.19 450.80 331.59 453.06 340.86 C 451.87 345.50 444.91 346.67 442.43 342.55 C 438.88 337.39 438.37 330.89 437.77 324.88 C 435.99 299.30 443.91 274.16 454.66 251.28 C 464.25 231.78 475.84 213.12 490.39 196.95 Z" fill="#503e84" fill-rule="nonzero" node-id="159" stroke="none" target-height="164.249" target-width="84.82303" target-x="435.986" target-y="182.422"></path><path d="M 207.87 215.57 C 218.79 204.42 230.38 193.96 242.39 183.98 C 257.45 188.83 261.99 205.88 266.81 219.14 C 260.06 224.86 253.55 230.88 247.17 237.03 C 233.17 231.70 219.75 224.72 207.87 215.57 Z" fill="#f9ba81" fill-rule="nonzero" node-id="161" stroke="none" target-height="53.05301" target-width="58.94301" target-x="207.869" target-y="183.982"></path><path d="M 511.68 189.48 C 514.71 188.83 517.75 188.25 520.81 187.66 C 525.51 206.31 515.94 224.41 507.59 240.48 C 493.51 265.64 477.59 289.76 464.45 315.45 C 459.24 301.91 460.18 286.54 466.56 273.57 C 476.46 251.20 495.09 234.35 506.15 212.67 C 509.99 205.55 511.49 197.51 511.68 189.48 Z" fill="#f0a8bc" fill-rule="nonzero" node-id="163" stroke="none" target-height="127.79898" target-width="66.27002" target-x="459.23798" target-y="187.656"></path><path d="M 495.71 200.03 C 499.79 195.00 505.05 190.45 511.68 189.48 C 511.49 197.51 509.99 205.55 506.15 212.67 C 495.09 234.35 476.46 251.20 466.57 273.57 C 460.18 286.54 459.24 301.91 464.45 315.45 C 460.63 323.91 456.22 332.10 453.06 340.86 C 450.80 331.59 448.14 322.19 448.94 312.54 C 450.41 287.30 459.61 263.22 470.69 240.77 C 477.94 226.57 485.57 212.41 495.71 200.03 Z" fill="#dd7aa4" fill-rule="nonzero" node-id="165" stroke="none" target-height="151.381" target-width="63.54001" target-x="448.136" target-y="189.48201"></path><path d="M 195.16 229.17 C 199.31 224.56 203.54 220.00 207.87 215.57 C 219.75 224.72 233.17 231.70 247.17 237.03 C 240.93 243.09 234.94 249.41 229.07 255.85 C 217.23 247.67 206.15 238.47 195.16 229.17 Z" fill="#fce0b3" fill-rule="nonzero" node-id="167" stroke="none" target-height="40.28801" target-width="52.006012" target-x="195.165" target-y="215.56699"></path><path d="M 644.36 236.03 C 669.21 223.08 700.31 221.70 725.75 233.71 C 731.54 236.77 739.14 241.04 738.58 248.67 C 738.46 253.93 733.82 257.50 728.96 258.26 C 712.72 261.21 698.40 273.77 694.17 289.82 C 691.17 300.47 696.06 311.99 704.43 318.78 C 717.24 329.68 735.34 332.10 751.47 329.10 C 752.50 329.90 753.56 330.72 754.61 331.56 C 749.68 334.54 749.50 340.60 749.34 345.71 L 751.66 345.67 C 730.15 349.79 705.87 344.64 690.23 328.65 C 679.54 318.20 674.73 302.28 678.10 287.69 C 681.92 268.52 696.80 253.33 714.24 245.51 C 698.38 241.30 681.30 239.72 665.42 244.73 C 640.54 251.96 620.82 273.65 615.38 298.91 C 613.04 299.61 610.72 300.35 608.38 301.09 C 607.71 299.06 607.05 297.02 606.39 295.03 C 604.22 294.70 602.04 294.40 599.87 294.11 C 605.86 269.73 621.91 247.67 644.36 236.03 Z" fill="#4d4b8f" fill-rule="nonzero" node-id="169" stroke="none" target-height="128.08601" target-width="154.74603" target-x="599.865" target-y="221.704"></path><path d="M 751.68 237.30 C 755.45 235.78 758.51 233.12 760.99 229.93 C 763.85 230.41 766.72 230.84 769.63 231.15 C 809.37 267.04 840.60 311.90 862.19 360.81 C 861.83 364.59 861.52 368.47 860.26 372.10 C 857.84 374.58 854.39 375.69 851.46 377.44 C 829.23 324.03 795.06 275.62 751.68 237.30 Z" fill="#4f4b8e" fill-rule="nonzero" node-id="171" stroke="none" target-height="147.50104" target-width="110.517944" target-x="751.676" target-y="229.93399"></path><path d="M 191.00 233.92 C 192.37 232.31 193.77 230.73 195.16 229.17 C 206.14 238.47 217.23 247.67 229.07 255.85 C 225.83 259.43 222.67 263.08 219.55 266.77 C 207.17 258.65 197.94 246.85 191.00 233.92 Z" fill="#fcfbf6" fill-rule="nonzero" node-id="173" stroke="none" target-height="37.599" target-width="38.071" target-x="190.998" target-y="229.17401"></path><path d="M 187.92 237.49 C 188.93 236.28 189.95 235.09 191.00 233.92 C 197.94 246.85 207.17 258.65 219.55 266.77 C 186.93 306.46 161.85 352.23 146.19 401.16 C 140.10 399.87 134.05 398.45 128.05 396.71 C 139.91 361.96 155.00 327.81 176.82 298.09 C 184.68 286.93 194.84 277.73 205.26 269.05 C 197.22 259.92 191.49 249.10 187.92 237.49 Z" fill="#e17291" fill-rule="nonzero" node-id="175" stroke="none" target-height="167.24496" target-width="91.49301" target-x="128.053" target-y="233.91501"></path><path d="M 105.70 388.33 C 122.66 333.23 150.85 281.65 187.92 237.49 C 191.49 249.10 197.22 259.92 205.26 269.05 C 194.84 277.73 184.68 286.93 176.82 298.09 C 155.00 327.81 139.91 361.96 128.05 396.71 C 120.38 394.53 112.93 391.66 105.70 388.33 Z" fill="#f6a5b1" fill-rule="nonzero" node-id="177" stroke="none" target-height="159.22104" target-width="99.55899" target-x="105.703" target-y="237.486"></path><path d="M 665.42 244.73 C 681.30 239.72 698.38 241.30 714.24 245.51 C 696.80 253.33 681.92 268.52 678.10 287.69 C 674.74 302.28 679.54 318.20 690.23 328.65 C 705.87 344.64 730.15 349.79 751.66 345.67 C 757.59 344.66 763.25 342.50 768.90 340.49 C 760.24 364.22 739.81 382.83 715.53 389.63 C 684.96 398.96 649.08 388.33 629.56 362.74 C 615.57 344.99 610.70 320.89 615.38 298.91 C 620.82 273.65 640.54 251.96 665.42 244.73 Z M 636.58 277.51 C 621.54 300.78 622.13 333.27 638.92 355.48 C 660.41 386.14 709.69 392.79 737.87 367.91 C 731.20 368.30 724.73 370.05 718.14 371.01 C 702.71 372.49 686.50 370.44 672.91 362.58 C 657.80 354.45 646.29 339.65 642.86 322.78 C 639.60 304.70 643.01 285.12 654.03 270.18 C 659.55 262.03 667.70 256.29 674.06 248.86 C 658.48 252.98 645.10 263.98 636.58 277.51 Z" fill="#fee8ad" fill-rule="nonzero" node-id="179" stroke="none" target-height="159.24" target-width="158.19391" target-x="610.702" target-y="239.72398"></path><path d="M 636.58 277.51 C 645.10 263.98 658.48 252.98 674.06 248.86 C 667.69 256.29 659.55 262.03 654.03 270.18 C 643.00 285.12 639.60 304.70 642.86 322.78 C 646.29 339.65 657.80 354.45 672.91 362.58 C 686.49 370.44 702.71 372.49 718.14 371.01 C 724.73 370.05 731.19 368.30 737.86 367.91 C 709.68 392.79 660.41 386.14 638.92 355.48 C 622.13 333.27 621.54 300.78 636.58 277.51 Z" fill="#fbc882" fill-rule="nonzero" node-id="181" stroke="none" target-height="143.93098" target-width="116.32703" target-x="621.537" target-y="248.856"></path><path d="M 151.82 454.21 C 162.22 386.65 193.67 323.30 237.98 271.58 C 252.18 286.56 261.82 304.84 271.59 322.80 C 266.65 336.74 253.74 345.89 240.21 350.49 C 257.41 356.52 271.02 370.74 275.68 388.46 C 277.94 381.75 280.62 375.12 284.65 369.25 C 289.90 379.82 295.69 390.10 301.91 400.13 C 294.60 420.35 282.72 439.29 280.54 461.07 C 276.89 458.58 272.97 456.53 268.76 455.24 C 269.97 462.13 277.28 464.74 282.02 468.93 C 277.71 472.05 271.63 475.06 272.56 481.49 C 275.90 479.09 279.06 476.48 282.14 473.79 C 291.69 494.46 308.11 512.19 328.92 521.82 C 347.22 530.15 367.33 533.04 386.95 536.70 C 375.48 541.75 361.67 544.39 353.91 555.19 C 349.07 561.78 345.44 571.07 349.62 578.87 C 354.69 587.76 364.93 591.33 373.96 594.78 C 372.04 598.51 370.04 602.23 368.01 605.92 C 345.60 599.97 319.02 598.74 299.92 613.99 C 286.45 624.48 282.55 642.60 284.19 658.87 C 276.66 662.87 269.25 667.51 263.69 674.12 C 249.74 689.66 246.29 713.83 255.83 732.49 C 263.61 747.62 278.41 758.39 294.64 762.91 C 309.50 767.34 325.30 767.24 340.53 764.96 C 346.48 780.12 357.36 793.44 371.79 801.22 C 389.21 811.22 410.78 812.59 429.68 806.17 C 443.64 821.75 460.76 834.70 480.48 842.04 C 515.08 855.36 556.11 853.74 588.21 834.45 C 601.96 826.69 612.51 814.73 621.68 802.13 C 636.01 799.52 650.39 795.04 661.15 784.66 C 685.26 795.17 715.99 795.52 736.94 777.93 C 751.37 766.52 756.87 747.21 755.02 729.41 C 766.66 722.27 776.14 711.37 779.86 698.07 C 785.73 680.09 780.10 659.38 766.58 646.33 C 756.75 636.38 742.98 631.53 729.22 630.59 C 725.90 623.30 722.31 615.77 715.86 610.70 C 709.62 605.08 701.43 602.66 693.47 600.65 C 688.30 576.27 677.46 553.10 661.80 533.68 C 648.65 516.95 631.80 503.90 615.34 490.66 C 635.72 495.96 653.18 509.77 674.45 512.38 L 674.61 512.42 C 695.44 515.19 714.69 502.53 727.44 487.09 C 746.98 463.86 751.55 431.51 772.55 409.33 C 781.09 399.85 793.59 395.72 805.86 393.85 C 806.60 396.30 807.27 398.80 807.95 401.30 C 808.28 399.52 808.96 395.93 809.31 394.12 C 826.98 394.14 843.93 399.42 861.13 402.70 C 884.07 473.36 883.62 551.33 859.69 621.71 C 836.97 689.21 796.13 750.96 741.27 796.65 C 727.77 809.49 707.24 808.67 689.98 806.74 C 672.95 804.49 653.60 806.68 641.01 819.55 C 630.86 829.01 627.65 843.56 629.23 856.96 C 573.25 876.46 512.48 881.92 453.92 872.50 C 451.17 863.80 448.44 854.73 442.29 847.75 C 430.01 832.91 411.32 825.11 392.66 822.28 C 379.98 820.06 367.01 820.70 354.36 818.40 C 336.06 814.64 326.45 795.11 308.17 791.17 C 299.67 788.58 291.09 791.25 282.98 793.83 C 277.32 790.74 272.93 785.81 268.04 781.68 C 238.69 755.00 213.92 723.42 194.59 688.82 C 154.47 618.34 140.06 534.25 151.82 454.21 Z M 199.27 384.15 C 196.01 388.21 191.02 390.20 186.87 393.20 C 201.59 398.23 206.53 413.97 210.13 427.49 C 212.14 413.58 217.93 397.81 232.56 392.97 C 227.63 390.37 222.23 388.00 218.91 383.31 C 213.37 375.90 211.77 366.56 210.06 357.69 C 207.11 366.70 205.73 376.76 199.27 384.15 Z M 787.28 426.24 C 780.82 427.43 773.86 432.42 774.52 439.70 C 775.13 446.87 782.73 449.53 788.04 452.67 C 804.13 461.09 815.01 478.80 814.27 497.09 C 813.97 517.42 799.72 536.43 780.51 542.89 C 763.31 549.38 743.18 545.38 729.02 533.90 C 725.20 531.36 721.65 527.05 716.58 527.83 C 710.61 528.16 706.05 534.60 707.26 540.39 C 709.64 552.71 716.77 563.68 725.37 572.63 C 745.54 593.89 775.87 605.35 805.08 601.74 C 825.05 599.33 843.66 588.38 855.83 572.45 C 872.50 551.60 877.85 523.11 872.76 497.21 C 867.78 470.69 850.13 447.01 826.28 434.43 C 814.44 428.29 800.73 423.51 787.28 426.24 Z M 214.50 438.57 C 185.03 448.08 163.23 475.43 156.95 505.32 C 151.24 530.89 156.35 559.13 172.18 580.25 C 185.07 597.45 205.16 609.08 226.56 611.46 C 254.54 614.50 283.85 604.92 304.16 585.32 C 314.30 575.55 322.39 562.86 324.17 548.68 C 325.73 541.34 317.92 533.76 310.63 536.68 C 304.92 539.51 300.47 544.31 294.89 547.39 C 273.03 560.65 242.39 555.83 225.09 537.23 C 215.26 526.66 210.97 511.33 213.68 497.19 C 216.02 483.05 224.94 470.45 236.79 462.61 C 239.86 460.31 243.39 458.46 245.75 455.40 C 249.26 450.40 247.54 442.93 242.37 439.83 C 233.91 434.98 223.49 435.89 214.50 438.57 Z M 764.75 476.40 C 761.92 485.82 754.39 492.63 745.40 496.14 C 754.47 499.38 761.96 506.36 764.83 515.72 C 767.40 506.47 774.60 499.30 783.63 496.27 C 774.72 492.67 767.58 485.70 764.75 476.40 Z M 242.82 502.12 C 251.32 505.38 258.01 511.99 261.43 520.42 C 264.99 512.32 271.25 505.62 279.68 502.59 C 271.57 498.32 264.66 491.77 261.91 482.82 C 258.56 491.67 251.81 498.89 242.82 502.12 Z M 794.30 644.22 C 802.78 649.82 807.85 659.26 808.44 669.38 C 810.15 659.51 813.68 648.67 823.77 644.49 C 813.64 640.67 810.29 629.85 808.51 620.23 C 807.25 629.75 803.66 639.89 794.30 644.22 Z M 221.80 630.63 C 220.16 640.09 216.39 650.81 206.37 654.15 C 215.98 657.97 220.31 667.94 221.82 677.55 C 223.90 668.23 227.26 658.26 236.64 654.03 C 226.77 650.40 224.00 639.79 221.80 630.63 Z" fill="#7f94c4" fill-rule="nonzero" node-id="183" stroke="none" target-height="610.344" target-width="744.014" target-x="140.059" target-y="271.576"></path><path d="M 599.87 294.11 C 602.04 294.40 604.22 294.71 606.39 295.03 C 607.05 297.02 607.71 299.06 608.38 301.09 C 610.72 300.35 613.04 299.61 615.38 298.91 C 610.70 320.89 615.57 344.99 629.56 362.74 C 649.08 388.33 684.96 398.96 715.53 389.63 C 739.81 382.83 760.24 364.22 768.90 340.49 C 763.25 342.50 757.59 344.66 751.66 345.67 L 749.34 345.71 C 749.50 340.60 749.69 334.54 754.61 331.57 C 753.57 330.72 752.50 329.90 751.47 329.10 C 757.57 327.34 764.11 326.00 769.18 321.90 C 772.38 319.48 775.91 316.01 780.35 317.67 C 787.00 319.07 788.62 326.95 787.06 332.65 C 780.92 371.26 746.77 401.57 708.76 407.32 C 677.48 412.65 643.33 402.39 621.66 378.87 C 600.71 356.67 592.60 323.64 599.87 294.11 Z" fill="#504586" fill-rule="nonzero" node-id="185" stroke="none" target-height="118.54306" target-width="196.01904" target-x="592.6" target-y="294.11"></path><path d="M 271.59 322.80 C 273.07 319.31 274.55 315.87 276.05 312.42 C 278.69 320.56 281.61 328.92 287.42 335.42 C 293.23 342.75 302.07 346.44 310.22 350.53 C 300.53 354.90 290.80 360.24 284.65 369.25 C 280.62 375.12 277.94 381.75 275.68 388.46 C 271.02 370.74 257.41 356.52 240.21 350.49 C 253.74 345.89 266.65 336.74 271.59 322.80 Z" fill="#fefdfe" fill-rule="nonzero" node-id="187" stroke="none" target-height="76.039" target-width="70.00499" target-x="240.213" target-y="312.417"></path><path d="M 471.04 375.77 C 486.37 392.05 497.25 413.15 500.08 435.45 C 502.48 453.37 495.52 472.05 482.66 484.61 C 461.66 505.89 431.39 518.31 401.40 516.69 C 384.41 514.84 367.38 511.49 351.39 505.28 C 344.84 501.95 336.90 499.80 332.69 493.29 C 362.04 503.02 394.16 508.85 424.53 500.33 C 446.33 493.95 468.08 480.56 477.44 459.02 C 485.90 438.96 479.39 416.06 468.74 398.16 C 463.24 398.35 457.76 398.39 452.26 398.41 C 461.06 393.53 469.64 386.38 471.04 375.77 Z" fill="#e2e0ee" fill-rule="nonzero" node-id="189" stroke="none" target-height="142.53497" target-width="169.78998" target-x="332.691" target-y="375.773"></path><path d="M 518.24 474.70 C 531.13 477.88 544.37 479.87 556.89 484.44 C 589.77 496.12 618.91 517.16 642.25 542.89 C 660.55 564.01 673.93 590.18 677.36 618.11 C 680.48 642.33 671.64 669.54 650.60 683.34 C 639.13 691.55 625.42 695.47 612.36 700.33 C 609.92 699.47 607.46 698.57 605.02 697.78 C 605.74 702.18 608.96 705.38 611.05 709.16 C 611.58 716.93 617.41 724.85 613.25 732.41 C 609.82 737.99 603.58 740.99 597.83 743.63 C 579.57 751.04 559.87 753.94 540.33 755.46 C 527.79 756.26 515.10 757.06 502.67 754.84 C 504.82 753.79 506.96 752.34 509.48 752.38 C 533.35 751.37 557.57 749.61 580.49 742.38 C 588.50 739.47 597.03 736.53 603.13 730.29 C 606.68 726.70 604.36 721.43 603.05 717.43 C 595.68 698.13 579.01 684.12 571.79 664.74 C 570.58 662.16 571.05 659.41 571.56 656.78 C 579.55 669.11 587.04 681.88 597.01 692.78 C 597.61 683.38 600.17 673.94 607.09 667.16 C 607.38 672.64 604.57 680.20 610.54 683.54 C 613.86 686.17 618.07 684.34 621.52 683.09 C 636.52 677.01 651.61 667.45 657.78 651.75 C 667.61 627.76 661.54 600.40 650.27 578.01 C 631.43 542.48 598.47 515.82 561.94 499.98 C 553.54 496.82 544.58 493.04 535.44 494.25 C 528.18 497.00 533.64 505.73 534.03 511.23 C 525.35 502.46 513.46 498.44 501.25 498.52 C 508.27 491.63 513.89 483.50 518.24 474.70 Z" fill="#e2e0ee" fill-rule="nonzero" node-id="191" stroke="none" target-height="282.36008" target-width="179.23102" target-x="501.25" target-y="474.696"></path><path d="M 492.65 601.51 C 507.80 589.81 528.46 589.71 546.44 593.18 C 565.71 597.67 584.62 605.41 600.27 617.68 C 605.47 622.14 610.80 626.75 614.03 632.93 C 593.05 619.10 569.96 607.09 544.66 604.22 C 531.40 602.93 516.58 603.75 505.81 612.51 C 496.35 620.19 495.07 633.73 497.17 644.98 C 499.67 660.70 509.32 674.16 520.62 684.92 C 534.05 696.76 551.14 702.77 567.05 710.37 C 572.16 712.77 577.86 714.43 581.97 718.53 C 571.83 719.21 562.16 715.50 552.52 712.95 C 539.14 708.70 525.24 704.56 514.04 695.77 C 498.83 684.59 487.25 668.40 481.51 650.44 C 476.54 633.88 478.59 613.13 492.65 601.51 Z" fill="#e2e0ee" fill-rule="nonzero" node-id="193" stroke="none" target-height="129.50299" target-width="137.48596" target-x="476.54004" target-y="589.709"></path><path d="M 890.54 394.72 C 899.49 391.82 908.37 388.78 917.24 385.71 C 927.25 419.00 933.88 453.54 934.73 488.34 C 927.03 476.46 922.66 462.71 914.43 451.18 C 905.77 448.96 897.06 454.01 889.74 458.22 C 888.71 450.66 887.38 443.15 886.04 435.66 C 895.63 432.13 905.68 430.26 915.78 428.97 C 907.22 417.66 898.34 406.58 890.54 394.72 Z" fill="#fddfb1" fill-rule="nonzero" node-id="195" stroke="none" target-height="102.638" target-width="48.681946" target-x="886.043" target-y="385.706"></path><path d="M 892.92 486.76 C 895.28 497.62 893.97 508.76 894.75 519.75 C 894.73 523.15 897.99 525.18 900.31 527.13 C 910.69 534.34 922.21 539.86 933.99 544.43 C 932.61 561.26 930.35 578.01 926.93 594.55 C 913.09 587.78 901.15 577.93 888.32 569.53 C 892.53 542.18 894.52 514.43 892.92 486.76 Z" fill="#fddfb1" fill-rule="nonzero" node-id="197" stroke="none" target-height="107.789" target-width="45.664063" target-x="888.322" target-y="486.763"></path><path d="M 877.01 399.54 C 881.47 397.75 885.96 396.13 890.54 394.72 C 898.34 406.58 907.22 417.66 915.78 428.97 C 905.68 430.26 895.63 432.13 886.04 435.66 C 883.44 423.51 880.75 411.38 877.01 399.54 Z" fill="#fdca89" fill-rule="nonzero" node-id="199" stroke="none" target-height="40.94403" target-width="38.768982" target-x="877.012" target-y="394.716"></path><path d="M 92.98 446.09 C 95.30 431.06 98.07 416.08 102.15 401.43 C 114.75 407.81 128.48 411.65 142.38 413.99 C 139.57 428.27 136.10 442.45 134.27 456.94 C 120.29 454.23 106.32 451.11 92.98 446.09 Z" fill="#fddeae" fill-rule="nonzero" node-id="201" stroke="none" target-height="55.51599" target-width="49.399506" target-x="92.9785" target-y="401.427"></path><path d="M 386.77 420.62 C 394.65 419.34 401.79 415.63 409.22 413.00 C 396.58 428.44 374.89 434.29 355.78 429.54 C 352.48 430.84 348.15 432.79 345.44 429.28 C 343.43 423.78 350.42 421.21 353.36 417.89 C 364.13 421.13 375.63 423.04 386.77 420.62 Z" fill="#504285" fill-rule="nonzero" node-id="203" stroke="none" target-height="21.28299" target-width="65.798004" target-x="343.425" target-y="413.002"></path><path d="M 711.14 438.10 C 717.59 434.43 720.71 427.51 723.89 421.19 C 726.02 430.22 732.63 436.85 740.35 441.55 C 732.92 445.94 727.03 452.37 723.78 460.41 C 719.60 454.01 715.62 447.19 708.68 443.38 C 705.07 441.43 709.40 439.29 711.14 438.10 Z" fill="#fdfefd" fill-rule="nonzero" node-id="205" stroke="none" target-height="39.22" target-width="35.27997" target-x="705.067" target-y="421.191"></path><path d="M 242.82 502.12 C 251.81 498.89 258.56 491.67 261.91 482.82 C 264.66 491.77 271.57 498.32 279.68 502.59 C 271.24 505.62 264.99 512.32 261.43 520.42 C 258.01 511.99 251.32 505.38 242.82 502.12 Z" fill="#fdfefd" fill-rule="nonzero" node-id="207" stroke="none" target-height="37.599" target-width="36.86" target-x="242.81898" target-y="482.823"></path><path d="M 787.28 426.24 C 800.73 423.51 814.44 428.29 826.28 434.43 C 850.13 447.01 867.78 470.69 872.76 497.21 C 877.85 523.11 872.50 551.60 855.83 572.45 C 843.66 588.38 825.05 599.33 805.08 601.74 C 775.87 605.35 745.54 593.89 725.37 572.63 C 716.77 563.68 709.64 552.71 707.26 540.39 C 706.05 534.60 710.61 528.16 716.58 527.83 C 721.65 527.05 725.20 531.36 729.02 533.90 C 743.18 545.38 763.31 549.38 780.51 542.89 C 799.72 536.43 813.97 517.42 814.27 497.09 C 815.01 478.80 804.13 461.09 788.04 452.67 C 782.73 449.53 775.13 446.87 774.52 439.70 C 773.86 432.42 780.82 427.43 787.28 426.24 Z M 803.03 442.17 C 808.59 445.84 813.25 450.62 818.09 455.16 C 820.88 461.81 825.36 467.68 827.39 474.70 C 835.92 499.30 827.86 528.38 808.05 545.25 C 792.76 559.03 771.24 564.30 751.08 561.12 C 743.51 558.39 735.94 555.64 728.83 551.82 C 743.10 571.57 766.21 585.30 790.73 586.34 C 806.88 587.12 823.30 581.50 835.23 570.54 C 857.33 550.65 863.69 516.81 853.41 489.39 C 845.30 466.94 826.32 448.22 803.03 442.17 Z" fill="#504383" fill-rule="nonzero" node-id="209" stroke="none" target-height="181.83698" target-width="171.80103" target-x="706.053" target-y="423.51"></path><path d="M 214.50 438.57 C 223.49 435.89 233.91 434.98 242.37 439.83 C 247.54 442.93 249.26 450.40 245.75 455.40 C 243.39 458.46 239.86 460.31 236.79 462.61 C 224.94 470.45 216.02 483.05 213.68 497.19 C 210.97 511.33 215.26 526.66 225.09 537.23 C 242.39 555.83 273.03 560.65 294.89 547.39 C 300.47 544.31 304.92 539.51 310.63 536.68 C 317.92 533.76 325.73 541.34 324.17 548.68 C 322.39 562.86 314.30 575.55 304.16 585.32 C 283.85 604.92 254.54 614.50 226.56 611.46 C 205.16 609.08 185.07 597.45 172.18 580.25 C 156.35 559.13 151.24 530.89 156.95 505.32 C 163.23 475.43 185.03 448.08 214.50 438.57 Z M 174.19 504.82 C 165.57 534.34 176.10 569.72 202.88 586.28 C 236.58 607.05 284.89 592.36 304.39 558.70 C 296.67 564.10 287.91 567.46 279.02 570.34 C 253.96 573.64 226.96 565.12 210.58 545.40 C 194.81 526.83 192.17 499.06 202.35 477.20 C 204.85 471.54 209.06 466.88 211.87 461.40 C 215.67 458.85 218.75 455.40 222.13 452.41 C 198.80 460.66 180.49 480.95 174.19 504.82 Z" fill="#504383" fill-rule="nonzero" node-id="211" stroke="none" target-height="179.51797" target-width="174.49" target-x="151.244" target-y="434.983"></path><path d="M 397.34 440.73 C 412.90 435.58 429.64 451.94 424.20 467.62 C 420.70 483.17 398.80 488.32 388.08 477.01 C 376.28 466.47 381.89 444.32 397.34 440.73 Z" fill="#dc7ca7" fill-rule="nonzero" node-id="213" stroke="none" target-height="52.744965" target-width="53.361053" target-x="376.28296" target-y="435.57803"></path><path d="M 803.03 442.17 C 826.32 448.22 845.30 466.94 853.41 489.39 C 863.69 516.81 857.33 550.65 835.23 570.54 C 823.30 581.50 806.88 587.12 790.73 586.34 C 766.21 585.30 743.10 571.57 728.83 551.82 C 735.94 555.64 743.51 558.39 751.08 561.12 C 777.04 572.98 809.49 560.81 825.09 537.83 C 840.73 515.78 840.19 484.53 825.83 461.99 C 823.88 459.08 820.76 457.27 818.09 455.16 C 813.25 450.62 808.59 445.84 803.03 442.17 Z" fill="#fef3d3" fill-rule="nonzero" node-id="215" stroke="none" target-height="144.957" target-width="134.85999" target-x="728.833" target-y="442.166"></path><path d="M 92.98 446.09 C 106.32 451.11 120.29 454.23 134.27 456.94 C 133.63 462.85 133.00 468.78 132.51 474.76 C 118.04 471.12 104.57 464.68 91.46 457.72 C 91.95 453.82 92.47 449.94 92.98 446.09 Z" fill="#fbfbf6" fill-rule="nonzero" node-id="217" stroke="none" target-height="28.67102" target-width="42.811493" target-x="91.4595" target-y="446.08597"></path><path d="M 889.74 458.22 C 897.06 454.01 905.77 448.96 914.43 451.18 C 922.66 462.71 927.03 476.46 934.72 488.34 C 936.24 506.96 935.40 525.80 933.99 544.43 C 922.20 539.86 910.69 534.34 900.31 527.13 C 897.99 525.18 894.72 523.15 894.75 519.74 C 893.97 508.76 895.28 497.62 892.92 486.76 C 891.73 477.26 891.09 467.70 889.74 458.22 Z" fill="#fabc82" fill-rule="nonzero" node-id="219" stroke="none" target-height="95.47504" target-width="46.50598" target-x="889.737" target-y="448.95898"></path><path d="M 174.19 504.82 C 180.49 480.95 198.80 460.66 222.13 452.41 C 218.75 455.40 215.67 458.85 211.87 461.40 C 203.58 464.91 199.68 473.46 195.80 481.02 C 181.88 509.81 193.13 547.92 220.69 564.30 C 237.73 574.48 260.55 579.59 279.02 570.34 C 287.91 567.46 296.67 564.10 304.39 558.70 C 284.89 592.36 236.58 607.05 202.88 586.28 C 176.10 569.72 165.57 534.34 174.19 504.82 Z" fill="#fff3d2" fill-rule="nonzero" node-id="221" stroke="none" target-height="154.64401" target-width="138.82101" target-x="165.569" target-y="452.407"></path><path d="M 296.32 455.24 L 296.98 455.51 C 302.97 458.97 309.97 457.91 316.56 457.62 C 318.14 457.60 321.30 457.56 322.88 457.54 C 320.89 465.77 310.96 468.48 306.13 475.02 C 298.29 472.68 294.02 462.83 296.32 455.24 Z" fill="#e382a4" fill-rule="nonzero" node-id="223" stroke="none" target-height="19.783966" target-width="28.856018" target-x="294.025" target-y="455.24002"></path><path d="M 818.09 455.16 C 820.76 457.27 823.88 459.08 825.83 461.99 C 840.19 484.53 840.73 515.78 825.09 537.83 C 809.49 560.81 777.04 572.98 751.08 561.12 C 771.24 564.30 792.76 559.03 808.05 545.25 C 827.86 528.38 835.92 499.30 827.39 474.70 C 825.36 467.68 820.88 461.81 818.09 455.16 Z" fill="#f2b3bd" fill-rule="nonzero" node-id="225" stroke="none" target-height="117.82498" target-width="89.64606" target-x="751.082" target-y="455.157"></path><path d="M 90.31 467.68 C 90.70 464.33 91.09 461.03 91.46 457.72 C 104.57 464.68 118.04 471.12 132.51 474.76 C 129.37 516.48 131.89 558.78 141.70 599.52 C 158.59 669.34 195.18 734.42 246.60 784.66 C 314.12 851.85 407.95 892.53 503.36 893.80 C 503.40 899.67 503.86 905.67 502.64 911.51 C 502.32 912.52 501.62 914.57 501.29 915.60 C 435.16 914.96 369.53 895.73 312.50 862.51 C 246.90 824.02 193.05 766.39 158.10 698.93 C 123.21 632.64 107.94 556.69 112.58 482.00 C 104.41 478.47 96.92 473.63 90.31 467.68 Z" fill="#dd7baa" fill-rule="nonzero" node-id="227" stroke="none" target-height="457.87704" target-width="413.54593" target-x="90.31009" target-y="457.723"></path><path d="M 352.52 459.51 C 356.66 459.06 361.42 457.74 365.18 460.25 C 365.16 464.21 360.27 462.79 357.83 463.76 C 350.73 464.17 344.02 466.47 337.21 468.25 C 333.94 465.38 339.16 463.37 341.29 462.59 C 344.90 461.15 348.70 460.21 352.52 459.51 Z" fill="#4f3e86" fill-rule="nonzero" node-id="229" stroke="none" target-height="10.508026" target-width="31.237" target-x="333.943" target-y="457.74298"></path><path d="M 195.80 481.02 C 199.68 473.46 203.58 464.91 211.87 461.40 C 209.06 466.88 204.85 471.54 202.35 477.20 C 192.17 499.06 194.82 526.83 210.58 545.40 C 226.96 565.12 253.96 573.64 279.02 570.34 C 260.55 579.59 237.73 574.48 220.70 564.30 C 193.13 547.92 181.89 509.81 195.80 481.02 Z" fill="#efb1c1" fill-rule="nonzero" node-id="231" stroke="none" target-height="118.19501" target-width="97.137024" target-x="181.88599" target-y="461.396"></path><path d="M 139.22 711.41 C 99.59 637.24 82.16 551.39 90.31 467.68 C 96.92 473.63 104.41 478.47 112.58 482.00 C 107.94 556.69 123.21 632.64 158.10 698.93 C 193.05 766.39 246.90 824.02 312.50 862.51 C 369.53 895.73 435.16 914.96 501.29 915.60 C 501.62 914.57 502.32 912.52 502.64 911.51 C 502.83 919.54 502.25 927.57 501.82 935.61 C 423.84 933.91 346.61 909.63 281.24 867.14 C 221.43 828.70 172.36 774.21 139.22 711.41 Z" fill="#f6b1c0" fill-rule="nonzero" node-id="233" stroke="none" target-height="467.93295" target-width="420.6678" target-x="82.1622" target-y="467.67703"></path><path d="M 304.70 479.38 C 305.93 480.48 305.93 480.48 304.70 479.38 Z" fill="#dad3ee" fill-rule="nonzero" node-id="235" stroke="none" target-height="1.1080017" target-width="1.2309875" target-x="304.698" target-y="479.375"></path><path d="M 488.42 562.33 C 497.21 558.64 504.14 551.90 512.52 547.45 C 508.06 554.47 500.90 559.62 498.34 567.79 L 498.13 568.20 C 488.12 571.44 478.47 576.29 470.59 583.39 C 468.72 581.56 466.85 579.78 465.01 578.01 C 446.14 579.84 427.18 582.42 408.22 580.25 C 399.76 579.00 390.24 579.10 383.34 573.31 C 418.46 577.44 455.71 577.62 488.42 562.33 Z" fill="#e0e0ee" fill-rule="nonzero" node-id="237" stroke="none" target-height="35.93701" target-width="129.17404" target-x="383.343" target-y="547.451"></path><path d="M 888.32 569.53 C 901.15 577.93 913.09 587.78 926.92 594.55 C 926.00 599.23 925.00 603.89 923.87 608.55 C 917.16 606.35 910.40 604.26 903.90 601.49 C 897.08 598.45 890.70 594.61 884.30 590.84 C 885.65 583.74 886.99 576.64 888.32 569.53 Z" fill="#fbfcf6" fill-rule="nonzero" node-id="239" stroke="none" target-height="39.015015" target-width="42.627014" target-x="884.298" target-y="569.534"></path><path d="M 884.30 590.84 C 890.70 594.61 897.08 598.45 903.90 601.49 C 888.55 666.08 853.23 724.90 806.70 771.85 C 783.79 795.62 758.45 816.84 732.49 837.16 C 713.61 851.16 694.85 865.73 673.54 875.89 C 670.61 871.12 667.53 866.40 665.38 861.23 C 722.12 836.67 772.24 797.10 809.47 747.72 C 845.24 701.56 870.77 647.63 884.30 590.84 Z" fill="#df7ba7" fill-rule="nonzero" node-id="241" stroke="none" target-height="285.05005" target-width="238.52301" target-x="665.375" target-y="590.837"></path><path d="M 370.56 661.27 C 366.92 639.19 375.36 617.21 385.46 597.98 C 388.88 598.64 392.31 599.29 395.74 599.95 C 386.77 614.03 379.59 629.85 378.89 646.76 C 378.17 652.35 386.28 658.24 390.30 652.92 C 403.25 638.47 416.04 622.30 419.38 602.64 C 421.27 602.66 425.07 602.72 426.98 602.74 C 421.91 625.30 409.74 645.96 393.17 661.99 C 390.88 663.90 387.90 667.21 384.68 664.93 C 377.94 661.40 377.90 652.98 374.11 647.30 C 371.69 656.14 376.12 664.89 382.48 670.82 C 376.14 672.07 371.19 667.37 370.56 661.27 Z" fill="#fdfcfc" fill-rule="nonzero" node-id="243" stroke="none" target-height="74.08899" target-width="60.052002" target-x="366.924" target-y="597.98"></path><path d="M 395.74 599.95 C 403.56 601.20 411.46 601.98 419.38 602.64 C 416.04 622.30 403.25 638.47 390.30 652.92 C 386.28 658.24 378.17 652.35 378.89 646.76 C 379.59 629.85 386.77 614.03 395.74 599.95 Z" fill="#e1dfee" fill-rule="nonzero" node-id="245" stroke="none" target-height="58.28601" target-width="41.211" target-x="378.172" target-y="599.95"></path><path d="M 438.08 602.82 C 444.61 602.60 451.11 602.11 457.60 601.28 C 451.99 612.78 450.08 625.67 450.41 638.37 C 443.93 634.86 437.07 632.17 430.24 629.50 C 433.56 620.82 435.64 611.77 438.08 602.82 Z" fill="#e2e1f1" fill-rule="nonzero" node-id="247" stroke="none" target-height="37.086" target-width="27.35794" target-x="430.239" target-y="601.284"></path><path d="M 903.90 601.49 C 910.40 604.26 917.16 606.35 923.87 608.55 C 907.26 678.16 873.85 743.94 825.95 797.26 C 787.06 840.22 739.20 875.23 686.12 898.57 C 682.12 890.89 677.69 883.46 673.54 875.89 C 694.85 865.73 713.61 851.16 732.49 837.16 C 758.45 816.84 783.80 795.62 806.70 771.85 C 853.23 724.90 888.55 666.08 903.90 601.49 Z" fill="#eea2bc" fill-rule="nonzero" node-id="249" stroke="none" target-height="297.076" target-width="250.32397" target-x="673.544" target-y="601.489"></path><path d="M 322.53 618.56 C 335.85 614.50 350.05 616.37 363.39 619.32 C 362.84 621.23 361.69 625.05 361.12 626.96 C 357.14 626.30 353.13 625.66 349.13 625.25 C 335.95 625.09 320.32 626.67 311.80 638.06 C 304.25 648.32 305.60 661.68 308.39 673.36 C 294.58 679.99 280.01 689.08 275.39 704.68 C 271.08 716.83 280.77 728.59 291.11 733.84 C 310.90 744.13 334.29 741.03 355.12 736.00 C 360.13 746.47 362.92 758.27 370.72 767.19 C 380.84 779.26 397.49 785.07 412.96 782.94 C 421.72 781.93 429.93 778.50 438.00 775.18 C 442.25 779.41 446.14 783.98 450.19 788.46 C 474.57 814.15 512.60 824.91 547.12 818.13 C 568.22 814.11 587.86 802.86 601.69 786.40 C 604.36 783.43 606.66 779.96 610.13 777.85 C 619.30 776.98 629.07 777.66 637.40 772.94 C 645.16 769.51 650.07 762.11 657.27 757.96 C 667.39 761.18 677.16 766.02 687.97 766.37 C 703.35 767.63 721.94 762.19 728.55 746.92 C 732.65 739.41 727.79 729.88 733.00 722.90 C 739.75 727.28 740.22 736.20 739.42 743.43 C 737.78 756.95 727.58 768.45 714.90 772.94 C 695.79 779.98 673.20 776.08 656.90 764.14 C 649.94 780.39 630.51 786.98 613.95 785.73 C 600.52 810.05 576.06 827.62 548.74 832.68 C 508.64 841.00 464.56 825.24 439.46 792.73 C 437.38 790.49 437.61 787.31 437.12 784.56 C 429.19 790.94 419.06 793.77 409.06 794.67 C 384.60 796.58 359.82 779.69 353.54 755.80 C 351.76 751.47 353.75 747.02 353.93 742.67 C 348.93 749.28 340.29 750.02 332.69 751.23 C 313.65 753.47 292.61 749.93 277.98 736.76 C 266.18 726.43 262.83 708.31 268.99 694.11 C 275.02 680.69 288.24 672.05 301.74 667.37 C 299.24 657.25 297.88 646.25 301.66 636.28 C 305.09 627.31 313.54 621.19 322.53 618.56 Z" fill="#fdfdfb" fill-rule="nonzero" node-id="251" stroke="none" target-height="226.49603" target-width="477.39392" target-x="262.831" target-y="614.501"></path><path d="M 311.80 638.06 C 320.32 626.67 335.95 625.09 349.13 625.25 C 346.05 641.88 343.08 659.78 349.07 676.11 C 354.22 688.96 370.00 691.30 382.19 690.66 C 399.62 689.95 412.90 676.91 423.24 664.17 C 432.46 668.52 442.33 672.93 448.28 681.65 C 457.43 694.54 469.54 704.80 481.53 714.94 C 467.04 721.67 451.60 729.14 443.83 744.00 C 443.44 739.49 442.86 735.03 442.08 730.62 C 440.54 721.84 435.29 713.16 427.04 709.32 C 423.26 706.57 417.51 712.81 421.76 715.70 C 429.58 721.51 436.05 731.36 431.94 741.34 C 431.96 740.35 431.96 738.38 431.96 737.39 C 426.28 741.17 420.37 745.91 413.06 745.03 C 406.23 745.67 400.97 740.90 396.11 736.88 C 395.00 738.24 393.93 739.63 392.87 741.07 C 391.64 745.07 393.01 749.11 394.45 752.89 C 397.11 765.41 411.73 770.62 423.06 767.36 C 431.35 765.55 436.72 758.51 442.23 752.68 C 443.52 765.66 452.53 777.31 464.53 782.24 C 477.42 787.59 491.69 787.68 505.42 787.86 C 531.52 787.23 557.67 785.05 583.36 780.39 C 605.75 775.84 629.54 767.11 642.90 747.43 C 647.50 741.48 646.25 733.89 644.63 727.15 C 656.76 720.26 667.39 711.25 676.29 700.56 C 686.58 699.47 697.37 699.57 706.73 694.38 C 720.40 687.63 730.60 675.19 736.18 661.15 C 750.28 666.32 759.72 683.23 752.72 697.48 C 748.66 707.84 738.05 712.19 729.06 717.22 C 728.89 718.55 728.59 721.22 728.44 722.56 C 730.29 722.13 732.16 721.72 734.03 721.28 C 733.78 721.70 733.27 722.50 733.00 722.91 C 727.79 729.88 732.65 739.41 728.55 746.92 C 721.94 762.19 703.34 767.63 687.97 766.37 C 677.16 766.02 667.39 761.18 657.27 757.96 C 650.07 762.11 645.16 769.51 637.40 772.94 C 629.07 777.66 619.30 776.99 610.13 777.85 C 606.66 779.96 604.36 783.43 601.69 786.40 C 587.86 802.87 568.22 814.11 547.12 818.13 C 512.60 824.91 474.57 814.15 450.19 788.46 C 446.14 783.98 442.25 779.41 438.00 775.18 C 429.93 778.50 421.72 781.93 412.96 782.94 C 397.48 785.07 380.84 779.26 370.72 767.19 C 362.92 758.27 360.13 746.47 355.12 736.00 C 334.29 741.03 310.90 744.13 291.11 733.84 C 280.77 728.59 271.08 716.83 275.39 704.68 C 280.01 689.08 294.58 679.99 308.39 673.36 C 305.60 661.68 304.25 648.32 311.80 638.06 Z M 327.91 676.56 C 333.84 681.61 339.36 687.95 340.14 696.08 C 336.26 699.78 332.44 704.31 326.78 705.13 C 320.93 706.32 315.72 702.77 310.65 700.49 L 310.01 698.48 C 307.35 698.50 303.57 697.15 302.75 700.82 C 301.72 708.09 307.10 714.86 313.03 718.45 C 324.09 725.16 340.00 720.61 345.83 709.07 C 353.50 695.24 346.03 677.24 333.06 669.61 C 328.73 666.92 323.11 673.51 327.91 676.56 Z M 683.07 721.43 C 685.69 729.80 678.08 738.77 669.52 738.58 C 664.74 739.16 661.23 735.26 656.98 733.88 C 653.23 734.56 653.60 738.42 653.25 741.31 C 653.29 747.80 659.67 751.43 665.40 752.23 C 675.29 753.65 686.84 750.14 691.91 740.97 C 694.74 736.55 694.15 731.01 692.84 726.23 C 692.69 721.33 692.14 713.75 685.90 713.16 C 681.61 713.92 682.10 718.16 683.07 721.43 Z" fill="#fde7b3" fill-rule="nonzero" node-id="253" stroke="none" target-height="199.81598" target-width="488.64102" target-x="271.08" target-y="625.091"></path><path d="M 349.13 625.25 C 353.13 625.67 357.13 626.30 361.12 626.96 C 358.82 640.65 356.62 655.05 360.93 668.60 C 363.21 674.96 367.11 681.84 374.09 683.81 C 380.94 685.72 387.86 682.41 393.28 678.41 C 406.10 669.09 415.89 656.25 424.10 642.82 C 434.20 646.27 443.99 650.56 453.51 655.34 C 459.81 683.21 481.61 704.17 505.58 717.98 C 490.72 721.88 475.25 726.29 463.28 736.39 C 456.24 742.30 450.91 752.17 454.74 761.37 C 458.42 771.22 469.05 775.92 478.84 777.19 C 497.19 779.61 515.80 778.63 534.23 777.42 C 556.64 775.45 579.26 773.17 600.97 766.91 C 613.08 762.95 625.68 756.67 632.35 745.30 C 637.12 737.09 633.73 727.67 630.47 719.62 C 646.90 714.22 661.00 703.78 672.89 691.44 C 696.35 697.66 718.51 679.68 726.78 658.79 C 729.92 659.53 733.06 660.27 736.18 661.15 C 730.60 675.19 720.40 687.63 706.73 694.38 C 697.37 699.57 686.58 699.47 676.29 700.56 C 667.39 711.25 656.76 720.26 644.63 727.15 C 646.25 733.89 647.50 741.48 642.90 747.43 C 629.54 767.11 605.75 775.84 583.36 780.39 C 557.67 785.05 531.52 787.23 505.42 787.86 C 491.69 787.68 477.42 787.59 464.53 782.24 C 452.53 777.31 443.52 765.66 442.23 752.68 C 442.66 749.75 443.25 746.88 443.83 744.00 C 451.60 729.14 467.04 721.67 481.53 714.94 C 469.54 704.80 457.43 694.54 448.28 681.65 C 442.33 672.93 432.46 668.52 423.24 664.17 C 412.90 676.91 399.62 689.95 382.19 690.66 C 370.00 691.30 354.22 688.96 349.07 676.11 C 343.08 659.78 346.05 641.88 349.13 625.25 Z" fill="#ed7e99" fill-rule="nonzero" node-id="255" stroke="none" target-height="162.607" target-width="393.10504" target-x="343.076" target-y="625.255"></path><path d="M 327.91 676.56 C 323.11 673.51 328.73 666.92 333.06 669.61 C 346.03 677.24 353.50 695.24 345.83 709.07 C 340.00 720.61 324.09 725.16 313.03 718.45 C 307.10 714.86 301.72 708.09 302.75 700.82 C 303.57 697.15 307.35 698.50 310.01 698.48 L 310.65 700.49 C 311.74 707.31 317.40 713.32 324.67 712.89 C 333.76 713.34 340.22 704.58 340.14 696.08 C 339.36 687.95 333.84 681.61 327.91 676.56 Z" fill="#4f4188" fill-rule="nonzero" node-id="257" stroke="none" target-height="58.244995" target-width="51.781006" target-x="301.721" target-y="666.918"></path><path d="M 326.78 705.13 C 332.45 704.31 336.26 699.78 340.14 696.08 C 340.22 704.58 333.76 713.34 324.67 712.89 C 317.40 713.32 311.74 707.31 310.65 700.49 C 315.72 702.77 320.93 706.32 326.78 705.13 Z" fill="#fefcfa" fill-rule="nonzero" node-id="259" stroke="none" target-height="17.26007" target-width="29.574005" target-x="310.65" target-y="696.08093"></path><path d="M 442.08 730.62 C 442.86 735.03 443.44 739.49 443.83 744.00 C 443.25 746.88 442.66 749.75 442.23 752.68 C 436.73 758.51 431.35 765.55 423.06 767.36 C 411.73 770.62 397.12 765.41 394.45 752.89 C 400.17 759.07 408.20 763.71 416.92 762.64 C 432.56 761.90 444.56 745.85 442.08 730.62 Z" fill="#fefcfa" fill-rule="nonzero" node-id="261" stroke="none" target-height="40" target-width="50.118042" target-x="394.44696" target-y="730.622"></path><path d="M 421.76 715.70 C 417.51 712.81 423.26 706.57 427.04 709.32 C 435.29 713.16 440.54 721.84 442.08 730.62 C 444.56 745.85 432.56 761.90 416.92 762.64 C 408.20 763.71 400.17 759.07 394.45 752.89 C 393.01 749.11 391.64 745.07 392.87 741.07 C 394.32 741.05 397.26 740.97 398.74 740.95 C 401.53 746.10 404.50 752.48 411.01 753.53 C 419.94 755.72 428.97 749.67 431.94 741.34 C 436.05 731.36 429.58 721.51 421.76 715.70 Z" fill="#4f4289" fill-rule="nonzero" node-id="263" stroke="none" target-height="57.137085" target-width="52.929962" target-x="391.63504" target-y="706.5689"></path><path d="M 683.07 721.43 C 682.10 718.16 681.61 713.92 685.90 713.16 C 692.14 713.75 692.69 721.33 692.84 726.23 C 691.61 736.53 683.72 745.87 673.13 747.06 C 665.85 748.81 659.16 745.07 653.25 741.31 C 653.60 738.42 653.23 734.56 656.98 733.89 C 661.23 735.26 664.74 739.16 669.52 738.58 C 678.08 738.77 685.69 729.80 683.07 721.43 Z" fill="#4e4185" fill-rule="nonzero" node-id="265" stroke="none" target-height="35.649048" target-width="39.609985" target-x="653.226" target-y="713.15704"></path><path d="M 392.87 741.07 C 393.93 739.63 395.00 738.24 396.11 736.88 C 400.97 740.90 406.23 745.67 413.06 745.03 C 420.37 745.91 426.28 741.17 431.96 737.39 C 431.96 738.38 431.96 740.35 431.94 741.34 C 428.97 749.67 419.94 755.72 411.01 753.53 C 404.50 752.48 401.53 746.10 398.74 740.95 C 397.26 740.97 394.32 741.05 392.87 741.07 Z" fill="#fefbf8" fill-rule="nonzero" node-id="267" stroke="none" target-height="18.841064" target-width="39.097015" target-x="392.866" target-y="736.882"></path><path d="M 293.74 801.51 C 310.28 798.16 321.69 812.12 333.47 820.95 C 351.80 834.53 375.87 828.54 396.70 834.02 C 415.94 838.23 437.01 849.76 441.86 870.37 C 438.98 869.52 436.11 868.66 433.28 867.78 L 433.11 867.60 C 419.12 849.25 396.68 838.12 373.96 835.56 C 363.66 834.16 353.26 834.45 342.89 834.49 C 327.95 827.55 314.40 817.89 300.90 808.51 C 298.23 806.50 294.87 804.88 293.74 801.51 Z" fill="#fcfbfa" fill-rule="nonzero" node-id="269" stroke="none" target-height="72.20105" target-width="148.11798" target-x="293.738" target-y="798.165"></path><path d="M 672.31 818.20 C 688.05 813.84 704.94 815.71 720.87 811.63 C 699.14 826.38 675.95 838.95 651.67 848.96 C 648.46 850.25 645.08 851.07 641.69 851.71 C 646.45 836.73 657.92 824.37 672.31 818.20 Z" fill="#0a79c0" fill-rule="nonzero" node-id="271" stroke="none" target-height="40.08203" target-width="79.17993" target-x="641.691" target-y="811.628"></path><path d="M 643.21 834.04 C 649.92 822.59 663.32 817.07 676.01 815.75 L 672.31 818.20 C 657.93 824.37 646.45 836.73 641.69 851.71 C 641.08 852.16 639.87 853.11 639.27 853.56 C 639.00 846.87 639.43 839.79 643.21 834.04 Z" fill="#c3cee7" fill-rule="nonzero" node-id="273" stroke="none" target-height="37.804016" target-width="37.00403" target-x="639.003" target-y="815.753"></path><path d="M 342.89 834.49 C 353.26 834.45 363.66 834.16 373.96 835.56 C 396.68 838.12 419.12 849.25 433.11 867.60 C 414.93 865.24 397.67 858.17 380.49 851.98 C 367.60 846.97 354.92 841.30 342.89 834.49 Z" fill="#9eadd5" fill-rule="nonzero" node-id="275" stroke="none" target-height="33.431946" target-width="90.21997" target-x="342.892" target-y="834.163"></path><path d="M 519.54 893.72 C 565.30 893.19 610.54 882.66 653.08 866.16 C 655.61 871.62 658.15 877.10 660.68 882.60 C 616.10 903.10 567.38 914.37 518.33 915.70 C 518.65 908.36 518.47 900.99 519.54 893.72 Z" fill="#de7aa8" fill-rule="nonzero" node-id="277" stroke="none" target-height="49.54303" target-width="142.35004" target-x="518.326" target-y="866.159"></path><path d="M 518.33 915.70 C 567.38 914.37 616.10 903.10 660.68 882.60 C 664.25 890.15 668.72 897.23 672.33 904.78 C 623.12 924.10 570.56 934.46 517.73 935.92 C 517.79 929.16 518.00 922.43 518.33 915.70 Z" fill="#f6b2c0" fill-rule="nonzero" node-id="279" stroke="none" target-height="53.31897" target-width="154.60303" target-x="517.73" target-y="882.598"></path></svg>