<?xml version="1.0" standalone="no"?><!DOCTYPE svg PUBLIC "-//W3C//DTD SVG 1.1//EN" "http://www.w3.org/Graphics/SVG/1.1/DTD/svg11.dtd"><svg height="1024" node-id="1" sillyvg="true" template-height="1024" template-width="1024" version="1.1" viewBox="0 0 1024 1024" width="1024" xmlns="http://www.w3.org/2000/svg" xmlns:xlink="http://www.w3.org/1999/xlink"><defs node-id="80"></defs><path d="M 0.00 0.00 L 1024.00 0.00 L 1024.00 1024.00 L 0.00 1024.00 Z" fill="#ffffff" fill-rule="nonzero" node-id="82" stroke="none" target-height="1024" target-width="1024" target-x="0" target-y="0"></path><path d="M 508.54 144.34 C 517.80 144.06 527.10 144.42 536.36 145.20 C 535.67 177.63 546.41 208.85 558.36 238.56 C 560.72 238.84 563.08 239.17 565.47 239.56 C 567.49 236.29 569.57 233.12 571.46 229.82 C 582.92 210.43 592.91 190.15 605.75 171.59 C 606.86 171.50 609.08 171.31 610.19 171.22 C 620.98 177.80 631.86 184.43 641.40 192.81 C 654.94 205.02 667.90 218.00 678.80 232.65 C 683.74 239.59 688.29 246.80 692.62 254.15 C 702.33 273.91 707.46 295.52 714.51 316.30 C 697.75 322.02 679.30 324.10 664.13 333.58 L 664.85 338.00 C 682.55 336.55 699.03 328.68 716.53 325.76 C 717.26 333.75 718.20 341.74 719.34 349.73 C 704.52 354.89 687.54 353.14 673.75 360.86 C 668.59 356.20 663.77 350.45 657.02 348.18 C 649.81 347.79 642.54 348.29 635.52 346.35 C 642.87 337.47 644.62 324.82 640.90 314.11 C 633.38 297.35 609.64 291.33 595.15 302.68 C 580.92 313.33 583.14 337.00 596.10 347.85 C 602.87 354.14 612.52 356.17 621.51 354.56 C 616.93 362.69 608.25 372.45 614.93 381.89 C 627.37 397.87 649.14 394.82 666.87 397.51 C 669.65 399.70 672.45 401.89 675.25 404.14 C 662.18 423.06 643.82 439.21 621.40 445.73 C 580.95 458.82 537.86 453.69 496.16 452.47 C 462.79 452.97 428.69 448.67 398.03 434.94 C 384.30 428.42 370.54 418.82 364.82 404.17 L 363.90 399.42 C 367.57 398.06 371.20 396.68 374.92 395.48 C 388.10 394.40 403.33 394.62 413.29 384.44 C 418.50 379.73 419.56 371.07 415.04 365.60 C 409.13 358.61 400.36 354.67 391.73 352.31 C 380.30 349.70 369.84 356.42 359.77 360.69 C 346.06 355.56 331.14 355.62 316.88 353.14 C 316.99 345.04 317.26 337.00 317.68 328.98 C 336.27 332.06 354.05 338.33 372.34 342.71 C 373.34 338.14 372.31 333.72 367.20 332.86 C 355.61 328.56 343.51 325.90 331.94 321.63 C 333.44 302.37 334.99 283.06 334.44 263.73 C 334.44 260.64 335.58 257.84 336.60 255.10 C 340.49 246.05 344.37 236.98 349.26 228.43 C 361.16 213.29 373.45 198.25 388.01 185.57 C 395.73 179.52 403.77 173.92 412.10 168.78 C 413.23 168.95 415.48 169.28 416.62 169.45 C 429.57 185.24 442.39 201.22 453.69 218.25 C 459.90 228.54 467.92 239.03 480.35 241.75 C 480.79 241.11 481.68 239.84 482.09 239.17 C 491.81 207.82 503.26 176.86 508.54 144.34 Z M 595.65 259.18 C 603.12 256.21 609.80 250.52 618.35 251.38 C 625.62 250.71 632.11 254.24 638.07 257.93 C 636.52 246.22 623.07 239.50 612.38 243.36 C 604.39 245.14 598.79 251.93 595.65 259.18 Z M 390.57 256.46 C 396.95 254.82 403.13 251.66 409.90 251.88 C 418.50 251.88 425.91 256.93 433.82 259.68 C 427.24 241.53 399.03 238.06 390.57 256.46 Z M 403.00 299.35 C 387.93 306.48 383.10 327.56 391.81 341.33 C 400.92 355.37 422.33 357.83 435.21 347.65 C 447.22 336.92 447.47 316.41 436.57 304.81 C 428.33 295.66 413.76 294.13 403.00 299.35 Z M 319.60 331.78 C 319.49 338.47 319.26 345.21 319.76 351.95 C 322.06 352.20 326.64 352.70 328.95 352.95 C 328.97 346.21 329.11 339.47 328.36 332.81 C 326.17 332.56 321.79 332.03 319.60 331.78 Z M 495.97 347.65 C 495.86 357.53 505.65 361.88 512.06 367.46 C 507.04 385.19 484.56 385.61 470.72 378.59 C 476.13 392.38 486.31 405.72 501.38 409.33 C 516.47 412.41 534.31 411.49 546.16 400.48 C 552.48 393.82 558.20 385.86 559.64 376.59 C 550.93 379.97 541.33 383.36 531.92 380.75 C 525.51 379.45 518.75 374.23 519.11 367.16 C 523.54 361.02 533.37 356.97 531.76 348.04 C 520.30 344.74 507.73 346.51 495.97 347.65 Z" fill="#fdfdfd" fill-rule="nonzero" node-id="84" stroke="none" target-height="314.761" target-width="402.46106" target-x="316.877" target-y="144.063"></path><path d="M 284.97 419.68 C 294.35 416.98 303.42 413.16 313.13 411.57 C 327.59 439.13 352.03 460.96 381.22 471.81 C 421.31 486.82 464.92 486.79 507.15 487.15 C 554.76 485.07 603.31 483.93 648.98 468.81 C 662.60 492.62 673.87 517.73 682.33 543.80 C 674.34 554.29 666.65 565.11 660.71 576.93 C 650.37 598.96 648.01 625.21 655.36 648.54 C 655.86 649.76 656.86 652.20 657.36 653.40 C 667.18 676.23 683.13 695.96 702.16 711.80 C 695.45 731.00 686.38 750.28 671.03 764.15 C 653.92 778.55 630.50 779.30 610.94 788.57 C 614.66 790.73 618.40 792.95 622.21 795.17 C 621.10 803.83 621.48 812.56 622.48 821.28 C 614.94 816.84 606.92 811.62 604.14 802.86 C 597.54 783.66 600.45 762.74 605.06 743.45 C 606.92 734.22 612.83 726.50 614.94 717.37 C 606.56 726.39 600.15 736.96 594.76 747.98 L 594.21 748.31 C 584.72 753.19 578.48 762.29 569.55 768.01 C 546.38 783.77 515.78 783.13 489.70 776.08 C 470.28 770.78 458.76 753.44 444.64 740.65 C 437.54 731.27 435.35 717.35 424.58 711.33 C 435.68 737.68 445.00 766.18 441.64 795.14 C 438.18 788.32 432.07 785.01 424.47 785.71 C 381.52 782.27 348.20 745.73 337.52 705.72 C 360.16 692.99 380.72 673.54 389.48 648.57 C 399.94 621.52 391.43 590.39 375.36 567.36 C 363.60 550.93 346.18 540.17 328.53 531.10 C 325.06 529.13 321.68 527.16 318.29 525.13 C 305.56 490.51 295.15 455.11 284.97 419.68 Z M 547.74 578.35 C 545.24 591.86 546.71 607.62 556.64 618.02 C 566.55 627.09 581.59 626.01 593.79 623.38 C 617.32 615.80 633.83 595.77 647.95 576.54 C 635.66 584.09 624.26 592.97 611.97 600.51 C 612.19 599.35 612.61 597.02 612.80 595.85 C 603.73 597.99 594.65 601.43 585.17 600.57 C 576.68 599.74 568.13 599.07 559.64 600.10 C 551.40 572.91 572.49 548.88 590.58 531.29 C 570.66 540.12 553.04 556.65 547.74 578.35 Z" fill="#fdfdfd" fill-rule="nonzero" node-id="86" stroke="none" target-height="409.70197" target-width="417.193" target-x="284.971" target-y="411.575"></path><path d="M 514.53 886.75 C 518.13 884.37 520.33 884.95 521.13 888.50 C 517.50 890.75 515.28 890.17 514.53 886.75 Z" fill="#fdfdfd" fill-rule="nonzero" node-id="88" stroke="none" target-height="6.381958" target-width="6.6029663" target-x="514.528" target-y="884.36804"></path><path d="M 486.23 875.07 C 493.53 870.58 489.92 882.26 490.14 885.67 C 494.19 884.09 499.21 880.90 502.57 885.48 C 506.76 889.33 503.79 895.41 504.12 900.38 C 503.26 900.71 501.54 901.38 500.68 901.68 C 499.63 899.63 497.52 895.49 496.47 893.44 L 501.21 893.00 C 500.32 890.86 499.44 888.78 498.58 886.75 C 496.97 887.06 493.75 887.73 492.14 888.03 C 491.64 892.72 491.08 897.30 490.53 902.07 C 482.98 895.58 487.84 883.76 486.23 875.07 Z" fill="#351a22" fill-rule="nonzero" node-id="90" stroke="none" target-height="31.48999" target-width="23.777039" target-x="482.983" target-y="870.579"></path><path d="M 537.36 886.56 C 537.92 895.30 546.24 882.29 537.36 886.56 L 537.36 886.56 Z" fill="#fdfcfd" fill-rule="nonzero" node-id="92" stroke="none" target-height="13.012024" target-width="8.877991" target-x="537.362" target-y="882.28796"></path><path d="M 745.64 647.99 L 748.30 649.37 C 754.38 652.70 760.90 655.42 767.81 656.59 C 771.91 657.28 776.05 657.84 780.24 658.56 C 775.19 687.94 756.54 714.90 729.41 728.00 C 728.99 726.59 728.16 723.76 727.74 722.31 C 731.07 717.21 735.29 712.41 736.46 706.25 C 740.56 687.02 745.00 667.71 745.64 647.99 Z" fill="#fdfefd" fill-rule="nonzero" node-id="94" stroke="none" target-height="80.01495" target-width="52.49292" target-x="727.744" target-y="647.986"></path><path d="M 606.86 157.74 C 635.49 134.46 669.48 115.18 706.94 112.21 C 712.68 111.46 720.00 112.49 722.61 118.54 C 728.83 130.11 729.27 143.73 729.71 156.58 C 729.38 193.75 718.73 229.66 708.46 265.03 C 715.29 280.98 723.36 296.44 728.47 313.11 C 742.06 311.20 755.57 308.03 769.36 307.95 L 770.61 311.72 L 768.42 314.33 C 756.21 318.24 743.37 319.24 730.80 321.41 C 733.18 330.45 734.49 339.75 735.32 349.10 C 753.66 346.76 772.36 345.07 790.81 347.29 C 790.75 348.90 790.64 352.15 790.59 353.76 C 772.19 355.53 753.63 354.45 735.35 357.00 C 734.43 364.30 733.51 371.60 732.32 378.89 C 749.69 380.06 767.09 381.67 784.09 385.52 C 783.79 388.52 784.29 392.90 779.96 393.04 C 763.42 390.77 747.00 387.52 730.27 387.02 C 728.24 394.15 725.61 401.09 722.47 407.83 C 737.07 412.85 752.33 416.15 766.31 422.98 C 765.31 424.31 763.37 426.97 762.40 428.28 C 747.33 425.06 732.88 419.45 718.06 415.38 C 705.08 437.71 685.71 455.97 662.79 467.90 C 676.45 493.84 689.15 520.50 697.11 548.86 C 709.77 593.22 718.53 638.61 726.86 683.97 C 734.46 654.62 729.08 624.01 722.25 595.08 C 716.54 572.27 707.91 549.38 710.76 525.47 C 712.18 507.13 722.83 488.12 740.87 481.82 C 752.27 477.05 766.25 483.79 770.86 494.98 C 778.35 511.10 771.22 529.66 777.46 546.19 C 786.37 571.24 797.08 596.05 799.96 622.77 C 804.71 654.67 799.24 688.24 784.26 716.88 C 770.08 743.84 742.81 760.63 715.51 772.09 C 710.76 780.69 705.91 789.29 700.50 797.53 C 691.54 812.62 675.64 820.86 661.27 829.85 C 653.11 833.62 643.60 831.99 634.91 833.43 C 621.62 835.54 608.86 830.74 596.24 827.46 C 559.20 829.85 522.02 832.74 484.90 830.02 C 466.48 830.29 447.80 826.97 429.57 830.90 C 414.51 833.71 399.28 830.99 384.35 828.77 C 367.95 818.23 350.89 808.07 338.30 792.89 C 318.88 770.45 308.50 740.90 306.92 711.49 C 305.53 682.44 310.13 653.48 316.74 625.32 C 321.45 607.95 313.27 591.03 308.22 574.80 C 291.94 525.49 272.04 476.94 264.88 425.17 C 249.21 423.75 241.11 406.69 241.16 392.54 C 232.12 388.32 222.21 381.28 222.10 370.24 C 220.88 357.89 230.81 348.76 240.22 342.69 C 238.75 332.62 240.27 320.16 250.54 315.30 C 260.69 309.62 271.88 315.08 281.09 319.96 C 287.58 312.97 296.79 309.37 306.33 310.92 C 310.97 296.38 315.55 281.81 320.90 267.53 C 318.46 255.01 311.16 244.00 307.69 231.76 C 298.18 201.30 289.47 168.95 294.65 136.85 C 296.35 128.94 299.79 117.18 310.05 118.15 C 350.14 117.01 388.10 134.05 421.58 154.66 C 447.75 142.87 475.60 134.16 504.43 132.80 C 540.03 130.63 576.45 138.85 606.86 157.74 Z M 695.31 124.89 C 663.54 133.02 636.77 152.89 610.19 171.22 C 609.08 171.31 606.86 171.50 605.75 171.59 C 599.29 167.87 592.74 164.32 586.16 160.85 L 586.28 160.35 C 579.59 157.55 572.93 154.69 566.38 151.64 C 556.62 148.47 546.57 146.25 536.36 145.20 C 527.10 144.42 517.80 144.06 508.54 144.34 C 498.24 144.84 488.00 145.76 477.91 147.59 C 466.72 150.00 455.74 153.22 445.00 157.10 C 435.51 161.15 426.00 165.18 416.62 169.45 C 415.48 169.28 413.23 168.95 412.10 168.78 C 381.13 149.14 347.70 129.14 309.97 128.17 C 309.16 131.27 308.36 134.41 307.56 137.54 C 306.53 178.36 317.74 219.11 336.60 255.10 C 335.58 257.84 334.44 260.65 334.44 263.73 C 327.06 280.82 322.37 298.99 319.01 317.27 C 323.31 318.71 327.61 320.13 331.94 321.63 C 343.51 325.90 355.61 328.56 367.21 332.87 C 372.31 333.73 373.34 338.14 372.34 342.71 C 354.06 338.33 336.27 332.06 317.68 328.98 C 317.27 337.00 316.99 345.04 316.88 353.15 C 331.14 355.62 346.06 355.56 359.77 360.69 L 359.63 364.22 C 345.51 363.58 331.50 361.39 317.38 360.83 C 317.93 366.99 318.60 373.18 319.35 379.36 C 332.75 380.00 346.18 379.25 359.60 379.39 C 359.66 381.14 359.74 384.61 359.80 386.33 C 347.15 384.75 334.11 387.16 321.34 387.63 C 323.18 393.74 325.28 399.76 327.53 405.75 C 339.82 405.08 352.08 402.95 363.90 399.42 L 364.82 404.17 C 354.11 407.50 343.26 410.30 332.50 413.46 C 354.72 449.06 395.98 466.73 435.60 474.86 C 468.19 481.71 501.68 482.46 534.87 481.96 C 571.02 481.07 607.64 476.27 641.40 462.76 C 666.87 452.42 689.18 434.47 703.75 411.05 C 694.17 408.97 684.80 406.19 675.25 404.14 C 672.45 401.89 669.65 399.70 666.87 397.51 C 680.66 397.37 693.70 402.14 707.16 404.47 C 709.63 398.01 712.18 391.57 714.87 385.19 C 705.44 384.72 695.98 383.50 686.52 384.08 L 687.32 383.83 C 682.63 383.44 677.94 383.11 673.28 382.78 C 673.56 381.36 674.14 378.48 674.42 377.06 C 688.49 376.73 702.58 377.37 716.65 377.53 C 717.40 371.32 718.23 365.10 719.03 358.94 C 704.86 360.36 690.82 363.22 676.56 363.66 L 673.75 360.86 C 687.54 353.15 704.52 354.89 719.34 349.73 C 718.20 341.74 717.26 333.75 716.54 325.76 C 699.03 328.68 682.55 336.56 664.85 338.00 L 664.13 333.59 C 679.30 324.10 697.75 322.02 714.51 316.30 C 707.46 295.52 702.33 273.91 692.62 254.15 C 707.49 213.29 720.64 169.87 714.01 125.92 L 713.82 126.11 C 708.46 121.87 701.39 123.67 695.31 124.89 Z M 254.70 322.65 C 245.85 328.06 248.63 339.33 251.21 347.54 C 241.77 351.37 229.56 357.86 230.68 369.85 C 231.62 379.86 242.25 382.78 249.54 387.05 C 251.40 395.84 251.09 405.67 258.31 412.27 C 270.13 414.46 288.94 409.22 290.44 395.32 C 295.12 395.40 299.87 395.51 304.59 395.62 C 303.48 390.68 302.39 385.72 301.34 380.83 C 297.96 379.50 294.57 378.23 291.21 376.98 C 285.83 379.95 280.17 382.50 273.96 382.75 L 271.79 383.58 L 272.07 381.47 C 270.40 377.17 264.88 374.98 264.97 370.01 C 266.36 365.66 268.55 361.66 270.10 357.42 C 276.15 354.12 283.53 353.20 289.30 357.61 C 292.57 363.66 291.74 370.79 292.66 377.39 C 294.68 377.45 298.76 377.50 300.79 377.56 C 300.37 372.01 299.93 366.55 299.56 361.08 C 297.96 360.36 294.68 358.86 293.07 358.14 C 295.15 356.50 297.21 354.87 299.29 353.26 C 300.09 342.52 300.67 331.73 303.28 321.27 C 294.43 318.80 288.97 327.23 282.33 331.37 C 280.64 330.45 277.20 328.62 275.51 327.70 L 276.48 326.23 C 270.07 322.52 261.72 317.27 254.70 322.65 Z M 275.84 360.47 C 273.98 363.38 272.51 366.57 270.96 369.71 C 273.54 372.46 279.84 378.56 282.28 372.65 C 286.25 367.91 283.17 357.03 275.84 360.47 Z M 284.97 419.68 C 281.67 420.54 278.40 421.43 275.15 422.37 C 281.86 457.44 293.79 491.26 305.58 524.88 L 306.47 524.88 C 311.30 538.23 316.05 551.63 321.23 564.86 C 322.20 568.03 323.20 571.22 324.20 574.46 C 337.24 598.29 334.58 626.35 327.67 651.62 C 325.01 671.10 323.37 690.71 323.34 710.41 C 324.65 743.09 337.66 777.00 363.79 797.78 C 363.15 790.23 363.65 782.66 366.18 775.53 C 372.17 784.04 372.34 795.28 378.64 803.71 C 383.05 811.21 391.51 814.37 399.17 817.45 C 396.95 808.93 394.51 800.36 395.09 791.48 C 399.78 798.22 399.28 807.21 403.52 814.26 C 405.44 819.39 411.96 818.56 416.20 820.22 C 423.00 813.48 416.92 802.25 420.73 793.87 C 424.58 801.05 424.77 809.35 425.44 817.34 C 435.26 814.15 438.93 804.08 441.64 795.14 C 445.00 766.18 435.68 737.68 424.58 711.33 C 435.35 717.35 437.54 731.27 444.64 740.65 C 452.08 762.35 461.34 785.68 452.66 808.63 C 497.91 815.28 543.85 812.07 589.08 807.18 C 582.84 787.65 588.83 767.26 594.21 748.31 L 594.76 747.98 C 600.15 736.96 606.56 726.39 614.94 717.38 C 612.83 726.50 606.92 734.22 605.06 743.45 C 600.45 762.74 597.54 783.66 604.14 802.86 C 606.92 811.62 614.94 816.84 622.48 821.28 C 621.48 812.57 621.10 803.83 622.21 795.17 C 622.76 795.50 623.90 796.17 624.48 796.50 C 626.01 804.13 625.78 812.57 629.83 819.50 C 633.83 822.14 638.80 820.11 643.21 820.06 C 645.62 811.46 645.93 802.47 648.26 793.89 C 650.70 802.08 650.67 810.68 650.56 819.20 C 655.80 815.09 661.63 811.34 665.24 805.60 C 670.65 797.06 671.84 786.76 674.59 777.22 C 682.16 782.24 680.47 792.45 680.05 800.27 C 698.84 777.14 712.37 748.25 712.12 718.01 C 711.29 694.29 708.24 670.76 704.30 647.43 C 702.44 638.19 700.64 628.98 699.06 619.74 C 698.06 614.28 697.14 608.81 696.37 603.37 C 694.45 590.72 690.82 578.43 688.90 565.81 C 686.10 558.51 684.08 550.99 682.66 543.36 L 682.33 543.80 C 673.87 517.73 662.60 492.62 648.98 468.81 C 603.31 483.93 554.76 485.07 507.15 487.15 C 464.92 486.79 421.31 486.82 381.22 471.81 C 352.03 460.96 327.59 439.13 313.13 411.58 C 303.42 413.16 294.35 416.99 284.97 419.68 Z M 725.25 523.05 C 722.22 540.75 725.75 558.84 731.41 575.66 C 738.07 599.13 743.75 623.02 745.50 647.43 C 746.20 647.90 747.61 648.87 748.30 649.37 L 745.64 647.99 C 745.00 667.71 740.56 687.02 736.46 706.25 C 735.29 712.41 731.07 717.21 727.74 722.31 C 725.61 732.55 724.28 742.93 722.06 753.16 C 736.65 745.67 751.05 736.99 761.79 724.37 C 778.71 704.56 786.76 678.67 789.20 653.09 L 790.34 652.76 C 786.95 634.95 785.37 616.88 781.87 599.13 C 779.13 589.03 776.21 578.93 771.77 569.47 C 762.67 550.63 760.90 529.52 762.20 508.96 C 763.37 500.16 755.13 490.54 745.92 494.06 C 734.15 498.72 727.55 511.18 725.25 523.05 Z" fill="#341922" fill-rule="nonzero" node-id="96" stroke="none" target-height="724.07404" target-width="583.827" target-x="220.881" target-y="111.464"></path><path d="M 338.30 792.89 C 350.89 808.07 367.95 818.23 384.35 828.77 C 365.10 831.29 345.81 826.83 326.70 824.80 C 312.69 822.03 296.79 821.47 285.69 811.37 C 300.76 799.39 321.57 800.72 339.68 797.61 C 339.32 796.42 338.63 794.06 338.30 792.89 Z" fill="#a393a6" fill-rule="nonzero" node-id="98" stroke="none" target-height="38.39801" target-width="98.65997" target-x="285.692" target-y="792.895"></path><path d="M 550.90 875.74 C 552.84 872.60 555.37 871.97 558.48 873.85 C 558.48 875.27 558.45 878.07 558.42 879.46 C 555.78 882.20 549.26 879.96 550.90 875.74 Z" fill="#311922" fill-rule="nonzero" node-id="100" stroke="none" target-height="10.238037" target-width="9.210999" target-x="549.265" target-y="871.966"></path><path d="M 508.56 893.50 C 507.01 886.00 515.75 879.57 522.55 882.76 C 525.29 885.28 527.40 888.47 529.90 891.36 C 531.45 880.37 548.43 878.74 548.99 890.80 C 544.13 890.36 539.30 890.00 534.50 889.67 C 535.17 897.52 541.27 898.10 547.16 895.38 C 546.24 899.60 541.75 902.96 537.53 900.85 C 533.53 897.96 530.54 894.05 527.01 890.72 C 522.02 892.22 516.91 892.83 511.67 892.58 C 513.67 899.90 521.77 898.05 527.35 898.05 C 522.16 904.93 509.87 902.10 508.56 893.50 Z M 514.53 886.75 C 515.28 890.17 517.50 890.75 521.13 888.50 C 520.33 884.95 518.13 884.37 514.53 886.75 Z M 537.36 886.56 C 537.92 895.30 546.24 882.29 537.36 886.56 L 537.36 886.56 Z" fill="#311922" fill-rule="nonzero" node-id="102" stroke="none" target-height="26.190979" target-width="41.97699" target-x="507.01" target-y="878.736"></path><path d="M 501.88 352.81 C 510.17 352.62 518.44 352.54 526.74 353.06 C 518.75 356.28 509.89 355.53 501.88 352.81 Z" fill="#b3a4b6" fill-rule="nonzero" node-id="104" stroke="none" target-height="3.7459717" target-width="24.859009" target-x="501.877" target-y="352.53503"></path><path d="M 695.31 124.89 C 701.39 123.67 708.46 121.87 713.82 126.11 C 710.38 129.28 706.96 132.52 703.33 135.49 C 678.77 149.86 659.38 171.09 641.40 192.81 C 631.86 184.43 620.98 177.80 610.19 171.22 C 636.77 152.89 663.54 133.02 695.31 124.89 Z" fill="#eca854" fill-rule="nonzero" node-id="106" stroke="none" target-height="70.943" target-width="103.62604" target-x="610.191" target-y="121.868004"></path><path d="M 713.82 126.11 L 714.01 125.92 C 720.64 169.87 707.49 213.29 692.62 254.15 C 688.29 246.80 683.74 239.59 678.80 232.65 C 696.31 203.71 705.74 169.37 703.33 135.49 C 706.96 132.52 710.38 129.28 713.82 126.11 Z" fill="#e6908b" fill-rule="nonzero" node-id="108" stroke="none" target-height="128.23398" target-width="41.83905" target-x="678.803" target-y="125.919"></path><path d="M 309.97 128.17 C 347.70 129.14 381.13 149.14 412.10 168.78 C 403.77 173.92 395.73 179.52 388.01 185.57 C 375.94 175.91 364.60 165.26 351.50 156.99 C 341.40 150.31 330.33 145.31 320.18 138.76 C 318.57 136.66 317.07 134.55 315.57 132.52 C 312.88 134.16 310.19 135.82 307.56 137.54 C 308.36 134.41 309.16 131.27 309.97 128.17 Z" fill="#f1aa55" fill-rule="nonzero" node-id="110" stroke="none" target-height="57.403" target-width="104.541016" target-x="307.555" target-y="128.166"></path><path d="M 307.56 137.54 C 310.19 135.82 312.88 134.16 315.57 132.52 C 317.07 134.55 318.57 136.66 320.18 138.76 C 317.96 152.53 323.04 165.81 326.31 178.97 C 330.92 196.69 339.43 213.06 349.26 228.43 C 344.37 236.98 340.49 246.05 336.60 255.10 C 317.74 219.11 306.53 178.36 307.56 137.54 Z" fill="#e4985c" fill-rule="nonzero" node-id="112" stroke="none" target-height="122.575" target-width="42.72702" target-x="306.528" target-y="132.522"></path><path d="M 641.40 192.81 C 659.38 171.09 678.77 149.86 703.33 135.49 C 705.74 169.37 696.31 203.71 678.80 232.65 C 667.90 218.00 654.94 205.02 641.40 192.81 Z" fill="#fab9d7" fill-rule="nonzero" node-id="114" stroke="none" target-height="97.160995" target-width="64.33905" target-x="641.404" target-y="135.49"></path><path d="M 326.31 178.97 C 323.04 165.81 317.96 152.53 320.18 138.76 C 330.33 145.31 341.40 150.31 351.50 156.99 C 364.60 165.26 375.94 175.91 388.01 185.57 C 373.45 198.25 361.16 213.29 349.26 228.43 C 339.43 213.06 330.92 196.69 326.31 178.97 Z" fill="#f9bccf" fill-rule="nonzero" node-id="116" stroke="none" target-height="89.67" target-width="70.05499" target-x="317.959" target-y="138.764"></path><path d="M 477.91 147.59 C 488.00 145.76 498.24 144.84 508.54 144.34 C 503.26 176.86 491.81 207.82 482.09 239.17 C 485.78 208.60 478.99 178.13 477.91 147.59 Z" fill="#da8c3f" fill-rule="nonzero" node-id="118" stroke="none" target-height="94.83" target-width="30.630005" target-x="477.906" target-y="144.341"></path><path d="M 536.36 145.20 C 546.57 146.25 556.62 148.47 566.38 151.64 C 563.83 177.33 560.28 202.99 559.56 228.82 C 558.78 233.54 561.94 236.92 565.47 239.56 C 563.08 239.17 560.72 238.84 558.37 238.56 C 546.41 208.85 535.67 177.63 536.36 145.20 Z" fill="#de8d42" fill-rule="nonzero" node-id="120" stroke="none" target-height="94.35901" target-width="30.713013" target-x="535.67" target-y="145.201"></path><path d="M 445.00 157.10 C 455.74 153.22 466.72 150.00 477.91 147.59 C 478.99 178.13 485.78 208.60 482.09 239.17 C 478.35 237.90 473.58 237.90 471.69 233.82 C 457.85 210.23 454.18 182.54 445.00 157.10 Z" fill="#8c4649" fill-rule="nonzero" node-id="122" stroke="none" target-height="91.584" target-width="40.783997" target-x="445.00098" target-y="147.587"></path><path d="M 566.38 151.64 C 572.93 154.69 579.59 157.55 586.28 160.35 L 586.16 160.85 C 581.73 183.93 577.26 207.02 571.46 229.82 C 569.57 233.12 567.49 236.29 565.47 239.56 C 561.94 236.92 558.78 233.54 559.56 228.82 C 560.28 202.99 563.83 177.33 566.38 151.64 Z" fill="#934c46" fill-rule="nonzero" node-id="124" stroke="none" target-height="87.92201" target-width="27.494995" target-x="558.781" target-y="151.638"></path><path d="M 416.62 169.45 C 426.00 165.18 435.51 161.15 445.00 157.10 C 454.18 182.54 457.85 210.23 471.69 233.82 C 473.58 237.90 478.35 237.90 482.09 239.17 C 481.68 239.84 480.79 241.11 480.35 241.75 C 467.92 239.03 459.90 228.54 453.69 218.25 C 442.39 201.22 429.57 185.24 416.62 169.45 Z" fill="#e2994a" fill-rule="nonzero" node-id="126" stroke="none" target-height="84.649" target-width="65.47696" target-x="416.618" target-y="157.103"></path><path d="M 571.46 229.82 C 577.26 207.01 581.73 183.93 586.16 160.85 C 592.74 164.32 599.29 167.87 605.75 171.59 C 592.91 190.15 582.92 210.43 571.46 229.82 Z" fill="#e6a44c" fill-rule="nonzero" node-id="128" stroke="none" target-height="68.971985" target-width="34.291992" target-x="571.46" target-y="160.849"></path><path d="M 595.65 259.18 C 598.79 251.93 604.39 245.14 612.38 243.36 C 623.07 239.50 636.52 246.22 638.08 257.93 C 632.11 254.24 625.62 250.71 618.35 251.38 C 609.80 250.52 603.12 256.21 595.65 259.18 Z" fill="#35171e" fill-rule="nonzero" node-id="130" stroke="none" target-height="19.669983" target-width="42.421997" target-x="595.653" target-y="239.505"></path><path d="M 390.57 256.46 C 399.03 238.06 427.24 241.53 433.82 259.68 C 425.91 256.93 418.50 251.88 409.90 251.88 C 403.13 251.66 396.95 254.82 390.57 256.46 Z" fill="#2b1216" fill-rule="nonzero" node-id="132" stroke="none" target-height="21.612991" target-width="43.253998" target-x="390.566" target-y="238.062"></path><path d="M 319.01 317.27 C 322.37 298.99 327.06 280.82 334.44 263.73 C 334.99 283.06 333.44 302.37 331.94 321.63 C 327.61 320.13 323.31 318.71 319.01 317.27 Z" fill="#cabccb" fill-rule="nonzero" node-id="134" stroke="none" target-height="57.902985" target-width="15.97998" target-x="319.014" target-y="263.725"></path><path d="M 552.23 883.31 C 558.92 883.09 556.51 890.50 556.95 894.86 C 557.50 898.32 555.67 901.21 552.79 902.96 C 552.01 896.41 551.98 889.83 552.23 883.31 Z" fill="#543644" fill-rule="nonzero" node-id="136" stroke="none" target-height="19.865051" target-width="6.935974" target-x="551.984" target-y="883.0919"></path><path d="M 403.00 299.35 C 413.76 294.13 428.33 295.66 436.57 304.81 C 447.47 316.41 447.22 336.92 435.21 347.65 C 422.33 357.83 400.92 355.37 391.81 341.33 C 383.10 327.56 387.93 306.48 403.00 299.35 Z" fill="#391b2b" fill-rule="nonzero" node-id="138" stroke="none" target-height="63.701996" target-width="64.367004" target-x="383.10303" target-y="294.133"></path><path d="M 595.15 302.68 C 609.64 291.33 633.38 297.35 640.90 314.11 C 644.62 324.82 642.87 337.47 635.52 346.35 C 631.00 349.37 626.34 352.09 621.51 354.56 C 612.52 356.17 602.87 354.14 596.10 347.85 C 583.14 337.00 580.92 313.33 595.15 302.68 Z" fill="#3c1e2b" fill-rule="nonzero" node-id="140" stroke="none" target-height="64.83902" target-width="63.70099" target-x="580.921" target-y="291.331"></path><path d="M 254.70 322.65 C 261.72 317.27 270.07 322.52 276.48 326.23 L 275.51 327.70 C 267.63 335.83 270.10 347.24 270.10 357.42 C 268.55 361.66 266.36 365.66 264.97 370.01 C 264.88 374.98 270.40 377.17 272.07 381.47 L 271.79 383.58 C 269.49 387.30 265.99 390.71 265.61 395.29 C 266.19 399.67 268.21 403.72 269.85 407.83 C 265.99 409.27 262.11 410.72 258.31 412.27 C 251.09 405.67 251.40 395.84 249.54 387.05 C 242.25 382.78 231.62 379.86 230.68 369.85 C 229.57 357.86 241.77 351.37 251.21 347.54 C 248.63 339.33 245.85 328.06 254.70 322.65 Z" fill="#ecc3d5" fill-rule="nonzero" node-id="142" stroke="none" target-height="94.99698" target-width="46.914993" target-x="229.566" target-y="317.272"></path><path d="M 282.33 331.37 C 288.97 327.23 294.43 318.80 303.28 321.27 C 300.67 331.73 300.09 342.52 299.29 353.26 C 297.21 354.87 295.15 356.50 293.07 358.14 C 294.68 358.86 297.95 360.36 299.56 361.08 C 299.93 366.55 300.37 372.01 300.79 377.56 C 298.76 377.50 294.68 377.45 292.66 377.39 C 291.74 370.79 292.57 363.66 289.30 357.61 C 283.53 353.20 276.15 354.12 270.10 357.42 C 270.10 347.24 267.63 335.83 275.51 327.70 C 277.20 328.62 280.64 330.45 282.33 331.37 Z" fill="#f2d9e5" fill-rule="nonzero" node-id="144" stroke="none" target-height="58.763" target-width="35.652008" target-x="267.63" target-y="318.798"></path><path d="M 319.60 331.78 C 321.79 332.03 326.17 332.56 328.36 332.81 C 329.11 339.47 328.97 346.21 328.95 352.95 C 326.64 352.70 322.06 352.20 319.76 351.95 C 319.26 345.21 319.49 338.47 319.60 331.78 Z" fill="#bba7c1" fill-rule="nonzero" node-id="146" stroke="none" target-height="21.168945" target-width="9.848999" target-x="319.263" target-y="331.782"></path><path d="M 495.97 347.65 C 507.73 346.51 520.30 344.74 531.76 348.04 C 533.37 356.97 523.54 361.02 519.11 367.16 C 518.75 374.23 525.51 379.45 531.92 380.75 C 541.33 383.36 550.93 379.97 559.64 376.59 C 558.20 385.86 552.48 393.82 546.16 400.48 C 534.31 411.49 516.47 412.41 501.38 409.33 C 486.31 405.72 476.13 392.38 470.72 378.59 C 484.56 385.61 507.04 385.19 512.06 367.46 C 505.65 361.88 495.86 357.53 495.97 347.65 Z M 501.88 352.81 C 509.89 355.53 518.75 356.28 526.74 353.06 C 518.44 352.54 510.17 352.62 501.88 352.81 Z M 482.07 388.52 C 489.47 398.18 499.99 406.53 512.92 405.69 C 527.40 407.80 541.19 400.34 549.10 388.41 C 536.70 389.66 522.91 388.08 514.95 377.34 C 506.26 385.88 494.36 390.82 482.07 388.52 Z" fill="#340d20" fill-rule="nonzero" node-id="148" stroke="none" target-height="67.668945" target-width="88.92096" target-x="470.72003" target-y="344.739"></path><path d="M 621.51 354.56 C 626.34 352.09 631.00 349.37 635.52 346.35 C 642.54 348.29 649.81 347.79 657.02 348.18 C 663.77 350.45 668.59 356.20 673.75 360.86 L 676.56 363.66 C 675.81 368.07 675.20 372.59 674.42 377.06 C 674.14 378.48 673.56 381.36 673.28 382.78 C 677.94 383.11 682.63 383.44 687.32 383.83 L 686.52 384.08 C 682.85 385.22 679.27 386.55 675.72 387.91 C 675.28 389.88 674.86 391.88 674.45 393.90 C 671.89 395.07 669.37 396.26 666.87 397.51 C 649.14 394.82 627.37 397.87 614.93 381.89 C 608.25 372.46 616.93 362.69 621.51 354.56 Z M 642.01 362.11 C 647.06 368.63 655.75 367.29 663.02 366.91 C 659.49 357.97 649.28 358.08 642.01 362.11 Z M 632.19 370.40 C 629.78 379.14 642.15 376.23 646.92 375.56 C 642.79 372.21 637.71 369.10 632.19 370.40 Z" fill="#f8cad4" fill-rule="nonzero" node-id="150" stroke="none" target-height="51.520966" target-width="79.07196" target-x="608.249" target-y="346.34802"></path><path d="M 359.77 360.69 C 369.84 356.42 380.30 349.70 391.73 352.31 C 400.36 354.67 409.13 358.61 415.04 365.60 C 419.56 371.07 418.50 379.73 413.29 384.44 C 403.33 394.62 388.10 394.40 374.92 395.48 C 369.79 392.51 364.88 389.27 359.80 386.33 C 359.74 384.61 359.66 381.14 359.60 379.39 C 359.44 374.31 359.41 369.26 359.63 364.22 L 359.77 360.69 Z M 373.84 372.29 C 382.16 375.01 391.31 376.31 399.92 373.98 C 401.58 371.49 401.11 369.63 398.42 368.46 C 390.70 364.38 379.41 365.05 373.84 372.29 Z" fill="#f6c5d9" fill-rule="nonzero" node-id="152" stroke="none" target-height="45.779053" target-width="60.149963" target-x="359.409" target-y="349.70496"></path><path d="M 275.84 360.47 C 283.17 357.03 286.25 367.91 282.28 372.65 C 279.84 378.56 273.54 372.46 270.96 369.71 C 272.51 366.57 273.98 363.38 275.84 360.47 Z" fill="#5d3f4a" fill-rule="nonzero" node-id="154" stroke="none" target-height="21.529968" target-width="15.287018" target-x="270.96" target-y="357.03"></path><path d="M 642.01 362.11 C 649.28 358.08 659.49 357.97 663.02 366.91 C 655.75 367.29 647.06 368.63 642.01 362.11 Z" fill="#f7efef" fill-rule="nonzero" node-id="156" stroke="none" target-height="10.654022" target-width="21.003052" target-x="642.014" target-y="357.973"></path><path d="M 676.56 363.66 C 690.82 363.22 704.86 360.36 719.03 358.94 C 718.23 365.10 717.39 371.32 716.65 377.53 C 702.58 377.37 688.49 376.73 674.42 377.06 C 675.20 372.59 675.81 368.07 676.56 363.66 Z" fill="#dddae3" fill-rule="nonzero" node-id="158" stroke="none" target-height="18.58899" target-width="44.614075" target-x="674.419" target-y="358.944"></path><path d="M 317.38 360.83 C 331.50 361.39 345.51 363.58 359.63 364.21 C 359.41 369.26 359.44 374.31 359.60 379.39 C 346.18 379.25 332.75 380.00 319.35 379.36 C 318.60 373.18 317.93 366.99 317.38 360.83 Z M 320.01 363.49 C 319.65 367.66 319.96 371.79 320.93 375.90 C 323.43 376.26 328.42 376.98 330.89 377.34 C 330.86 372.62 330.83 367.93 330.81 363.27 C 328.11 363.33 322.70 363.44 320.01 363.49 Z" fill="#e7dee7" fill-rule="nonzero" node-id="160" stroke="none" target-height="19.171051" target-width="42.255005" target-x="317.376" target-y="360.83096"></path><path d="M 320.01 363.49 C 322.70 363.44 328.11 363.33 330.81 363.27 C 330.83 367.93 330.86 372.62 330.89 377.34 C 328.42 376.98 323.43 376.26 320.93 375.90 C 319.96 371.79 319.65 367.66 320.01 363.49 Z" fill="#b3a4be" fill-rule="nonzero" node-id="162" stroke="none" target-height="14.06604" target-width="11.235992" target-x="319.652" target-y="363.27197"></path><path d="M 373.84 372.29 C 379.41 365.05 390.70 364.38 398.42 368.46 C 401.11 369.63 401.58 371.48 399.92 373.98 C 391.31 376.31 382.16 375.01 373.84 372.29 Z" fill="#f3e6e9" fill-rule="nonzero" node-id="164" stroke="none" target-height="11.930023" target-width="27.744995" target-x="373.83597" target-y="364.382"></path><path d="M 632.19 370.40 C 637.71 369.10 642.79 372.21 646.92 375.56 C 642.15 376.23 629.78 379.14 632.19 370.40 Z" fill="#f4e9e9" fill-rule="nonzero" node-id="166" stroke="none" target-height="10.042969" target-width="17.145996" target-x="629.779" target-y="369.099"></path><path d="M 273.96 382.75 C 280.17 382.50 285.83 379.95 291.21 376.98 C 294.57 378.23 297.96 379.50 301.34 380.83 C 302.39 385.72 303.48 390.68 304.59 395.62 C 299.87 395.51 295.13 395.40 290.44 395.32 C 288.94 409.22 270.13 414.46 258.31 412.27 C 262.11 410.72 265.99 409.27 269.85 407.83 C 268.21 403.72 266.19 399.67 265.61 395.29 C 265.99 390.71 269.49 387.30 271.79 383.58 L 273.96 382.75 Z" fill="#f2d4e0" fill-rule="nonzero" node-id="168" stroke="none" target-height="37.483032" target-width="46.278015" target-x="258.309" target-y="376.97797"></path><path d="M 482.07 388.52 C 494.36 390.82 506.26 385.88 514.95 377.34 C 522.91 388.08 536.70 389.66 549.10 388.41 C 541.19 400.34 527.40 407.80 512.92 405.69 C 499.99 406.53 489.47 398.18 482.07 388.52 Z" fill="#fcfefd" fill-rule="nonzero" node-id="170" stroke="none" target-height="30.463043" target-width="67.031006" target-x="482.06702" target-y="377.339"></path><path d="M 675.72 387.91 C 679.27 386.55 682.85 385.22 686.52 384.08 C 695.98 383.50 705.44 384.72 714.87 385.19 C 712.18 391.57 709.63 398.01 707.16 404.47 C 693.70 402.14 680.66 397.37 666.87 397.51 C 669.37 396.26 671.89 395.07 674.45 393.90 C 674.86 391.88 675.28 389.88 675.72 387.91 Z" fill="#d3cdda" fill-rule="nonzero" node-id="172" stroke="none" target-height="20.975006" target-width="47.99695" target-x="666.874" target-y="383.498"></path><path d="M 321.34 387.63 C 334.11 387.16 347.15 384.75 359.80 386.33 C 364.88 389.27 369.79 392.51 374.92 395.48 C 371.20 396.68 367.57 398.06 363.90 399.42 C 352.08 402.95 339.82 405.08 327.53 405.75 C 325.28 399.76 323.18 393.74 321.34 387.63 Z" fill="#dbd4de" fill-rule="nonzero" node-id="174" stroke="none" target-height="21.00299" target-width="53.573975" target-x="321.344" target-y="384.746"></path><path d="M 332.50 413.46 C 343.26 410.30 354.11 407.50 364.82 404.17 C 370.54 418.82 384.30 428.42 398.03 434.94 C 428.69 448.67 462.79 452.97 496.16 452.47 C 537.86 453.69 580.95 458.82 621.40 445.73 C 643.82 439.21 662.18 423.06 675.25 404.14 C 684.80 406.19 694.17 408.97 703.75 411.05 C 689.18 434.46 666.87 452.42 641.40 462.76 C 607.64 476.27 571.02 481.07 534.87 481.96 C 501.68 482.46 468.20 481.71 435.60 474.86 C 395.98 466.73 354.72 449.06 332.50 413.46 Z" fill="#d3cddd" fill-rule="nonzero" node-id="176" stroke="none" target-height="78.32199" target-width="371.248" target-x="332.498" target-y="404.14005"></path><path d="M 275.15 422.37 C 278.40 421.43 281.67 420.54 284.97 419.68 C 295.15 455.11 305.56 490.51 318.29 525.13 C 314.32 525.00 310.38 524.91 306.47 524.88 L 305.58 524.88 C 293.79 491.26 281.86 457.44 275.15 422.37 Z" fill="#d0cddf" fill-rule="nonzero" node-id="178" stroke="none" target-height="105.45596" target-width="43.142" target-x="275.15" target-y="419.67703"></path><path d="M 725.25 523.05 C 727.55 511.18 734.15 498.72 745.92 494.06 C 755.13 490.54 763.37 500.16 762.20 508.96 C 760.90 529.52 762.67 550.63 771.77 569.47 C 758.04 568.72 742.50 565.22 731.41 575.66 C 725.75 558.84 722.22 540.75 725.25 523.05 Z" fill="#fefefd" fill-rule="nonzero" node-id="180" stroke="none" target-height="85.119995" target-width="49.552002" target-x="722.223" target-y="490.536"></path><path d="M 306.47 524.88 C 310.38 524.91 314.32 525.00 318.29 525.13 C 321.68 527.16 325.06 529.13 328.53 531.10 C 328.89 542.81 325.95 554.21 321.23 564.86 C 316.05 551.63 311.30 538.23 306.47 524.88 Z" fill="#99523e" fill-rule="nonzero" node-id="182" stroke="none" target-height="39.98004" target-width="22.417023" target-x="306.473" target-y="524.884"></path><path d="M 328.53 531.10 C 346.18 540.17 363.60 550.93 375.36 567.36 C 365.32 568.03 355.41 569.63 345.56 571.58 C 338.46 572.80 331.33 573.66 324.20 574.46 C 323.20 571.22 322.20 568.03 321.23 564.86 C 325.95 554.21 328.89 542.81 328.53 531.10 Z" fill="#e49847" fill-rule="nonzero" node-id="184" stroke="none" target-height="43.36499" target-width="54.128998" target-x="321.233" target-y="531.098"></path><path d="M 547.74 578.35 C 553.04 556.65 570.65 540.12 590.58 531.29 C 572.49 548.88 551.40 572.91 559.64 600.10 C 562.47 605.37 566.41 609.92 570.90 613.91 C 574.85 609.50 578.81 605.09 582.97 600.93 C 581.20 605.18 579.39 609.45 577.59 613.75 C 590.24 613.28 601.76 607.53 611.97 600.51 C 624.26 592.97 635.66 584.09 647.95 576.54 C 633.83 595.77 617.32 615.80 593.79 623.38 C 581.59 626.01 566.55 627.09 556.64 618.02 C 546.71 607.62 545.24 591.86 547.74 578.35 Z" fill="#31131c" fill-rule="nonzero" node-id="186" stroke="none" target-height="95.802" target-width="102.70996" target-x="545.241" target-y="531.292"></path><path d="M 682.33 543.80 L 682.66 543.36 C 684.08 550.99 686.10 558.51 688.90 565.81 C 683.88 568.94 678.83 572.05 673.48 574.55 C 669.40 576.04 665.01 576.57 660.71 576.93 C 666.65 565.11 674.34 554.29 682.33 543.80 Z" fill="#e38c42" fill-rule="nonzero" node-id="188" stroke="none" target-height="33.570007" target-width="28.187988" target-x="660.714" target-y="543.362"></path><path d="M 688.90 565.81 C 690.82 578.43 694.45 590.72 696.37 603.37 C 688.65 598.99 680.25 595.35 673.98 588.97 C 669.79 585.06 672.98 579.21 673.48 574.55 C 678.83 572.05 683.88 568.94 688.90 565.81 Z" fill="#8c564a" fill-rule="nonzero" node-id="190" stroke="none" target-height="37.56598" target-width="26.57898" target-x="669.786" target-y="565.807"></path><path d="M 345.57 571.58 C 355.41 569.63 365.32 568.03 375.36 567.36 C 373.03 584.01 360.66 596.49 346.37 604.12 C 346.20 593.25 345.87 582.40 345.57 571.58 Z" fill="#a2574b" fill-rule="nonzero" node-id="192" stroke="none" target-height="36.762024" target-width="29.796967" target-x="345.56503" target-y="567.36"></path><path d="M 375.36 567.36 C 391.43 590.39 399.94 621.52 389.48 648.57 C 389.04 647.15 388.21 644.38 387.76 642.99 C 385.10 645.27 382.44 647.57 379.72 649.82 C 380.02 647.74 380.58 643.52 380.86 641.41 C 370.95 632.98 358.52 628.84 346.40 624.85 C 346.15 617.91 346.15 611.00 346.37 604.12 C 360.66 596.49 373.03 584.01 375.36 567.36 Z" fill="#f5b052" fill-rule="nonzero" node-id="194" stroke="none" target-height="82.45703" target-width="53.796967" target-x="346.14703" target-y="567.36"></path><path d="M 731.41 575.66 C 742.50 565.22 758.04 568.72 771.77 569.47 C 776.21 578.93 779.13 589.03 781.87 599.13 C 769.44 598.24 764.53 610.73 760.01 619.99 C 756.02 629.56 752.16 639.30 745.50 647.43 C 743.75 623.01 738.07 599.13 731.41 575.66 Z" fill="#f3a751" fill-rule="nonzero" node-id="196" stroke="none" target-height="82.20599" target-width="50.46704" target-x="731.407" target-y="565.224"></path><path d="M 324.20 574.46 C 331.33 573.66 338.46 572.80 345.57 571.58 C 345.87 582.40 346.20 593.25 346.37 604.12 C 342.74 604.15 339.10 604.23 335.49 604.34 C 335.05 610.23 334.61 616.13 334.19 622.10 C 338.24 622.93 342.32 623.93 346.40 624.85 C 349.37 636.42 347.45 651.40 360.32 657.31 C 350.12 657.00 339.88 655.81 330.19 652.54 L 327.67 651.62 C 334.58 626.35 337.24 598.30 324.20 574.46 Z" fill="#884943" fill-rule="nonzero" node-id="198" stroke="none" target-height="85.72998" target-width="36.123016" target-x="324.202" target-y="571.578"></path><path d="M 660.71 576.93 C 665.01 576.57 669.40 576.04 673.48 574.55 C 672.98 579.21 669.79 585.06 673.98 588.97 C 680.25 595.36 688.65 598.99 696.37 603.37 C 697.14 608.81 698.06 614.28 699.06 619.74 C 691.01 623.65 683.10 627.93 675.81 633.12 C 668.79 638.00 661.80 642.94 655.36 648.54 C 648.01 625.21 650.37 598.96 660.71 576.93 Z" fill="#e9994c" fill-rule="nonzero" node-id="200" stroke="none" target-height="73.994995" target-width="51.049988" target-x="648.007" target-y="574.546"></path><path d="M 585.17 600.57 C 594.65 601.43 603.73 597.99 612.80 595.85 C 612.61 597.02 612.19 599.35 611.97 600.51 C 601.76 607.53 590.24 613.28 577.59 613.75 C 579.39 609.45 581.20 605.18 582.97 600.93 C 578.81 605.09 574.85 609.50 570.90 613.91 C 566.41 609.92 562.47 605.37 559.64 600.10 C 568.13 599.07 576.68 599.74 585.17 600.57 Z" fill="#dcdbe3" fill-rule="nonzero" node-id="202" stroke="none" target-height="18.060974" target-width="53.15802" target-x="559.641" target-y="595.854"></path><path d="M 760.01 619.99 C 764.53 610.73 769.44 598.24 781.87 599.13 C 785.37 616.88 786.95 634.95 790.34 652.76 L 789.20 653.09 C 782.29 655.39 775.10 657.11 767.81 656.59 C 760.90 655.42 754.38 652.70 748.30 649.37 C 747.61 648.87 746.20 647.90 745.50 647.43 C 752.16 639.30 756.02 629.56 760.01 619.99 Z" fill="#ad614a" fill-rule="nonzero" node-id="204" stroke="none" target-height="58.874023" target-width="44.835022" target-x="745.501" target-y="598.24"></path><path d="M 335.49 604.34 C 339.10 604.23 342.74 604.15 346.37 604.12 C 346.15 611.00 346.15 617.91 346.40 624.85 C 342.32 623.93 338.24 622.93 334.19 622.10 C 334.61 616.13 335.05 610.23 335.49 604.34 Z" fill="#e0944b" fill-rule="nonzero" node-id="206" stroke="none" target-height="20.724976" target-width="12.207001" target-x="334.19" target-y="604.122"></path><path d="M 675.81 633.12 C 683.10 627.93 691.01 623.65 699.06 619.74 C 700.64 628.98 702.44 638.19 704.30 647.43 C 698.89 648.76 693.51 650.18 688.04 651.23 C 685.91 651.01 681.63 650.62 679.52 650.40 C 678.30 644.63 677.05 638.86 675.81 633.12 Z" fill="#764250" fill-rule="nonzero" node-id="208" stroke="none" target-height="31.48999" target-width="28.492981" target-x="675.807" target-y="619.742"></path><path d="M 346.40 624.85 C 358.52 628.84 370.95 632.98 380.86 641.41 C 380.58 643.52 380.02 647.74 379.72 649.82 C 374.09 654.14 367.23 656.20 360.32 657.31 C 347.45 651.40 349.37 636.42 346.40 624.85 Z" fill="#a45a49" fill-rule="nonzero" node-id="210" stroke="none" target-height="32.461" target-width="34.458984" target-x="346.397" target-y="624.847"></path><path d="M 655.36 648.54 C 661.80 642.94 668.79 638.00 675.81 633.12 C 677.06 638.86 678.30 644.63 679.52 650.40 C 681.63 650.62 685.91 651.01 688.04 651.23 C 677.94 653.31 667.62 654.01 657.36 653.40 C 656.86 652.20 655.86 649.76 655.36 648.54 Z" fill="#ab5d47" fill-rule="nonzero" node-id="212" stroke="none" target-height="20.890991" target-width="32.682983" target-x="655.359" target-y="633.115"></path><path d="M 379.72 649.82 C 382.44 647.57 385.10 645.27 387.76 642.99 C 388.21 644.38 389.04 647.15 389.48 648.57 C 380.72 673.54 360.16 692.99 337.52 705.72 L 335.36 706.55 C 331.55 688.77 332.05 670.54 330.19 652.54 C 339.88 655.81 350.12 657.00 360.32 657.31 C 367.23 656.20 374.09 654.14 379.72 649.82 Z" fill="#f3a84b" fill-rule="nonzero" node-id="214" stroke="none" target-height="63.56201" target-width="59.29001" target-x="330.194" target-y="642.992"></path><path d="M 688.04 651.23 C 693.51 650.18 698.89 648.76 704.30 647.43 C 708.24 670.76 711.29 694.29 712.12 718.01 C 708.74 715.96 705.38 713.99 702.16 711.80 C 683.13 695.96 667.18 676.23 657.36 653.40 C 667.62 654.01 677.94 653.31 688.04 651.23 Z" fill="#e99f4b" fill-rule="nonzero" node-id="216" stroke="none" target-height="70.58197" target-width="54.768005" target-x="657.357" target-y="647.431"></path><path d="M 327.67 651.62 L 330.19 652.54 C 332.05 670.54 331.55 688.77 335.36 706.55 C 331.36 707.91 327.31 709.08 323.34 710.41 C 323.37 690.71 325.01 671.10 327.67 651.62 Z" fill="#cd793f" fill-rule="nonzero" node-id="218" stroke="none" target-height="58.790955" target-width="12.0130005" target-x="323.342" target-y="651.62"></path><path d="M 767.81 656.59 C 775.10 657.11 782.29 655.39 789.20 653.09 C 786.76 678.67 778.71 704.56 761.79 724.37 C 751.05 736.99 736.65 745.67 722.06 753.16 C 724.28 742.93 725.61 732.55 727.74 722.31 C 728.16 723.76 728.99 726.59 729.41 728.00 C 756.54 714.90 775.19 687.94 780.24 658.56 C 776.05 657.84 771.91 657.28 767.81 656.59 Z" fill="#cdcbdb" fill-rule="nonzero" node-id="220" stroke="none" target-height="100.07391" target-width="67.14111" target-x="722.05695" target-y="653.091"></path><path d="M 323.34 710.41 C 327.31 709.08 331.36 707.91 335.36 706.55 L 337.52 705.72 C 348.20 745.73 381.52 782.27 424.47 785.71 C 424.75 787.04 425.33 789.70 425.63 791.04 C 422.61 792.62 419.62 794.20 416.65 795.86 C 416.34 803.97 416.15 812.07 416.20 820.22 C 411.96 818.56 405.44 819.39 403.52 814.26 C 399.28 807.21 399.78 798.22 395.09 791.48 C 394.51 800.36 396.95 808.93 399.17 817.45 C 391.51 814.37 383.05 811.21 378.64 803.71 C 372.34 795.28 372.17 784.05 366.18 775.53 C 363.65 782.66 363.15 790.23 363.79 797.78 C 337.66 777.00 324.65 743.09 323.34 710.41 Z" fill="#d2cddf" fill-rule="nonzero" node-id="222" stroke="none" target-height="114.50104" target-width="102.293" target-x="323.342" target-y="705.722"></path><path d="M 702.16 711.80 C 705.38 713.99 708.74 715.96 712.12 718.01 C 712.37 748.25 698.84 777.14 680.05 800.27 C 680.47 792.45 682.16 782.24 674.59 777.22 C 671.84 786.76 670.65 797.06 665.24 805.60 C 661.63 811.34 655.80 815.09 650.56 819.20 C 650.67 810.68 650.70 802.08 648.26 793.89 C 645.93 802.47 645.62 811.46 643.21 820.06 C 638.80 820.11 633.83 822.14 629.83 819.50 C 625.78 812.57 626.01 804.13 624.48 796.50 C 623.90 796.17 622.76 795.50 622.21 795.17 C 618.40 792.95 614.66 790.73 610.94 788.57 C 630.50 779.30 653.92 778.55 671.03 764.15 C 686.38 750.28 695.45 731.00 702.16 711.80 Z" fill="#d1cbde" fill-rule="nonzero" node-id="224" stroke="none" target-height="110.33905" target-width="101.43402" target-x="610.94" target-y="711.798"></path><path d="M 444.64 740.65 C 458.76 753.44 470.28 770.78 489.70 776.08 C 515.78 783.13 546.38 783.77 569.54 768.01 C 578.48 762.29 584.72 753.19 594.21 748.31 C 588.83 767.26 582.84 787.65 589.08 807.18 C 543.85 812.07 497.91 815.28 452.66 808.63 C 461.34 785.68 452.08 762.35 444.64 740.65 Z" fill="#d4cddc" fill-rule="nonzero" node-id="226" stroke="none" target-height="74.632996" target-width="149.57" target-x="444.64" target-y="740.652"></path><path d="M 424.47 785.71 C 432.07 785.02 438.18 788.32 441.64 795.14 C 438.93 804.08 435.26 814.15 425.44 817.34 C 424.77 809.35 424.58 801.05 420.72 793.87 C 416.92 802.25 423.00 813.48 416.20 820.22 C 416.15 812.07 416.34 803.97 416.65 795.86 C 419.62 794.20 422.61 792.62 425.63 791.04 C 425.33 789.70 424.75 787.04 424.47 785.71 Z" fill="#ecedf2" fill-rule="nonzero" node-id="228" stroke="none" target-height="35.20703" target-width="25.49704" target-x="416.147" target-y="785.016"></path><path d="M 661.27 829.85 C 675.64 820.86 691.54 812.62 700.50 797.53 C 718.23 800.36 737.04 801.27 753.27 809.62 C 760.98 814.26 750.22 819.09 745.78 820.22 C 718.39 827.74 689.62 830.71 661.27 829.85 Z" fill="#a393aa" fill-rule="nonzero" node-id="230" stroke="none" target-height="33.183044" target-width="99.71301" target-x="661.269" target-y="797.52795"></path><path d="M 457.40 883.76 C 461.06 879.82 466.64 879.43 471.58 878.35 C 470.61 884.26 475.49 885.14 480.10 886.03 C 479.76 887.98 479.10 891.89 478.76 893.83 C 475.13 895.49 471.55 892.44 468.06 891.89 C 468.64 889.81 469.80 885.67 470.39 883.59 C 461.81 881.54 458.07 890.00 463.06 895.99 C 467.64 894.47 469.08 899.02 470.58 901.90 C 466.86 901.26 463.28 901.43 459.76 902.37 C 460.54 910.00 469.14 908.51 474.16 906.42 C 473.72 903.98 472.83 899.16 472.38 896.74 L 480.76 901.38 C 477.99 910.17 468.25 913.78 459.90 911.17 C 455.32 907.92 453.80 900.74 459.01 897.30 C 455.54 893.47 454.85 888.23 457.40 883.76 Z" fill="#512d37" fill-rule="nonzero" node-id="232" stroke="none" target-height="35.428955" target-width="26.96701" target-x="453.796" target-y="878.348"></path><path d="M 562.14 885.23 C 564.30 883.62 564.38 877.27 567.99 878.57 C 570.02 881.10 571.99 883.70 573.96 886.37 C 572.51 886.67 569.66 887.28 568.24 887.59 C 568.88 892.14 569.57 896.74 570.24 901.35 C 568.80 901.26 565.97 901.10 564.55 900.99 C 564.16 895.66 563.89 890.25 562.14 885.23 Z" fill="#453034" fill-rule="nonzero" node-id="234" stroke="none" target-height="24.08197" target-width="11.81897" target-x="562.138" target-y="877.266"></path></svg>