<?xml version="1.0" standalone="no"?><!DOCTYPE svg PUBLIC "-//W3C//DTD SVG 1.1//EN" "http://www.w3.org/Graphics/SVG/1.1/DTD/svg11.dtd"><svg height="1024" node-id="1" sillyvg="true" template-height="1024" template-width="1024" version="1.1" viewBox="0 0 1024 1024" width="1024" xmlns="http://www.w3.org/2000/svg" xmlns:xlink="http://www.w3.org/1999/xlink"><defs node-id="50"><mask height="4020.1519" id="mask-2" maskUnits="userSpaceOnUse" node-id="11" width="4004.8708" x="3050.3005" y="1306.0736"><path d="M 4537.22 3022.23 C 4654.82 2954.33 4794.57 2935.93 4925.74 2971.08 C 5056.90 3006.22 5168.73 3092.04 5236.63 3209.63 C 5304.52 3327.23 5322.92 3466.99 5287.78 3598.15 C 5252.63 3729.31 5166.82 3841.14 5049.22 3909.04 C 4931.62 3976.93 4791.87 3995.33 4660.71 3960.19 C 4529.54 3925.04 4417.71 3839.23 4349.82 3721.63 C 4281.92 3604.04 4263.52 3464.28 4298.67 3333.12 C 4333.81 3201.95 4419.62 3090.12 4537.22 3022.23 Z" fill="#ffffff" fill-rule="evenodd" node-id="55" stroke="none" target-height="1059.3984" target-width="1059.3984" target-x="4263.5225" target-y="2935.9343"></path></mask><mask height="112.8" id="mask-4" maskUnits="userSpaceOnUse" node-id="23" width="189.6" x="-47.8" y="-51.4"><path d="M 0.00 0.00 L 94.00 0.00 L 94.00 133.00 L 0.00 133.00 Z" fill="#ffffff" fill-rule="evenodd" node-id="62" stroke="none" target-height="133" target-width="94" target-x="0" target-y="0"></path></mask><mask height="218.40001" id="mask-6" maskUnits="userSpaceOnUse" node-id="40" width="52.799995" x="105.6" y="0.89556694"><path d="M 347.57 -0.00 C 457.80 42.98 538.00 174.06 538.00 329.10 C 538.00 519.08 417.56 673.10 269.00 673.10 C 120.44 673.10 0.00 519.08 0.00 329.10 C 0.00 174.06 80.20 42.98 190.43 -0.00 L 190.43 0.01 C 209.98 14.82 237.94 24.10 269.00 24.10 C 299.73 24.10 327.43 15.02 346.95 0.48 Z" fill="#ffffff" fill-rule="evenodd" node-id="69" stroke="none" target-height="673.0956" target-width="538" target-x="0" target-y="-0"></path></mask><mask height="218.40002" id="mask1" maskUnits="userSpaceOnUse" node-id="73" width="381.59998" x="78.2" y="111.89556"><path d="M 347.57 -0.00 C 457.80 42.98 538.00 174.06 538.00 329.10 C 538.00 519.08 417.56 673.10 269.00 673.10 C 120.44 673.10 0.00 519.08 0.00 329.10 C 0.00 174.06 80.20 42.98 190.43 -0.00 L 190.43 0.01 C 209.98 14.82 237.94 24.10 269.00 24.10 C 299.73 24.10 327.43 15.02 346.95 0.48 Z" fill="#ffffff" fill-rule="evenodd" node-id="77" stroke="none" target-height="673.0956" target-width="538" target-x="0" target-y="-0"></path></mask><mask height="218.40001" id="mask2" maskUnits="userSpaceOnUse" node-id="81" width="52.80002" x="379.6" y="0.89556694"><path d="M 347.57 -0.00 C 457.80 42.98 538.00 174.06 538.00 329.10 C 538.00 519.08 417.56 673.10 269.00 673.10 C 120.44 673.10 0.00 519.08 0.00 329.10 C 0.00 174.06 80.20 42.98 190.43 -0.00 L 190.43 0.01 C 209.98 14.82 237.94 24.10 269.00 24.10 C 299.73 24.10 327.43 15.02 346.95 0.48 Z" fill="#ffffff" fill-rule="evenodd" node-id="85" stroke="none" target-height="673.0956" target-width="538" target-x="0" target-y="-0"></path></mask></defs><path d="M 0.00 0.00 L 1024.00 0.00 L 1024.00 1024.00 L 0.00 1024.00 Z" fill="#ffffff" fill-rule="evenodd" node-id="91" stroke="none" target-height="1024" target-width="1024" target-x="0" target-y="0"></path><g node-id="154"><g node-id="155"><path d="M 1024.00 512.00 C 1024.00 647.79 970.06 778.02 874.04 874.04 C 778.02 970.06 647.79 1024.00 512.00 1024.00 C 376.21 1024.00 245.98 970.06 149.96 874.04 C 53.94 778.02 0.00 647.79 0.00 512.00 C 0.00 376.21 53.94 245.98 149.96 149.96 C 245.98 53.94 376.21 0.00 512.00 0.00 C 647.79 0.00 778.02 53.94 874.04 149.96 C 970.06 245.98 1024.00 376.21 1024.00 512.00 Z" fill="#77c4f9" fill-opacity="0.2" fill-rule="evenodd" group-id="1,2" node-id="95" stroke="none" target-height="1024" target-width="1024" target-x="0" target-y="0"></path></g><g node-id="156"><g node-id="157"><path d="M 512.00 781.00 C 539.33 781.00 565.71 786.21 590.57 795.90 L 590.57 795.92 C 571.02 810.73 543.05 820.00 512.00 820.00 C 480.95 820.00 452.98 810.73 433.43 795.92 L 433.43 795.90 C 458.29 786.21 484.67 781.00 512.00 781.00 Z" fill="#489ad2" fill-rule="evenodd" group-id="1,3,4" id="形状结合" node-id="16" stroke="none" target-height="39" target-width="157.13458" target-x="433.43298" target-y="781"></path><path d="M 334.00 270.00 L 690.00 270.00 C 751.86 270.00 802.00 320.14 802.00 382.00 L 802.00 482.00 C 802.00 543.86 751.86 594.00 690.00 594.00 L 334.00 594.00 C 272.14 594.00 222.00 543.86 222.00 482.00 L 222.00 382.00 C 222.00 320.14 272.14 270.00 334.00 270.00 Z" fill="#110d2e" fill-rule="evenodd" group-id="1,3,4" id="矩形" node-id="17" stroke="none" target-height="324" target-width="580" target-x="221.99998" target-y="270"></path><path d="M 275.45 629.83 C 292.91 621.25 295.53 597.29 281.31 576.33 C 267.09 555.36 241.41 545.32 223.95 553.89 C 206.49 562.47 203.87 586.43 218.09 607.39 C 232.31 628.36 257.99 638.40 275.45 629.83 Z" fill="#fbb4b4" fill-rule="evenodd" group-id="1,3,4" id="椭圆形备份-4" node-id="18" stroke="none" target-height="93.08948" target-width="91.662506" target-x="203.86868" target-y="545.3153"></path><path d="M 747.95 629.83 C 730.49 621.25 727.87 597.29 742.09 576.33 C 756.31 555.36 781.99 545.32 799.45 553.89 C 816.91 562.47 819.53 586.43 805.31 607.39 C 791.09 628.36 765.41 638.40 747.95 629.83 Z" fill="#fbb4b4" fill-rule="evenodd" group-id="1,3,4" id="椭圆形备份-12" node-id="19" stroke="none" target-height="93.08948" target-width="91.662476" target-x="727.8687" target-y="545.3153"></path><g node-id="158"><path d="M 379.50 953.50 L 353.50 1039.64" fill="none" group-id="1,3,4,5" id="路径-6" node-id="20" stroke="#000000" stroke-linecap="round" stroke-opacity="0.10692633" stroke-width="7" target-height="86.13599" target-width="26" target-x="353.5" target-y="953.5"></path></g><g node-id="159"><path d="M 644.50 953.50 L 670.50 1039.64" fill="none" group-id="1,3,4,6" id="路径-6备份" node-id="21" stroke="#000000" stroke-linecap="round" stroke-opacity="0.10692633" stroke-width="7" target-height="86.13599" target-width="26" target-x="644.5" target-y="953.5"></path></g><g node-id="160"><g node-id="167"><path d="M 465.00 712.00 L 559.00 712.00 L 559.00 845.00 L 465.00 845.00 Z" fill="#ffcaca" fill-rule="evenodd" group-id="1,3,4,7,14" node-id="114" stroke="none" target-height="133" target-width="94" target-x="465" target-y="712"></path></g><path d="M 591.00 717.00 C 591.00 742.96 555.63 764.00 512.00 764.00 C 468.37 764.00 433.00 742.96 433.00 717.00 C 433.00 691.04 468.37 670.00 512.00 670.00 C 555.63 670.00 591.00 691.04 591.00 717.00 Z" fill="#ec8484" fill-opacity="0.21490623" fill-rule="evenodd" group-id="1,3,4,7,15" node-id="119" stroke="none" target-height="94" target-width="158" target-x="433" target-y="670"></path></g><path d="M 767.00 524.00 C 767.00 648.26 652.83 749.00 512.00 749.00 C 371.17 749.00 257.00 648.26 257.00 524.00 C 257.00 399.74 371.17 299.00 512.00 299.00 C 652.83 299.00 767.00 399.74 767.00 524.00 Z" fill="#ffcaca" fill-rule="evenodd" group-id="1,3,4" id="椭圆形" node-id="27" stroke="none" target-height="450" target-width="510.00003" target-x="256.99997" target-y="299"></path><path d="M 502.00 594.00 L 502.00 620.00 C 502.00 627.73 508.27 634.00 516.00 634.00 L 522.83 634.00 L 522.83 634.00" fill="none" group-id="1,3,4" id="路径-5备份" node-id="28" stroke="#ff9494" stroke-linecap="round" stroke-width="8" target-height="40" target-width="20.832947" target-x="502" target-y="594"></path><path d="M 434.00 567.00 C 434.00 577.49 425.49 586.00 415.00 586.00 C 404.51 586.00 396.00 577.49 396.00 567.00 C 396.00 556.51 404.51 548.00 415.00 548.00 C 425.49 548.00 434.00 556.51 434.00 567.00 Z" fill="#110d2e" fill-rule="evenodd" group-id="1,3,4" id="椭圆形" node-id="29" stroke="none" target-height="38" target-width="38" target-x="396" target-y="548"></path><path d="M 628.00 567.00 C 628.00 577.49 619.49 586.00 609.00 586.00 C 598.51 586.00 590.00 577.49 590.00 567.00 C 590.00 556.51 598.51 548.00 609.00 548.00 C 619.49 548.00 628.00 556.51 628.00 567.00 Z" fill="#110d2e" fill-rule="evenodd" group-id="1,3,4" id="椭圆形备份-7" node-id="30" stroke="none" target-height="38" target-width="38" target-x="590" target-y="548"></path><path d="M 469.00 680.50 L 475.62 683.36 C 498.50 693.25 524.63 692.19 546.64 680.50 L 546.64 680.50 L 546.64 680.50" fill="none" group-id="1,3,4" id="路径-35" node-id="31" stroke="#ec8484" stroke-linecap="round" stroke-width="10" target-height="12.745972" target-width="77.64374" target-x="469" target-y="680.5"></path><path d="M 380.00 519.63 C 394.12 515.88 405.61 514.00 414.47 514.00 C 423.33 514.00 435.09 515.88 449.76 519.63" fill="none" group-id="1,3,4" id="路径-4备份" node-id="32" stroke="#110d2e" stroke-linecap="round" stroke-width="6" target-height="5.628723" target-width="69.75665" target-x="380" target-y="514"></path><g node-id="161"><path d="M 643.76 519.63 C 629.64 515.88 618.15 514.00 609.29 514.00 C 600.43 514.00 588.66 515.88 574.00 519.63" fill="none" group-id="1,3,4,8" id="路径-4备份-2" node-id="33" stroke="#110d2e" stroke-linecap="round" stroke-width="6" target-height="5.628723" target-width="69.75665" target-x="574" target-y="514"></path></g><path d="M 352.50 223.00 L 672.50 223.00 C 734.63 223.00 785.00 273.37 785.00 335.50 L 785.00 335.50 C 785.00 397.63 734.63 448.00 672.50 448.00 L 352.50 448.00 C 290.37 448.00 240.00 397.63 240.00 335.50 L 240.00 335.50 C 240.00 273.37 290.37 223.00 352.50 223.00 Z" fill="#110d2e" fill-rule="evenodd" group-id="1,3,4" id="矩形" node-id="34" stroke="none" target-height="225" target-width="545" target-x="239.99998" target-y="223"></path><g node-id="162"><path d="M 524.00 251.94 C 490.76 271.14 455.64 272.54 445.56 255.08 C 435.48 237.63 454.26 207.92 487.50 188.72 C 520.74 169.53 555.86 168.13 565.94 185.58 C 576.02 203.04 557.24 232.75 524.00 251.94 Z" fill="#110d2e" fill-rule="evenodd" group-id="1,3,4,9" id="椭圆形" node-id="35" stroke="none" target-height="104.415344" target-width="140.53592" target-x="435.48203" target-y="168.12726"></path></g><g node-id="163"><path d="M 589.00 254.94 C 555.76 274.14 520.64 275.54 510.56 258.08 C 500.48 240.63 519.26 210.92 552.50 191.72 C 585.74 172.53 620.86 171.13 630.94 188.58 C 641.02 206.04 622.24 235.75 589.00 254.94 Z" fill="#110d2e" fill-rule="evenodd" group-id="1,3,4,10" id="椭圆形备份" node-id="36" stroke="none" target-height="104.415375" target-width="140.53592" target-x="500.48203" target-y="171.12726"></path></g><g node-id="164"><path d="M 703.00 251.94 C 669.76 271.14 634.64 272.54 624.56 255.08 C 614.48 237.63 633.26 207.92 666.50 188.72 C 699.74 169.53 734.86 168.13 744.94 185.58 C 755.02 203.04 736.24 232.75 703.00 251.94 Z" fill="#110d2e" fill-rule="evenodd" group-id="1,3,4,11" id="椭圆形备份-2" node-id="37" stroke="none" target-height="104.415375" target-width="140.53595" target-x="614.482" target-y="168.12723"></path></g><g node-id="165"><path d="M 720.00 300.94 C 686.76 320.14 651.64 321.54 641.56 304.08 C 631.48 286.63 650.26 256.92 683.50 237.73 C 716.74 218.53 751.86 217.13 761.94 234.58 C 772.02 252.04 753.24 281.75 720.00 300.94 Z" fill="#110d2e" fill-rule="evenodd" group-id="1,3,4,12" id="椭圆形备份-3" node-id="38" stroke="none" target-height="104.41531" target-width="140.53589" target-x="631.48206" target-y="217.12732"></path></g><g node-id="166"><g node-id="169"><path d="M 590.57 795.90 C 700.80 838.89 781.00 969.97 781.00 1125.00 C 781.00 1314.99 660.56 1469.00 512.00 1469.00 C 363.44 1469.00 243.00 1314.99 243.00 1125.00 C 243.00 969.97 323.20 838.89 433.43 795.90 L 433.43 795.92 C 452.98 810.73 480.94 820.00 512.00 820.00 C 542.73 820.00 570.43 810.92 589.95 796.38 Z" fill="#77c4f9" fill-rule="evenodd" group-id="1,3,4,13,16" node-id="152" stroke="none" target-height="673.0956" target-width="538" target-x="242.99998" target-y="795.9044"></path></g><g node-id="170"><path d="M 353.00 815.00 L 397.00 815.00 L 397.00 997.00 L 353.00 997.00 Z" fill="#1a82c9" fill-rule="evenodd" group-id="1,3,4,13,17" id="矩形" node-id="43" stroke="none" target-height="182" target-width="44" target-x="353" target-y="815"></path></g><g node-id="171"><path d="M 353.00 926.00 L 671.00 926.00 L 671.00 1108.00 L 353.00 1108.00 Z" fill="#1a82c9" fill-rule="evenodd" group-id="1,3,4,13,18" id="矩形备份-2" node-id="44" stroke="none" target-height="182" target-width="318" target-x="353" target-y="926"></path></g><path d="M 627.00 815.00 L 671.00 815.00 L 671.00 997.00 L 627.00 997.00 Z" fill="#1a82c9" fill-rule="evenodd" group-id="1,3,4,13,19" id="矩形备份" node-id="45" stroke="none" target-height="182" target-width="44" target-x="627" target-y="815"></path></g><path d="M 520.00 849.00 C 520.00 853.42 516.42 857.00 512.00 857.00 C 507.58 857.00 504.00 853.42 504.00 849.00 C 504.00 844.58 507.58 841.00 512.00 841.00 C 516.42 841.00 520.00 844.58 520.00 849.00 Z" fill="#1a82c9" fill-rule="evenodd" group-id="1,3,4" id="椭圆形" node-id="46" stroke="none" target-height="16" target-width="16" target-x="504" target-y="841"></path><path d="M 520.00 907.00 C 520.00 911.42 516.42 915.00 512.00 915.00 C 507.58 915.00 504.00 911.42 504.00 907.00 C 504.00 902.58 507.58 899.00 512.00 899.00 C 516.42 899.00 520.00 902.58 520.00 907.00 Z" fill="#1a82c9" fill-rule="evenodd" group-id="1,3,4" id="椭圆形备份-5" node-id="47" stroke="none" target-height="16" target-width="16" target-x="504" target-y="899"></path><path d="M 520.00 878.00 C 520.00 882.42 516.42 886.00 512.00 886.00 C 507.58 886.00 504.00 882.42 504.00 878.00 C 504.00 873.58 507.58 870.00 512.00 870.00 C 516.42 870.00 520.00 873.58 520.00 878.00 Z" fill="#1a82c9" fill-rule="evenodd" group-id="1,3,4" id="椭圆形备份-6" node-id="48" stroke="none" target-height="16" target-width="16" target-x="504" target-y="870"></path></g></g></g></svg>