<?xml version="1.0" standalone="no"?><!DOCTYPE svg PUBLIC "-//W3C//DTD SVG 1.1//EN" "http://www.w3.org/Graphics/SVG/1.1/DTD/svg11.dtd"><svg height="1024" node-id="1" sillyvg="true" template-height="1024" template-width="1024" version="1.1" viewBox="0 0 1024 1024" width="1024" xmlns="http://www.w3.org/2000/svg" xmlns:xlink="http://www.w3.org/1999/xlink"><defs node-id="44"><mask height="4157.383" id="mask-2" maskUnits="userSpaceOnUse" node-id="11" width="4158.4194" x="1709.9056" y="-7950.2065"><path d="M 3198.02 -5732.44 C 3287.11 -5629.96 3413.26 -5567.07 3548.72 -5557.59 C 3684.18 -5548.12 3817.85 -5592.85 3920.34 -5681.94 C 4022.82 -5771.02 4085.71 -5897.17 4095.19 -6032.63 C 4104.66 -6168.09 4059.93 -6301.77 3970.84 -6404.25 C 3881.76 -6506.73 3755.61 -6569.63 3620.15 -6579.10 C 3484.69 -6588.57 3351.01 -6543.84 3248.53 -6454.76 C 3146.05 -6365.67 3083.15 -6239.52 3073.68 -6104.06 C 3064.21 -5968.60 3108.94 -5834.93 3198.02 -5732.44 Z" fill="#ffffff" fill-rule="evenodd" node-id="49" stroke="none" target-height="1040.4502" target-width="1040.4502" target-x="3064.2085" target-y="-6588.572"></path></mask><mask height="112.8" id="mask-4" maskUnits="userSpaceOnUse" node-id="22" width="189.6" x="-47.8" y="-51.4"><path d="M 0.00 0.00 L 94.00 0.00 L 94.00 103.00 L 0.00 103.00 Z" fill="#ffffff" fill-rule="evenodd" node-id="56" stroke="none" target-height="103" target-width="94" target-x="0" target-y="0"></path></mask><mask height="50.399998" id="mask-6" maskUnits="userSpaceOnUse" node-id="32" width="12" x="75" y="38.8"><path d="M 161.00 31.60 L 161.00 97.40 C 161.00 106.73 153.43 114.30 144.10 114.30 C 140.76 114.30 137.49 113.31 134.72 111.45 L 80.50 75.26 L 80.50 75.26 L 26.28 111.45 C 18.52 116.63 8.03 114.54 2.84 106.78 C 0.99 104.00 0.00 100.74 0.00 97.40 L 0.00 31.60 C 0.00 22.27 7.57 14.70 16.90 14.70 C 20.24 14.70 23.51 15.69 26.28 17.55 L 80.50 53.74 L 80.50 53.74 L 134.72 17.55 C 142.48 12.37 152.97 14.46 158.16 22.22 C 160.01 25.00 161.00 28.26 161.00 31.60 Z" fill="#ffffff" fill-rule="evenodd" node-id="63" stroke="none" target-height="104.269066" target-width="161" target-x="0" target-y="12.365464"></path></mask></defs><path d="M 0.00 0.00 L 1024.00 0.00 L 1024.00 1024.00 L 0.00 1024.00 Z" fill="#ffffff" fill-rule="evenodd" node-id="69" stroke="none" target-height="1024" target-width="1024" target-x="0" target-y="0"></path><g node-id="118"><g node-id="119"><path d="M 1024.00 512.00 C 1024.00 647.79 970.06 778.02 874.04 874.04 C 778.02 970.06 647.79 1024.00 512.00 1024.00 C 376.21 1024.00 245.98 970.06 149.96 874.04 C 53.94 778.02 0.00 647.79 0.00 512.00 C 0.00 376.21 53.94 245.98 149.96 149.96 C 245.98 53.94 376.21 0.00 512.00 0.00 C 647.79 0.00 778.02 53.94 874.04 149.96 C 970.06 245.98 1024.00 376.21 1024.00 512.00 Z" fill="#6e66d4" fill-opacity="0.2" fill-rule="evenodd" group-id="1,2" node-id="73" stroke="none" target-height="1024" target-width="1024" target-x="0" target-y="0"></path></g><g node-id="120"><g node-id="121"><path d="M 275.45 629.83 C 292.91 621.25 295.53 597.29 281.31 576.33 C 267.09 555.36 241.41 545.32 223.95 553.89 C 206.49 562.47 203.87 586.43 218.09 607.39 C 232.31 628.36 257.99 638.40 275.45 629.83 Z" fill="#fbb4b4" fill-rule="evenodd" group-id="1,3,4" id="椭圆形备份-4" node-id="16" stroke="none" target-height="93.08948" target-width="91.66254" target-x="203.86868" target-y="545.3153"></path><path d="M 747.95 629.83 C 730.49 621.25 727.87 597.29 742.09 576.33 C 756.31 555.36 781.99 545.32 799.45 553.89 C 816.91 562.47 819.53 586.43 805.31 607.39 C 791.09 628.36 765.41 638.40 747.95 629.83 Z" fill="#fbb4b4" fill-rule="evenodd" group-id="1,3,4" id="椭圆形备份-12" node-id="17" stroke="none" target-height="93.08948" target-width="91.662415" target-x="727.8687" target-y="545.3153"></path><g node-id="122"><path d="M 512.00 781.00 C 660.56 781.00 781.00 935.01 781.00 1125.00 C 781.00 1314.99 660.56 1469.00 512.00 1469.00 C 363.44 1469.00 243.00 1314.99 243.00 1125.00 C 243.00 935.01 363.44 781.00 512.00 781.00 Z" fill="#6e66d4" fill-rule="evenodd" group-id="1,3,4,5" id="椭圆形" node-id="18" stroke="none" target-height="688.00006" target-width="538.00006" target-x="243" target-y="780.99994"></path></g><g node-id="123"><path d="M 379.50 953.50 L 353.50 1039.64" fill="none" group-id="1,3,4,6" id="路径-6" node-id="19" stroke="#000000" stroke-linecap="round" stroke-opacity="0.10692633" stroke-width="7" target-height="86.13599" target-width="26" target-x="353.5" target-y="953.5"></path></g><g node-id="124"><path d="M 644.50 953.50 L 670.50 1039.64" fill="none" group-id="1,3,4,7" id="路径-6备份" node-id="20" stroke="#000000" stroke-linecap="round" stroke-opacity="0.10692633" stroke-width="7" target-height="86.13599" target-width="26" target-x="644.5" target-y="953.5"></path></g><g node-id="125"><g node-id="132"><path d="M 465.00 712.00 L 559.00 712.00 L 559.00 815.00 L 465.00 815.00 Z" fill="#ffcaca" fill-rule="evenodd" group-id="1,3,4,8,15" node-id="95" stroke="none" target-height="103" target-width="94" target-x="465" target-y="712"></path></g><path d="M 591.00 717.00 C 591.00 742.96 555.63 764.00 512.00 764.00 C 468.37 764.00 433.00 742.96 433.00 717.00 C 433.00 691.04 468.37 670.00 512.00 670.00 C 555.63 670.00 591.00 691.04 591.00 717.00 Z" fill="#ec8484" fill-opacity="0.21490623" fill-rule="evenodd" group-id="1,3,4,8,16" node-id="100" stroke="none" target-height="94" target-width="158" target-x="433" target-y="670"></path></g><path d="M 767.00 524.00 C 767.00 648.26 652.83 749.00 512.00 749.00 C 371.17 749.00 257.00 648.26 257.00 524.00 C 257.00 399.74 371.17 299.00 512.00 299.00 C 652.83 299.00 767.00 399.74 767.00 524.00 Z" fill="#ffcaca" fill-rule="evenodd" group-id="1,3,4" id="椭圆形" node-id="26" stroke="none" target-height="450" target-width="510" target-x="257" target-y="299"></path><path d="M 502.00 594.00 L 502.00 620.00 C 502.00 627.73 508.27 634.00 516.00 634.00 L 522.83 634.00 L 522.83 634.00" fill="none" group-id="1,3,4" id="路径-5备份" node-id="27" stroke="#ff9494" stroke-linecap="round" stroke-width="8" target-height="40" target-width="20.832916" target-x="502.00003" target-y="594"></path><path d="M 434.00 567.00 C 434.00 577.49 425.49 586.00 415.00 586.00 C 404.51 586.00 396.00 577.49 396.00 567.00 C 396.00 556.51 404.51 548.00 415.00 548.00 C 425.49 548.00 434.00 556.51 434.00 567.00 Z" fill="#110d2e" fill-rule="evenodd" group-id="1,3,4" id="椭圆形" node-id="28" stroke="none" target-height="38" target-width="38" target-x="396" target-y="548"></path><path d="M 628.00 567.00 C 628.00 577.49 619.49 586.00 609.00 586.00 C 598.51 586.00 590.00 577.49 590.00 567.00 C 590.00 556.51 598.51 548.00 609.00 548.00 C 619.49 548.00 628.00 556.51 628.00 567.00 Z" fill="#110d2e" fill-rule="evenodd" group-id="1,3,4" id="椭圆形备份-7" node-id="29" stroke="none" target-height="38" target-width="38" target-x="590" target-y="548"></path><g node-id="126"><g node-id="134"><g node-id="135"><path d="M 593.00 781.60 L 593.00 847.40 C 593.00 856.73 585.43 864.30 576.10 864.30 C 572.76 864.30 569.49 863.31 566.72 861.45 L 512.50 825.26 L 512.50 825.26 L 458.28 861.45 C 450.52 866.63 440.03 864.54 434.84 856.78 C 432.99 854.00 432.00 850.74 432.00 847.40 L 432.00 781.60 C 432.00 772.27 439.57 764.70 448.90 764.70 C 452.24 764.70 455.51 765.69 458.28 767.55 L 512.50 803.74 L 512.50 803.74 L 566.72 767.55 C 574.48 762.37 584.97 764.46 590.16 772.22 C 592.01 775.00 593.00 778.26 593.00 781.60 Z" fill="#3c3596" fill-rule="nonzero" group-id="1,3,4,9,17,18" node-id="111" stroke="none" target-height="104.26904" target-width="161" target-x="432" target-y="762.3655"></path></g><path d="M 518.00 814.00 C 518.00 825.60 515.76 835.00 513.00 835.00 C 510.24 835.00 508.00 825.60 508.00 814.00 C 508.00 802.40 510.24 793.00 513.00 793.00 C 515.76 793.00 518.00 802.40 518.00 814.00 Z" fill="#ffffff" fill-opacity="0.5585763" fill-rule="evenodd" group-id="1,3,4,9,17,19" node-id="116" stroke="none" target-height="42" target-width="10" target-x="508" target-y="793"></path></g></g><path d="M 469.00 680.50 L 475.62 683.36 C 498.50 693.25 524.63 692.19 546.64 680.50 L 546.64 680.50 L 546.64 680.50" fill="none" group-id="1,3,4" id="路径-35" node-id="36" stroke="#ec8484" stroke-linecap="round" stroke-width="10" target-height="12.745972" target-width="77.64383" target-x="468.99997" target-y="680.5"></path><path d="M 380.00 519.63 C 394.12 515.88 405.61 514.00 414.47 514.00 C 423.33 514.00 435.09 515.88 449.76 519.63" fill="none" group-id="1,3,4" id="路径-4备份" node-id="37" stroke="#110d2e" stroke-linecap="round" stroke-width="6" target-height="5.628784" target-width="69.75665" target-x="380" target-y="514"></path><g node-id="127"><path d="M 643.76 519.63 C 629.64 515.88 618.15 514.00 609.29 514.00 C 600.43 514.00 588.66 515.88 574.00 519.63" fill="none" group-id="1,3,4,10" id="路径-4备份-2" node-id="38" stroke="#110d2e" stroke-linecap="round" stroke-width="6" target-height="5.628784" target-width="69.75665" target-x="574.00006" target-y="514"></path></g><g node-id="128"><path d="M 409.97 471.04 C 343.76 549.95 248.42 578.95 197.02 535.81 C 145.61 492.68 157.61 393.75 223.82 314.85 C 290.03 235.94 385.37 206.95 436.78 250.08 C 488.18 293.21 476.18 392.14 409.97 471.04 Z" fill="#110d2e" fill-rule="evenodd" group-id="1,3,4,11" id="椭圆形" node-id="39" stroke="none" target-height="372.00003" target-width="342.56696" target-x="145.61305" target-y="206.94577"></path></g><g node-id="129"><path d="M 609.81 406.17 C 556.73 469.42 468.10 482.42 411.83 435.21 C 355.56 387.99 352.97 298.44 406.04 235.19 C 459.11 171.94 547.75 158.94 604.02 206.16 C 660.29 253.37 662.88 342.92 609.81 406.17 Z" fill="#110d2e" fill-rule="evenodd" group-id="1,3,4,12" id="椭圆形备份" node-id="40" stroke="none" target-height="323.47775" target-width="309.9133" target-x="352.96622" target-y="158.94263"></path></g><g node-id="130"><path d="M 787.48 407.94 C 742.26 461.84 671.30 476.76 628.99 441.26 C 586.68 405.76 589.05 333.28 634.27 279.38 C 679.50 225.49 750.46 210.57 792.77 246.07 C 835.07 281.57 832.71 354.04 787.48 407.94 Z" fill="#110d2e" fill-rule="evenodd" group-id="1,3,4,13" id="椭圆形备份-2" node-id="41" stroke="none" target-height="266.18427" target-width="248.39368" target-x="586.68115" target-y="210.5712"></path></g><path d="M 680.97 449.76 C 693.91 516.34 739.56 563.47 782.93 555.04 C 826.30 546.61 850.97 485.81 838.03 419.24 C 825.09 352.66 779.44 305.53 736.07 313.96 C 692.70 322.39 668.03 383.19 680.97 449.76 Z" fill="#110d2e" fill-rule="evenodd" group-id="1,3,4,14" id="椭圆形备份-3" node-id="42" stroke="none" target-height="257.9454" target-width="182.94159" target-x="668.0291" target-y="305.5273"></path></g></g></g></svg>