<?xml version="1.0" standalone="no"?><!DOCTYPE svg PUBLIC "-//W3C//DTD SVG 1.1//EN" "http://www.w3.org/Graphics/SVG/1.1/DTD/svg11.dtd"><svg height="1024" node-id="1" sillyvg="true" template-height="1024" template-width="1024" version="1.1" viewBox="0 0 1024 1024" width="1024" xmlns="http://www.w3.org/2000/svg" xmlns:xlink="http://www.w3.org/1999/xlink"><defs node-id="50"><mask height="3353.0068" id="mask-2" maskUnits="userSpaceOnUse" node-id="11" width="3399.4414" x="-2196.2124" y="4789.439"><path d="M -1020.96 6754.35 C -903.36 6822.24 -763.61 6840.64 -632.44 6805.50 C -501.28 6770.35 -389.45 6684.54 -321.55 6566.94 C -253.66 6449.34 -235.26 6309.59 -270.41 6178.43 C -305.55 6047.26 -391.36 5935.43 -508.96 5867.54 C -626.56 5799.64 -766.31 5781.24 -897.48 5816.39 C -1028.64 5851.53 -1140.47 5937.34 -1208.36 6054.94 C -1276.26 6172.54 -1294.66 6312.29 -1259.51 6443.46 C -1224.37 6574.62 -1138.56 6686.45 -1020.96 6754.35 Z" fill="#ffffff" fill-rule="evenodd" node-id="55" stroke="none" target-height="1059.3989" target-width="1059.3986" target-x="-1294.6592" target-y="5781.2427"></path></mask><mask height="112.8" id="mask-4" maskUnits="userSpaceOnUse" node-id="23" width="189.6" x="-47.8" y="-51.4"><path d="M 0.00 0.00 L 94.00 0.00 L 94.00 133.00 L 0.00 133.00 Z" fill="#ffffff" fill-rule="evenodd" node-id="62" stroke="none" target-height="133" target-width="94" target-x="0" target-y="0"></path></mask><mask height="57.600002" id="mask-6" maskUnits="userSpaceOnUse" node-id="35" width="172.80002" x="182.6" y="-26.8"><path d="M 613.00 344.00 C 613.00 492.56 458.99 613.00 269.00 613.00 C 79.01 613.00 -75.00 492.56 -75.00 344.00 C -75.00 195.44 79.01 75.00 269.00 75.00 C 458.99 75.00 613.00 195.44 613.00 344.00 Z" fill="#ffffff" fill-rule="evenodd" node-id="69" stroke="none" target-height="538" target-width="688" target-x="-75" target-y="75"></path></mask><mask height="89.70426" id="mask1" maskUnits="userSpaceOnUse" node-id="73" width="110.15759" x="259.8202" y="-0.40585327"><path d="M 613.00 344.00 C 613.00 492.56 458.99 613.00 269.00 613.00 C 79.01 613.00 -75.00 492.56 -75.00 344.00 C -75.00 195.44 79.01 75.00 269.00 75.00 C 458.99 75.00 613.00 195.44 613.00 344.00 Z" fill="#ffffff" fill-rule="evenodd" node-id="77" stroke="none" target-height="538" target-width="688" target-x="-75" target-y="75"></path></mask><mask height="89.70426" id="mask2" maskUnits="userSpaceOnUse" node-id="81" width="110.15761" x="167.8202" y="-0.40585327"><path d="M 613.00 344.00 C 613.00 492.56 458.99 613.00 269.00 613.00 C 79.01 613.00 -75.00 492.56 -75.00 344.00 C -75.00 195.44 79.01 75.00 269.00 75.00 C 458.99 75.00 613.00 195.44 613.00 344.00 Z" fill="#ffffff" fill-rule="evenodd" node-id="85" stroke="none" target-height="538" target-width="688" target-x="-75" target-y="75"></path></mask></defs><path d="M 0.00 0.00 L 1024.00 0.00 L 1024.00 1024.00 L 0.00 1024.00 Z" fill="#ffffff" fill-rule="evenodd" node-id="91" stroke="none" target-height="1024" target-width="1024" target-x="0" target-y="0"></path><g node-id="144"><g node-id="145"><path d="M 1024.00 512.00 C 1024.00 647.79 970.06 778.02 874.04 874.04 C 778.02 970.06 647.79 1024.00 512.00 1024.00 C 376.21 1024.00 245.98 970.06 149.96 874.04 C 53.94 778.02 0.00 647.79 0.00 512.00 C 0.00 376.21 53.94 245.98 149.96 149.96 C 245.98 53.94 376.21 0.00 512.00 0.00 C 647.79 0.00 778.02 53.94 874.04 149.96 C 970.06 245.98 1024.00 376.21 1024.00 512.00 Z" fill="#339456" fill-opacity="0.2" fill-rule="evenodd" group-id="1,2" node-id="95" stroke="none" target-height="1024" target-width="1024" target-x="0" target-y="0"></path></g><g node-id="146"><g node-id="147"><g node-id="148"><path d="M 353.10 448.50 C 333.74 520.78 281.27 569.53 235.93 557.38 C 190.59 545.23 169.53 476.79 188.90 404.50 C 208.26 332.22 260.73 283.47 306.07 295.62 C 351.41 307.77 372.47 376.21 353.10 448.50 Z" fill="#110d2e" fill-rule="evenodd" group-id="1,3,4,5" id="椭圆形" node-id="16" stroke="none" target-height="286.06604" target-width="202.94464" target-x="169.52768" target-y="283.46698"></path></g><g node-id="149"><path d="M 670.90 448.50 C 690.26 520.78 742.73 569.53 788.07 557.38 C 833.41 545.23 854.47 476.79 835.10 404.50 C 815.74 332.22 763.27 283.47 717.93 295.62 C 672.59 307.77 651.53 376.21 670.90 448.50 Z" fill="#110d2e" fill-rule="evenodd" group-id="1,3,4,6" id="椭圆形备份" node-id="17" stroke="none" target-height="286.06598" target-width="202.94464" target-x="651.52765" target-y="283.46698"></path></g><path d="M 275.45 629.83 C 292.91 621.25 295.53 597.29 281.31 576.33 C 267.09 555.36 241.41 545.32 223.95 553.89 C 206.49 562.47 203.87 586.43 218.09 607.39 C 232.31 628.36 257.99 638.40 275.45 629.83 Z" fill="#fbb4b4" fill-rule="evenodd" group-id="1,3,4" id="椭圆形备份-4" node-id="18" stroke="none" target-height="93.08954" target-width="91.66252" target-x="203.8687" target-y="545.3153"></path><path d="M 747.95 629.83 C 730.49 621.25 727.87 597.29 742.09 576.33 C 756.31 555.36 781.99 545.32 799.45 553.89 C 816.91 562.47 819.53 586.43 805.31 607.39 C 791.09 628.36 765.41 638.40 747.95 629.83 Z" fill="#fbb4b4" fill-rule="evenodd" group-id="1,3,4" id="椭圆形备份-12" node-id="19" stroke="none" target-height="93.08954" target-width="91.6626" target-x="727.86865" target-y="545.3153"></path><g node-id="150"><path d="M 379.50 953.50 L 353.50 1039.64" fill="none" group-id="1,3,4,7" id="路径-6" node-id="20" stroke="#000000" stroke-linecap="round" stroke-opacity="0.10692633" stroke-width="7" target-height="86.13599" target-width="26" target-x="353.5" target-y="953.5"></path></g><g node-id="151"><path d="M 644.50 953.50 L 670.50 1039.64" fill="none" group-id="1,3,4,8" id="路径-6备份" node-id="21" stroke="#000000" stroke-linecap="round" stroke-opacity="0.10692633" stroke-width="7" target-height="86.13599" target-width="26" target-x="644.5" target-y="953.5"></path></g><g node-id="152"><g node-id="159"><path d="M 465.00 712.00 L 559.00 712.00 L 559.00 845.00 L 465.00 845.00 Z" fill="#ffcaca" fill-rule="evenodd" group-id="1,3,4,9,16" node-id="121" stroke="none" target-height="133" target-width="94" target-x="465" target-y="712"></path></g><path d="M 591.00 717.00 C 591.00 742.96 555.63 764.00 512.00 764.00 C 468.37 764.00 433.00 742.96 433.00 717.00 C 433.00 691.04 468.37 670.00 512.00 670.00 C 555.63 670.00 591.00 691.04 591.00 717.00 Z" fill="#ec8484" fill-opacity="0.21490623" fill-rule="evenodd" group-id="1,3,4,9,17" node-id="126" stroke="none" target-height="94" target-width="158" target-x="433" target-y="670"></path></g><path d="M 767.00 524.00 C 767.00 648.26 652.83 749.00 512.00 749.00 C 371.17 749.00 257.00 648.26 257.00 524.00 C 257.00 399.74 371.17 299.00 512.00 299.00 C 652.83 299.00 767.00 399.74 767.00 524.00 Z" fill="#ffcaca" fill-rule="evenodd" group-id="1,3,4" id="椭圆形" node-id="27" stroke="none" target-height="450" target-width="510" target-x="257" target-y="299"></path><path d="M 502.00 594.00 L 502.00 620.00 C 502.00 627.73 508.27 634.00 516.00 634.00 L 522.83 634.00 L 522.83 634.00" fill="none" group-id="1,3,4" id="路径-5备份" node-id="28" stroke="#ff9494" stroke-linecap="round" stroke-width="8" target-height="40" target-width="20.832947" target-x="502" target-y="594"></path><path d="M 434.00 567.00 C 434.00 577.49 425.49 586.00 415.00 586.00 C 404.51 586.00 396.00 577.49 396.00 567.00 C 396.00 556.51 404.51 548.00 415.00 548.00 C 425.49 548.00 434.00 556.51 434.00 567.00 Z" fill="#110d2e" fill-rule="evenodd" group-id="1,3,4" id="椭圆形" node-id="29" stroke="none" target-height="38" target-width="38" target-x="396" target-y="548"></path><path d="M 628.00 567.00 C 628.00 577.49 619.49 586.00 609.00 586.00 C 598.51 586.00 590.00 577.49 590.00 567.00 C 590.00 556.51 598.51 548.00 609.00 548.00 C 619.49 548.00 628.00 556.51 628.00 567.00 Z" fill="#110d2e" fill-rule="evenodd" group-id="1,3,4" id="椭圆形备份-7" node-id="30" stroke="none" target-height="38" target-width="38" target-x="590" target-y="548"></path><path d="M 469.00 680.50 L 475.62 683.36 C 498.50 693.25 524.63 692.19 546.64 680.50 L 546.64 680.50 L 546.64 680.50" fill="none" group-id="1,3,4" id="路径-35" node-id="31" stroke="#ec8484" stroke-linecap="round" stroke-width="10" target-height="12.745972" target-width="77.6438" target-x="469" target-y="680.5"></path><path d="M 380.00 519.63 C 394.12 515.88 405.61 514.00 414.47 514.00 C 423.33 514.00 435.09 515.88 449.76 519.63" fill="none" group-id="1,3,4" id="路径-4备份" node-id="32" stroke="#110d2e" stroke-linecap="round" stroke-width="6" target-height="5.628784" target-width="69.75668" target-x="380" target-y="514"></path><g node-id="153"><path d="M 643.76 519.63 C 629.64 515.88 618.15 514.00 609.29 514.00 C 600.43 514.00 588.66 515.88 574.00 519.63" fill="none" group-id="1,3,4,10" id="路径-4备份-2" node-id="33" stroke="#110d2e" stroke-linecap="round" stroke-width="6" target-height="5.628784" target-width="69.75665" target-x="574" target-y="514"></path></g><g node-id="154"><g node-id="161"><path d="M 512.00 781.00 C 660.56 781.00 781.00 935.01 781.00 1125.00 C 781.00 1314.99 660.56 1469.00 512.00 1469.00 C 363.44 1469.00 243.00 1314.99 243.00 1125.00 C 243.00 935.01 363.44 781.00 512.00 781.00 Z" fill="#339456" fill-rule="evenodd" group-id="1,3,4,11,18" node-id="142" stroke="none" target-height="688" target-width="538" target-x="243" target-y="781"></path></g><g node-id="162"><path d="M 584.00 783.00 C 584.00 796.25 551.76 807.00 512.00 807.00 C 472.24 807.00 440.00 796.25 440.00 783.00 C 440.00 769.75 472.24 759.00 512.00 759.00 C 551.76 759.00 584.00 769.75 584.00 783.00 Z" fill="#ffcaca" fill-rule="evenodd" group-id="1,3,4,11,19" id="椭圆形" node-id="38" stroke="none" target-height="48" target-width="144" target-x="440" target-y="759"></path></g><g node-id="163"><path d="M 568.00 788.07 L 512.00 807.00 L 565.85 862.82 L 603.80 793.12 C 590.82 791.83 582.74 790.88 579.56 790.26 C 576.38 789.64 572.53 788.91 568.00 788.07 Z" fill="#ffffff" fill-rule="evenodd" group-id="1,3,4,11,20" id="路径-23备份" node-id="39" stroke="none" target-height="74.75354" target-width="91.798035" target-x="512" target-y="788.0695"></path></g><path d="M 455.80 788.07 L 511.80 807.00 L 457.94 862.82 L 420.00 793.12 C 432.98 791.83 441.06 790.88 444.24 790.26 C 447.42 789.64 451.27 788.91 455.80 788.07 Z" fill="#ffffff" fill-rule="evenodd" group-id="1,3,4,11,21" id="路径-23备份" node-id="40" stroke="none" target-height="74.75354" target-width="91.798004" target-x="420" target-y="788.0695"></path></g><path d="M 798.00 311.50 C 798.00 386.89 669.95 448.00 512.00 448.00 C 354.05 448.00 226.00 386.89 226.00 311.50 C 226.00 236.11 354.05 175.00 512.00 175.00 C 669.95 175.00 798.00 236.11 798.00 311.50 Z" fill="#110d2e" fill-rule="evenodd" group-id="1,3,4" id="椭圆形" node-id="41" stroke="none" target-height="273" target-width="572" target-x="226" target-y="174.99998"></path><g node-id="155"><path d="M 316.39 364.42 L 427.35 451.62 L 336.42 504.12 Z" fill="#ffcaca" fill-rule="evenodd" group-id="1,3,4,12" id="三角形" node-id="42" stroke="none" target-height="139.69934" target-width="110.96634" target-x="316.38748" target-y="364.42245"></path></g><g node-id="156"><path d="M 430.35 354.67 L 519.83 449.66 L 467.87 479.66 Z" fill="#ffcaca" fill-rule="evenodd" group-id="1,3,4,13" id="三角形备份" node-id="43" stroke="none" target-height="124.9852" target-width="89.480774" target-x="430.3468" target-y="354.67245"></path></g><path d="M 520.00 871.00 C 520.00 875.42 516.42 879.00 512.00 879.00 C 507.58 879.00 504.00 875.42 504.00 871.00 C 504.00 866.58 507.58 863.00 512.00 863.00 C 516.42 863.00 520.00 866.58 520.00 871.00 Z" fill="#10592a" fill-rule="evenodd" group-id="1,3,4" id="椭圆形" node-id="44" stroke="none" target-height="16" target-width="16" target-x="504" target-y="863"></path><path d="M 520.00 934.00 C 520.00 938.42 516.42 942.00 512.00 942.00 C 507.58 942.00 504.00 938.42 504.00 934.00 C 504.00 929.58 507.58 926.00 512.00 926.00 C 516.42 926.00 520.00 929.58 520.00 934.00 Z" fill="#10592a" fill-rule="evenodd" group-id="1,3,4" id="椭圆形备份-2" node-id="45" stroke="none" target-height="16" target-width="16" target-x="504" target-y="926"></path><path d="M 520.00 997.00 C 520.00 1001.42 516.42 1005.00 512.00 1005.00 C 507.58 1005.00 504.00 1001.42 504.00 997.00 C 504.00 992.58 507.58 989.00 512.00 989.00 C 516.42 989.00 520.00 992.58 520.00 997.00 Z" fill="#10592a" fill-rule="evenodd" group-id="1,3,4" id="椭圆形备份-3" node-id="46" stroke="none" target-height="16" target-width="16" target-x="504" target-y="989"></path><g node-id="157"><path d="M 379.50 953.50 L 353.50 1039.64" fill="none" group-id="1,3,4,14" id="路径-6" node-id="47" stroke="#000000" stroke-linecap="round" stroke-opacity="0.10692633" stroke-width="7" target-height="86.13599" target-width="26" target-x="353.5" target-y="953.5"></path></g><path d="M 644.50 953.50 L 670.50 1039.64" fill="none" group-id="1,3,4,15" id="路径-6备份" node-id="48" stroke="#000000" stroke-linecap="round" stroke-opacity="0.10692633" stroke-width="7" target-height="86.13599" target-width="26" target-x="644.5" target-y="953.5"></path></g></g></g></svg>