<?xml version="1.0" standalone="no"?><!DOCTYPE svg PUBLIC "-//W3C//DTD SVG 1.1//EN" "http://www.w3.org/Graphics/SVG/1.1/DTD/svg11.dtd"><svg height="1024" node-id="1" sillyvg="true" template-height="1024" template-width="1024" version="1.1" viewBox="0 0 1024 1024" width="1024" xmlns="http://www.w3.org/2000/svg" xmlns:xlink="http://www.w3.org/1999/xlink"><defs node-id="58"><mask height="2397.2256" id="mask-2" maskUnits="userSpaceOnUse" node-id="11" width="2462.6204" x="823.1721" y="6231.082"><path d="M 2655.02 7400.86 C 2595.49 7522.91 2489.92 7616.31 2361.52 7660.52 C 2233.13 7704.73 2092.43 7696.13 1970.39 7636.60 C 1848.34 7577.07 1754.94 7471.50 1710.73 7343.11 C 1666.52 7214.72 1675.12 7074.02 1734.65 6951.97 C 1794.18 6829.92 1899.75 6736.52 2028.14 6692.31 C 2156.53 6648.10 2297.23 6656.71 2419.28 6716.23 C 2541.33 6775.76 2634.73 6881.33 2678.94 7009.73 C 2723.15 7138.12 2714.54 7278.82 2655.02 7400.86 Z" fill="#ffffff" fill-rule="evenodd" node-id="63" stroke="none" target-height="1056.6294" target-width="1056.6293" target-x="1666.5182" target-y="6648.103"></path></mask><mask height="112.8" id="mask-4" maskUnits="userSpaceOnUse" node-id="30" width="189.6" x="-47.8" y="-51.4"><path d="M 0.00 0.00 L 94.00 0.00 L 94.00 133.00 L 0.00 133.00 Z" fill="#ffffff" fill-rule="evenodd" node-id="70" stroke="none" target-height="133" target-width="94" target-x="0" target-y="0"></path></mask><mask height="57.600002" id="mask-6" maskUnits="userSpaceOnUse" node-id="42" width="172.80002" x="182.6" y="-26.8"><path d="M 613.00 344.00 C 613.00 492.56 458.99 613.00 269.00 613.00 C 79.01 613.00 -75.00 492.56 -75.00 344.00 C -75.00 195.44 79.01 75.00 269.00 75.00 C 458.99 75.00 613.00 195.44 613.00 344.00 Z" fill="#ffffff" fill-rule="evenodd" node-id="77" stroke="none" target-height="538" target-width="688" target-x="-75" target-y="75"></path></mask><mask height="89.70426" id="mask1" maskUnits="userSpaceOnUse" node-id="81" width="110.15759" x="259.8202" y="-0.40585327"><path d="M 613.00 344.00 C 613.00 492.56 458.99 613.00 269.00 613.00 C 79.01 613.00 -75.00 492.56 -75.00 344.00 C -75.00 195.44 79.01 75.00 269.00 75.00 C 458.99 75.00 613.00 195.44 613.00 344.00 Z" fill="#ffffff" fill-rule="evenodd" node-id="85" stroke="none" target-height="538" target-width="688" target-x="-75" target-y="75"></path></mask><mask height="89.70426" id="mask2" maskUnits="userSpaceOnUse" node-id="89" width="110.15761" x="167.8202" y="-0.40585327"><path d="M 613.00 344.00 C 613.00 492.56 458.99 613.00 269.00 613.00 C 79.01 613.00 -75.00 492.56 -75.00 344.00 C -75.00 195.44 79.01 75.00 269.00 75.00 C 458.99 75.00 613.00 195.44 613.00 344.00 Z" fill="#ffffff" fill-rule="evenodd" node-id="93" stroke="none" target-height="538" target-width="688" target-x="-75" target-y="75"></path></mask></defs><path d="M 0.00 0.00 L 1024.00 0.00 L 1024.00 1024.00 L 0.00 1024.00 Z" fill="#ffffff" fill-rule="evenodd" node-id="99" stroke="none" target-height="1024" target-width="1024" target-x="0" target-y="0"></path><g node-id="155"><g node-id="156"><path d="M 1024.00 512.00 C 1024.00 647.79 970.06 778.02 874.04 874.04 C 778.02 970.06 647.79 1024.00 512.00 1024.00 C 376.21 1024.00 245.98 970.06 149.96 874.04 C 53.94 778.02 0.00 647.79 0.00 512.00 C 0.00 376.21 53.94 245.98 149.96 149.96 C 245.98 53.94 376.21 0.00 512.00 0.00 C 647.79 0.00 778.02 53.94 874.04 149.96 C 970.06 245.98 1024.00 376.21 1024.00 512.00 Z" fill="#339456" fill-opacity="0.2" fill-rule="evenodd" group-id="1,2" node-id="103" stroke="none" target-height="1024" target-width="1024" target-x="0" target-y="0"></path></g><g node-id="157"><g node-id="158"><path d="M 257.00 408.00 L 781.00 408.00 L 781.00 989.00 L 257.00 989.00 Z" fill="#110d2e" fill-rule="evenodd" group-id="1,3,4" id="矩形" node-id="16" stroke="none" target-height="581.00006" target-width="524" target-x="257" target-y="408"></path><g node-id="159"><path d="M 307.23 616.84 C 307.23 661.03 271.41 696.84 227.23 696.84 C 183.05 696.84 147.23 661.03 147.23 616.84 C 147.23 572.66 183.05 536.84 227.23 536.84 C 271.41 536.84 307.23 572.66 307.23 616.84 Z" fill="#110d2e" fill-rule="evenodd" group-id="1,3,4,5" id="椭圆形备份-14" node-id="18" stroke="none" target-height="160" target-width="160" target-x="147.2298" target-y="536.8447"></path><path d="M 449.07 808.00 C 449.07 894.16 379.23 964.00 293.07 964.00 C 206.92 964.00 137.07 894.16 137.07 808.00 C 137.07 721.84 206.92 652.00 293.07 652.00 C 379.23 652.00 449.07 721.84 449.07 808.00 Z" fill="#110d2e" fill-rule="evenodd" group-id="1,3,4,5" id="椭圆形备份-17" node-id="19" stroke="none" target-height="312" target-width="312" target-x="137.07452" target-y="652"></path></g><g node-id="160"><path d="M 716.57 616.84 C 716.57 661.03 752.39 696.84 796.57 696.84 C 840.76 696.84 876.57 661.03 876.57 616.84 C 876.57 572.66 840.76 536.84 796.57 536.84 C 752.39 536.84 716.57 572.66 716.57 616.84 Z" fill="#110d2e" fill-rule="evenodd" group-id="1,3,4,6" id="椭圆形备份-14" node-id="21" stroke="none" target-height="160" target-width="160" target-x="716.5746" target-y="536.8447"></path><path d="M 574.73 808.00 C 574.73 894.16 644.57 964.00 730.73 964.00 C 816.89 964.00 886.73 894.16 886.73 808.00 C 886.73 721.84 816.89 652.00 730.73 652.00 C 644.57 652.00 574.73 721.84 574.73 808.00 Z" fill="#110d2e" fill-rule="evenodd" group-id="1,3,4,6" id="椭圆形备份-17" node-id="22" stroke="none" target-height="312" target-width="312" target-x="574.72986" target-y="652"></path></g><path d="M 322.00 487.50 C 322.00 531.41 286.41 567.00 242.50 567.00 C 198.59 567.00 163.00 531.41 163.00 487.50 C 163.00 443.59 198.59 408.00 242.50 408.00 C 286.41 408.00 322.00 443.59 322.00 487.50 Z" fill="#110d2e" fill-rule="evenodd" group-id="1,3,4" id="椭圆形备份-8" node-id="23" stroke="none" target-height="159" target-width="159" target-x="163" target-y="408"></path><path d="M 861.00 487.50 C 861.00 531.41 825.41 567.00 781.50 567.00 C 737.59 567.00 702.00 531.41 702.00 487.50 C 702.00 443.59 737.59 408.00 781.50 408.00 C 825.41 408.00 861.00 443.59 861.00 487.50 Z" fill="#110d2e" fill-rule="evenodd" group-id="1,3,4" id="椭圆形备份-9" node-id="24" stroke="none" target-height="159" target-width="159" target-x="702" target-y="408"></path><path d="M 275.45 629.83 C 292.91 621.25 295.53 597.29 281.31 576.33 C 267.09 555.36 241.41 545.32 223.95 553.89 C 206.49 562.47 203.87 586.43 218.09 607.39 C 232.31 628.36 257.99 638.40 275.45 629.83 Z" fill="#fbb4b4" fill-rule="evenodd" group-id="1,3,4" id="椭圆形备份-4" node-id="25" stroke="none" target-height="93.08954" target-width="91.66252" target-x="203.8687" target-y="545.3153"></path><path d="M 747.95 629.83 C 730.49 621.25 727.87 597.29 742.09 576.33 C 756.31 555.36 781.99 545.32 799.45 553.89 C 816.91 562.47 819.53 586.43 805.31 607.39 C 791.09 628.36 765.41 638.40 747.95 629.83 Z" fill="#fbb4b4" fill-rule="evenodd" group-id="1,3,4" id="椭圆形备份-12" node-id="26" stroke="none" target-height="93.08954" target-width="91.6626" target-x="727.8687" target-y="545.3153"></path><g node-id="161"><path d="M 379.50 953.50 L 353.50 1039.64" fill="none" group-id="1,3,4,7" id="路径-6" node-id="27" stroke="#000000" stroke-linecap="round" stroke-opacity="0.10692633" stroke-width="7" target-height="86.13599" target-width="26" target-x="353.5" target-y="953.5"></path></g><g node-id="162"><path d="M 644.50 953.50 L 670.50 1039.64" fill="none" group-id="1,3,4,8" id="路径-6备份" node-id="28" stroke="#000000" stroke-linecap="round" stroke-opacity="0.10692633" stroke-width="7" target-height="86.13599" target-width="26" target-x="644.49994" target-y="953.5"></path></g><g node-id="163"><g node-id="170"><path d="M 465.00 712.00 L 559.00 712.00 L 559.00 845.00 L 465.00 845.00 Z" fill="#ffcaca" fill-rule="evenodd" group-id="1,3,4,9,16" node-id="132" stroke="none" target-height="133" target-width="94" target-x="465" target-y="712"></path></g><path d="M 591.00 717.00 C 591.00 742.96 555.63 764.00 512.00 764.00 C 468.37 764.00 433.00 742.96 433.00 717.00 C 433.00 691.04 468.37 670.00 512.00 670.00 C 555.63 670.00 591.00 691.04 591.00 717.00 Z" fill="#ec8484" fill-opacity="0.21490623" fill-rule="evenodd" group-id="1,3,4,9,17" node-id="137" stroke="none" target-height="94" target-width="158" target-x="433" target-y="670"></path></g><path d="M 767.00 524.00 C 767.00 648.26 652.83 749.00 512.00 749.00 C 371.17 749.00 257.00 648.26 257.00 524.00 C 257.00 399.74 371.17 299.00 512.00 299.00 C 652.83 299.00 767.00 399.74 767.00 524.00 Z" fill="#ffcaca" fill-rule="evenodd" group-id="1,3,4" id="椭圆形" node-id="34" stroke="none" target-height="450.00006" target-width="510.00003" target-x="256.99997" target-y="299"></path><path d="M 502.00 594.00 L 502.00 620.00 C 502.00 627.73 508.27 634.00 516.00 634.00 L 522.83 634.00 L 522.83 634.00" fill="none" group-id="1,3,4" id="路径-5备份" node-id="35" stroke="#ff9494" stroke-linecap="round" stroke-width="8" target-height="40" target-width="20.832947" target-x="502" target-y="594"></path><path d="M 434.00 567.00 C 434.00 577.49 425.49 586.00 415.00 586.00 C 404.51 586.00 396.00 577.49 396.00 567.00 C 396.00 556.51 404.51 548.00 415.00 548.00 C 425.49 548.00 434.00 556.51 434.00 567.00 Z" fill="#110d2e" fill-rule="evenodd" group-id="1,3,4" id="椭圆形" node-id="36" stroke="none" target-height="38" target-width="38" target-x="396" target-y="548"></path><path d="M 628.00 567.00 C 628.00 577.49 619.49 586.00 609.00 586.00 C 598.51 586.00 590.00 577.49 590.00 567.00 C 590.00 556.51 598.51 548.00 609.00 548.00 C 619.49 548.00 628.00 556.51 628.00 567.00 Z" fill="#110d2e" fill-rule="evenodd" group-id="1,3,4" id="椭圆形备份-7" node-id="37" stroke="none" target-height="38" target-width="38" target-x="590" target-y="548"></path><path d="M 469.00 680.50 L 475.62 683.36 C 498.50 693.25 524.63 692.19 546.64 680.50 L 546.64 680.50 L 546.64 680.50" fill="none" group-id="1,3,4" id="路径-35" node-id="38" stroke="#ec8484" stroke-linecap="round" stroke-width="10" target-height="12.745972" target-width="77.64374" target-x="469" target-y="680.5"></path><path d="M 380.00 519.63 C 394.12 515.88 405.61 514.00 414.47 514.00 C 423.33 514.00 435.09 515.88 449.76 519.63" fill="none" group-id="1,3,4" id="路径-4备份" node-id="39" stroke="#110d2e" stroke-linecap="round" stroke-width="6" target-height="5.628723" target-width="69.75665" target-x="380" target-y="514"></path><g node-id="164"><path d="M 643.76 519.63 C 629.64 515.88 618.15 514.00 609.29 514.00 C 600.43 514.00 588.66 515.88 574.00 519.63" fill="none" group-id="1,3,4,10" id="路径-4备份-2" node-id="40" stroke="#110d2e" stroke-linecap="round" stroke-width="6" target-height="5.628723" target-width="69.75665" target-x="574" target-y="514"></path></g><g node-id="165"><g node-id="172"><path d="M 512.00 781.00 C 660.56 781.00 781.00 935.01 781.00 1125.00 C 781.00 1314.99 660.56 1469.00 512.00 1469.00 C 363.44 1469.00 243.00 1314.99 243.00 1125.00 C 243.00 935.01 363.44 781.00 512.00 781.00 Z" fill="#339456" fill-rule="evenodd" group-id="1,3,4,11,18" node-id="153" stroke="none" target-height="688" target-width="538" target-x="243" target-y="781"></path></g><g node-id="173"><path d="M 584.00 783.00 C 584.00 796.25 551.76 807.00 512.00 807.00 C 472.24 807.00 440.00 796.25 440.00 783.00 C 440.00 769.75 472.24 759.00 512.00 759.00 C 551.76 759.00 584.00 769.75 584.00 783.00 Z" fill="#ffcaca" fill-rule="evenodd" group-id="1,3,4,11,19" id="椭圆形" node-id="45" stroke="none" target-height="48" target-width="144" target-x="440" target-y="759"></path></g><g node-id="174"><path d="M 568.00 788.07 L 512.00 807.00 L 565.85 862.82 L 603.80 793.12 C 590.82 791.83 582.74 790.88 579.56 790.26 C 576.38 789.64 572.53 788.91 568.00 788.07 Z" fill="#ffffff" fill-rule="evenodd" group-id="1,3,4,11,20" id="路径-23备份" node-id="46" stroke="none" target-height="74.75354" target-width="91.798035" target-x="512" target-y="788.0695"></path></g><path d="M 455.80 788.07 L 511.80 807.00 L 457.94 862.82 L 420.00 793.12 C 432.98 791.83 441.06 790.88 444.24 790.26 C 447.42 789.64 451.27 788.91 455.80 788.07 Z" fill="#ffffff" fill-rule="evenodd" group-id="1,3,4,11,21" id="路径-23备份" node-id="47" stroke="none" target-height="74.75354" target-width="91.798004" target-x="420" target-y="788.0695"></path></g><path d="M 520.00 871.00 C 520.00 875.42 516.42 879.00 512.00 879.00 C 507.58 879.00 504.00 875.42 504.00 871.00 C 504.00 866.58 507.58 863.00 512.00 863.00 C 516.42 863.00 520.00 866.58 520.00 871.00 Z" fill="#10592a" fill-rule="evenodd" group-id="1,3,4" id="椭圆形" node-id="48" stroke="none" target-height="16.000061" target-width="16" target-x="503.99994" target-y="862.99994"></path><path d="M 520.00 934.00 C 520.00 938.42 516.42 942.00 512.00 942.00 C 507.58 942.00 504.00 938.42 504.00 934.00 C 504.00 929.58 507.58 926.00 512.00 926.00 C 516.42 926.00 520.00 929.58 520.00 934.00 Z" fill="#10592a" fill-rule="evenodd" group-id="1,3,4" id="椭圆形备份-2" node-id="49" stroke="none" target-height="16.000061" target-width="16" target-x="503.99994" target-y="925.99994"></path><path d="M 520.00 997.00 C 520.00 1001.42 516.42 1005.00 512.00 1005.00 C 507.58 1005.00 504.00 1001.42 504.00 997.00 C 504.00 992.58 507.58 989.00 512.00 989.00 C 516.42 989.00 520.00 992.58 520.00 997.00 Z" fill="#10592a" fill-rule="evenodd" group-id="1,3,4" id="椭圆形备份-3" node-id="50" stroke="none" target-height="16.000061" target-width="16" target-x="503.99994" target-y="988.99994"></path><g node-id="166"><path d="M 379.50 953.50 L 353.50 1039.64" fill="none" group-id="1,3,4,12" id="路径-6" node-id="51" stroke="#000000" stroke-linecap="round" stroke-opacity="0.10692633" stroke-width="7" target-height="86.13599" target-width="26" target-x="353.5" target-y="953.5"></path></g><g node-id="167"><path d="M 644.50 953.50 L 670.50 1039.64" fill="none" group-id="1,3,4,13" id="路径-6备份" node-id="52" stroke="#000000" stroke-linecap="round" stroke-opacity="0.10692633" stroke-width="7" target-height="86.13599" target-width="26" target-x="644.49994" target-y="953.5"></path></g><path d="M 593.50 295.50 C 593.50 346.03 552.53 387.00 502.00 387.00 C 451.47 387.00 410.50 346.03 410.50 295.50 C 410.50 244.97 451.47 204.00 502.00 204.00 C 552.53 204.00 593.50 244.97 593.50 295.50 Z" fill="#110d2e" fill-rule="evenodd" group-id="1,3,4" id="椭圆形" node-id="53" stroke="none" target-height="183" target-width="183" target-x="410.5" target-y="204"></path><path d="M 259.40 556.54 C 406.13 488.22 490.33 438.49 512.00 407.33 C 622.87 500.27 706.98 550.01 764.35 556.54 L 814.47 402.54 L 616.22 299.00 L 556.46 286.50 L 502.00 286.50 L 257.00 341.32 L 208.93 441.07 L 259.40 556.54 Z" fill="#110d2e" fill-rule="evenodd" group-id="1,3,4" id="路径-38" node-id="54" stroke="none" target-height="270.03693" target-width="605.544" target-x="208.92798" target-y="286.5"></path><g node-id="168"><path d="M 834.54 428.52 C 800.89 482.39 702.79 481.80 615.44 427.22 C 528.09 372.64 484.57 284.73 518.22 230.86 C 551.88 177.00 649.97 177.59 737.32 232.17 C 824.67 286.75 868.20 374.66 834.54 428.52 Z" fill="#110d2e" fill-rule="evenodd" group-id="1,3,4,14" id="椭圆形" node-id="55" stroke="none" target-height="305.38367" target-width="383.6352" target-x="484.56537" target-y="177.00233"></path></g><path d="M 159.22 430.52 C 192.88 484.39 290.97 483.80 378.32 429.22 C 465.67 374.64 509.20 286.73 475.54 232.86 C 441.89 179.00 343.79 179.59 256.44 234.17 C 169.09 288.75 125.57 376.66 159.22 430.52 Z" fill="#110d2e" fill-rule="evenodd" group-id="1,3,4,15" id="椭圆形备份" node-id="56" stroke="none" target-height="305.3836" target-width="383.6352" target-x="125.56537" target-y="179.00233"></path></g></g></g></svg>