<?xml version="1.0" standalone="no"?><!DOCTYPE svg PUBLIC "-//W3C//DTD SVG 1.1//EN" "http://www.w3.org/Graphics/SVG/1.1/DTD/svg11.dtd"><svg height="1024" node-id="1" sillyvg="true" template-height="1024" template-width="1024" version="1.1" viewBox="0 0 1024 1024" width="1024" xmlns="http://www.w3.org/2000/svg" xmlns:xlink="http://www.w3.org/1999/xlink"><defs node-id="57"><mask height="4118.2295" id="mask-2" maskUnits="userSpaceOnUse" node-id="11" width="4104.334" x="6649.1406" y="-5620.973"><path d="M 8694.00 -2967.01 C 8811.60 -3034.91 8897.41 -3146.74 8932.56 -3277.90 C 8967.70 -3409.07 8949.30 -3548.82 8881.41 -3666.42 C 8813.51 -3784.02 8701.68 -3869.83 8570.52 -3904.97 C 8439.35 -3940.12 8299.60 -3921.72 8182.00 -3853.82 C 8064.40 -3785.93 7978.59 -3674.10 7943.45 -3542.93 C 7908.30 -3411.77 7926.70 -3272.02 7994.60 -3154.42 C 8062.49 -3036.82 8174.32 -2951.01 8305.49 -2915.86 C 8436.65 -2880.72 8576.40 -2899.12 8694.00 -2967.01 Z" fill="#ffffff" fill-rule="evenodd" node-id="62" stroke="none" target-height="1059.3984" target-width="1059.3984" target-x="7908.3027" target-y="-3940.1167"></path></mask><mask height="112.8" id="mask-4" maskUnits="userSpaceOnUse" node-id="30" width="189.6" x="-47.8" y="-51.4"><path d="M 0.00 0.00 L 94.00 0.00 L 94.00 133.00 L 0.00 133.00 Z" fill="#ffffff" fill-rule="evenodd" node-id="69" stroke="none" target-height="133" target-width="94" target-x="0" target-y="0"></path></mask><mask height="218.40001" id="mask-6" maskUnits="userSpaceOnUse" node-id="42" width="52.799995" x="105.6" y="0.89556694"><path d="M 347.57 -0.00 C 457.80 42.98 538.00 174.06 538.00 329.10 C 538.00 519.08 417.56 673.10 269.00 673.10 C 120.44 673.10 0.00 519.08 0.00 329.10 C 0.00 174.06 80.20 42.98 190.43 -0.00 L 190.43 0.01 C 209.98 14.82 237.94 24.10 269.00 24.10 C 299.73 24.10 327.43 15.02 346.95 0.48 Z" fill="#ffffff" fill-rule="evenodd" node-id="76" stroke="none" target-height="673.0956" target-width="538" target-x="0" target-y="-0"></path></mask><mask height="218.40002" id="mask1" maskUnits="userSpaceOnUse" node-id="80" width="381.59998" x="78.2" y="111.89556"><path d="M 347.57 -0.00 C 457.80 42.98 538.00 174.06 538.00 329.10 C 538.00 519.08 417.56 673.10 269.00 673.10 C 120.44 673.10 0.00 519.08 0.00 329.10 C 0.00 174.06 80.20 42.98 190.43 -0.00 L 190.43 0.01 C 209.98 14.82 237.94 24.10 269.00 24.10 C 299.73 24.10 327.43 15.02 346.95 0.48 Z" fill="#ffffff" fill-rule="evenodd" node-id="84" stroke="none" target-height="673.0956" target-width="538" target-x="0" target-y="-0"></path></mask><mask height="218.40001" id="mask2" maskUnits="userSpaceOnUse" node-id="88" width="52.80002" x="379.6" y="0.89556694"><path d="M 347.57 -0.00 C 457.80 42.98 538.00 174.06 538.00 329.10 C 538.00 519.08 417.56 673.10 269.00 673.10 C 120.44 673.10 0.00 519.08 0.00 329.10 C 0.00 174.06 80.20 42.98 190.43 -0.00 L 190.43 0.01 C 209.98 14.82 237.94 24.10 269.00 24.10 C 299.73 24.10 327.43 15.02 346.95 0.48 Z" fill="#ffffff" fill-rule="evenodd" node-id="92" stroke="none" target-height="673.0956" target-width="538" target-x="0" target-y="-0"></path></mask></defs><path d="M 0.00 0.00 L 1024.00 0.00 L 1024.00 1024.00 L 0.00 1024.00 Z" fill="#ffffff" fill-rule="evenodd" node-id="98" stroke="none" target-height="1024" target-width="1024" target-x="0" target-y="0"></path><g node-id="154"><g node-id="155"><path d="M 1024.00 512.00 C 1024.00 647.79 970.06 778.02 874.04 874.04 C 778.02 970.06 647.79 1024.00 512.00 1024.00 C 376.21 1024.00 245.98 970.06 149.96 874.04 C 53.94 778.02 0.00 647.79 0.00 512.00 C 0.00 376.21 53.94 245.98 149.96 149.96 C 245.98 53.94 376.21 0.00 512.00 0.00 C 647.79 0.00 778.02 53.94 874.04 149.96 C 970.06 245.98 1024.00 376.21 1024.00 512.00 Z" fill="#77c4f9" fill-opacity="0.2" fill-rule="evenodd" group-id="1,2" node-id="102" stroke="none" target-height="1024" target-width="1024" target-x="0" target-y="0"></path></g><g node-id="156"><g node-id="157"><g node-id="158"><path d="M 322.00 674.00 C 322.00 703.28 298.27 727.01 269.00 727.01 C 239.72 727.01 215.99 703.28 215.99 674.00 C 215.99 644.73 239.72 621.00 269.00 621.00 C 298.27 621.00 322.00 644.73 322.00 674.00 Z" fill="#110d2e" fill-rule="evenodd" group-id="1,3,4,5" id="椭圆形" node-id="17" stroke="none" target-height="106.00964" target-width="106.00961" target-x="215.99039" target-y="621"></path><path d="M 287.84 752.00 C 287.84 781.27 264.11 805.00 234.83 805.00 C 205.56 805.00 181.83 781.27 181.83 752.00 C 181.83 722.72 205.56 698.99 234.83 698.99 C 264.11 698.99 287.84 722.72 287.84 752.00 Z" fill="#110d2e" fill-rule="evenodd" group-id="1,3,4,5" id="椭圆形备份" node-id="18" stroke="none" target-height="106.00964" target-width="106.00961" target-x="181.82693" target-y="698.99036"></path></g><g node-id="159"><path d="M 703.00 674.00 C 703.00 703.28 726.73 727.01 756.00 727.01 C 785.28 727.01 809.01 703.28 809.01 674.00 C 809.01 644.73 785.28 621.00 756.00 621.00 C 726.73 621.00 703.00 644.73 703.00 674.00 Z" fill="#110d2e" fill-rule="evenodd" group-id="1,3,4,6" id="椭圆形" node-id="20" stroke="none" target-height="106.00964" target-width="106.00964" target-x="703" target-y="621"></path><path d="M 737.16 752.00 C 737.16 781.27 760.89 805.00 790.17 805.00 C 819.44 805.00 843.17 781.27 843.17 752.00 C 843.17 722.72 819.44 698.99 790.17 698.99 C 760.89 698.99 737.16 722.72 737.16 752.00 Z" fill="#110d2e" fill-rule="evenodd" group-id="1,3,4,6" id="椭圆形备份" node-id="21" stroke="none" target-height="106.00964" target-width="106.00964" target-x="737.16345" target-y="698.99036"></path></g><path d="M 235.00 514.00 L 790.00 514.00 L 790.00 545.00 C 790.00 594.15 750.15 634.00 701.00 634.00 L 324.00 634.00 C 274.85 634.00 235.00 594.15 235.00 545.00 L 235.00 514.00 L 235.00 514.00 Z" fill="#110d2e" fill-rule="evenodd" group-id="1,3,4" id="矩形" node-id="22" stroke="none" target-height="120" target-width="555" target-x="235.00002" target-y="514"></path><path d="M 820.00 439.50 C 820.00 592.48 682.10 716.50 512.00 716.50 C 341.90 716.50 204.00 592.48 204.00 439.50 C 204.00 286.52 341.90 162.50 512.00 162.50 C 682.10 162.50 820.00 286.52 820.00 439.50 Z" fill="#110d2e" fill-rule="evenodd" group-id="1,3,4" id="椭圆形" node-id="23" stroke="#979797" stroke-linecap="butt" stroke-width="1" target-height="554" target-width="616.002" target-x="203.99896" target-y="162.5"></path><path d="M 512.00 781.00 C 539.33 781.00 565.71 786.21 590.57 795.90 L 590.57 795.92 C 571.02 810.73 543.06 820.00 512.00 820.00 C 480.95 820.00 452.98 810.73 433.43 795.92 L 433.43 795.90 C 458.29 786.21 484.67 781.00 512.00 781.00 Z" fill="#489ad2" fill-rule="evenodd" group-id="1,3,4" id="形状结合" node-id="24" stroke="none" target-height="39" target-width="157.13461" target-x="433.433" target-y="781"></path><path d="M 275.45 629.83 C 292.91 621.25 295.53 597.29 281.31 576.33 C 267.09 555.36 241.41 545.32 223.95 553.89 C 206.49 562.47 203.87 586.43 218.09 607.39 C 232.31 628.36 257.99 638.40 275.45 629.83 Z" fill="#fbb4b4" fill-rule="evenodd" group-id="1,3,4" id="椭圆形备份-4" node-id="25" stroke="none" target-height="93.08954" target-width="91.66254" target-x="203.86871" target-y="545.3153"></path><path d="M 747.95 629.83 C 730.49 621.25 727.87 597.29 742.09 576.33 C 756.31 555.36 781.99 545.32 799.45 553.89 C 816.91 562.47 819.53 586.43 805.31 607.39 C 791.09 628.36 765.41 638.40 747.95 629.83 Z" fill="#fbb4b4" fill-rule="evenodd" group-id="1,3,4" id="椭圆形备份-12" node-id="26" stroke="none" target-height="93.08954" target-width="91.662476" target-x="727.8688" target-y="545.3153"></path><g node-id="160"><path d="M 379.50 953.50 L 353.50 1039.64" fill="none" group-id="1,3,4,7" id="路径-6" node-id="27" stroke="#000000" stroke-linecap="round" stroke-opacity="0.10692633" stroke-width="7" target-height="86.13599" target-width="26" target-x="353.5" target-y="953.5"></path></g><g node-id="161"><path d="M 644.50 953.50 L 670.50 1039.64" fill="none" group-id="1,3,4,8" id="路径-6备份" node-id="28" stroke="#000000" stroke-linecap="round" stroke-opacity="0.10692633" stroke-width="7" target-height="86.13599" target-width="26" target-x="644.5" target-y="953.5"></path></g><g node-id="162"><g node-id="169"><path d="M 465.00 712.00 L 559.00 712.00 L 559.00 845.00 L 465.00 845.00 Z" fill="#ffcaca" fill-rule="evenodd" group-id="1,3,4,9,16" node-id="131" stroke="none" target-height="133" target-width="94" target-x="465" target-y="712"></path></g><path d="M 591.00 717.00 C 591.00 742.96 555.63 764.00 512.00 764.00 C 468.37 764.00 433.00 742.96 433.00 717.00 C 433.00 691.04 468.37 670.00 512.00 670.00 C 555.63 670.00 591.00 691.04 591.00 717.00 Z" fill="#ec8484" fill-opacity="0.21490623" fill-rule="evenodd" group-id="1,3,4,9,17" node-id="136" stroke="none" target-height="94" target-width="158" target-x="433" target-y="670"></path></g><path d="M 767.00 524.00 C 767.00 648.26 652.83 749.00 512.00 749.00 C 371.17 749.00 257.00 648.26 257.00 524.00 C 257.00 399.74 371.17 299.00 512.00 299.00 C 652.83 299.00 767.00 399.74 767.00 524.00 Z" fill="#ffcaca" fill-rule="evenodd" group-id="1,3,4" id="椭圆形" node-id="34" stroke="none" target-height="450" target-width="510" target-x="257" target-y="299"></path><path d="M 502.00 594.00 L 502.00 620.00 C 502.00 627.73 508.27 634.00 516.00 634.00 L 522.83 634.00 L 522.83 634.00" fill="none" group-id="1,3,4" id="路径-5备份" node-id="35" stroke="#ff9494" stroke-linecap="round" stroke-width="8" target-height="40" target-width="20.832947" target-x="502" target-y="594"></path><path d="M 434.00 567.00 C 434.00 577.49 425.49 586.00 415.00 586.00 C 404.51 586.00 396.00 577.49 396.00 567.00 C 396.00 556.51 404.51 548.00 415.00 548.00 C 425.49 548.00 434.00 556.51 434.00 567.00 Z" fill="#110d2e" fill-rule="evenodd" group-id="1,3,4" id="椭圆形" node-id="36" stroke="none" target-height="38" target-width="38" target-x="396" target-y="548"></path><path d="M 628.00 567.00 C 628.00 577.49 619.49 586.00 609.00 586.00 C 598.51 586.00 590.00 577.49 590.00 567.00 C 590.00 556.51 598.51 548.00 609.00 548.00 C 619.49 548.00 628.00 556.51 628.00 567.00 Z" fill="#110d2e" fill-rule="evenodd" group-id="1,3,4" id="椭圆形备份-7" node-id="37" stroke="none" target-height="38" target-width="38" target-x="590" target-y="548"></path><path d="M 469.00 680.50 L 475.62 683.36 C 498.50 693.25 524.63 692.19 546.64 680.50 L 546.64 680.50 L 546.64 680.50" fill="none" group-id="1,3,4" id="路径-35" node-id="38" stroke="#ec8484" stroke-linecap="round" stroke-width="10" target-height="12.745972" target-width="77.6438" target-x="469" target-y="680.5"></path><path d="M 380.00 519.63 C 394.12 515.88 405.61 514.00 414.47 514.00 C 423.33 514.00 435.09 515.88 449.76 519.63" fill="none" group-id="1,3,4" id="路径-4备份" node-id="39" stroke="#110d2e" stroke-linecap="round" stroke-width="6" target-height="5.628784" target-width="69.75668" target-x="380" target-y="514"></path><g node-id="163"><path d="M 643.76 519.63 C 629.64 515.88 618.15 514.00 609.29 514.00 C 600.43 514.00 588.66 515.88 574.00 519.63" fill="none" group-id="1,3,4,10" id="路径-4备份-2" node-id="40" stroke="#110d2e" stroke-linecap="round" stroke-width="6" target-height="5.628784" target-width="69.75665" target-x="574.00006" target-y="514"></path></g><g node-id="164"><g node-id="171"><path d="M 590.57 795.90 C 700.80 838.89 781.00 969.97 781.00 1125.00 C 781.00 1314.99 660.56 1469.00 512.00 1469.00 C 363.44 1469.00 243.00 1314.99 243.00 1125.00 C 243.00 969.97 323.20 838.89 433.43 795.90 L 433.43 795.92 C 452.98 810.73 480.94 820.00 512.00 820.00 C 542.73 820.00 570.43 810.92 589.95 796.38 Z" fill="#77c4f9" fill-rule="evenodd" group-id="1,3,4,11,18" node-id="152" stroke="none" target-height="673.0956" target-width="538" target-x="243.00002" target-y="795.9044"></path></g><g node-id="172"><path d="M 353.00 815.00 L 397.00 815.00 L 397.00 997.00 L 353.00 997.00 Z" fill="#1a82c9" fill-rule="evenodd" group-id="1,3,4,11,19" id="矩形" node-id="45" stroke="none" target-height="182" target-width="44" target-x="353" target-y="815"></path></g><g node-id="173"><path d="M 353.00 926.00 L 671.00 926.00 L 671.00 1108.00 L 353.00 1108.00 Z" fill="#1a82c9" fill-rule="evenodd" group-id="1,3,4,11,20" id="矩形备份-2" node-id="46" stroke="none" target-height="182" target-width="318" target-x="353" target-y="926"></path></g><path d="M 627.00 815.00 L 671.00 815.00 L 671.00 997.00 L 627.00 997.00 Z" fill="#1a82c9" fill-rule="evenodd" group-id="1,3,4,11,21" id="矩形备份" node-id="47" stroke="none" target-height="182" target-width="44" target-x="627" target-y="815"></path></g><path d="M 520.00 849.00 C 520.00 853.42 516.42 857.00 512.00 857.00 C 507.58 857.00 504.00 853.42 504.00 849.00 C 504.00 844.58 507.58 841.00 512.00 841.00 C 516.42 841.00 520.00 844.58 520.00 849.00 Z" fill="#1a82c9" fill-rule="evenodd" group-id="1,3,4" id="椭圆形" node-id="48" stroke="none" target-height="16" target-width="16" target-x="504" target-y="841"></path><path d="M 520.00 907.00 C 520.00 911.42 516.42 915.00 512.00 915.00 C 507.58 915.00 504.00 911.42 504.00 907.00 C 504.00 902.58 507.58 899.00 512.00 899.00 C 516.42 899.00 520.00 902.58 520.00 907.00 Z" fill="#1a82c9" fill-rule="evenodd" group-id="1,3,4" id="椭圆形备份-5" node-id="49" stroke="none" target-height="16" target-width="16" target-x="504" target-y="899"></path><path d="M 520.00 878.00 C 520.00 882.42 516.42 886.00 512.00 886.00 C 507.58 886.00 504.00 882.42 504.00 878.00 C 504.00 873.58 507.58 870.00 512.00 870.00 C 516.42 870.00 520.00 873.58 520.00 878.00 Z" fill="#1a82c9" fill-rule="evenodd" group-id="1,3,4" id="椭圆形备份-6" node-id="50" stroke="none" target-height="16" target-width="16" target-x="504" target-y="870"></path><path d="M 559.00 234.33 C 589.33 253.05 615.65 270.20 637.97 285.79 L 737.28 315.12 L 796.70 424.00 L 765.70 557.08 C 760.28 531.52 750.83 506.55 737.35 482.17 C 722.36 455.07 695.86 436.72 665.87 431.85 L 511.35 431.17 L 356.83 431.85 C 327.20 436.66 300.96 454.64 285.89 481.22 L 285.35 482.17 C 271.87 506.55 262.42 531.52 257.00 557.08 L 257.00 557.08 L 226.00 424.00 L 285.42 315.12 L 384.73 285.79 C 407.05 270.20 433.37 253.05 463.70 234.33 L 511.35 248.40 Z" fill="#110d2e" fill-rule="evenodd" group-id="1,3,4" id="形状结合" node-id="51" stroke="none" target-height="322.75684" target-width="570.69995" target-x="226.00002" target-y="234.32701"></path><g node-id="165"><path d="M 304.39 364.42 L 415.35 451.62 L 324.42 504.12 Z" fill="#ffcaca" fill-rule="evenodd" group-id="1,3,4,12" id="三角形" node-id="52" stroke="none" target-height="139.69934" target-width="110.96634" target-x="304.3875" target-y="364.42242"></path></g><g node-id="166"><path d="M 419.02 361.17 L 524.35 451.62 L 444.68 497.62 Z" fill="#ffcaca" fill-rule="evenodd" group-id="1,3,4,13" id="三角形备份-6" node-id="53" stroke="none" target-height="136.44931" target-width="105.33716" target-x="419.01666" target-y="361.1725"></path></g><g node-id="167"><path d="M 531.02 373.17 L 636.35 463.62 L 556.68 509.62 Z" fill="#ffcaca" fill-rule="evenodd" group-id="1,3,4,14" id="三角形备份-7" node-id="54" stroke="none" target-height="136.44934" target-width="105.33722" target-x="531.0166" target-y="373.17242"></path></g><path d="M 637.84 396.92 L 705.85 447.72 L 647.83 481.22 Z" fill="#ffcaca" fill-rule="evenodd" group-id="1,3,4,15" id="三角形备份-8" node-id="55" stroke="none" target-height="84.30002" target-width="68.01196" target-x="637.8419" target-y="396.92245"></path></g></g></g></svg>