<?xml version="1.0" standalone="no"?><!DOCTYPE svg PUBLIC "-//W3C//DTD SVG 1.1//EN" "http://www.w3.org/Graphics/SVG/1.1/DTD/svg11.dtd"><svg height="1024" node-id="1" sillyvg="true" template-height="1024" template-width="1024" version="1.1" viewBox="0 0 1024 1024" width="1024" xmlns="http://www.w3.org/2000/svg" xmlns:xlink="http://www.w3.org/1999/xlink"><defs node-id="47"><mask height="2545.2068" id="mask-2" maskUnits="userSpaceOnUse" node-id="11" width="2545.2073" x="3861.6755" y="-5240.184"><path d="M 4622.59 -3679.61 C 4622.59 -3815.40 4676.53 -3945.63 4772.55 -4041.65 C 4868.57 -4137.66 4998.80 -4191.61 5134.59 -4191.61 C 5270.38 -4191.61 5400.61 -4137.66 5496.63 -4041.65 C 5592.65 -3945.63 5646.59 -3815.40 5646.59 -3679.61 C 5646.59 -3543.82 5592.65 -3413.59 5496.63 -3317.57 C 5400.61 -3221.55 5270.38 -3167.61 5134.59 -3167.61 C 4998.80 -3167.61 4868.57 -3221.55 4772.55 -3317.57 C 4676.53 -3413.59 4622.59 -3543.82 4622.59 -3679.61 Z" fill="#ffffff" fill-rule="evenodd" node-id="52" stroke="none" target-height="1024.0002" target-width="1024" target-x="4622.5894" target-y="-4191.607"></path></mask><mask height="112.8" id="mask-4" maskUnits="userSpaceOnUse" node-id="21" width="189.6" x="-47.8" y="-51.4"><path d="M 0.00 0.00 L 94.00 0.00 L 94.00 133.00 L 0.00 133.00 Z" fill="#ffffff" fill-rule="evenodd" node-id="59" stroke="none" target-height="133" target-width="94" target-x="0" target-y="0"></path></mask><mask height="434.40002" id="mask-6" maskUnits="userSpaceOnUse" node-id="33" width="229.20001" x="-19.1" y="-36.2"><path d="M 613.00 344.00 C 613.00 492.56 458.99 613.00 269.00 613.00 C 79.01 613.00 -75.00 492.56 -75.00 344.00 C -75.00 195.44 79.01 75.00 269.00 75.00 C 458.99 75.00 613.00 195.44 613.00 344.00 Z" fill="#ffffff" fill-rule="evenodd" node-id="66" stroke="none" target-height="538" target-width="688" target-x="-75" target-y="75"></path></mask><mask height="434.40002" id="mask1" maskUnits="userSpaceOnUse" node-id="70" width="229.19998" x="321.9" y="-36.2"><path d="M 613.00 344.00 C 613.00 492.56 458.99 613.00 269.00 613.00 C 79.01 613.00 -75.00 492.56 -75.00 344.00 C -75.00 195.44 79.01 75.00 269.00 75.00 C 458.99 75.00 613.00 195.44 613.00 344.00 Z" fill="#ffffff" fill-rule="evenodd" node-id="74" stroke="none" target-height="538" target-width="688" target-x="-75" target-y="75"></path></mask><mask height="57.600002" id="mask2" maskUnits="userSpaceOnUse" node-id="78" width="172.80002" x="182.6" y="-26.8"><path d="M 613.00 344.00 C 613.00 492.56 458.99 613.00 269.00 613.00 C 79.01 613.00 -75.00 492.56 -75.00 344.00 C -75.00 195.44 79.01 75.00 269.00 75.00 C 458.99 75.00 613.00 195.44 613.00 344.00 Z" fill="#ffffff" fill-rule="evenodd" node-id="82" stroke="none" target-height="538" target-width="688" target-x="-75" target-y="75"></path></mask></defs><path d="M 0.00 0.00 L 1024.00 0.00 L 1024.00 1024.00 L 0.00 1024.00 Z" fill="#ffffff" fill-rule="evenodd" node-id="88" stroke="none" target-height="1024" target-width="1024" target-x="0" target-y="0"></path><g node-id="133"><g node-id="134"><path d="M 1024.00 512.00 C 1024.00 647.79 970.06 778.02 874.04 874.04 C 778.02 970.06 647.79 1024.00 512.00 1024.00 C 376.21 1024.00 245.98 970.06 149.96 874.04 C 53.94 778.02 0.00 647.79 0.00 512.00 C 0.00 376.21 53.94 245.98 149.96 149.96 C 245.98 53.94 376.21 0.00 512.00 0.00 C 647.79 0.00 778.02 53.94 874.04 149.96 C 970.06 245.98 1024.00 376.21 1024.00 512.00 Z" fill="#1c8784" fill-opacity="0.2" fill-rule="evenodd" group-id="1,2" node-id="92" stroke="none" target-height="1024" target-width="1024" target-x="0" target-y="0"></path></g><g node-id="135"><g node-id="136"><path d="M 275.45 629.83 C 292.91 621.25 295.53 597.29 281.31 576.33 C 267.09 555.36 241.41 545.32 223.95 553.89 C 206.49 562.47 203.87 586.43 218.09 607.39 C 232.31 628.36 257.99 638.40 275.45 629.83 Z" fill="#fbb4b4" fill-rule="evenodd" group-id="1,3,4" id="椭圆形备份-4" node-id="16" stroke="none" target-height="93.0896" target-width="91.66252" target-x="203.8687" target-y="545.31525"></path><path d="M 747.95 629.83 C 730.49 621.25 727.87 597.29 742.09 576.33 C 756.31 555.36 781.99 545.32 799.45 553.89 C 816.91 562.47 819.53 586.43 805.31 607.39 C 791.09 628.36 765.41 638.40 747.95 629.83 Z" fill="#fbb4b4" fill-rule="evenodd" group-id="1,3,4" id="椭圆形备份-12" node-id="17" stroke="none" target-height="93.0896" target-width="91.66254" target-x="727.8687" target-y="545.31525"></path><g node-id="137"><path d="M 379.50 953.50 L 353.50 1039.64" fill="none" group-id="1,3,4,5" id="路径-6" node-id="18" stroke="#000000" stroke-linecap="round" stroke-opacity="0.10692633" stroke-width="7" target-height="86.13605" target-width="25.99997" target-x="353.5" target-y="953.49994"></path></g><g node-id="138"><path d="M 644.50 953.50 L 670.50 1039.64" fill="none" group-id="1,3,4,6" id="路径-6备份" node-id="19" stroke="#000000" stroke-linecap="round" stroke-opacity="0.10692633" stroke-width="7" target-height="86.13605" target-width="26" target-x="644.49994" target-y="953.49994"></path></g><g node-id="139"><g node-id="146"><path d="M 465.00 712.00 L 559.00 712.00 L 559.00 845.00 L 465.00 845.00 Z" fill="#ffcaca" fill-rule="evenodd" group-id="1,3,4,7,14" node-id="110" stroke="none" target-height="133" target-width="94.00003" target-x="464.99997" target-y="712"></path></g><path d="M 591.00 717.00 C 591.00 742.96 555.63 764.00 512.00 764.00 C 468.37 764.00 433.00 742.96 433.00 717.00 C 433.00 691.04 468.37 670.00 512.00 670.00 C 555.63 670.00 591.00 691.04 591.00 717.00 Z" fill="#ec8484" fill-opacity="0.21490623" fill-rule="evenodd" group-id="1,3,4,7,15" node-id="115" stroke="none" target-height="94" target-width="158.00003" target-x="432.99997" target-y="670"></path></g><path d="M 767.00 524.00 C 767.00 648.26 652.83 749.00 512.00 749.00 C 371.17 749.00 257.00 648.26 257.00 524.00 C 257.00 399.74 371.17 299.00 512.00 299.00 C 652.83 299.00 767.00 399.74 767.00 524.00 Z" fill="#ffcaca" fill-rule="evenodd" group-id="1,3,4" id="椭圆形" node-id="25" stroke="none" target-height="450" target-width="510.00003" target-x="256.99997" target-y="299"></path><path d="M 502.00 594.00 L 502.00 620.00 C 502.00 627.73 508.27 634.00 516.00 634.00 L 522.83 634.00 L 522.83 634.00" fill="none" group-id="1,3,4" id="路径-5备份" node-id="26" stroke="#ff9494" stroke-linecap="round" stroke-width="8" target-height="40.00006" target-width="20.833008" target-x="501.99994" target-y="593.99994"></path><path d="M 434.00 567.00 C 434.00 577.49 425.49 586.00 415.00 586.00 C 404.51 586.00 396.00 577.49 396.00 567.00 C 396.00 556.51 404.51 548.00 415.00 548.00 C 425.49 548.00 434.00 556.51 434.00 567.00 Z" fill="#110d2e" fill-rule="evenodd" group-id="1,3,4" id="椭圆形" node-id="27" stroke="none" target-height="38" target-width="38" target-x="395.99997" target-y="548"></path><path d="M 628.00 567.00 C 628.00 577.49 619.49 586.00 609.00 586.00 C 598.51 586.00 590.00 577.49 590.00 567.00 C 590.00 556.51 598.51 548.00 609.00 548.00 C 619.49 548.00 628.00 556.51 628.00 567.00 Z" fill="#110d2e" fill-rule="evenodd" group-id="1,3,4" id="椭圆形备份-7" node-id="28" stroke="none" target-height="38" target-width="38" target-x="590" target-y="548"></path><path d="M 469.00 680.50 L 475.62 683.36 C 498.50 693.25 524.63 692.19 546.64 680.50 L 546.64 680.50 L 546.64 680.50" fill="none" group-id="1,3,4" id="路径-35" node-id="29" stroke="#ec8484" stroke-linecap="round" stroke-width="10" target-height="12.745972" target-width="77.64377" target-x="468.99997" target-y="680.5"></path><path d="M 380.00 519.63 C 394.12 515.88 405.61 514.00 414.47 514.00 C 423.33 514.00 435.09 515.88 449.76 519.63" fill="none" group-id="1,3,4" id="路径-4备份" node-id="30" stroke="#110d2e" stroke-linecap="round" stroke-width="6" target-height="5.628784" target-width="69.75668" target-x="379.99997" target-y="513.99994"></path><g node-id="140"><path d="M 643.76 519.63 C 629.64 515.88 618.15 514.00 609.29 514.00 C 600.43 514.00 588.66 515.88 574.00 519.63" fill="none" group-id="1,3,4,8" id="路径-4备份-2" node-id="31" stroke="#110d2e" stroke-linecap="round" stroke-width="6" target-height="5.628784" target-width="69.75665" target-x="574" target-y="513.99994"></path></g><g node-id="141"><g node-id="148"><path d="M 512.00 781.00 C 660.56 781.00 781.00 935.01 781.00 1125.00 C 781.00 1314.99 660.56 1469.00 512.00 1469.00 C 363.44 1469.00 243.00 1314.99 243.00 1125.00 C 243.00 935.01 363.44 781.00 512.00 781.00 Z" fill="#ffffff" fill-rule="evenodd" group-id="1,3,4,9,16" node-id="131" stroke="none" target-height="688" target-width="538" target-x="243" target-y="781"></path></g><g node-id="149"><path d="M 243.00 781.00 L 434.00 781.00 L 434.00 1143.00 L 243.00 1143.00 Z" fill="#1c8784" fill-rule="evenodd" group-id="1,3,4,9,17" id="矩形" node-id="36" stroke="none" target-height="362" target-width="191" target-x="243" target-y="781"></path></g><g node-id="150"><path d="M 584.00 781.00 L 775.00 781.00 L 775.00 1143.00 L 584.00 1143.00 Z" fill="#1c8784" fill-rule="evenodd" group-id="1,3,4,9,18" id="矩形备份" node-id="37" stroke="none" target-height="362" target-width="191" target-x="584" target-y="781"></path></g><path d="M 584.00 783.00 C 584.00 796.25 551.76 807.00 512.00 807.00 C 472.24 807.00 440.00 796.25 440.00 783.00 C 440.00 769.75 472.24 759.00 512.00 759.00 C 551.76 759.00 584.00 769.75 584.00 783.00 Z" fill="#ffcaca" fill-rule="evenodd" group-id="1,3,4,9,19" id="椭圆形" node-id="38" stroke="none" target-height="48" target-width="144" target-x="440" target-y="759"></path></g><path d="M 520.00 871.00 C 520.00 875.42 516.42 879.00 512.00 879.00 C 507.58 879.00 504.00 875.42 504.00 871.00 C 504.00 866.58 507.58 863.00 512.00 863.00 C 516.42 863.00 520.00 866.58 520.00 871.00 Z" fill="#1c8784" fill-rule="evenodd" group-id="1,3,4" id="椭圆形" node-id="39" stroke="none" target-height="16" target-width="16" target-x="504" target-y="863"></path><path d="M 520.00 934.00 C 520.00 938.42 516.42 942.00 512.00 942.00 C 507.58 942.00 504.00 938.42 504.00 934.00 C 504.00 929.58 507.58 926.00 512.00 926.00 C 516.42 926.00 520.00 929.58 520.00 934.00 Z" fill="#1c8784" fill-rule="evenodd" group-id="1,3,4" id="椭圆形备份-2" node-id="40" stroke="none" target-height="16.000061" target-width="16" target-x="504" target-y="926"></path><path d="M 520.00 997.00 C 520.00 1001.42 516.42 1005.00 512.00 1005.00 C 507.58 1005.00 504.00 1001.42 504.00 997.00 C 504.00 992.58 507.58 989.00 512.00 989.00 C 516.42 989.00 520.00 992.58 520.00 997.00 Z" fill="#1c8784" fill-rule="evenodd" group-id="1,3,4" id="椭圆形备份-3" node-id="41" stroke="none" target-height="16.000061" target-width="16" target-x="504" target-y="989"></path><g node-id="142"><path d="M 379.50 953.50 L 353.50 1039.64" fill="none" group-id="1,3,4,10" id="路径-6" node-id="42" stroke="#000000" stroke-linecap="round" stroke-opacity="0.10692633" stroke-width="7" target-height="86.13605" target-width="25.99997" target-x="353.5" target-y="953.49994"></path></g><g node-id="143"><path d="M 644.50 953.50 L 670.50 1039.64" fill="none" group-id="1,3,4,11" id="路径-6备份" node-id="43" stroke="#000000" stroke-linecap="round" stroke-opacity="0.10692633" stroke-width="7" target-height="86.13605" target-width="26" target-x="644.49994" target-y="953.49994"></path></g><g node-id="144"><path d="M 457.77 467.88 C 377.13 548.53 269.01 571.16 216.29 518.44 C 163.57 465.72 186.21 357.61 266.85 276.97 C 347.49 196.32 455.61 173.69 508.33 226.41 C 561.05 279.13 538.41 387.24 457.77 467.88 Z" fill="#110d2e" fill-rule="evenodd" group-id="1,3,4,12" id="椭圆形" node-id="44" stroke="none" target-height="397.47665" target-width="397.47668" target-x="163.57228" target-y="173.6865"></path></g><path d="M 566.85 467.88 C 647.49 548.53 755.61 571.16 808.33 518.44 C 861.05 465.72 838.41 357.61 757.77 276.97 C 677.13 196.32 569.01 173.69 516.29 226.41 C 463.57 279.13 486.21 387.24 566.85 467.88 Z" fill="#110d2e" fill-rule="evenodd" group-id="1,3,4,13" id="椭圆形备份" node-id="45" stroke="none" target-height="397.47668" target-width="397.47668" target-x="463.57227" target-y="173.68654"></path></g></g></g></svg>