<?xml version="1.0" standalone="no"?><!DOCTYPE svg PUBLIC "-//W3C//DTD SVG 1.1//EN" "http://www.w3.org/Graphics/SVG/1.1/DTD/svg11.dtd"><svg height="1024" node-id="1" sillyvg="true" template-height="1024" template-width="1024" version="1.1" viewBox="0 0 1024 1024" width="1024" xmlns="http://www.w3.org/2000/svg" xmlns:xlink="http://www.w3.org/1999/xlink"><defs node-id="47"><mask height="839.19385" id="mask-2" maskUnits="userSpaceOnUse" node-id="11" width="1538.4004" x="4508.8" y="-135.06787"><path d="M 4962.00 796.84 C 5097.79 796.84 5228.02 742.90 5324.04 646.88 C 5420.06 550.86 5474.00 420.63 5474.00 284.84 C 5474.00 149.05 5420.06 18.82 5324.04 -77.20 C 5228.02 -173.21 5097.79 -227.16 4962.00 -227.16 C 4826.21 -227.16 4695.98 -173.21 4599.96 -77.20 C 4503.94 18.82 4450.00 149.05 4450.00 284.84 C 4450.00 420.63 4503.94 550.86 4599.96 646.88 C 4695.98 742.90 4826.21 796.84 4962.00 796.84 Z" fill="#ffffff" fill-rule="evenodd" node-id="52" stroke="none" target-height="1024" target-width="1024" target-x="4450" target-y="-227.15674"></path></mask><mask height="112.8" id="mask-4" maskUnits="userSpaceOnUse" node-id="23" width="189.6" x="-47.8" y="-51.4"><path d="M 0.00 0.00 L 94.00 0.00 L 94.00 133.00 L 0.00 133.00 Z" fill="#ffffff" fill-rule="evenodd" node-id="59" stroke="none" target-height="133" target-width="94" target-x="0" target-y="0"></path></mask><mask height="85.15468" id="mask-6" maskUnits="userSpaceOnUse" node-id="38" width="112.80002" x="212.6" y="-14.05846"><path d="M 613.00 344.00 C 613.00 492.56 458.99 613.00 269.00 613.00 C 79.01 613.00 -75.00 492.56 -75.00 344.00 C -75.00 195.44 79.01 75.00 269.00 75.00 C 458.99 75.00 613.00 195.44 613.00 344.00 Z" fill="#ffffff" fill-rule="evenodd" node-id="66" stroke="none" target-height="538" target-width="688" target-x="-75" target-y="75"></path></mask></defs><path d="M 0.00 0.00 L 1024.00 0.00 L 1024.00 1024.00 L 0.00 1024.00 Z" fill="#ffffff" fill-rule="evenodd" node-id="72" stroke="none" target-height="1024" target-width="1024" target-x="0" target-y="0"></path><g node-id="128"><g node-id="129"><path d="M 1024.00 512.00 C 1024.00 647.79 970.06 778.02 874.04 874.04 C 778.02 970.06 647.79 1024.00 512.00 1024.00 C 376.21 1024.00 245.98 970.06 149.96 874.04 C 53.94 778.02 0.00 647.79 0.00 512.00 C 0.00 376.21 53.94 245.98 149.96 149.96 C 245.98 53.94 376.21 0.00 512.00 0.00 C 647.79 0.00 778.02 53.94 874.04 149.96 C 970.06 245.98 1024.00 376.21 1024.00 512.00 Z" fill="#cc5553" fill-opacity="0.2" fill-rule="evenodd" group-id="1,2" node-id="76" stroke="none" target-height="1024" target-width="1024" target-x="0" target-y="0"></path></g><g node-id="130"><g node-id="131"><path d="M 437.91 230.80 C 339.60 190.88 266.30 263.81 218.00 449.61 C 211.73 523.66 128.81 676.70 177.01 743.26 C 187.62 757.90 467.07 800.20 489.50 771.38 C 519.84 732.40 502.64 552.20 437.91 230.80 Z" fill="#110d2e" fill-rule="evenodd" group-id="1,3,4" id="路径-2" node-id="16" stroke="none" target-height="609.3222" target-width="391.02805" target-x="128.80997" target-y="190.8791"></path><path d="M 635.06 220.36 C 710.23 227.20 768.73 301.66 810.54 443.73 C 873.26 656.85 815.90 598.36 857.28 693.88 C 884.87 757.57 772.22 786.67 519.35 781.18" fill="#110d2e" fill-rule="evenodd" group-id="1,3,4" id="路径-3" node-id="17" stroke="none" target-height="566.30853" target-width="365.51666" target-x="519.35" target-y="220.35724"></path><path d="M 275.45 629.83 C 292.91 621.25 295.53 597.29 281.31 576.33 C 267.09 555.36 241.41 545.32 223.95 553.89 C 206.49 562.47 203.87 586.43 218.09 607.39 C 232.31 628.36 257.99 638.40 275.45 629.83 Z" fill="#fbb4b4" fill-rule="evenodd" group-id="1,3,4" id="椭圆形备份-4" node-id="18" stroke="none" target-height="93.08954" target-width="91.662506" target-x="203.86871" target-y="545.3153"></path><path d="M 747.95 629.83 C 730.49 621.25 727.87 597.29 742.09 576.33 C 756.31 555.36 781.99 545.32 799.45 553.89 C 816.91 562.47 819.53 586.43 805.31 607.39 C 791.09 628.36 765.41 638.40 747.95 629.83 Z" fill="#fbb4b4" fill-rule="evenodd" group-id="1,3,4" id="椭圆形备份-12" node-id="19" stroke="none" target-height="93.08954" target-width="91.66254" target-x="727.8687" target-y="545.3153"></path><g node-id="132"><path d="M 379.50 953.50 L 353.50 1039.64" fill="none" group-id="1,3,4,5" id="路径-6" node-id="20" stroke="#000000" stroke-linecap="round" stroke-opacity="0.10692633" stroke-width="7" target-height="86.13605" target-width="26" target-x="353.5" target-y="953.49994"></path></g><g node-id="133"><path d="M 644.50 953.50 L 670.50 1039.64" fill="none" group-id="1,3,4,6" id="路径-6备份" node-id="21" stroke="#000000" stroke-linecap="round" stroke-opacity="0.10692633" stroke-width="7" target-height="86.13605" target-width="26" target-x="644.5" target-y="953.49994"></path></g><g node-id="134"><g node-id="139"><path d="M 465.00 712.00 L 559.00 712.00 L 559.00 845.00 L 465.00 845.00 Z" fill="#ffcaca" fill-rule="evenodd" group-id="1,3,4,7,12" node-id="96" stroke="none" target-height="133" target-width="94" target-x="465" target-y="712"></path></g><path d="M 591.00 717.00 C 591.00 742.96 555.63 764.00 512.00 764.00 C 468.37 764.00 433.00 742.96 433.00 717.00 C 433.00 691.04 468.37 670.00 512.00 670.00 C 555.63 670.00 591.00 691.04 591.00 717.00 Z" fill="#ec8484" fill-opacity="0.21490623" fill-rule="evenodd" group-id="1,3,4,7,13" node-id="101" stroke="none" target-height="94" target-width="158" target-x="433" target-y="670"></path></g><path d="M 767.00 524.00 C 767.00 648.26 652.83 749.00 512.00 749.00 C 371.17 749.00 257.00 648.26 257.00 524.00 C 257.00 399.74 371.17 299.00 512.00 299.00 C 652.83 299.00 767.00 399.74 767.00 524.00 Z" fill="#ffcaca" fill-rule="evenodd" group-id="1,3,4" id="椭圆形" node-id="27" stroke="none" target-height="450" target-width="510.00006" target-x="257" target-y="299"></path><path d="M 502.00 594.00 L 502.00 620.00 C 502.00 627.73 508.27 634.00 516.00 634.00 L 522.83 634.00 L 522.83 634.00" fill="none" group-id="1,3,4" id="路径-5备份" node-id="28" stroke="#ff9494" stroke-linecap="round" stroke-width="8" target-height="40" target-width="20.832947" target-x="502" target-y="594"></path><path d="M 434.00 567.00 C 434.00 577.49 425.49 586.00 415.00 586.00 C 404.51 586.00 396.00 577.49 396.00 567.00 C 396.00 556.51 404.51 548.00 415.00 548.00 C 425.49 548.00 434.00 556.51 434.00 567.00 Z" fill="#110d2e" fill-rule="evenodd" group-id="1,3,4" id="椭圆形" node-id="29" stroke="none" target-height="38" target-width="38" target-x="396" target-y="548"></path><path d="M 628.00 567.00 C 628.00 577.49 619.49 586.00 609.00 586.00 C 598.51 586.00 590.00 577.49 590.00 567.00 C 590.00 556.51 598.51 548.00 609.00 548.00 C 619.49 548.00 628.00 556.51 628.00 567.00 Z" fill="#110d2e" fill-rule="evenodd" group-id="1,3,4" id="椭圆形备份-7" node-id="30" stroke="none" target-height="38" target-width="37.99994" target-x="590.00006" target-y="548"></path><path d="M 469.00 680.50 L 475.62 683.36 C 498.50 693.25 524.63 692.19 546.64 680.50 L 546.64 680.50 L 546.64 680.50" fill="none" group-id="1,3,4" id="路径-35" node-id="31" stroke="#ec8484" stroke-linecap="round" stroke-width="10" target-height="12.745972" target-width="77.64374" target-x="469" target-y="680.5"></path><path d="M 380.00 519.63 C 394.12 515.88 405.61 514.00 414.47 514.00 C 423.33 514.00 435.09 515.88 449.76 519.63" fill="none" group-id="1,3,4" id="路径-4备份" node-id="32" stroke="#110d2e" stroke-linecap="round" stroke-width="6" target-height="5.628784" target-width="69.75665" target-x="380" target-y="514"></path><g node-id="135"><path d="M 643.76 519.63 C 629.64 515.88 618.15 514.00 609.29 514.00 C 600.43 514.00 588.66 515.88 574.00 519.63" fill="none" group-id="1,3,4,8" id="路径-4备份-2" node-id="33" stroke="#110d2e" stroke-linecap="round" stroke-width="6" target-height="5.628784" target-width="69.75659" target-x="574" target-y="514"></path></g><g node-id="136"><path d="M 379.50 953.50 L 353.50 1039.64" fill="none" group-id="1,3,4,9" id="路径-6" node-id="34" stroke="#000000" stroke-linecap="round" stroke-opacity="0.10692633" stroke-width="7" target-height="86.13605" target-width="26" target-x="353.5" target-y="953.49994"></path></g><g node-id="137"><path d="M 644.50 953.50 L 670.50 1039.64" fill="none" group-id="1,3,4,10" id="路径-6备份" node-id="35" stroke="#000000" stroke-linecap="round" stroke-opacity="0.10692633" stroke-width="7" target-height="86.13605" target-width="26" target-x="644.5" target-y="953.49994"></path></g><path d="M 259.40 556.54 C 406.13 488.22 490.33 438.49 512.00 407.33 C 622.87 500.27 706.98 550.01 764.35 556.54 C 775.45 525.18 781.00 499.83 781.00 480.51 C 781.00 469.83 775.45 450.17 764.35 421.52 L 616.22 299.00 L 556.46 286.50 L 502.00 286.50 C 477.62 282.37 448.62 286.54 415.00 299.00 C 381.38 311.46 339.87 333.42 290.47 364.88 L 249.70 448.00 L 259.40 556.54 Z" fill="#110d2e" fill-rule="evenodd" group-id="1,3,4" id="路径-38" node-id="36" stroke="none" target-height="274.16223" target-width="531.30005" target-x="249.69997" target-y="282.37463"></path><g node-id="138"><g node-id="141"><path d="M 512.00 781.00 C 660.56 781.00 781.00 935.01 781.00 1125.00 C 781.00 1314.99 660.56 1469.00 512.00 1469.00 C 363.44 1469.00 243.00 1314.99 243.00 1125.00 C 243.00 935.01 363.44 781.00 512.00 781.00 Z" fill="#cc5553" fill-rule="evenodd" group-id="1,3,4,11,14" node-id="126" stroke="none" target-height="688" target-width="538" target-x="243" target-y="781"></path></g><path d="M 465.00 786.73 L 512.00 845.00 L 559.00 786.73 C 538.04 778.27 522.27 774.04 511.70 774.04 C 501.12 774.04 485.56 778.27 465.00 786.73 Z" fill="#ffcaca" fill-rule="evenodd" group-id="1,3,4,11,15" id="路径-39" node-id="41" stroke="none" target-height="70.96222" target-width="94" target-x="465" target-y="774.0378"></path></g><path d="M 520.00 871.00 C 520.00 875.42 516.42 879.00 512.00 879.00 C 507.58 879.00 504.00 875.42 504.00 871.00 C 504.00 866.58 507.58 863.00 512.00 863.00 C 516.42 863.00 520.00 866.58 520.00 871.00 Z" fill="#ffffff" fill-rule="evenodd" group-id="1,3,4" id="椭圆形" node-id="42" stroke="none" target-height="16" target-width="16" target-x="504" target-y="863"></path><path d="M 520.00 934.00 C 520.00 938.42 516.42 942.00 512.00 942.00 C 507.58 942.00 504.00 938.42 504.00 934.00 C 504.00 929.58 507.58 926.00 512.00 926.00 C 516.42 926.00 520.00 929.58 520.00 934.00 Z" fill="#ffffff" fill-rule="evenodd" group-id="1,3,4" id="椭圆形备份-2" node-id="43" stroke="none" target-height="16" target-width="16" target-x="504" target-y="926"></path><path d="M 520.00 997.00 C 520.00 1001.42 516.42 1005.00 512.00 1005.00 C 507.58 1005.00 504.00 1001.42 504.00 997.00 C 504.00 992.58 507.58 989.00 512.00 989.00 C 516.42 989.00 520.00 992.58 520.00 997.00 Z" fill="#ffffff" fill-rule="evenodd" group-id="1,3,4" id="椭圆形备份-3" node-id="44" stroke="none" target-height="16" target-width="16" target-x="504" target-y="989"></path><path d="M 707.00 281.00 C 707.00 332.91 616.34 375.00 504.50 375.00 C 392.66 375.00 302.00 332.91 302.00 281.00 C 302.00 229.09 392.66 187.00 504.50 187.00 C 616.34 187.00 707.00 229.09 707.00 281.00 Z" fill="#110d2e" fill-rule="evenodd" group-id="1,3,4" id="椭圆形" node-id="45" stroke="none" target-height="188.00002" target-width="405.00006" target-x="302" target-y="186.99998"></path></g></g></g></svg>