<?xml version="1.0" standalone="no"?><!DOCTYPE svg PUBLIC "-//W3C//DTD SVG 1.1//EN" "http://www.w3.org/Graphics/SVG/1.1/DTD/svg11.dtd"><svg height="1024" node-id="1" sillyvg="true" template-height="1024" template-width="1024" version="1.1" viewBox="0 0 1024 1024" width="1024" xmlns="http://www.w3.org/2000/svg" xmlns:xlink="http://www.w3.org/1999/xlink"><defs node-id="45"><mask height="1526.9995" id="mask-2" maskUnits="userSpaceOnUse" node-id="11" width="739.20245" x="905.642" y="5365.3984"><path d="M 1787.24 5808.15 C 1787.24 5943.94 1733.30 6074.17 1637.28 6170.19 C 1541.26 6266.21 1411.03 6320.15 1275.24 6320.15 C 1139.45 6320.15 1009.22 6266.21 913.20 6170.19 C 817.19 6074.17 763.24 5943.94 763.24 5808.15 C 763.24 5672.36 817.19 5542.13 913.20 5446.11 C 1009.22 5350.09 1139.45 5296.15 1275.24 5296.15 C 1411.03 5296.15 1541.26 5350.09 1637.28 5446.11 C 1733.30 5542.13 1787.24 5672.36 1787.24 5808.15 Z" fill="#ffffff" fill-rule="evenodd" node-id="50" stroke="none" target-height="1024" target-width="1024" target-x="763.24335" target-y="5296.1484"></path></mask><mask height="112.8" id="mask-4" maskUnits="userSpaceOnUse" node-id="22" width="189.6" x="-47.8" y="-51.4"><path d="M 0.00 0.00 L 94.00 0.00 L 94.00 125.00 L 0.00 125.00 Z" fill="#ffffff" fill-rule="evenodd" node-id="57" stroke="none" target-height="125" target-width="94" target-x="0" target-y="0"></path></mask><mask height="105.45883" id="mask-6" maskUnits="userSpaceOnUse" node-id="34" width="199.20001" x="169.4" y="-50.27891"><path d="M 336.89 0.00 C 452.59 38.47 538.00 172.96 538.00 332.95 C 538.00 522.94 417.56 676.95 269.00 676.95 C 120.44 676.95 0.00 522.94 0.00 332.95 C 0.00 172.96 85.41 38.47 201.11 0.00 C 203.12 18.93 232.75 33.95 269.00 33.95 C 305.05 33.95 334.55 19.10 336.86 0.32 Z" fill="#ffffff" fill-rule="evenodd" node-id="64" stroke="none" target-height="676.9505" target-width="538" target-x="0" target-y="0"></path></mask></defs><path d="M 0.00 0.00 L 1024.00 0.00 L 1024.00 1024.00 L 0.00 1024.00 Z" fill="#ffffff" fill-rule="evenodd" node-id="70" stroke="none" target-height="1024" target-width="1024" target-x="0" target-y="0"></path><g node-id="115"><g node-id="116"><path d="M 1024.00 512.00 C 1024.00 647.79 970.06 778.02 874.04 874.04 C 778.02 970.06 647.79 1024.00 512.00 1024.00 C 376.21 1024.00 245.98 970.06 149.96 874.04 C 53.94 778.02 0.00 647.79 0.00 512.00 C 0.00 376.21 53.94 245.98 149.96 149.96 C 245.98 53.94 376.21 0.00 512.00 0.00 C 647.79 0.00 778.02 53.94 874.04 149.96 C 970.06 245.98 1024.00 376.21 1024.00 512.00 Z" fill="#ffae50" fill-opacity="0.2" fill-rule="evenodd" group-id="1,2" node-id="74" stroke="none" target-height="1024" target-width="1024" target-x="0" target-y="0"></path></g><g node-id="117"><g node-id="118"><path d="M 235.00 514.00 L 790.00 514.00 L 790.00 628.00 C 790.00 677.15 750.15 717.00 701.00 717.00 L 324.00 717.00 C 274.85 717.00 235.00 677.15 235.00 628.00 L 235.00 514.00 L 235.00 514.00 Z" fill="#110d2e" fill-rule="evenodd" group-id="1,3,4" id="矩形" node-id="16" stroke="none" target-height="203" target-width="555" target-x="235" target-y="514"></path><path d="M 820.00 456.50 C 820.00 600.09 682.10 716.50 512.00 716.50 C 341.90 716.50 204.00 600.09 204.00 456.50 C 204.00 312.91 341.90 196.50 512.00 196.50 C 682.10 196.50 820.00 312.91 820.00 456.50 Z" fill="#110d2e" fill-rule="evenodd" group-id="1,3,4" id="椭圆形" node-id="17" stroke="#979797" stroke-linecap="butt" stroke-width="1" target-height="520" target-width="616.0021" target-x="203.99896" target-y="196.5"></path><path d="M 275.45 629.83 C 292.91 621.25 295.53 597.29 281.31 576.33 C 267.09 555.36 241.41 545.32 223.95 553.89 C 206.49 562.47 203.87 586.43 218.09 607.39 C 232.31 628.36 257.99 638.40 275.45 629.83 Z" fill="#fbb4b4" fill-rule="evenodd" group-id="1,3,4" id="椭圆形备份-4" node-id="18" stroke="none" target-height="93.0896" target-width="91.66252" target-x="203.8687" target-y="545.3153"></path><path d="M 747.95 629.83 C 730.49 621.25 727.87 597.29 742.09 576.33 C 756.31 555.36 781.99 545.32 799.45 553.89 C 816.91 562.47 819.53 586.43 805.31 607.39 C 791.09 628.36 765.41 638.40 747.95 629.83 Z" fill="#fbb4b4" fill-rule="evenodd" group-id="1,3,4" id="椭圆形备份-12" node-id="19" stroke="none" target-height="93.0896" target-width="91.662476" target-x="727.8687" target-y="545.3153"></path><path d="M 512.00 780.95 C 535.45 780.95 558.20 784.79 579.89 792.00 C 577.88 810.93 548.25 825.95 512.00 825.95 C 475.75 825.95 446.12 810.93 444.11 792.01 C 465.80 784.79 488.55 780.95 512.00 780.95 Z" fill="#d38020" fill-rule="evenodd" group-id="1,3,4" id="形状结合" node-id="20" stroke="none" target-height="45" target-width="135.78162" target-x="444.10913" target-y="780.9505"></path><g node-id="119"><g node-id="124"><path d="M 465.00 712.00 L 559.00 712.00 L 559.00 837.00 L 465.00 837.00 Z" fill="#ffcaca" fill-rule="evenodd" group-id="1,3,4,5,10" node-id="87" stroke="none" target-height="125" target-width="94" target-x="465" target-y="712"></path></g><path d="M 591.00 717.00 C 591.00 742.96 555.63 764.00 512.00 764.00 C 468.37 764.00 433.00 742.96 433.00 717.00 C 433.00 691.04 468.37 670.00 512.00 670.00 C 555.63 670.00 591.00 691.04 591.00 717.00 Z" fill="#ec8484" fill-opacity="0.21490623" fill-rule="evenodd" group-id="1,3,4,5,11" node-id="92" stroke="none" target-height="94" target-width="158" target-x="433" target-y="670"></path></g><path d="M 767.00 524.00 C 767.00 648.26 652.83 749.00 512.00 749.00 C 371.17 749.00 257.00 648.26 257.00 524.00 C 257.00 399.74 371.17 299.00 512.00 299.00 C 652.83 299.00 767.00 399.74 767.00 524.00 Z" fill="#ffcaca" fill-rule="evenodd" group-id="1,3,4" id="椭圆形" node-id="26" stroke="none" target-height="450" target-width="510" target-x="257" target-y="299"></path><path d="M 502.00 594.00 L 502.00 620.00 C 502.00 627.73 508.27 634.00 516.00 634.00 L 522.83 634.00 L 522.83 634.00" fill="none" group-id="1,3,4" id="路径-5备份" node-id="27" stroke="#ff9494" stroke-linecap="round" stroke-width="8" target-height="40" target-width="20.832947" target-x="502" target-y="594"></path><path d="M 434.00 567.00 C 434.00 577.49 425.49 586.00 415.00 586.00 C 404.51 586.00 396.00 577.49 396.00 567.00 C 396.00 556.51 404.51 548.00 415.00 548.00 C 425.49 548.00 434.00 556.51 434.00 567.00 Z" fill="#110d2e" fill-rule="evenodd" group-id="1,3,4" id="椭圆形" node-id="28" stroke="none" target-height="38" target-width="38" target-x="396" target-y="548"></path><path d="M 628.00 567.00 C 628.00 577.49 619.49 586.00 609.00 586.00 C 598.51 586.00 590.00 577.49 590.00 567.00 C 590.00 556.51 598.51 548.00 609.00 548.00 C 619.49 548.00 628.00 556.51 628.00 567.00 Z" fill="#110d2e" fill-rule="evenodd" group-id="1,3,4" id="椭圆形备份-7" node-id="29" stroke="none" target-height="38" target-width="38" target-x="590" target-y="548"></path><path d="M 469.00 680.50 L 475.62 683.36 C 498.50 693.25 524.63 692.19 546.64 680.50 L 546.64 680.50 L 546.64 680.50" fill="none" group-id="1,3,4" id="路径-35" node-id="30" stroke="#ec8484" stroke-linecap="round" stroke-width="10" target-height="12.745972" target-width="77.6438" target-x="469" target-y="680.5"></path><path d="M 380.00 519.63 C 394.12 515.88 405.61 514.00 414.47 514.00 C 423.33 514.00 435.09 515.88 449.76 519.63" fill="none" group-id="1,3,4" id="路径-4备份" node-id="31" stroke="#110d2e" stroke-linecap="round" stroke-width="6" target-height="5.628784" target-width="69.75665" target-x="380" target-y="514"></path><g node-id="120"><path d="M 643.76 519.63 C 629.64 515.88 618.15 514.00 609.29 514.00 C 600.43 514.00 588.66 515.88 574.00 519.63" fill="none" group-id="1,3,4,6" id="路径-4备份-2" node-id="32" stroke="#110d2e" stroke-linecap="round" stroke-width="6" target-height="5.628784" target-width="69.756714" target-x="574" target-y="514"></path></g><g node-id="121"><g node-id="126"><path d="M 579.89 792.05 C 695.59 830.52 781.00 965.01 781.00 1125.00 C 781.00 1314.99 660.56 1469.00 512.00 1469.00 C 363.44 1469.00 243.00 1314.99 243.00 1125.00 C 243.00 965.01 328.41 830.52 444.11 792.05 C 446.12 810.98 475.75 826.00 512.00 826.00 C 548.05 826.00 577.55 811.15 579.86 792.37 Z" fill="#ffae50" fill-rule="evenodd" group-id="1,3,4,7,12" node-id="108" stroke="none" target-height="676.9505" target-width="538" target-x="243" target-y="792.0495"></path></g><path d="M 595.00 794.50 C 595.00 818.77 557.84 838.44 512.00 838.44 C 466.16 838.44 429.00 818.77 429.00 794.50 C 429.00 770.23 466.16 750.56 512.00 750.56 C 557.84 750.56 595.00 770.23 595.00 794.50 Z" fill="none" group-id="1,3,4,7,13" node-id="113" stroke="#ffffff" stroke-linecap="butt" stroke-width="8" target-height="87.882324" target-width="166" target-x="429" target-y="750.55884"></path></g><g node-id="122"><path d="M 379.50 953.50 L 353.50 1039.64" fill="none" group-id="1,3,4,8" id="路径-6" node-id="38" stroke="#000000" stroke-linecap="round" stroke-opacity="0.10692633" stroke-width="7" target-height="86.13599" target-width="26" target-x="353.5" target-y="953.5"></path></g><g node-id="123"><path d="M 644.50 953.50 L 670.50 1039.64" fill="none" group-id="1,3,4,9" id="路径-6备份" node-id="39" stroke="#000000" stroke-linecap="round" stroke-opacity="0.10692633" stroke-width="7" target-height="86.13599" target-width="26.000061" target-x="644.4999" target-y="953.5"></path></g><path d="M 559.00 234.33 C 589.33 253.05 615.65 270.20 637.97 285.79 L 737.28 315.12 L 796.70 424.00 L 765.70 557.08 C 760.28 531.52 750.83 506.55 737.35 482.17 C 722.36 455.07 695.86 436.72 665.87 431.85 L 511.35 431.17 L 356.83 431.85 C 327.20 436.66 300.96 454.64 285.89 481.22 L 285.35 482.17 C 271.87 506.55 262.42 531.52 257.00 557.08 L 257.00 557.08 L 226.00 424.00 L 285.42 315.12 L 384.73 285.79 C 407.05 270.20 433.37 253.05 463.70 234.33 L 511.35 248.40 Z" fill="#110d2e" fill-rule="evenodd" group-id="1,3,4" id="形状结合" node-id="40" stroke="none" target-height="322.75684" target-width="570.69995" target-x="226" target-y="234.32701"></path><path d="M 589.00 371.00 L 609.00 434.00 L 569.00 434.00 Z" fill="#ffcaca" fill-rule="evenodd" group-id="1,3,4" id="三角形" node-id="41" stroke="none" target-height="63" target-width="40" target-x="569" target-y="371"></path><path d="M 664.00 396.00 L 684.00 441.00 L 644.00 441.00 Z" fill="#ffcaca" fill-rule="evenodd" group-id="1,3,4" id="三角形备份" node-id="42" stroke="none" target-height="45" target-width="40" target-x="644" target-y="396"></path><path d="M 369.00 396.00 L 389.00 441.00 L 349.00 441.00 Z" fill="#ffcaca" fill-rule="evenodd" group-id="1,3,4" id="三角形备份-2" node-id="43" stroke="none" target-height="45" target-width="40" target-x="349" target-y="396"></path></g></g></g></svg>