<svg xml:space="preserve" style="enable-background:new 0 0 1024 1024;" viewBox="0 0 1024 1024" y="0px" x="0px" xmlns:xlink="http://www.w3.org/1999/xlink" xmlns="http://www.w3.org/2000/svg" id="图层_1" version="1.1">
<style type="text/css">
	.st0{fill:#FDFDFD;}
	.st1{fill:#ECAB44;}
	.st2{fill:#472712;}
	.st3{fill:#FCF6E6;}
</style>
<polygon points="541.67,433.11 488.73,433.11 488.73,485.87 435.7,485.87 435.7,538.11 382.89,538.11 382.89,591.05 
	118.82,591.05 118.82,643.86 171.63,643.86 171.63,696.68 224.45,696.68 224.45,749.74 276.86,749.74 276.86,802.55 382.49,802.55 
	382.49,855.37 646.57,855.37 646.57,802.55 752.2,802.55 752.2,749.74 805.01,749.74 805.01,696.8 857.83,696.8 857.83,643.63 
	910.64,643.63 910.64,590.81 645,590.81 645,538.11 593.75,538.11 593.75,485.3 540.95,485.3" class="st0"></polygon>
<polygon points="541.67,433.11 488.73,433.11 488.73,485.87 435.7,485.87 435.7,538.11 382.89,538.11 382.89,591.05 
	118.82,591.05 118.82,379.82 171.63,379.82 171.63,327 118.82,327 118.82,168.56 277.26,168.56 277.26,221.34 330.07,221.34 
	330.07,247.74 382.89,247.74 382.89,194.97 646.58,194.97 646.58,247.74 699.4,247.74 699.4,221.38 752.21,221.38 752.21,168.56 
	910.65,168.56 910.65,327 857.83,327 857.83,379.82 910.64,379.82 910.64,590.81 646.57,590.81 646.57,538.11 593.75,538.11 
	593.75,485.3 540.95,485.3" class="st1"></polygon>
<rect height="52.81" width="52.81" class="st2" y="115.75" x="118.81"></rect>
<rect height="52.81" width="52.81" class="st2" y="168.56" x="66"></rect>
<rect height="52.81" width="52.81" class="st2" y="221.37" x="66"></rect>
<rect height="52.81" width="52.81" class="st2" y="274.19" x="66"></rect>
<rect height="52.81" width="52.81" class="st2" y="168.56" x="910.65"></rect>
<rect height="52.81" width="52.81" class="st2" y="221.37" x="910.65"></rect>
<rect height="52.81" width="52.81" class="st2" y="274.19" x="910.65"></rect>
<rect height="52.81" width="52.81" class="st2" y="327" x="118.82"></rect>
<rect height="52.81" width="52.81" class="st2" y="327" x="857.84"></rect>
<rect height="52.81" width="52.81" class="st2" y="379.82" x="66"></rect>
<rect height="52.81" width="52.81" class="st2" y="432.63" x="66"></rect>
<rect height="52.81" width="52.81" class="st2" y="485.3" x="66"></rect>
<rect height="52.81" width="52.81" class="st2" y="538.11" x="66"></rect>
<rect height="52.81" width="52.81" class="st2" y="379.82" x="910.64"></rect>
<rect height="52.81" width="52.81" class="st2" y="432.63" x="910.64"></rect>
<rect height="52.81" width="52.81" class="st2" y="485.3" x="910.64"></rect>
<rect height="52.81" width="52.81" class="st2" y="538.11" x="910.64"></rect>
<rect height="52.81" width="52.81" class="st2" y="591.05" x="66"></rect>
<rect height="52.81" width="52.81" class="st2" y="643.86" x="66"></rect>
<rect height="52.81" width="52.81" class="st2" y="696.68" x="119.01"></rect>
<rect height="52.81" width="52.81" class="st2" y="749.74" x="119.01"></rect>
<rect height="52.81" width="52.81" class="st2" y="749.74" x="171.43"></rect>
<rect height="52.81" width="52.81" class="st2" y="802.55" x="224.25"></rect>
<rect height="52.81" width="52.81" class="st2" y="802.55" x="277.06"></rect>
<rect height="52.81" width="52.81" class="st2" y="855.37" x="382.49"></rect>
<rect height="52.81" width="52.81" class="st2" y="855.37" x="329.68"></rect>
<rect height="52.81" width="52.81" class="st2" y="855.37" x="435.31"></rect>
<rect height="52.81" width="52.81" class="st2" y="855.37" x="488.12"></rect>
<rect height="52.81" width="52.81" class="st2" y="855.37" x="540.94"></rect>
<rect height="52.81" width="52.81" class="st2" y="855.37" x="593.75"></rect>
<rect height="52.81" width="52.81" class="st2" y="855.37" x="646.57"></rect>
<rect height="52.81" width="52.81" class="st2" y="802.55" x="699.38"></rect>
<rect height="52.81" width="52.81" class="st2" y="802.55" x="752.2"></rect>
<rect height="52.81" width="52.81" class="st2" y="749.26" x="805.03"></rect>
<rect height="52.81" width="52.81" class="st2" y="749.26" x="857.84"></rect>
<rect height="52.81" width="52.81" class="st2" y="696.44" x="857.84"></rect>
<rect height="52.81" width="52.81" class="st2" y="643.63" x="910.64"></rect>
<rect height="52.81" width="52.81" class="st2" y="590.81" x="910.64"></rect>
<rect height="52.81" width="52.81" class="st2" y="115.75" x="171.63"></rect>
<rect height="52.81" width="52.81" class="st2" y="115.75" x="224.44"></rect>
<rect height="52.81" width="52.81" class="st2" y="168.56" x="277.26"></rect>
<rect height="52.81" width="52.81" class="st3" y="221.34" x="224.45"></rect>
<rect height="52.81" width="52.81" class="st3" y="221.34" x="171.63"></rect>
<rect height="52.81" width="52.81" class="st3" y="274.19" x="171.63"></rect>
<rect height="52.81" width="52.81" class="st3" transform="matrix(-1 -4.489399e-11 4.489399e-11 -1 1557.2095 495.4891)" y="221.34" x="752.2"></rect>
<rect height="52.81" width="52.81" class="st3" transform="matrix(-1 -4.489399e-11 4.489399e-11 -1 1662.8413 495.4891)" y="221.34" x="805.01"></rect>
<rect height="52.81" width="52.81" class="st3" transform="matrix(-1 -4.489399e-11 4.489399e-11 -1 1662.8413 601.1928)" y="274.19" x="805.01"></rect>
<rect height="52.81" width="52.81" class="st2" y="194.93" x="330.07"></rect>
<rect height="52.81" width="52.81" class="st0" y="432.63" x="330.07"></rect>
<rect height="52.81" width="52.81" class="st2" y="485.3" x="330.07"></rect>
<rect height="52.81" width="52.81" class="st2" y="485.3" x="382.89"></rect>
<rect height="52.81" width="52.81" class="st2" y="432.63" x="382.89"></rect>
<rect height="52.81" width="52.81" class="st0" y="432.63" x="593.75"></rect>
<rect height="52.81" width="52.81" class="st2" y="485.3" x="593.75"></rect>
<rect height="52.81" width="52.81" class="st2" y="590.75" x="461.73"></rect>
<rect height="52.81" width="52.81" class="st2" y="590.75" x="514.54"></rect>
<rect height="52.81" width="52.81" class="st2" y="643.69" x="488.14"></rect>
<rect height="52.81" width="52.81" class="st2" y="696.5" x="435.32"></rect>
<rect height="52.81" width="52.81" class="st2" y="696.5" x="540.95"></rect>
<rect height="52.81" width="52.81" class="st2" y="643.69" x="593.75"></rect>
<rect height="52.81" width="52.81" class="st2" y="643.69" x="382.89"></rect>
<rect height="52.81" width="52.81" class="st2" y="485.3" x="646.57"></rect>
<rect height="52.81" width="52.81" class="st2" y="432.63" x="646.57"></rect>
<rect height="52.81" width="52.81" class="st2" y="142.15" x="382.89"></rect>
<rect height="52.81" width="52.81" class="st2" y="142.15" x="435.32"></rect>
<rect height="52.81" width="52.81" class="st2" y="142.15" x="488.14"></rect>
<rect height="52.81" width="52.81" class="st2" y="142.15" x="540.95"></rect>
<rect height="52.81" width="52.81" class="st2" y="142.15" x="593.77"></rect>
<rect height="52.81" width="52.81" class="st2" y="194.93" x="646.58"></rect>
<rect height="52.81" width="52.81" class="st2" y="168.56" x="699.4"></rect>
<rect height="52.81" width="52.81" class="st2" y="115.75" x="752.21"></rect>
<rect height="52.81" width="52.81" class="st2" y="115.75" x="805.03"></rect>
<rect height="52.81" width="52.81" class="st2" y="115.75" x="857.84"></rect>
</svg>
