<svg xml:space="preserve" style="enable-background:new 0 0 1024 1024;" viewBox="0 0 1024 1024" y="0px" x="0px" xmlns:xlink="http://www.w3.org/1999/xlink" xmlns="http://www.w3.org/2000/svg" id="图层_1" version="1.1">
<style type="text/css">
	.st0{fill:#FFB15C;}
	.st1{fill:#FFD9BF;}
	.st2{fill:#FFA490;}
	.st3{fill:#DF615D;}
	.st4{fill:#E54A3E;}
	.st5{fill:#CBDA66;}
	.st6{fill:#F4C5A9;}
	.st7{fill:#CE6E83;}
	.st8{fill:#FFECD2;}
	.st9{fill:#EA372A;}
	.st10{fill:#C33935;}
	.st11{fill:#B14F59;}
	.st12{fill:#469DA7;}
	.st13{fill:#FFC156;}
	.st14{fill:#FEAC9F;}
	.st15{fill:#FBB2B1;}
	.st16{fill:#DA919E;}
	.st17{fill:#F46E66;}
	.st18{fill:#E37A7B;}
	.st19{fill:#FF8044;}
	.st20{fill:#439580;}
	.st21{fill:#677099;}
	.st22{fill:#2C0707;}
	.st23{fill:#4D1610;}
	.st24{fill:#F88B79;}
	.st25{fill:#A9B77C;}
	.st26{fill:#7A2433;}
	.st27{fill:#A7343F;}
	.st28{fill:#FB381A;}
	.st29{fill:#E2917E;}
	.st30{fill:#F6F7F9;}
	.st31{fill:#958A9C;}
	.st32{fill:#BAA4AB;}
	.st33{fill:#CF4847;}
	.st34{fill:#E0E9A6;}
	.st35{fill:#FED6C6;}
	.st36{fill:#F0D1CD;}
</style>
<title>9</title>
<g>
	<path d="M215.3,291.8c1.8,0.4,3.6,0.9,5.4,1.1c8.3,1.1,10.1,13.9,9.8,20.3c-0.2,6.5-5.8,9.6-10.5,12.7
		c-1.3,1.1-2.2,2.7-2.2,4.5c0.2,5.8,1.1,13.4-1.8,18.3c-3.4,5.6-8.9,7.6-16.5,5.8c-8.7-2-8.5-13.2-9.8-20.1
		c-0.2-0.7-0.4-1.3-1.1-1.6c-2.9-1.1-5.6-2.7-8.3-4.2c-4.9-3.8-8-9.2-8.7-15.4c-1.1-8.7,2.2-11.4,6.7-16.8c4.2-4.7,3.8-8.3,3.8-14.1
		c0-6.9,8.5-10.1,14.1-10.9c14.7-2.5,15,8.3,17.9,18.5C213.9,291.1,214.6,291.6,215.3,291.8z M202.1,329.1l7.8-9.8
		c1.3-1.8,1.1-4.5-0.7-5.8l-4.7-3.8c-4-3.1-9.2-3.1-11.4,0l-4.2,5.4c-2.5,3.1-1.1,8,2.7,11.2l4.7,3.8
		C198.1,331.4,200.7,330.9,202.1,329.1z" class="st0"></path>
	<path d="M202.1,329.1c-1.3,1.8-4,2-5.8,0.7l-4.7-3.8c-4-3.1-5.1-8-2.7-11.2l4.2-5.4c2.5-3.1,7.6-3.1,11.4,0l4.7,3.8
		c1.8,1.3,2,4,0.7,5.8L202.1,329.1z" class="st1"></path>
	<path d="M382.2,313c-0.9,0.2-1.1,1.3-0.9,2c0.2,0.7,0.7,1.1,1.1,1.6c12.3,10.7,22.8,23.5,30.4,38
		c1.1,2,0.9,3.1-0.7,3.4l-8.9-1.3c-4-0.9-7.8-2.7-10.7-5.6c-6.3-6.7-13.4-12.5-21-17.6c-1.1-0.9-2.7-1.1-4-0.7
		c-3.1,0.9-6,2.5-8.5,4.9c-4.9,4.9-10.1,9.4-15.6,13.4c-3.1,2.5-6,5.4-8.7,8.5c-2.5,3.4-5.4,6.3-8.3,8.9c-4.2,3.4-8,7.1-11.6,11.4
		c-0.9,0.9-1.6,2-2.2,3.4c-0.4,4.5,0.7,4.9,3.1,1.1c3.4-5.1,7.4-9.8,11.8-14.1c0.7-0.7,1.6-0.9,2.2-0.7c0.7,0,1.1,0.7,1.1,1.1v0.2
		c-0.9,7.6,10.7,22.1,15.6,27.3c1.3,1.3,1.8,1.1,1.8-0.7c-0.4-8-4.2-13.2-6.9-20.6c-1.3-3.6-1.3-7.4-0.2-10.9
		c4.2-13.2,12.1-20.3,23-27.3c1.8-1.3,4.2-1.6,6.3-0.7c8.3,4.2,15,11.2,19,19.4c1.1,2.5,1.1,5.1,0,7.6c-2.9,9.6-6,19-9.6,28.8
		c-0.2,0.4,0,0.9,0.4,1.1c0,0,0.2,0,0.4,0c0.9,0,1.8-0.7,2.2-1.3c5.8-8.7,10.5-17.9,14.3-27.7c0.4-1.8,0.7-3.6,0.7-5.4
		c0-0.7,0.4-1.3,0.9-2c1.1-1.1,2.9-1.6,4.5-1.1c9.2,4.9,17.6,10.7,25.5,17.6c1.3,1.1,2.2,0.9,2.9-0.7c0-0.9-0.2-2-0.7-2.7
		c1.1-1.8,3.1-2.9,5.1-3.1c1.6-0.2,3.1-0.2,4.7,0.2c16.1,3.8,31.1,11.2,43.8,21.7c1.3,0.9,3.1,0.7,4-0.4c0.7-0.4,1.1-0.9,1.8-1.3
		l0.7,1.3c0.4,0.9,0.9,1.1,1.6,0.4c14.5-13.6,31.1-24.8,49.4-33.1c1.6-0.4,3.4-0.4,4.7,0.2c0.7,0.2,1.3,0,1.8-0.7
		c0.7-1.3,0.9-2.7,0.9-4c0.2,2,1.3,3.8,3.1,4.5c4.7,2.7,9.8,4.7,15,6.3c3.8,1.1,8.3,0,13.6-3.1c2.9,2.2,4.9,5.4,6,8.7
		c1.8,15.9,2.9,31.7,3.4,47.4c0.2,2.9-0.7,5.8-2.2,8.3c-5.4,7.1-10.7,14.3-16.1,21.4l-8.3,10.3c-1.1,1.3-1.1,3.1,0.2,4.5
		c5.6,6,10.3,12.7,14.3,19.9c0.4,0.7,0.7,1.6,0.4,2.5c-0.2,5.6-1.3,11.2-3.1,16.5c-4.2,10.3-9.2,20.1-15,29.5
		c-1.3,2.2-0.7,2.9,1.8,2.2c1.8-0.7,3.4-2,4.2-3.8c4-7.1,8.3-15,12.7-23.5c0.2-0.7,1.1-1.1,1.8-1.1c4.9,0.4,11.8,1.6,13.4,6.9
		c0.2,0.7,0.7,1.1,1.3,1.6c1.6,0.4,2.5,2,2.5,3.6c-3.8,2.9-6.7,6.9-8.5,11.4l-12.7,1.8c-1.1,0.2-2.2,1.1-2,2.5l0,0
		c0.4,6.7,1.8,13.2,4,19.7c0.2,0.7,0.7,1.3,1.3,1.6c2.2,1.6,4.9,2.9,7.4,4c4.7,1.1,9.6-0.9,12.3-4.9c4.5-7.6-1.6-14.7-7.1-19.4
		c-0.7-0.7-0.9-1.6-0.4-2.5c0.2-0.4,0.7-0.7,1.1-0.9c7.1,4.9,17.9,7.8,15.4,19.4c-3.4,16.8-12.3,31.9-25,43.1
		c-0.4,0.4-0.9,0.9-0.9,1.6c0.2,0.4,0.4,0.7,0.9,0.2c2.9-3.4,5.6-5.1,7.8-5.4c9.2-0.7,13.4-4.9,20.1-9.4c2-1.3,3.6-3.1,4.5-5.4
		c0.4-0.7,0.4-1.3,0-2c-1.3-2.9-3.8-4.9-6.9-5.6c-0.9-0.2-1.6-1.3-1.3-2.2v-0.2l4.2-10.3c6.5-1.1,15-0.2,15.2-9.6
		c0.7-13.9,0-27.9-1.8-41.8c-1.6-9.4-7.6-17.2-18.5-23.5c0.4-2.5-0.4-4.9-2.5-6.5c-10.9-7.4-23.2-12.7-36-16.1
		c1.1-2.9,2.9-5.4,5.1-7.4c0.4-1.1,1.1-1.8,2-2.5c0.4-0.2,1.1-0.2,1.6,0c9.8,3.4,19,8,27.5,13.6c11.2,7.8,23,12.7,35.5,17.4
		c0.9,0.4,2,0,2.2-1.1c0.2-0.4,0.2-0.9,0-1.1c-0.4-1.3-0.9-2.5-1.8-3.6c1.3-1.6,1.1-3.6-0.4-6c-2.7-4.2-1.8-5.6,2.9-3.6
		c1.6,0.7,2.7,1.8,3.4,3.1c0.4,0.7,0.7,1.6,0.4,2.2c-0.2,3.1,0.7,5.4,2.9,6.3c3.8,10.1,9.2,19.2,16.3,27c6.9,7.8,18.3,15,25.9,21.9
		c8.5,7.8,19.2,18.1,32.2,31.3c15.2,15.6,31.9,25.2,54.1,23.9c7.4-0.4,13.2-4,18.8-8.3c1.3-1.1,1.6-2.9,0.4-4.2
		c-0.2-0.2-0.4-0.4-0.7-0.7l-12.3-7.8c7.1-8.3,13.6-17.4,19-27c1.3-1.8,3.1-3.1,5.1-4c0.7-0.4,1.6-0.2,2,0.2l2.7,2.7
		c-1.8-0.4-2.7-0.2-2.7,0.4c0.7,8.5-0.2,17-2.7,25.2c-1.1,2.9-2.9,5.4-5.4,6.9c-0.4,0.4-0.9,1.1-1.1,1.8c-1.8,9.2,0.7,18.5,6.9,25.5
		c0.7,0.9,1.1,1.8,0.9,2.9c-0.9,6.9-3.6,11.8-8,14.5c-0.7,0.4-1.3,1.1-1.6,2c-1.3,3.1-2.9,6.5-4.5,9.8c-1.3,2.5-2.9,4.5-5.1,6.3
		c-4.9,4.2-8,8.3-14.3,11.6c-2.9,1.6-4.9,1.3-6.7-0.7c-0.4-0.4-1.1-0.9-1.8-1.1c-2.2-0.9-4.5-1.6-6.9-2c-7.1-0.7-13.9-2.9-20.1-6.5
		c-7.4-4.5-15.4-7.8-23.9-10.1c-31.1-8-60.3-2.7-89.1,9.8c-0.9,0.4-2,0-2.2-0.9c0-0.2,0-0.2-0.2-0.4l-2.2-13.4
		c0-0.2-0.2-0.4-0.7-0.4l0,0c-0.2,0-0.4,0-0.7,0.2c-0.2,0.2-0.4,0.4-0.2,0.7c-0.2,4.9-0.2,9.8,0.2,14.7c0,0.9-0.2,2-1.1,2.7
		c-4,3.6-8.3,6.9-13,9.4c-4.9,2.7-9.6,5.6-14.1,8.7c-8,5.4-16.5,10.1-25,14.1c-1.3,0.7-2.2,0.2-2.5-1.1l-4.9-19
		c-0.2-0.4-0.7-0.9-1.1-0.9h-0.7c-0.2,0-0.4,0.2-0.4,0.4c0,0,0,0,0,0.2c2.7,12.3,4,25,3.8,37.5c0,7.6-1.8,15.2-5.4,21.9
		c-3.1,2.7-5.8,5.4-8.3,8c-1.6,1.6-4.7,2.7-9.2,3.4c-3.1,0.4-6.3,1.1-9.2,2.2c-7.1,2.7-14.3,5.4-21.2,7.8
		c-13.9,4.9-27.9,9.2-42.2,12.5c-4.2-2-7.1-6.9-8.9-14.3c7.6-8,14.3-17.2,19.9-26.8c11.6-13.9,20.8-29.7,26.8-46.7
		c3.4-8.3,3.8-17.2,1.3-25.7c-4.2-13-12.3-21.4-23.9-25.5c-4.7-1.6-12.5-1.8-23.9-0.9c-54.7,4.9-109.2,7.6-164,8
		c1.3-2,3.8-3.1,6.3-2.5c1.1,0.2,2.5-0.4,3.1-1.3c0.7-0.9,0.4-1.3-0.7-1.3h-1.6c-0.7,0-1.3-0.2-1.8-0.7c-2-1.8-3.6-4-4.5-6.7
		c-0.7-2.5-1.8-4.9-2.9-7.1c-2.7-5.4-5.6-10.7-8.5-15.9c-0.9-1.6-1.8-2.9-2.9-4.2c-1.1-1.3-2.2-2.7-3.4-4c-0.7-1.1-2-1.3-3.1-0.4
		c-0.2,0.2-0.4,0.2-0.4,0.4c-1.8,2.5-4,4.5-6.9,5.8c3.8-3.4,6.9-6.9,9.8-10.9c3.1-6,2-12.7-3.6-20.6c11.6-5.8,25.2-13,33.3-22.8
		c1.1-1.6,1.1-3.6,0-4.9c-1.6-2-3.8-3.6-6.5-4.2c-9.8-3.1-37.1-12.1-44-8.7c0.4-2.2,0.9-4.5,1.1-6.7c0.2-2.2,0.7-4.5,1.3-6.7
		c1.3-4,3.1-8,5.4-11.8c2.5-3.6,4.5-7.4,6-11.4c2.2-5.1,4-8.9,5.4-11.6c2.7-5.1,4.9-10.5,7.1-15.9c0.7-1.8-0.2-3.6,0.7-5.6
		c2.2-4.9,4.7-9.6,7.6-14.3c0.4-0.7,0.7-1.3,0.9-2c0.4-1.8,1.1-3.8,1.8-5.6c2.5-6.5,0.4-10.5-6-11.4c5.4-6,12.1-10.3,19.7-12.7
		c0.7-0.2,1.3-0.7,1.6-1.3l2-3.8c0,0.2,0,0.4,0,0.7c-0.2,1.1,0.4,2,1.6,2.2c0.4,0,0.9,0,1.3-0.2l9.6-5.1c0.7-0.2,0.9-0.9,0.9-1.6
		c0-1.1-0.2-2.2-1.1-2.9l-0.7-0.4c-1.6-1.1-2.7-2.5-3.4-4c0.7-1.3,1.3-2.5,2.2-3.4c11.8-15,25.9-27.9,41.8-38.4
		C369.2,312.1,375.5,305.9,382.2,313z M360.9,348.8c-4.2,4.5-6.3,11.6-7.4,17.6c-0.2,0.7,0,1.6,0.2,2c2,4,6.7,5.6,10.7,3.6
		c0.2-0.2,0.4-0.2,0.7-0.4c4.5-2.7,7.6-7.1,8.7-12.3C375.5,353.7,367.9,341,360.9,348.8L360.9,348.8z M539.7,362.4
		c-0.7,0.7-1.1,2-0.7,2.9c0.4,1.6,0.9,3.1,0.9,4.7c0.7,5.4,2.7,10.5,5.8,15c6,8.3,29,9.4,26.6-6.9c-1.6-9.8-13.4-15.9-22.3-18.3
		C546.4,358.4,542.1,359.3,539.7,362.4L539.7,362.4z M428.2,383.2l-20.3,28.4c-0.2,0.2-0.2,0.4,0,0.7h0.2c0.7,0,1.6,0,2-0.7
		c4.7-3.6,8.9-8,12.1-13.2c2.9-5.1,6-10.3,9.2-16.1c0.2-0.2,0-0.7-0.2-0.9c-0.2,0-0.2,0-0.4,0l-0.7,0.2
		C429.3,382.1,428.6,382.5,428.2,383.2L428.2,383.2z M321.6,411.8c-0.9,8.5,12.5,14.3,19.2,16.5c0.4,0.2,1.1,0,1.3-0.4l0.2-0.7V427
		c-4.5-2.9-8.9-5.8-13.6-8.5c-2.9-1.8-4-4.5-5.4-7.1C322.3,409.8,321.8,409.8,321.6,411.8z M481.6,512.1c1.1-0.2,2.5,0,3.6,0.4
		c0.7,0.2,0.9,0.9,0.7,1.6l0,0c-0.4,1.1-1.1,2.2-2,3.1c-0.7,0.4-0.9,1.1-1.1,2c-1.3,9.8,3.4,17,12.5,20.6
		c11.6,4.7,22.6,2.7,33.1-6.3c8.7-6.7,11.4-19,6.3-28.8c-2.2-4.7-5.6-8.7-9.8-11.6c-0.2-0.2-0.7,0-1.1,0.2c0-6.9-3.1-13.2-8.7-17.2
		c-0.4-0.2-0.9-0.2-1.1,0.2c0,0.2-0.2,0.2-0.2,0.4c0.2,6.9,2.2,13.9,6,19.7c3.6,0,5.6,1.3,5.4,4.2c0,0.7,0.2,1.3,0.4,2
		c4.5,6.3,7.4,10.3,4.2,18.3c-4.7,12.1-14.1,17.4-28.1,16.1c-12.1-1.1-16.8-10.7-12.1-21.7c2.7-6.7,8.5-11.6,15.6-13.2
		c0.4-0.2,1.1-0.4,1.3-0.7c0.4-0.4,0.9-0.7,1.6-0.9c0.9-0.4,1.6-0.4,2,0c0.4,0.4,0.7,0.9,0,1.3c-0.2,0.2-0.4,0.4-0.7,0.7
		c-2,2.7-1.1,3.6,2,3.1c2.2-0.4,4-2,4.9-4c0.4-0.7,0.4-1.3,0-2c-0.9-1.8-2.2-3.4-4-4.2c-0.7-0.4-1.3-0.4-2-0.2
		c-7.4,1.6-11.2,5.6-16.8,9.4c-2,1.3-4.5,2.2-6.9,2.2s-4.9,0-7.6-0.2l-26.4-9.8c-0.7-0.2-0.9-0.9-0.7-1.6c0-0.2,0.2-0.4,0.4-0.7
		l30.6-17.9c0.7-0.4,1.3-0.9,1.6-1.8c1.1-2.5,1.1-3.8-0.2-4.5c-2-1.1-4.5-1.3-6.7-0.4c-14.1,6-31.5,14.3-38,24.6
		c-0.4,0.7-0.4,1.3-0.4,2c0.7,2.9,3.1,5.4,7.6,6.9C458.6,507.9,470,510.8,481.6,512.1L481.6,512.1z M633.7,515.4
		c0.2,0.9,0.7,1.8,1.3,2.2l4.5,2.9c1.6,0.9,3.6,0.4,4.5-1.1c0.4-0.9,0.7-2,0.2-2.9l-2.7-6.3c-0.7-1.6-2.7-2.2-4.2-1.6l-2.2,0.9
		c-1.3,0.7-2.2,2-1.8,3.6L633.7,515.4z M362.3,510.1c0-0.7-2-1.1-4.5-0.9c-2.5,0.2-4.2,0.7-4.2,1.3c0,0.7,2,1.1,4.5,0.9
		C360.5,511.2,362.3,510.8,362.3,510.1L362.3,510.1z M672.1,525.5c2.9-0.4,5.1-3.1,4.7-6c-0.2-0.9-0.4-1.8-1.1-2.7l-3.1-4.2
		c-1.3-1.8-3.6-2.5-5.6-2l-2.7,0.7c-2.2,0.4-4,2.5-4.2,4.9l-0.4,4.5c-0.2,3.1,2,5.8,4.9,6c0.4,0,0.9,0,1.1,0L672.1,525.5z
		 M440.7,536.9c0-0.4,0-0.7,0-1.1c0-0.9-0.9-1.6-1.8-1.6c-0.2,0-0.4,0-0.4,0.2c-4.5,1.6-8.5,4-11.8,7.1c-0.4,0.4-0.7,1.1-0.7,1.8
		c0,0.7,0.7,1.1,1.1,0.9h0.2l10.3-4.2C439.3,539.6,440.2,538.5,440.7,536.9z M562.5,557.9c5.8,1.6,11.6-2,13.2-7.8
		c1.6-5.8-2-11.6-7.8-13.2c-5.8-1.6-11.6,2-13.2,7.8c0,0.2,0,0.4-0.2,0.7C553.3,551,556.9,556.6,562.5,557.9L562.5,557.9z
		 M422.6,548.3c-3.8,3.4-7.4,4-11.6,1.1c-0.4-0.4-0.9-0.9-1.1-1.6c-0.2-0.7-0.2-1.3-0.2-2s-0.4-1.3-1.1-1.3l0,0
		c-2.5-0.4-4.9-0.7-7.6-0.4c-13.2,0-26.1,1.8-38.9,5.1c-5.4,1.6-10.9,2.5-16.3,3.1c-5.6,0.2-11.2,0-16.8-0.7
		c-4.9-0.7-7.6-4.2-12.3-4.5c-0.7,0-1.1,0-1.6,0.4c-0.4,0.4-0.7,0.9-0.7,1.6c0,0.7,0.4,1.3,0.9,1.8c2.2,1.6,4.9,2.7,7.6,2.9
		c2.9,0.2,9.4,0.9,19.7,2c3.6,0.4,6.9,0,10.3-0.9c13-4,26.6-6.7,40-7.8c7.6-1.1,15.4,0.9,21.7,5.1c0.7,0.4,1.6,0.7,2.5,0.4
		c2.7-0.4,5.1-1.8,6.7-4C425.3,546.5,425.1,546.1,422.6,548.3L422.6,548.3z M744.8,586c1.3,0.4,2.7,0,3.6-1.1l2.2-2.5
		c1.1-1.3,1.1-3.6-0.4-4.9c-0.2-0.2-0.4-0.4-0.9-0.4l-4-1.8c-1.6-0.7-3.4,0-4.2,1.3l-1.8,3.1c-0.9,1.6-0.4,3.8,1.1,4.7
		c0.2,0.2,0.4,0.2,0.9,0.4L744.8,586z M794.8,586.7c0.4-0.4-0.4-2.9-2.2-5.4c-1.8-2.7-3.6-4.5-4.2-4.2s0.4,2.7,2.2,5.4
		S794.1,586.9,794.8,586.7L794.8,586.7z M764.4,583.4c-2.5-1.1-5.4,0-6.5,2.5c-0.4,0.9-0.4,1.8-0.2,2.9l0.9,4.7
		c0.2,1.3,1.1,2.5,2.2,3.1l2.7,1.8c2.2,1.6,5.1,0.9,6.7-1.3c0.2-0.2,0.2-0.4,0.4-0.9l1.6-4c0.9-2.5-0.2-5.1-2.5-6.3L764.4,583.4z" class="st2"></path>
	<path d="M382.2,313c9.6,7.8,17.6,17,24.4,27.3c3.8,6.3,8,12.5,12.7,18.3l-7.1-0.7c1.6-0.2,1.8-1.3,0.7-3.4
		c-7.8-14.5-18.1-27.3-30.4-38c-0.4-0.4-0.9-0.9-1.1-1.6C381,314.4,381.5,313.3,382.2,313L382.2,313z" class="st3"></path>
	<path d="M403.2,356.6c0.2,0.4,0.2,0.9,0,1.1c-1.6-0.4-3.4,0-4.5,1.1c-0.4,0.4-0.9,1.1-0.9,2c0,1.8-0.2,3.6-0.7,5.4
		c-3.8,9.6-8.5,19-14.3,27.7c-0.4,0.9-1.3,1.3-2.2,1.3c-0.4,0-0.9-0.4-0.9-0.9c0-0.2,0-0.2,0-0.4c3.6-9.6,6.7-19.2,9.6-28.8
		c1.1-2.5,1.1-5.1,0-7.6c-4-8.5-10.7-15.2-19-19.4c-2-0.9-4.5-0.7-6.3,0.7c-10.9,7.1-18.8,14.3-23,27.3c-1.1,3.6-1.1,7.4,0.2,10.9
		c2.9,7.4,6.7,12.5,6.9,20.6c0,1.8-0.4,2-1.8,0.7c-4.7-5.1-16.5-19.7-15.6-27.3c0.2-0.7-0.2-1.1-0.9-1.3h-0.2
		c-0.9-0.2-1.8,0-2.2,0.7c-4.5,4.2-8.5,8.9-11.8,14.1c-2.5,3.8-3.6,3.4-3.1-1.1c0.7-1.1,1.3-2.2,2.2-3.4c3.4-4.2,7.4-8,11.6-11.4
		c3.1-2.7,5.8-5.6,8.3-8.9c2.5-3.1,5.4-6,8.7-8.5c5.6-4,10.7-8.5,15.6-13.4c2.2-2.5,5.1-4,8.5-4.9c1.3-0.4,2.9-0.2,4,0.7
		c7.6,5.1,14.7,10.9,21,17.6C395.3,353.9,399.1,355.9,403.2,356.6z" class="st4"></path>
	
		<ellipse ry="6.7" rx="12.3" cy="349" cx="264.4" class="st5" transform="matrix(0.1045 -0.9945 0.9945 0.1045 -110.3081 575.4012)"></ellipse>
	<path d="M648.2,341.4c0.7-2.5,3.1-4,5.6-3.6l4.9,1.1c5.6,1.3,9.4,6.3,8.3,11.2l-0.2,1.3c-1.1,4.9-6.7,7.8-12.3,6.5
		l-4.9-1.1c-2.5-0.7-4-3.1-3.6-5.6L648.2,341.4z" class="st6"></path>
	<path d="M489.2,368.2l-39.3-9.8c-1.1-0.2-2.2,0.2-2.9,1.1c-1.8,2.9-4.5,2.9-8.3,0c8-3.4,15.6-7.1,22.8-11.6
		c3.8-2.7,8.9-2.7,12.5,0.2C478.4,351.7,483.6,358.4,489.2,368.2z" class="st7"></path>
	<path d="M353.6,366.2c1.1-6,3.1-13,7.4-17.6c7.1-7.8,14.5,4.9,13.2,10.5c-1.1,5.1-4.2,9.6-8.7,12.3
		c-3.8,2.5-8.7,1.3-10.9-2.5c-0.2-0.2-0.2-0.4-0.4-0.7C353.6,367.8,353.3,366.9,353.6,366.2z" class="st8"></path>
	<path d="M581.7,360.6c-5.4,3.1-10.1,4.2-13.6,3.1c-5.1-1.6-10.3-3.6-15-6.3c-1.8-0.7-3.1-2.5-3.1-4.5
		c6-3.4,11.4-4,15.9-2.5C571.6,352.8,577,356.4,581.7,360.6z" class="st9"></path>
	<path d="M403.2,356.6l8.9,1.3l7.1,0.7l9.4-0.7c0.9,0.7,1.3,1.3,0.9,2c-0.2,0.7-0.9,0.9-1.6,1.1l-5.1,1.8
		c-0.7,0.2-1.1,1.1-0.9,1.8c0,0.2,0.2,0.4,0.4,0.7l8.5,6.5c0.4,0.9,0.7,1.8,0.7,2.7c-0.7,1.6-1.6,1.8-2.9,0.7
		c-7.8-6.9-16.5-12.7-25.9-17.6C403.6,357.5,403.6,357.3,403.2,356.6z" class="st10"></path>
	<path d="M428.6,357.9c3.4-0.4,6.9,0.2,10.1,1.8c3.8,2.9,6.5,2.9,8.3,0c0.7-0.9,1.8-1.6,2.9-1.1l39.3,9.8
		c2.7,3.6,6,6.5,10.1,8.5c0.4,0.2,0.7,0.7,0.4,1.1c0,0.2-0.2,0.2-0.2,0.4l-8.7,10.5c-0.7,0.4-1.3,0.9-1.8,1.3
		c-0.9,1.3-2.9,1.6-4,0.4c-12.7-10.3-27.7-17.6-43.6-21.7c-1.6-0.4-3.1-0.4-4.7-0.2c-2,0.2-4,1.3-5.1,3.1l-8.5-6.5
		c-0.7-0.4-0.7-1.3-0.2-2c0.2-0.2,0.4-0.4,0.7-0.4l5.1-1.8c0.7-0.2,1.1-0.4,1.6-1.1C430,359.3,429.7,358.6,428.6,357.9z" class="st4"></path>
	<path d="M311.8,370l7.1-11.8c0.7,1.6,1.8,3.1,3.4,4l1.6,0.9c0.7,0.7,1.1,1.8,1.1,2.9c0,0.7-0.4,1.1-0.9,1.6l-9.6,5.1
		c-0.9,0.4-2,0.2-2.7-0.7c-0.2-0.4-0.2-0.9-0.2-1.3C311.8,370.5,311.8,370.2,311.8,370z" class="st11"></path>
	<path d="M539.7,362.2c2.7-2.9,6.7-4,10.3-2.7c8.9,2.7,20.8,8.5,22.3,18.3c2.7,16.5-20.3,15.2-26.6,6.9
		c-3.1-4.5-5.4-9.6-5.8-15c0-1.6-0.4-3.1-0.9-4.7C538.5,364.2,538.8,363.1,539.7,362.2z" class="st4"></path>
	<path d="M587.7,369.3c2,3.6,3.4,7.6,4,11.8c0.7,13.2,1.6,25.9,2.7,38.7c0,0.7,0.4,0.9,1.1,0.4c2.2-1.3,4.2-3.1,6-4.9
		c0.9-0.9,2.5-1.1,3.4-0.2c0.2,0.2,0.2,0.2,0.4,0.4c3.8,5.6,3.6,13-0.7,18.3c-1.3,2-0.9,4.7,1.1,6.3c0.2,0.2,0.4,0.4,0.9,0.4
		c3.4,1.6,7.1,2.2,10.9,2.2c2.5,0,4.7,1.1,6.3,3.1l18.1,25.5c0.9,1.1,1.3,2.2,1.8,3.6c0.2,0.9-0.2,2-1.1,2.2c-0.4,0.2-0.9,0.2-1.1,0
		c-12.5-4.7-24.4-9.6-35.5-17.4c-8.5-5.8-17.9-10.5-27.7-13.9c-0.4-0.2-1.1-0.2-1.6,0c-0.9,0.4-1.8,1.3-2,2.5
		c-0.7-0.4-1.3-0.9-1.8-1.8c5.4-7.1,10.7-14.3,16.1-21.4c1.8-2.5,2.5-5.4,2.2-8.3C590.4,401.1,589.3,385.2,587.7,369.3z" class="st12"></path>
	<path d="M751.9,416.9c0,9.6-7.1,19-17.6,15.2c-3.4-1.1-6.5-2-6.7-5.8c-0.2-3.8,0-6-3.1-8.5c-2.7-1.6-5.1-3.4-7.4-5.4
		c-5.1-5.8-5.1-11.4,0.4-17c2.2-2.2,4.2-2,6.9-2.7c0.9-0.2,1.6-0.9,1.8-1.8l2.9-9.2c0.4-1.1,1.1-2,2-2.7c4.2-2.7,9.6-3.4,14.3-1.6
		c5.8,1.8,6.7,11.8,8.3,17c0.2,1.1,1.1,1.8,2.2,2c13.2,2,10.9,19.7-2.7,19C752.6,415.1,751.9,416,751.9,416.9L751.9,416.9z
		 M734.9,419.2c0.4,1.3,1.8,2.2,3.1,1.8c0.4-0.2,0.9-0.4,1.3-0.9l5.6-6.3c0.7-0.9,0.9-2,0.2-3.1l-2.7-4.5c-0.7-1.1-2-1.6-3.1-1.1
		l-5.4,2c-1.3,0.4-1.8,1.8-1.6,3.1L734.9,419.2z" class="st13"></path>
	<path d="M428.4,383.2c0.4-0.7,1.1-1.1,1.8-1.3l0.7-0.2c0.2,0,0.7,0,0.7,0.4c0,0.2,0,0.2,0,0.4
		c-3.1,5.6-6,10.9-9.2,16.1c-3.1,5.1-7.1,9.6-12.1,13.2c-0.4,0.4-1.3,0.7-2,0.7c-0.2,0-0.4-0.2-0.4-0.4v-0.2L428.4,383.2z" class="st4"></path>
	<path d="M288.5,387.9c6.5,1.1,8.5,4.9,6,11.4c-0.7,1.8-1.3,3.6-1.8,5.6c-0.2,0.7-0.4,1.3-0.9,2
		c-2.9,4.5-5.6,9.4-7.6,14.3c-0.9,2,0,3.8-0.7,5.6c-2,5.4-4.5,10.7-7.1,15.9c-1.3,2.7-3.1,6.5-5.4,11.6c-1.6,4-3.8,7.8-6,11.4
		c-2.2,3.8-4,7.8-5.4,11.8c-0.7,2.2-1.1,4.5-1.3,6.7s-0.4,4.5-1.1,6.7l-2.2,2.2c-1.1,1.1-1.1,2.7,0,3.8c0.4,0.4,0.9,0.7,1.3,0.7
		c13.2,2.2,26.1,5.4,38.7,9.6c0.4,0.2,0.9,0.7,0.7,1.3c0,0.2-0.2,0.4-0.4,0.4l-18.1,13.2c-4.2,3.4-7.8,5.1-10.7,5.1
		c-4.5,0-8.7,0-13.2,0c-1.3-0.2-2.7,0.2-3.6,0.9c-0.9,1.1-1.1,2.7-0.7,4c0,0.7,0.4,1.3,1.1,1.6c0.7,0.4,1.3,0.2,2-0.2
		c0.7-0.7,1.6-0.9,2.5-0.9l15.2,1.6c0.7,0,1.3,0.4,1.6,1.1c3.8,6.7,4.2,12.5,0.9,17.4c-4.9,7.8-14.3,12.1-23.5,10.3
		c-9.4-1.1-22.1-4.9-21.9-16.5c0-3.1,0-6.5-0.2-9.6c0-1.8-1.1-3.6-2.9-4.2c-0.4-0.2-0.7-1.3-0.4-3.1c0.9-1.1,1.6-2.7,2-4
		c0-3.1-0.9-3.4-2.7-0.9c-1.8,2.5-3.1,4.9-4.9,8c-3.1,5.6-2.9,9.2,0.9,10.1c2.2,1.8,3.6,4,4.5,6.7c0.7,2.5,1.8,4.9,3.1,7.1
		c6.9,9.2,21,12.5,31.7,11.6c4-0.7,7.6-2.5,10.5-5.1c2.7-1.3,5.1-3.4,6.9-5.8c0.7-1.1,2-1.3,3.1-0.4c0.2,0.2,0.4,0.2,0.4,0.4
		c1.1,1.3,2.2,2.7,3.4,4c1.1,1.3,2.2,2.7,2.9,4.2c2.9,5.4,5.6,10.7,8.5,15.9c1.1,2.2,2.2,4.7,2.9,7.1c0.9,2.7,2.5,4.9,4.5,6.7
		c0.4,0.4,1.1,0.7,1.8,0.7h1.6c1.1,0,1.3,0.4,0.7,1.3c-0.7,0.9-1.8,1.6-3.1,1.3c-2.5-0.7-4.9,0.4-6.3,2.5c-2.9,0.2-5.8,0.7-8.9,0.7
		c-12.5,0.7-19.9,5.8-25.5,17.6c-4,7.8-7.1,15.9-9.8,24.4c-2.2,0-4.2,0-6.3,0c-2,0-4,0-6.3,0.2c-7.8,1.1-15.6,1.1-23.5-0.4
		c-7.8-6.9-14.5-6.3-20.3,2c-1.3,0.4-2.7,0.2-3.6-0.9c-0.4-0.2-0.4-0.9-0.2-1.3c0-0.2,0.2-0.2,0.4-0.2c3.4-2.5,5.6-5.8,6.3-9.8
		c0.7-3.8-0.9-6.7-4.7-8.7c-0.9-0.7-2.2-0.4-3.1,0c-0.4,0.2-0.9,0.2-1.1,0c0,0-0.2-0.2-0.2-0.4c-0.4-0.9-0.4-2,0-2.9
		c0.2-0.7,0.9-1.1,1.8-1.1c2,0,3.8-1.3,4.5-3.4c1.1-3.1,2.2-3.1,3.1,0.2c1.3,5.6,4.7,15.6,11.4,16.5c0.7,0.2,1.3-0.2,1.8-0.7
		c1.3-1.8,2.9-3.1,4.7-4c2.5-0.7,4-3.1,3.4-5.6c0-0.2-0.2-0.7-0.2-0.9c-3.6-10.9-9.6-14.7-18.5-10.9c-0.7,0.4-1.6,0.4-2-0.2
		c-0.2-0.2-0.2-0.4-0.2-0.9l-0.9-3.4c0-0.2-0.2-0.7-0.7-0.7c-0.7-0.2-1.1-0.9-1.3-1.3c-1.3-3.1-3.8-5.6-6.9-6.9l19.9-0.7
		c0.7,0,1.3-0.2,2-0.7c1.1-0.7,2.2-1.3,3.6-1.8c1.1-0.4,1.6-1.3,1.6-2.9l22.1,11.4h0.2V603c-5.1-3.4-10.3-6.9-15.4-10.3
		c-5.1-3.4-10.1-7.1-14.7-11.2c-9.2-8.3-14.1-19.7-15-34l16.5-29c0.4-0.7,0.9-1.1,1.6-1.6c2-1.1,3.6-2.9,4.2-5.1
		c5.1-13.2,10.3-26.4,15.6-39.8c4.9-13.4,10.9-26.1,17.9-38.4C259.3,416.5,272.9,401.1,288.5,387.9z M244.5,529.1l2-20.8
		c0-0.2-0.2-0.2-0.2-0.2l0,0c-3.4-0.2-6.5,4-7.1,9.6v1.1c-0.4,5.6,1.8,10.3,5.1,10.7l0,0C244.3,529.3,244.5,529.3,244.5,529.1
		L244.5,529.1L244.5,529.1z" class="st14"></path>
	<path d="M199.9,405.8c-4.9,3.1-9.4,7.1-12.7,11.8c-0.4,0.7-0.7,1.6-0.2,2.2c2.7,6.7,7.1,13,15.2,10.1
		c4-1.6,7.8-3.8,10.9-6.7c1.1-0.9,1.3-2.5,0.4-3.6c-1.8-2.9-2.9-6.5-3.4-10.1c3.4,0.9,6.5,2.7,9.4,4.7c0.7,0.4,1.3,0.7,2,0.7
		c5.4,0.2,14.3,6.9,18.1,10.3c0.7,0.7,1.3,0.9,2.2,0.9c2.2,0,4.2-0.4,6.3-1.3c1.8-0.7,2.2-0.2,1.3,1.3c-2.7,5.6-6,10.9-10.5,15.4
		c-12.7,19.4-22.6,40.9-28.6,63.4c-0.2,0.9,0.2,1.6,0.9,2c0.7,0.2,0.9,0.2,1.1-0.2l-4,8.5c1.3-4.5,0-7.6-3.8-9.2
		c-6.5-2.5-16.5-4.7-21-10.3c-4.5-5.6-11.4-14.3-19.9-25.7c-0.7-1.1-1.3-2-2-3.1c-1.1-2-2.2-2.7-3.4-2.2c2.5-8.7,4.7-17.6,6.3-26.6
		c0.2-0.9,0.9-1.6,1.6-1.8l0.2,2.2c0,0.7,0.4,1.3,1.1,1.8c7.1,4.2,14.7,0.2,18.5-6.5c0.4-0.7,0.4-1.3,0.2-2
		c-1.3-6.9-5.4-12.5-13.2-10.1c2.7-6,11.4-17.6,17.9-18.5C194.9,402.8,197.8,403.7,199.9,405.8z M201.2,460
		c18.1-7.1-2.5-29.5-10.9-21.4c-4.9,4.5-7.6,11.2-6.9,17.9C184,465.6,195.2,462.5,201.2,460L201.2,460z" class="st15"></path>
	<path d="M734.9,419.2l-2.5-8.5c-0.4-1.3,0.2-2.7,1.6-3.1l5.4-2c1.1-0.4,2.5,0,3.1,1.1l2.7,4.5c0.7,0.9,0.4,2.2-0.2,3.1
		l-5.6,6.3c-0.9,1.1-2.7,1.1-3.6,0.2C735.1,419.8,734.9,419.6,734.9,419.2z" class="st1"></path>
	<path d="M199.9,405.8l10.3,3.6c0.2,3.6,1.3,6.9,3.4,10.1c0.7,1.1,0.4,2.7-0.4,3.6c-3.1,2.9-6.9,5.1-10.9,6.7
		c-8,2.9-12.7-3.4-15.2-10.1c-0.4-0.7-0.2-1.6,0.2-2.2C190.5,412.9,194.9,408.9,199.9,405.8z" class="st16"></path>
	<path d="M340.8,428.5c-6.7-2.5-19.9-8-19.2-16.5c0.2-2,0.7-2,1.8-0.4c1.6,2.7,2.7,5.4,5.4,7.1
		c4.5,2.7,8.9,5.4,13.6,8.5v0.2l-0.2,0.7C341.7,428.3,341.3,428.5,340.8,428.5z" class="st17"></path>
	<path d="M166.8,436.4l7.1-14.7c7.6-2.2,11.6,3.1,13.2,10.1c0.2,0.7,0,1.6-0.2,2c-3.6,6.7-11.4,10.9-18.5,6.5
		c-0.7-0.4-1.1-1.1-1.1-1.8L166.8,436.4z" class="st7"></path>
	<path d="M820,430.6l7.4,4.2c2.5,1.3,3.4,4.5,2,6.9c0,0,0,0.2-0.2,0.2l-4.5,6.7c-0.4,0.7-0.7,1.3-0.7,2.2v3.1
		c0,0.7-0.4,1.3-1.1,1.3c0,0,0,0-0.2,0c-5.1,0.7-19.7,0.9-18.8-7.6c0.4-2.2,1.3-4.5,3.1-6c2.5-2.5,4.5-5.6,5.6-8.7
		c0.9-2.5,3.6-3.8,6-2.9C819.6,430.3,819.8,430.6,820,430.6z" class="st6"></path>
	<path d="M190.5,438.6c8.3-7.8,29,14.3,10.9,21.4c-6,2.5-17.2,5.6-17.9-3.6C182.6,449.8,185.3,443.1,190.5,438.6z" class="st7"></path>
	<path d="M239.2,441.5l-26.6,65.2c-0.2,0.4-0.7,0.4-1.1,0.2c-0.7-0.4-1.1-1.3-0.9-2
		C216.6,482.4,226.2,460.9,239.2,441.5z" class="st18"></path>
	<path d="M572.5,446.9c0.4,0.7,1.1,1.3,1.8,1.8c-2.2,2-4,4.5-5.1,7.4c-1.1,0.7-2,1.8-2.2,2.9c0,1.1,0.4,2.2,1.3,2.9
		c4.7,5.4,8.7,11.4,12.1,17.9c2,3.6,2.7,7.4,2.5,11.4c0,0.4,0.2,0.9,0.9,1.1c0.2,0,0.4,0,0.7-0.2l23.5-13.4
		c10.9,6.3,17,14.3,18.5,23.5c1.8,13.9,2.2,27.7,1.8,41.8c-0.2,9.4-8.7,8.5-15.2,9.6c1.3-7.1-0.9-14.5-5.8-19.9
		c-0.4-0.4-0.7-1.1-0.9-2c-0.2-6-2.7-11.6-7.1-15.6c0-1.6-0.9-2.9-2.5-3.6c-0.7-0.2-1.1-0.9-1.3-1.6c-1.6-5.4-8.5-6.7-13.4-6.9
		c-0.7,0-1.6,0.2-1.8,1.1c-4.5,8.3-8.7,16.1-12.7,23.5c-0.9,1.8-2.5,3.1-4.2,3.8c-2.5,0.7-3.1,0-1.8-2.2c5.6-9.4,10.7-19.2,15-29.5
		c1.8-5.4,2.9-10.9,3.1-16.5c0-0.9,0-1.8-0.4-2.5c-3.8-7.1-8.7-13.9-14.3-19.9c-1.1-1.3-1.3-3.1-0.2-4.5L572.5,446.9z" class="st19"></path>
	<path d="M569.2,455.8c12.7,3.4,25,8.7,36,16.1c2,1.6,2.9,4,2.5,6.5l-23.5,13.4c-0.4,0.2-1.1,0.2-1.3-0.2
		c0-0.2-0.2-0.4-0.2-0.7c0.4-4-0.4-7.8-2.5-11.4c-3.4-6.5-7.4-12.3-12.1-17.6c-0.9-0.7-1.3-1.8-1.3-2.9
		C567.1,457.4,568,456.2,569.2,455.8z" class="st13"></path>
	<path d="M705.9,503.6c10.7,3.6,11.4,13.2,14.7,21.9c1.6,4.2,4.9,7.8,9.4,9.2l8.9,9.8c0.4,0.4,1.3,0.7,1.8,0.2
		c0.2-0.2,0.2-0.4,0.4-0.7c0.4-2,2.5-3.4,4.7-2.9c0.2,0,0.2,0,0.4,0.2c1.6,0.4,2.9,1.6,4,2.9c4.9,5.4,9.6,10.7,14.3,16.3
		c0.2,0.4,0.9,0.4,1.3,0.2c0,0,0,0,0.2-0.2l8.3-10.9c0.7-0.9,2.2-1.1,3.1-0.4c0.2,0,0.2,0.2,0.4,0.4l3.4,4.9
		c0.4,0.7,1.1,1.1,1.8,1.3c0.9,0.2,2,0.4,2.9,0.4l12.3,7.8c1.3,0.9,1.8,2.9,0.9,4.2c-0.2,0.2-0.4,0.7-0.7,0.7
		c-5.6,4.2-11.6,7.8-18.8,8.3c-22.1,1.3-38.9-8.5-54.1-23.9c-12.7-13.2-23.5-23.7-32.2-31.3c-7.6-6.7-19-14.1-25.9-21.9
		c-7.1-7.8-12.5-17-16.3-27c12.7-3.4,24.8-7.8,36.6-13.9c0.7-0.4,1.6-0.4,2.2-0.2c7.6,2,7.4,10.5,5.1,16.8s-6.9,16.3-2.9,21
		c2.7,3.1,5.1,6.5,6.9,10.3c0.2,0.4,0.7,0.9,1.3,0.7c0,0,0.2,0,0.2-0.2C702.5,507,704.3,505.4,705.9,503.6z" class="st20"></path>
	
		<ellipse ry="6.7" rx="12.5" cy="473.8" cx="774.8" class="st5" transform="matrix(0.6833 -0.7302 0.7302 0.6833 -100.5801 715.8145)"></ellipse>
	<path d="M208.8,515.2l-22.6-3.4c-0.7,0-1.1-0.4-1.3-1.1c-2.2-6.3-3.1-12.7-6.9-18.3c-4.5-6.3-9.4-12.3-14.3-18.1
		c-2.2-2.7-3.8-6-4.5-9.6c1.1-0.4,2.2,0.2,3.4,2.2c0.4,1.1,1.1,2.2,2,3.1c8.5,11.2,15,19.9,19.9,25.7c4.5,5.6,14.5,7.6,21,10.3
		C208.8,507.6,210.1,510.8,208.8,515.2z" class="st21"></path>
	<path d="M479.8,506.5c1.6,0.7,2.7,2,3.6,3.6c0.2,0.7,0,0.9-0.7,1.1c-0.7,0.2-0.9,0.7-1.1,1.1
		c-11.4-1.3-22.8-4.2-33.5-8.3c-4.5-1.6-6.9-4-7.6-6.9c-0.2-0.7,0-1.6,0.4-2c6.5-10.3,23.7-18.8,38-24.6c2.2-0.9,4.7-0.7,6.7,0.4
		c1.3,0.7,1.3,2,0.2,4.5c-0.4,0.7-0.9,1.3-1.6,1.8l-30.6,17.9c-0.4,0.2-0.7,1.1-0.4,1.6c0.2,0.2,0.4,0.4,0.7,0.4L479.8,506.5z" class="st22"></path>
	<path d="M523.8,493.6c0,0.4,0,1.1,0,1.6c-0.2,0.7-0.9,1.1-1.6,1.3l-2,0.2c-3.8-5.8-5.8-12.7-6-19.7
		c0-0.4,0.4-0.9,0.9-0.9c0.2,0,0.2,0,0.4,0.2C520.7,480.4,524,486.6,523.8,493.6z" class="st23"></path>
	<path d="M274.7,531.5l-2-0.2c-2.5-0.2-2.9-1.3-0.9-2.9c2.2-1.8,4.2-4,5.8-6.5l18.1-13.2c0.4-0.4,0.7-0.9,0.2-1.6
		c-0.2-0.2-0.2-0.2-0.4-0.4c-12.5-4.2-25.5-7.6-38.7-9.6c-1.3-0.2-2.5-1.6-2-3.1c0-0.4,0.4-1.1,0.7-1.3l2.2-2.2
		c6.9-3.4,34.2,5.6,44,8.7c2.5,0.7,4.7,2.2,6.5,4.2c1.1,1.6,1.1,3.6,0,4.9C299.7,518.8,286.3,525.7,274.7,531.5z" class="st23"></path>
	<path d="M523.8,493.6c0.4-0.4,0.7-0.4,1.1-0.2c4.2,3.1,7.6,7.1,9.8,11.6c5.1,9.8,2.5,22.1-6.3,28.8
		c-10.3,8.7-21.2,10.7-33.1,6.3c-9.2-3.6-13.9-10.7-12.5-20.6c0-0.7,0.4-1.6,1.1-2c0.9-0.9,1.6-1.8,2-3.1c0.2-0.7,0-1.3-0.7-1.8l0,0
		c-1.1-0.4-2.5-0.7-3.6-0.4c0-0.7,0.4-1.1,1.1-1.1c0.7,0,0.9-0.4,0.7-1.1c-0.7-1.6-2-2.7-3.6-3.6c2.7,0.2,5.1,0.2,7.6,0.2
		s4.9-0.9,6.9-2.2c5.6-3.8,9.4-7.8,16.8-9.4c0.7-0.2,1.3,0,2,0.2c1.8,0.9,3.1,2.5,4,4.2c0.4,0.7,0.4,1.3,0,2c-0.9,2-2.7,3.6-4.9,4
		c-3.1,0.7-3.8-0.4-2-3.1c0.2-0.2,0.4-0.4,0.7-0.7c0.7-0.4,0.7-0.9,0-1.3c-0.7-0.4-1.1-0.2-2,0c-0.4,0.2-1.1,0.4-1.6,0.9
		c-0.4,0.4-0.9,0.7-1.3,0.7c-7.1,1.6-13,6.5-15.6,13.2c-4.7,10.9,0,20.6,12.1,21.7c14.1,1.3,23.5-4,28.1-16.1
		c3.1-8,0.2-12.3-4.2-18.3c-0.4-0.7-0.7-1.3-0.4-2c0.2-2.7-1.6-4-5.4-4.2l2-0.2c0.7,0,1.3-0.4,1.6-1.3
		C524,494.7,524,494,523.8,493.6z" class="st24"></path>
	<path d="M730,534.7c-4.5-1.6-7.8-4.9-9.4-9.2c-3.4-8.7-4-18.3-14.7-21.9l24.8-9.6c5.6-2.2,8.3-0.2,8.7,5.6
		c0.4,8,0.2,16.3-0.4,24.4C738.5,527.1,735.6,530.6,730,534.7z" class="st25"></path>
	<path d="M244.5,529.1c0,0.2-0.2,0.2-0.2,0.2l0,0l0,0c-3.4-0.2-5.8-5.1-5.1-10.7v-1.1c0.4-5.6,3.6-9.8,7.1-9.6l0,0
		c0.2,0,0.2,0.2,0.2,0.2L244.5,529.1z" class="st23"></path>
	<path d="M784.7,515.7c-0.7,2-3.1,3.1-5.1,2.2c-0.2,0-0.7-0.2-0.9-0.4c-2.9-1.8-4-5.4-2.9-8.5c0.2-0.7,0.7-1.3,1.3-1.6
		C783.9,505.4,787.2,509.4,784.7,515.7z" class="st1"></path>
	<path d="M633.7,515.4l-0.4-2.2c-0.2-1.6,0.4-2.9,1.8-3.6l2.2-0.9c1.6-0.7,3.6,0,4.2,1.6l2.7,6.3
		c0.7,1.6,0,3.6-1.8,4.2c-0.9,0.4-2,0.4-2.9-0.2l-4.5-2.9C634.4,517,633.7,516.3,633.7,515.4z" class="st19"></path>
	
		<ellipse ry="1.1" rx="4.2" cy="510.3" cx="357.8" class="st26" transform="matrix(0.9991 -4.187661e-02 4.187661e-02 0.9991 -21.0557 15.4307)"></ellipse>
	<path d="M672.1,525.5l-6.3,0.9c-3.1,0.4-5.8-1.8-6.3-4.9c0-0.4,0-0.9,0-1.1l0.4-4.5c0.2-2.5,2-4.2,4.2-4.9l2.7-0.7
		c2.2-0.4,4.2,0.4,5.6,2l3.1,4.2c1.8,2.5,1.3,5.8-1.1,7.6C674.2,524.8,673.3,525.3,672.1,525.5z" class="st19"></path>
	<path d="M598.9,515.7c4.5,4,7.1,9.6,7.1,15.6c0,0.7,0.2,1.3,0.9,2c4.9,5.4,7.1,12.7,5.8,19.9l-4.2,10.3
		c-0.4,0.9,0,2,0.9,2.2h0.2c3.1,0.7,5.6,2.7,6.9,5.6c0.4,0.7,0.4,1.3,0,2c-0.9,2.2-2.5,4-4.5,5.4c-6.7,4.5-10.9,8.7-20.1,9.4
		c-2.5,0.2-4.9,2-7.8,5.4c-0.4,0.4-0.7,0.4-0.9-0.2c0-0.7,0.2-1.3,0.9-1.6c13-11.2,21.7-26.4,25-43.1c2.5-11.6-8.3-14.5-15.4-19.4
		c-2.5-0.4-3.6-0.9-3.6-1.8C591.9,522.6,594.8,518.8,598.9,515.7z" class="st4"></path>
	<path d="M277.6,522.2c-1.6,2.5-3.6,4.5-5.8,6.5c-2,1.6-1.8,2.5,0.9,2.9l2,0.2c5.6,7.8,6.9,14.5,3.6,20.6
		c-2.7,4-6,7.8-9.8,10.9c-2.9,2.7-6.7,4.5-10.5,5.1c-10.7,0.9-24.8-2.5-31.7-11.6c-1.3-2.2-2.5-4.7-3.1-7.1
		c-0.7-2.7-2.2-4.9-4.5-6.7c0.2-4.9,2-9.4,4.9-13.4c-0.2,1.8,0,2.9,0.4,3.1c1.8,0.7,2.9,2.2,2.9,4.2c0.2,3.1,0.2,6.3,0.2,9.6
		c-0.2,11.6,12.7,15.4,21.9,16.5c9.2,1.6,18.5-2.5,23.7-10.5c3.1-4.7,2.9-10.5-0.9-17.4c-0.2-0.7-0.9-0.9-1.6-1.1l-15.4-1.6
		c-0.9,0-1.8,0.2-2.5,0.9c-0.4,0.4-1.3,0.7-2,0.2c-0.7-0.2-1.1-0.9-1.1-1.6c-0.4-1.3-0.2-2.9,0.7-4c1.1-0.7,2.5-1.1,3.6-0.9
		c4.5,0,8.9,0,13.2,0C269.8,527.3,273.4,525.5,277.6,522.2z" class="st24"></path>
	<path d="M223.5,529.5c-2.9,3.8-4.7,8.5-4.9,13.4c-3.6-1.1-3.8-4.5-0.9-10.1c1.8-3.1,3.4-5.8,4.9-8
		c1.6-2.2,2.7-2.2,2.7,0.9C225.1,526.8,224.4,528.4,223.5,529.5z" class="st27"></path>
	<path d="M590.2,527.3c-0.2,0.9,1.1,1.6,3.6,1.8c-0.4,0.2-0.9,0.4-1.1,0.9c-0.4,0.9-0.2,1.8,0.4,2.5
		c5.8,4.7,11.6,11.8,7.1,19.4c-2.5,4.2-7.4,6.3-12.3,4.9c-2.7-1.1-5.1-2.5-7.4-4c-0.7-0.4-1.1-0.9-1.3-1.6c-2.2-6.3-3.6-13-4-19.7
		c-0.2-1.1,0.7-2.2,2-2.5l0,0L590.2,527.3z" class="st9"></path>
	<path d="M814.9,528c10.5,34,5.1,65.2-15.6,93.8c-2.5,3.4-7.8,6-10.9,8.9c-17.2,16.1-36,24.1-58.1,30.8
		c-1.1,0.2-1.8,1.1-2,2c-0.2,0.4-0.9,0.9-1.3,0.9c-0.4,0-0.9-0.4-1.1-0.9c-6.5-10.1-15.9-17.9-26.8-22.3
		c-18.5-7.1-35.1-4.7-49.6,7.4c-2.9-1.6-6.5-0.4-10.9,3.4c-4,3.4-7.8,6.9-11.8,10.3c-0.7,0.4-1.3,0.4-2-0.2s-0.7-1.6,0-2.2
		c0.7-0.9,0.9-2,0.9-3.1c0-5.1,0.7-10.3,1.3-15.4c0.4-2.5,0.4-4.9,0-7.4c-1.6-6.9-2.5-6.9-2.7,0.2c-0.4,8.3-0.7,17.2-1.1,27
		c-0.2,2.7-1.1,5.1-2.9,6.9c-9.8,13-20.1,25.5-31.3,37.5c-0.4,0.4-0.9,1.3-0.9,2c-0.2,5.4-2.9,8-8,8c-0.4-1.1-2-0.9-4.5,0.9
		c-1.1,0.9-2.5,1.6-4,2c-3.6,0.9-7.4,0.7-10.7-0.9c3.8-9.6,6-19.7,6.9-29.9c0-0.2,0.4-2.7,1.1-7.1c0.4-3.1,0.4-6.5-0.4-9.6
		c-0.2-1.1-1.1-1.8-2.2-1.6h-0.2c-1.1,0.2-1.8,0.9-1.8,2.5c0.2,5.4,0.2,10.5,0.2,15.9c-0.4,2.7-1.1,5.1-2,7.6
		c-0.2,0.7-0.4,1.3-1.1,1.8l-2.2,1.6c3.4-6.7,5.4-14.3,5.4-21.9c0-12.7-1.1-25.2-3.8-37.5c0-0.2,0-0.7,0.4-0.7c0,0,0,0,0.2,0h0.7
		c0.4,0,0.9,0.2,1.1,0.9l4.9,19.2c0.4,1.3,1.1,1.8,2.5,1.1c8.7-4,17-8.7,25-14.1c4.5-3.1,9.4-6,14.1-8.7c4.7-2.7,9.2-5.8,13-9.4
		c0.7-0.7,1.1-1.8,1.1-2.7c-0.4-4.9-0.4-9.8-0.2-14.7c0-0.2,0.2-0.4,0.2-0.7c0.2-0.2,0.4-0.2,0.7-0.2s0.4,0.2,0.7,0.4l0,0l2.2,13.4
		c0.2,0.9,1.1,1.6,2,1.3c0.2,0,0.2,0,0.4-0.2c28.8-12.5,58.1-17.9,89.1-9.8c8.3,2.2,16.3,5.8,23.9,10.1c6.3,3.6,13,5.6,20.1,6.5
		c2.5,0.4,4.7,1.1,6.9,2c0.7,0.2,1.3,0.7,1.8,1.1c1.6,2,3.8,2.2,6.7,0.7c6.3-3.4,9.4-7.4,14.3-11.6c2-1.8,3.8-3.8,5.1-6.3
		c1.8-3.4,3.1-6.5,4.5-9.8c0.2-0.9,0.9-1.3,1.6-2c4.2-2.7,6.9-7.6,8-14.5c0.2-1.1-0.2-2.2-0.9-2.9c-6.3-6.9-8.7-16.3-6.9-25.5
		c0-0.7,0.4-1.3,1.1-1.8c2.5-1.8,4.2-4.2,5.4-6.9c2.2-8.3,3.1-16.8,2.7-25.2C812.2,527.7,813.1,527.7,814.9,528z" class="st18"></path>
	<path d="M438,540l-10.3,4.2c-0.4,0.2-1.1,0-1.3-0.7v-0.2c0-0.7,0.2-1.3,0.7-1.8c3.4-3.1,7.4-5.6,11.8-7.1
		c0.9-0.4,1.8,0,2,0.9c0,0.2,0.2,0.4,0.2,0.4c0,0.4,0,0.7,0,1.1C440.5,538.5,439.3,539.6,438,540z" class="st10"></path>
	
		<ellipse ry="10.3" rx="10.9" cy="547.2" cx="564.5" class="st28" transform="matrix(0.1874 -0.9823 0.9823 0.1874 -78.7417 999.1818)"></ellipse>
	<path d="M411,549.4c4.2,2.7,7.8,2,11.6-1.1c2.5-2,2.7-1.8,0.9,0.9c-1.6,2.2-4,3.6-6.7,4c-0.9,0.2-1.8,0-2.5-0.4
		c-6.3-4.5-14.1-6.3-21.7-5.1c-13.6,1.1-27,3.8-40,7.8c-3.4,0.9-6.9,1.3-10.3,0.9c-10.1-1.3-16.8-2-19.7-2c-2.7-0.2-5.4-1.3-7.6-2.9
		c-0.7-0.4-0.9-1.1-0.9-1.8s0.2-1.1,0.7-1.6c0.4-0.4,1.1-0.4,1.6-0.4c4.9,0.2,7.6,3.8,12.3,4.5c5.6,0.7,11.2,0.9,16.8,0.7
		c5.6-0.7,10.9-1.6,16.3-3.1c12.7-3.4,25.7-4.9,38.9-5.1c2.5,0,5.1,0.2,7.6,0.4c0.7,0,1.1,0.7,1.1,1.3l0,0c0,0.7,0,1.3,0.2,2
		C410.1,548.5,410.3,549.2,411,549.4z" class="st4"></path>
	<path d="M192.9,548.1c0.9,14.3,6,25.7,15,34c4.7,4,9.6,7.8,14.7,11.2c5.1,3.4,10.3,6.9,15.4,10.3v0.2h-0.2l-22.1-11.4
		c-4.9-4.5-9.6-8.9-14.3-13.6C192.7,569.7,189.8,559.5,192.9,548.1z" class="st7"></path>
	<path d="M744.8,586l-3.6-1.1c-1.8-0.7-2.9-2.5-2.2-4.2c0-0.2,0.2-0.4,0.4-0.9l1.8-3.1c0.9-1.3,2.7-2,4.2-1.3l4,1.8
		c1.8,0.7,2.5,2.7,1.8,4.5c-0.2,0.2-0.2,0.7-0.4,0.9l-2.2,2.5C747.4,586,746.1,586.5,744.8,586z" class="st18"></path>
	
		<ellipse ry="5.8" rx="1.1" cy="581.8" cx="791.4" class="st29" transform="matrix(0.8348 -0.5505 0.5505 0.8348 -189.563 531.7995)"></ellipse>
	<path d="M764.4,583.4l5.1,2.2c2.5,1.1,3.6,3.8,2.5,6.3l-1.6,4c-0.9,2.5-3.8,3.6-6.3,2.7c-0.2-0.2-0.7-0.2-0.9-0.4
		l-2.7-1.8c-1.1-0.7-2-1.8-2.2-3.1l-0.9-4.7c-0.4-2.7,1.1-5.1,3.8-5.6C762.4,582.9,763.5,582.9,764.4,583.4z" class="st3"></path>
	<path d="M479.8,692.2c-6.5,1.1-13,2.5-19.2,4c-6.3,1.8-12.7,3.1-19,4c-14.5,2-29.3,4.5-43.8,4.5
		c-21.4,0.2-45.8-0.4-73.3-2.5c-20.6-1.1-40.7-4.5-60.5-10.3c-1.6-4.5-4-8.5-7.4-12.1c-2-2.2-4-4.7-5.6-7.4
		c-1.6-9.6-1.3-19.2,0.4-28.8c2.7-8.3,5.8-16.5,9.8-24.4c5.6-11.6,13-17,25.5-17.6c3.1-0.2,6-0.4,8.9-0.7
		c54.7-0.4,109.5-3.1,164.2-8c11.4-1.1,19.2-0.7,23.9,0.9c11.6,4,19.7,12.5,23.9,25.5c2.7,8.5,2.2,17.6-1.3,25.7
		C500.3,662.5,491.2,678.3,479.8,692.2z" class="st30"></path>
	<path d="M189.1,598.3c3.1,1.6,5.4,4,6.9,6.9c0.2,0.7,0.7,1.1,1.3,1.3c0.2,0.2,0.4,0.4,0.7,0.7l0.9,3.4
		c0,0.7,0.7,1.3,1.3,1.3c0.2,0,0.7-0.2,0.9-0.2c8.9-3.8,15-0.2,18.5,10.9c1.1,2.2,0,4.9-2.2,6c-0.2,0.2-0.4,0.2-0.9,0.2
		c-2,0.9-3.6,2.2-4.7,4c-0.4,0.7-1.1,0.9-1.8,0.7c-6.7-0.9-10.1-11.2-11.4-16.5c-0.9-3.4-1.8-3.4-3.1-0.2c-0.7,2-2.5,3.4-4.5,3.4
		c-0.7,0-1.6,0.4-1.8,1.1c-0.4,0.9-0.4,2,0,2.9c0.2,0.4,0.7,0.7,1.1,0.7c0.2,0,0.2,0,0.4-0.2c0.9-0.7,2.2-0.7,3.1,0
		c3.8,2,5.6,4.9,4.7,8.7c-0.7,4-2.9,7.6-6.3,9.8c-0.4,0.2-0.7,0.7-0.4,1.3c0,0.2,0.2,0.2,0.2,0.4c0.9,0.9,2.2,1.3,3.6,0.9
		c-0.2,6.9,2,11.4,6.7,13c-4,0.9-3.8,2.2,1.1,4c1.1,0.4,2,1.1,2.9,1.8c2.5,2.2,5.6,3.6,8.7,4.5c10.7,2.9,21.4,5.1,32.6,6.7
		c0.7,0,1.1,0.4,1.1,1.1l0,0c0,0.7,0.2,1.3,0.4,2c0.4,0.7,0.7,0.7,0.9-0.2l0.9-6.3c1.6,2.7,3.4,5.1,5.6,7.4
		c3.1,3.6,5.8,7.6,7.4,12.1c5.4,6.7,11.4,12.5,18.3,17.6c14.1,10.5,30.4,17.4,47.8,20.1c24.1,4,48.9,2.7,70.4,3.1
		c6.7,0,13.4,0,20.1-0.4c11.2-0.7,21.7-0.7,32.8-2.9c3.4-0.7,5.6-0.2,6.3,1.8c-29,2.9-57.9,4.7-86.7,5.1c-0.7,0-1.3,0.2-2,0.7
		c-4.5,3.6-8.3,7.8-11.6,12.5c-1.1,1.3-2.7,2-4.5,2c-6.3,0.7-12.7,0.9-19,0.7c-1.8-4.2-5.6-7.6-10.1-8.7c-5.1-2-10.7,0.2-13,5.4
		c-0.2,0.4,0,1.1,0.4,1.3c0.2,0.2,0.4,0.2,0.7,0c5.8-1.3,11.6-1.3,17.4-0.7c0.7,0,1.1,0.7,1.1,1.3v0.2c0,0.2-0.4,0.4-0.9,0.7
		l-43.3,0.2c-0.7,0-1.3-0.2-1.8-0.7c-13-13.9-27.3-28.6-34-45.1c-2.9-7.8-4.5-15.9-4.7-24.1c0-0.7-0.4-1.3-1.1-1.6
		c-18.1-4.5-35.3-6.7-50-19.2c-7.1-5.8-12.3-13.9-14.7-22.6C178.2,625.4,180.4,611.7,189.1,598.3z" class="st3"></path>
	<path d="M648.9,649.1c-4.9,3.4-9.8,6.9-14.5,10.3c-4.9,3.4-9.4,7.4-13.2,12.1c-8.9,11.2-17.2,23-24.4,35.3
		c-0.4,0.9-0.2,1.1,0.7,1.1c2.9-0.4,5.8,0.2,8,2c0.7,0.4,1.6,0.2,2-0.4c0,0,0-0.2,0.2-0.2c0.7-1.8,1.3-3.6,2.2-5.4
		c1.1-1.8,2.2-3.4,3.6-4.9c1.6-1.8,2.5-3.8,2.5-6c0-0.2,0-0.4,0.2-0.4c0.2-0.2,0.2-0.2,0.4-0.4c0.7-0.2,1.1-0.9,1.1-1.8
		c-0.2-4.9,1.1-9.8,3.6-14.1c4.9-7.1,11.4-13,18.8-17.6c0.9-0.4,1.8-0.7,2.7-0.7c3.1,0.2,6,0.4,9.2,0.9c2,0.4,4,0.9,6,1.6
		c1.8,0.7,3.8,0.9,5.8,0.4c2.7-0.4,4.2,0.7,4.7,3.1c0.2,0.9,0.9,1.3,1.8,1.3c0.2,0,0.4-0.2,0.7-0.2c1.6-1.1,3.4-2.5,4.7-3.8
		c4.9-4.2,11.4-6.3,17.6-5.4c3.4,0.7,11.2,3.1,23.2,7.1c3.4,1.3,6.3,2.9,9.4,4.7c0.7,0.4,1.3,0.4,2,0.2c0.9-0.2,1.8-0.2,2.7,0
		c11.6,17.2,21.2,35.5,29,54.7c2.9,7.4,5.6,16.5,8.5,24.6c0.9,1.1,0.4,2.2-1.6,3.4c-7.1,0.2-16.3,0.4-27.7,1.1
		c-10.5,0.7-21.9,0.7-34.4,0.2h-10.3c-5.6,0-11.2-1.3-16.3-1.3c-11.4,0-23-0.2-34.6-0.7c-9.2-0.2-20.8-0.2-34.4,0.2
		c-16.1,0.4-31.9,0.2-47.6-0.4c-0.9,0-1.6-0.9-1.6-1.8c0-0.2,0-0.4,0.2-0.9l19.9-31.3c5.1,0,7.8-2.7,8-8c0-0.7,0.2-1.6,0.9-2
		c11.2-11.8,21.4-24.4,31.3-37.5c1.8-2,2.7-4.5,2.9-6.9c0.4-9.8,0.9-18.8,1.1-27c0.2-7.1,1.1-7.1,2.7-0.2c0.4,2.5,0.4,4.9,0,7.4
		c-0.9,5.1-1.3,10.3-1.3,15.4c0,1.1-0.2,2.2-0.9,3.1c-0.7,0.7-0.7,1.6,0,2.2c0.7,0.7,1.3,0.9,2,0.2c3.8-3.4,7.8-6.9,11.8-10.3
		C642.4,648.6,646.2,647.5,648.9,649.1z" class="st31"></path>
	<path d="M728,663.8c1.1,1.1,2,2.5,2.2,4c-0.9-0.2-1.8-0.2-2.7,0c-0.7,0.2-1.3,0-2-0.2c-2.9-1.8-6-3.6-9.4-4.7
		c-12.1-4-19.9-6.5-23.2-7.1c-6.5-0.9-13,0.9-17.6,5.4c-1.6,1.3-3.1,2.7-4.7,3.8c-0.7,0.4-1.6,0.2-2-0.4c-0.2-0.2-0.2-0.4-0.2-0.7
		c-0.4-2.5-1.8-3.6-4.7-3.1c-2,0.2-4,0-5.8-0.4c-2-0.7-4-1.3-6-1.6c-3.1-0.4-6-0.7-9.2-0.9c-0.9,0-1.8,0.2-2.7,0.7
		c-7.4,4.7-13.6,10.5-18.8,17.6c-2.7,4.2-3.8,9.2-3.6,14.1c0,0.7-0.4,1.3-1.1,1.8c-0.2,0-0.2,0.2-0.4,0.4c-0.2,0.2-0.2,0.4-0.2,0.4
		c0,2.2-0.9,4.5-2.5,6c-1.3,1.6-2.7,3.1-3.6,4.9c-0.9,1.8-1.6,3.6-2.2,5.4c-0.2,0.7-1.1,1.1-1.8,0.9c0,0-0.2,0-0.2-0.2
		c-2.5-1.6-5.1-2.2-8-2c-0.9,0.2-1.1-0.2-0.7-1.1c7.1-12.5,15.2-24.4,24.4-35.3c3.8-4.5,8.3-8.5,13.2-12.1
		c4.7-3.4,9.6-6.7,14.5-10.3c14.5-12.1,31.1-14.7,49.6-7.4c10.9,4.5,20.3,12.3,26.8,22.3c0.2,0.4,0.7,0.7,1.1,0.9
		C727.1,664.7,727.8,664.5,728,663.8z" class="st32"></path>
	<path d="M215.7,643.9c0.2,1.8,0.4,3.8,0.4,5.8c0.7,8.7-5.4,12.7-13.9,9.2c-4.9-1.6-7.1-6-6.7-13
		C201.2,637.7,207.9,637,215.7,643.9z" class="st33"></path>
	<path d="M251.7,643.9c-1.8,9.4-2,19.2-0.4,28.8l-0.9,6.3c0,0.9-0.4,0.9-0.9,0.2c-0.4-0.7-0.4-1.3-0.4-2
		s-0.4-1.3-1.1-1.3l0,0c-10.9-1.6-21.9-3.8-32.6-6.7c-3.1-0.9-6.3-2.2-8.7-4.5c-0.9-0.9-1.8-1.3-2.9-1.8c-4.9-1.8-5.1-3.1-1.1-4
		c8.5,3.6,14.5-0.4,13.9-9.2c-0.2-2-0.2-4-0.4-5.8c7.8,1.6,15.6,1.6,23.5,0.4c2-0.2,4-0.4,6.3-0.2
		C247.2,644.1,249.4,644.1,251.7,643.9z" class="st18"></path>
	<path d="M560.7,717.9L538.5,748c-3.1,0.4-6.5,0.2-9.6-0.7c-0.7-0.2-1.3-0.9-1.3-1.6l-1.1-4.7c-0.2-1.1-1.3-2-2.5-2
		l-11.4,0.2c0.4-0.4,0.9-0.9,1.3-1.3c0.7-0.4,0.4-0.9-0.2-1.3c-0.4-0.2-1.1-0.2-1.8-0.2c-5.1,1.1-8.7,4-13.6,5.1
		c-3.4,0.7-6.7,1.6-10.1,2.7c-0.7,0.2-1.3,0.2-2.2,0c-6.5-2.7-12.5-6.5-17.6-11.2c14.3-3.4,28.4-7.6,42.2-12.5
		c6.9-2.5,14.1-4.9,21.2-7.8c2.9-1.1,6-1.8,9.2-2.2c4.5-0.7,7.6-1.8,9.2-3.4c2.5-2.7,5.4-5.4,8.3-8l2.2-1.6c0.7-0.4,0.9-1.1,1.1-1.8
		c0.9-2.5,1.6-5.1,2-7.6c0-5.4,0-10.5-0.2-15.9c0-1.6,0.4-2.2,1.8-2.5c1.1-0.2,2,0.4,2.5,1.3v0.2c0.9,3.1,0.9,6.5,0.4,9.6
		c-0.7,4.5-1.1,6.9-1.1,7.1C566.7,698.4,564.2,708.5,560.7,717.9z" class="st3"></path>
	
		<ellipse ry="6.5" rx="11.6" cy="687.1" cx="795.3" class="st5" transform="matrix(0.8763 -0.4818 0.4818 0.8763 -232.6734 468.1594)"></ellipse>
	
		<ellipse ry="2.2" rx="6.5" cy="683.1" cx="859.4" class="st34" transform="matrix(0.9157 -0.4019 0.4019 0.9157 -202.0831 402.9868)"></ellipse>
	<path d="M264,692.2c19.7,5.6,40,8.9,60.5,10.3c27.5,1.8,51.8,2.7,73.3,2.5c14.5-0.2,29.3-2.7,43.8-4.5
		c6.5-0.9,12.7-2.2,19-4c6.3-1.6,12.5-2.9,19.2-4c-5.6,9.6-12.3,18.5-19.9,26.8c-0.9,4.2-0.4,8.7,1.3,12.7c-0.4,0.2-0.9,0.2-1.3,0
		c-0.7-2-2.9-2.5-6.3-1.8c-11.2,2.5-21.7,2.2-32.8,2.9c-6.7,0.4-13.4,0.4-20.1,0.4c-21.4-0.4-46.2,1.1-70.4-3.1
		c-17.2-2.9-33.7-9.8-47.8-20.1C275.4,704.9,269.1,698.9,264,692.2z" class="st35"></path>
	<path d="M459.7,718.8c1.8,7.4,4.7,12.3,8.9,14.3c5.1,4.7,11.2,8.5,17.6,11.2c0.7,0.2,1.3,0.2,2.2,0
		c3.4-1.1,6.7-1.8,10.1-2.7c4.7-1.1,8.5-4,13.6-5.1c0.4-0.2,1.1,0,1.8,0.2c0.7,0.2,0.9,0.7,0.2,1.3c-0.4,0.4-0.9,0.9-1.3,1.3
		c-3.4,2-5.6,5.1-6.3,8.7l-22.6-0.4c-2.5-1.8-3.8-2.5-4.5-2.5l-18.1-13.9C459.5,727.5,459,723,459.7,718.8z" class="st10"></path>
	<path d="M538.5,748.2h-32.4c0.7-3.6,3.1-6.9,6.3-8.7l11.4-0.2c1.1,0,2.2,0.9,2.5,2l1.1,4.7c0.2,0.7,0.7,1.3,1.3,1.6
		C532.1,748.5,535.4,748.7,538.5,748.2z" class="st2"></path>
	<path d="M336.1,752.7l-4.5-0.2c0.4-0.2,0.9-0.4,0.9-0.7c0.2-0.7,0-1.3-0.7-1.6h-0.2c-5.8-0.9-11.6-0.7-17.4,0.7
		c-0.7,0.2-1.1-0.2-1.3-0.9c0-0.2,0-0.4,0-0.7c2.2-4.9,7.8-7.4,13-5.4C330.5,745.1,334.3,748.2,336.1,752.7z" class="st2"></path>
	<path d="M479.1,745.3c0.4-0.2,2,0.7,4.5,2.5c-1.8-0.4-3.6,0-4.9,1.1c-0.4,0.4-1.1,0.7-2,0.7c-24.1-0.2-48,0-72.2,0.4
		c-10.7,0.2-26.6-0.9-39.8,0.2c-0.9,0-1.1-0.2-0.9-1.1l0.2-0.7c0.2-0.9,0.9-1.6,1.8-1.8c5.8-0.9,12.5,0.2,17.6,0
		c25.2-0.7,50.7-0.7,76.2,0c3.4,0,6.5,0,9.8-0.4C472.4,746,475.8,745.8,479.1,745.3z" class="st36"></path>
	<path d="M767.8,747.1h92.5c0.4,0,0.9,0.4,0.9,0.9v0.7c0,0.4-0.2,0.9-0.7,0.9l0,0l-94.3,0.9
		C768,749.4,768.7,748.2,767.8,747.1z" class="st15"></path>
	<path d="M232.9,747.8h44.7c0.2,0,0.4,0.2,0.4,0.4c0,0,0,0,0,0.2v1.3c0,0.4-0.2,0.4-0.4,0.4l-46.5,0.4
		C232.7,750.5,233.1,749.6,232.9,747.8z" class="st15"></path>
</g>
</svg>
