<?xml version="1.0" standalone="no"?><!DOCTYPE svg PUBLIC "-//W3C//DTD SVG 1.1//EN" "http://www.w3.org/Graphics/SVG/1.1/DTD/svg11.dtd"><svg height="1024" node-id="1" sillyvg="true" template-height="1024" template-width="1024" version="1.1" viewBox="0 0 1024 1024" width="1024" xmlns="http://www.w3.org/2000/svg" xmlns:xlink="http://www.w3.org/1999/xlink"><defs node-id="59"><linearGradient gradientUnits="objectBoundingBox" id="paint0_linear_1_667" node-id="55" spreadMethod="pad" x1="238.692" x2="159.917" y1="811.102" y2="651.354"><stop offset="0" stop-color="#030b19"></stop><stop offset="1" stop-color="#1c2830"></stop></linearGradient></defs><path d="M 0.00 0.00 L 1024.00 0.00 L 1024.00 1024.00 L 0.00 1024.00 Z" fill="#ffffff" fill-rule="nonzero" node-id="68" stroke="none" target-height="1024" target-width="1024" target-x="0" target-y="0"></path><path d="M 132.54 754.08 C 148.40 781.52 165.35 808.01 198.06 816.61 C 227.50 824.36 254.74 815.43 280.15 800.40 L 299.48 787.91 C 302.71 789.41 305.26 791.84 307.95 794.15 C 327.54 815.83 365.14 841.70 394.81 843.34 C 413.26 844.37 430.34 838.65 444.02 826.10 C 448.77 821.74 452.66 817.04 455.62 811.30 C 479.73 818.22 505.49 820.31 530.54 819.53 C 541.73 819.18 552.83 817.70 563.94 816.34 C 565.96 816.09 572.53 814.53 574.21 815.04 C 576.03 815.58 583.81 825.39 586.02 827.14 C 601.13 840.11 620.96 843.99 640.42 842.15 C 645.40 841.68 659.13 839.09 662.61 836.02 C 663.17 832.27 665.62 830.68 668.18 828.04 C 681.15 821.44 692.96 814.47 704.65 805.82 C 711.25 800.92 718.66 793.09 725.90 789.58 C 734.23 785.53 740.87 776.09 746.91 769.16 C 748.45 771.00 748.41 771.35 750.73 771.76 L 750.24 772.62 C 747.08 777.95 742.42 782.22 738.12 786.62 C 754.32 795.82 770.88 805.34 788.46 811.67 C 797.70 814.99 809.66 815.22 817.93 819.78 C 816.38 821.38 808.78 821.13 806.24 821.32 C 814.43 823.12 823.73 823.07 831.96 821.63 C 861.35 816.49 877.76 789.49 893.36 766.81 C 902.85 774.01 909.92 782.67 911.62 794.78 C 913.12 805.41 910.12 816.29 903.61 824.81 C 877.72 858.71 820.59 865.89 781.45 874.68 C 759.41 879.63 737.26 885.17 714.83 887.87 L 646.67 894.81 L 560.29 902.89 L 514.62 904.34 C 508.60 904.42 498.01 903.23 492.79 905.53 C 480.86 890.06 467.81 875.40 451.31 864.65 C 429.05 850.13 404.17 843.13 377.73 848.93 C 348.44 855.37 327.86 874.42 312.38 898.99 C 294.24 897.23 275.40 892.62 257.74 888.22 C 213.81 877.26 158.84 859.83 126.85 825.57 C 117.33 815.36 111.38 803.73 112.05 789.52 C 112.80 773.96 121.46 763.99 132.54 754.08 Z" fill="#bf6f99" fill-rule="nonzero" node-id="70" stroke="none" target-height="151.45502" target-width="801.74" target-x="111.378" target-y="754.075"></path><path d="M 746.91 769.16 C 748.45 771.00 748.41 771.35 750.73 771.76 L 750.24 772.62 C 747.08 777.95 742.42 782.22 738.12 786.62 C 754.32 795.82 770.88 805.34 788.46 811.67 C 797.70 814.99 809.66 815.22 817.93 819.78 C 816.38 821.38 808.78 821.13 806.24 821.32 C 779.46 818.32 754.51 803.39 730.90 791.24 C 711.61 807.71 687.88 829.65 662.61 836.02 C 663.17 832.27 665.62 830.68 668.18 828.04 C 681.15 821.44 692.96 814.47 704.65 805.82 C 711.25 800.92 718.66 793.09 725.90 789.58 C 734.23 785.53 740.87 776.09 746.91 769.16 Z" fill="#010100" fill-rule="nonzero" node-id="72" stroke="none" target-height="66.86395" target-width="155.31891" target-x="662.609" target-y="769.158"></path><path d="M 159.91 229.46 C 159.89 226.76 160.73 223.44 161.39 220.79 C 168.44 192.05 188.98 165.03 214.37 149.94 C 235.08 137.62 261.29 131.86 284.98 138.24 C 317.83 147.10 338.82 168.67 355.41 197.18 C 392.29 176.72 429.91 163.59 471.52 157.10 C 483.45 144.81 500.12 133.56 515.75 126.49 C 522.93 123.24 539.58 116.44 547.29 120.01 C 549.24 120.91 549.05 121.78 549.80 123.65 L 537.62 142.16 L 539.04 141.78 C 552.73 138.33 565.55 137.43 579.54 139.06 C 583.60 139.54 588.54 139.73 592.06 142.00 C 594.17 143.37 593.95 144.42 594.55 146.81 C 592.21 152.63 583.15 156.47 577.82 159.56 C 613.37 161.77 648.54 176.92 678.64 195.20 C 680.33 190.95 682.22 186.91 684.67 183.05 C 699.09 160.33 722.37 143.69 748.73 137.91 C 775.52 132.03 805.24 137.05 828.18 152.24 C 854.43 169.61 870.14 195.92 876.26 226.49 C 878.90 253.71 874.43 281.24 856.51 302.98 C 845.26 316.63 824.89 330.63 806.68 332.38 C 805.34 332.51 804.05 332.48 802.68 332.33 L 804.78 330.88 C 802.74 330.64 801.43 330.73 799.59 329.65 C 797.14 328.19 783.26 305.05 782.51 302.01 C 781.91 299.62 781.02 297.42 780.12 295.13 C 779.99 288.80 766.16 271.34 762.10 265.50 C 750.88 250.05 737.03 235.65 722.33 223.48 L 720.44 222.58 C 716.13 223.03 711.63 222.66 707.28 222.55 L 700.59 217.62 C 668.65 195.78 635.52 177.70 597.11 170.24 C 583.45 167.59 569.35 167.34 555.86 163.99 L 581.28 147.65 C 565.81 147.34 552.53 147.42 537.45 151.59 C 536.20 151.93 527.35 154.81 526.78 154.59 C 525.79 154.21 525.25 153.15 524.48 152.43 C 524.82 144.68 531.09 134.90 534.92 128.18 C 518.80 133.78 506.07 140.29 492.79 151.22 C 488.71 154.59 481.64 162.45 477.09 164.38 C 473.07 166.08 465.23 166.14 460.56 166.96 C 448.36 169.12 436.20 171.68 424.34 175.25 C 358.05 195.18 299.18 238.76 262.75 297.72 L 249.22 323.78 C 248.68 324.92 245.74 331.95 245.00 332.34 C 242.38 329.19 233.34 329.36 229.06 328.77 C 220.47 327.59 210.76 324.86 203.28 320.46 C 198.62 317.72 193.02 312.89 188.03 311.21 L 187.22 311.01 C 184.72 308.28 181.63 305.56 180.32 302.05 C 177.16 293.57 170.46 286.40 167.13 277.49 C 164.02 269.21 164.38 259.99 161.61 251.72 L 161.25 258.39 L 159.97 258.39 L 158.06 251.98 C 158.13 244.57 157.61 236.56 159.91 229.46 Z" fill="#07050b" fill-rule="nonzero" node-id="74" stroke="none" target-height="216.07498" target-width="721.293" target-x="157.607" target-y="116.436"></path><path d="M 701.34 208.19 C 696.17 203.86 691.10 200.43 685.21 197.17 C 698.27 172.29 715.03 157.29 742.25 148.60 C 769.15 140.01 792.82 142.74 817.63 155.88 C 845.07 170.43 856.09 191.59 867.90 218.72 C 841.02 236.13 821.89 218.99 798.55 205.47 C 788.05 199.38 777.20 194.56 765.41 191.56 C 747.30 186.94 728.28 190.27 712.92 200.98 C 709.06 203.66 706.07 207.97 701.34 208.19 Z" fill="#293741" fill-rule="nonzero" node-id="76" stroke="none" target-height="96.123" target-width="182.69" target-x="685.209" target-y="140.009"></path><path d="M 166.16 235.60 L 170.31 215.71 C 176.76 191.88 196.60 167.34 218.13 155.28 C 238.76 143.70 263.83 139.36 286.77 145.87 C 316.20 154.23 333.86 174.80 348.15 200.47 L 334.59 210.52 C 317.92 195.40 300.19 187.24 277.59 188.23 C 251.53 189.37 230.07 202.66 213.04 221.57 C 201.35 234.55 193.70 250.58 181.65 263.24 C 170.91 254.34 167.56 249.79 166.16 235.60 Z" fill="#293741" fill-rule="nonzero" node-id="78" stroke="none" target-height="123.88602" target-width="181.998" target-x="166.157" target-y="139.357"></path><path d="M 159.91 229.46 L 161.63 229.59 L 161.91 228.42 C 164.88 216.37 171.90 191.49 182.13 183.65 L 183.35 182.95 C 183.11 184.71 183.24 185.09 182.13 186.55 C 177.62 192.47 172.56 201.12 170.67 208.30 C 170.37 209.46 169.84 210.33 169.28 211.37 C 167.92 213.93 168.46 216.05 167.39 218.52 C 166.38 220.89 166.96 223.16 165.95 225.53 C 164.92 227.91 165.56 233.07 166.16 235.60 C 167.56 249.79 170.91 254.34 181.65 263.24 C 193.70 250.58 201.35 234.55 213.04 221.57 C 230.07 202.66 251.53 189.37 277.59 188.23 C 300.19 187.24 317.92 195.40 334.59 210.52 C 328.17 215.67 321.44 222.79 314.35 226.78 L 312.96 227.64 C 291.30 246.85 270.72 267.07 257.32 293.17 C 259.01 295.35 260.00 296.82 262.75 297.72 L 249.22 323.78 C 248.68 324.92 245.74 331.95 245.00 332.34 C 242.38 329.19 233.34 329.36 229.06 328.77 C 220.47 327.59 210.76 324.86 203.28 320.46 C 198.62 317.72 193.02 312.89 188.03 311.21 L 187.22 311.01 C 184.72 308.28 181.63 305.56 180.32 302.05 C 177.16 293.57 170.46 286.40 167.13 277.49 C 164.02 269.21 164.38 259.99 161.61 251.72 L 161.25 258.39 L 159.97 258.39 L 158.06 251.98 C 158.13 244.57 157.61 236.56 159.91 229.46 Z" fill="#0d0e1e" fill-rule="nonzero" node-id="80" stroke="none" target-height="149.38599" target-width="176.98401" target-x="157.607" target-y="182.953"></path><path d="M 234.11 269.37 C 229.84 257.69 229.34 245.85 234.78 234.37 C 240.00 223.39 251.32 214.89 262.66 211.03 C 275.10 206.80 288.64 207.39 300.39 213.44 C 305.80 216.22 312.40 220.79 314.35 226.78 L 312.96 227.64 C 302.77 227.49 291.79 226.41 281.98 229.62 C 258.62 237.26 250.33 253.04 234.11 269.37 Z" fill="#e13c77" fill-rule="nonzero" node-id="82" stroke="none" target-height="62.572983" target-width="85.01199" target-x="229.336" target-y="206.79701"></path><path d="M 234.11 269.37 C 250.33 253.04 258.62 237.26 281.98 229.62 C 291.79 226.41 302.77 227.49 312.96 227.64 C 291.30 246.85 270.72 267.07 257.32 293.17 C 245.89 288.08 240.07 279.88 234.11 269.37 Z" fill="#a50e50" fill-rule="nonzero" node-id="84" stroke="none" target-height="66.754" target-width="78.85698" target-x="234.10701" target-y="226.413"></path><path d="M 701.34 208.19 C 706.07 207.97 709.06 203.66 712.92 200.98 C 728.28 190.27 747.30 186.94 765.41 191.56 C 777.20 194.56 788.05 199.38 798.55 205.47 C 821.89 218.99 841.02 236.13 867.90 218.72 L 876.26 226.49 C 878.90 253.71 874.43 281.24 856.50 302.98 C 845.26 316.63 824.89 330.63 806.68 332.38 C 805.34 332.51 804.05 332.48 802.68 332.33 L 804.78 330.88 C 802.74 330.64 801.43 330.73 799.59 329.65 C 797.14 328.19 783.26 305.05 782.51 302.01 C 781.91 299.62 781.02 297.42 780.12 295.13 C 779.99 288.80 766.16 271.34 762.10 265.50 C 750.88 250.05 737.03 235.65 722.33 223.48 L 720.44 222.58 C 716.13 223.03 711.63 222.66 707.28 222.55 L 700.59 217.62 C 701.34 214.32 701.54 211.57 701.34 208.19 Z" fill="#0c0c17" fill-rule="nonzero" node-id="86" stroke="none" target-height="145.56999" target-width="178.31201" target-x="700.588" target-y="186.941"></path><path d="M 722.33 223.48 C 723.21 218.22 725.96 214.33 730.18 211.19 C 738.27 205.18 747.77 203.82 757.59 205.40 C 774.52 208.12 789.94 219.89 799.59 233.64 C 801.71 236.63 803.63 239.67 805.13 243.01 C 809.28 250.19 809.13 261.37 806.97 269.27 C 804.53 278.17 797.82 286.20 789.87 290.74 L 780.12 295.13 C 779.99 288.80 766.16 271.34 762.10 265.50 C 750.88 250.05 737.03 235.65 722.33 223.48 Z" fill="#e13c77" fill-rule="nonzero" node-id="88" stroke="none" target-height="91.31" target-width="86.957886" target-x="722.3271" target-y="203.82199"></path><path d="M 762.10 265.50 C 765.19 260.21 769.19 254.47 770.16 248.35 L 772.21 235.11 C 780.88 238.04 796.81 245.74 805.13 243.01 C 809.28 250.19 809.13 261.37 806.97 269.27 C 804.53 278.17 797.82 286.20 789.87 290.74 L 780.12 295.13 C 779.99 288.80 766.16 271.34 762.10 265.50 Z" fill="#a50e50" fill-rule="nonzero" node-id="90" stroke="none" target-height="60.02202" target-width="47.182983" target-x="762.102" target-y="235.109"></path><path d="M 707.29 222.55 C 711.63 222.66 716.13 223.03 720.44 222.58 L 722.33 223.48 C 737.03 235.65 750.88 250.05 762.10 265.50 C 766.16 271.34 779.99 288.80 780.12 295.13 C 781.02 297.42 781.91 299.62 782.51 302.01 C 783.26 305.05 797.14 328.19 799.59 329.65 C 801.43 330.73 802.74 330.64 804.78 330.88 L 802.68 332.33 C 800.49 337.91 805.88 347.34 807.98 353.12 C 817.11 378.17 827.41 404.39 832.22 430.68 C 840.88 478.10 828.48 525.40 796.02 561.22 C 786.37 571.89 774.82 580.73 763.24 589.20 C 775.38 610.98 783.95 632.14 790.46 656.24 C 809.38 642.32 830.45 632.58 854.49 636.31 C 871.30 638.92 888.67 650.41 898.38 664.22 C 904.72 673.23 911.25 686.41 910.65 697.71 C 915.81 720.42 904.29 747.37 893.36 766.81 C 877.76 789.49 861.35 816.49 831.96 821.63 C 823.73 823.07 814.43 823.12 806.24 821.32 C 808.78 821.13 816.38 821.38 817.93 819.78 C 809.66 815.22 797.70 814.99 788.46 811.67 C 770.88 805.34 754.32 795.82 738.12 786.62 C 742.42 782.22 747.08 777.95 750.24 772.62 L 750.73 771.76 C 748.41 771.35 748.45 771.00 746.91 769.16 C 740.87 776.09 734.23 785.54 725.90 789.58 C 718.66 793.09 711.25 800.92 704.65 805.82 C 692.96 814.47 681.15 821.44 668.18 828.04 C 665.62 830.68 663.17 832.27 662.61 836.02 C 659.13 839.09 645.40 841.68 640.42 842.15 C 620.96 843.99 601.13 840.11 586.02 827.14 C 583.81 825.39 576.03 815.58 574.21 815.04 C 572.53 814.54 565.96 816.09 563.94 816.34 C 552.83 817.70 541.73 819.18 530.54 819.53 C 505.49 820.32 479.73 818.22 455.62 811.30 C 452.66 817.04 448.77 821.74 444.02 826.10 C 430.34 838.65 413.26 844.37 394.81 843.34 C 365.14 841.70 327.54 815.83 307.95 794.15 C 305.26 791.84 302.71 789.41 299.48 787.91 L 280.15 800.40 C 254.74 815.43 227.50 824.36 198.06 816.61 C 165.35 808.01 148.40 781.52 132.54 754.08 C 124.75 738.56 115.66 718.79 115.98 701.15 C 116.30 684.43 126.50 667.38 138.39 656.27 C 149.53 645.87 166.59 640.02 181.76 640.78 C 212.05 642.29 231.73 659.18 251.28 680.68 C 253.26 649.60 260.39 622.60 274.74 594.89 C 252.95 579.90 235.40 561.29 222.99 537.91 C 195.79 486.67 202.73 428.52 220.30 375.55 C 224.68 362.37 230.81 349.93 234.91 336.65 C 225.43 335.24 216.18 332.74 207.54 328.50 L 206.10 327.79 C 199.74 327.12 189.04 318.25 184.32 313.96 C 166.19 297.46 159.12 275.88 158.06 251.98 L 159.97 258.39 L 161.25 258.39 L 161.61 251.72 C 164.38 259.99 164.02 269.21 167.13 277.49 C 170.46 286.40 177.16 293.57 180.32 302.05 C 181.63 305.56 184.72 308.28 187.22 311.01 L 188.03 311.21 C 193.02 312.89 198.62 317.72 203.28 320.46 C 210.76 324.86 220.47 327.59 229.06 328.77 C 233.34 329.36 242.38 329.19 245.00 332.34 C 228.36 374.72 209.62 420.31 213.06 466.72 C 218.05 478.88 218.69 490.21 226.70 501.50 C 264.36 554.70 357.17 584.26 418.82 595.14 C 502.03 609.82 594.62 604.50 674.96 578.13 C 701.58 569.39 727.51 558.65 750.47 542.33 C 781.91 519.98 804.12 490.38 811.12 452.07 C 813.79 437.48 811.66 423.00 809.06 408.57 C 806.89 396.64 803.73 386.13 807.08 374.02 L 807.53 372.48 C 792.80 334.32 776.49 296.06 750.48 264.00 C 737.65 248.18 723.09 235.28 707.29 222.55 Z" fill="#07050b" fill-rule="nonzero" node-id="92" stroke="none" target-height="621.81494" target-width="800.15" target-x="115.661995" target-y="222.552"></path><path d="M 789.88 669.21 C 792.15 660.55 796.47 657.62 804.08 653.19 C 819.74 644.08 838.58 638.65 856.54 643.39 C 874.22 648.07 887.32 657.84 896.56 673.73 C 900.94 681.23 903.05 690.10 905.54 698.38 C 904.04 699.75 905.45 704.47 902.83 706.99 L 902.51 705.91 C 900.43 699.18 897.63 695.81 891.49 692.67 C 887.84 690.80 882.38 678.05 878.98 674.12 L 878.02 678.06 C 876.79 673.92 875.05 672.33 871.64 669.77 L 871.53 668.08 C 860.15 659.01 845.30 666.42 833.61 658.90 L 832.30 658.02 C 816.90 660.36 804.33 663.07 789.88 669.21 Z" fill="#293741" fill-rule="nonzero" node-id="94" stroke="none" target-height="68.33899" target-width="115.65698" target-x="789.884" target-y="638.65"></path><path d="M 789.88 669.21 C 804.33 663.07 816.90 660.36 832.30 658.02 L 833.61 658.90 C 845.30 666.42 860.15 659.01 871.53 668.08 L 871.64 669.77 C 875.05 672.33 876.79 673.92 878.02 678.06 L 878.98 674.12 C 882.38 678.05 887.84 690.80 891.49 692.67 C 897.63 695.81 900.43 699.18 902.51 705.91 L 902.83 706.99 C 905.45 704.47 904.04 699.75 905.54 698.38 L 905.75 697.16 C 906.92 689.73 901.86 678.00 897.63 671.82 C 896.54 670.24 895.92 668.72 895.23 666.94 L 896.15 665.75 C 900.94 673.18 903.78 678.86 906.87 687.11 C 907.84 689.68 908.20 692.60 908.66 695.31 C 908.87 696.55 908.80 697.76 908.76 699.00 L 910.65 697.71 C 915.81 720.42 904.29 747.37 893.36 766.81 C 877.76 789.49 861.35 816.49 831.96 821.63 C 823.73 823.07 814.43 823.12 806.24 821.32 C 808.78 821.13 816.38 821.38 817.93 819.78 C 809.66 815.22 797.70 814.99 788.46 811.67 C 770.88 805.34 754.32 795.82 738.12 786.62 C 742.42 782.22 747.08 777.95 750.24 772.62 L 750.73 771.76 C 761.73 759.00 768.33 743.47 775.85 728.59 C 780.25 719.92 784.16 707.59 786.03 698.05 L 786.55 695.58 C 787.68 692.33 787.13 690.14 787.92 687.16 C 789.40 681.44 789.00 676.80 789.68 670.94 L 789.88 669.21 Z" fill="#0c0c17" fill-rule="nonzero" node-id="96" stroke="none" target-height="165.1001" target-width="177.695" target-x="738.117" target-y="658.019"></path><path d="M 886.87 695.58 L 890.91 694.73 C 893.70 697.30 894.35 697.72 894.95 701.64 C 895.70 706.62 894.52 710.22 891.60 714.19 L 886.68 714.90 C 884.62 713.05 883.43 712.54 882.88 709.73 C 881.74 703.90 883.59 700.31 886.87 695.58 Z" fill="#b9bab9" fill-rule="nonzero" node-id="98" stroke="none" target-height="20.164001" target-width="13.957031" target-x="881.743" target-y="694.733"></path><path d="M 871.64 669.77 C 875.05 672.33 876.79 673.92 878.02 678.06 L 876.15 686.84 C 873.17 690.11 872.67 690.69 868.44 691.87 L 865.41 689.96 C 863.63 686.74 863.28 683.81 863.65 680.14 C 864.16 675.25 868.11 672.62 871.64 669.77 Z" fill="#b9bab9" fill-rule="nonzero" node-id="100" stroke="none" target-height="22.098999" target-width="14.742004" target-x="863.278" target-y="669.77"></path><path d="M 829.55 663.30 C 832.37 662.52 832.67 662.79 835.48 663.81 C 837.80 667.28 838.81 668.51 838.99 672.80 C 839.24 677.80 837.25 681.04 834.05 684.68 L 828.44 685.33 C 825.19 683.02 824.08 681.53 823.75 677.33 C 823.32 671.89 826.53 667.45 829.55 663.30 Z" fill="#b9bab9" fill-rule="nonzero" node-id="102" stroke="none" target-height="22.804016" target-width="15.921997" target-x="823.316" target-y="662.522"></path><path d="M 819.58 716.14 C 828.01 715.67 835.70 715.57 843.09 720.45 C 850.01 725.00 854.52 732.20 856.30 740.23 C 858.49 750.18 857.40 762.75 851.62 771.37 C 845.80 780.02 837.61 782.05 827.88 783.74 C 821.05 783.41 814.50 782.45 808.09 780.03 C 801.54 777.56 792.63 772.52 789.92 765.73 C 786.93 758.28 789.42 748.31 792.49 741.19 C 798.00 728.35 806.82 721.22 819.58 716.14 Z" fill="#e13c77" fill-rule="nonzero" node-id="104" stroke="none" target-height="68.16901" target-width="71.5611" target-x="786.9279" target-y="715.574"></path><path d="M 124.17 689.72 C 130.16 673.27 138.43 660.02 154.82 652.38 C 169.47 645.56 187.90 644.98 202.96 650.79 C 222.28 658.24 237.70 673.45 250.94 688.94 C 256.11 717.20 265.46 741.09 282.81 764.15 C 285.76 768.06 289.05 773.52 293.04 776.39 L 295.42 781.57 C 282.82 798.22 251.02 808.99 231.30 811.75 C 214.03 814.16 194.88 811.93 180.68 800.94 L 179.35 799.89 C 178.13 798.94 176.99 798.32 175.64 797.56 C 171.13 794.95 167.17 790.36 163.46 786.67 C 145.37 768.60 130.33 741.69 124.19 716.82 C 121.95 707.68 122.66 698.90 124.17 689.72 Z" fill="url(#paint0_linear_1_667)" fill-rule="nonzero" node-id="106" stroke="none" target-height="169.18402" target-width="173.46701" target-x="121.948" target-y="644.977"></path><path d="M 132.31 698.38 C 135.08 698.45 137.38 699.24 139.40 701.19 C 143.57 705.21 146.18 711.27 146.08 717.05 C 146.03 720.27 144.55 720.78 142.32 722.94 L 140.99 722.97 C 137.50 722.88 133.79 720.35 131.69 717.72 C 127.62 712.62 127.36 707.32 128.07 701.19 L 132.31 698.38 Z" fill="#fefefe" fill-rule="nonzero" node-id="108" stroke="none" target-height="24.585022" target-width="18.820992" target-x="127.355" target-y="698.383"></path><path d="M 146.10 670.32 C 149.54 668.98 150.07 669.16 153.55 669.83 C 157.68 673.55 161.07 676.65 162.12 682.44 C 163.09 687.80 162.45 689.90 159.25 694.17 C 157.42 694.39 155.96 694.11 154.11 693.88 C 149.86 691.28 146.12 687.83 144.51 682.95 C 142.77 677.67 143.56 675.03 146.10 670.32 Z" fill="#fefefe" fill-rule="nonzero" node-id="110" stroke="none" target-height="25.412048" target-width="20.318008" target-x="142.771" target-y="668.975"></path><path d="M 185.65 659.09 C 187.73 658.66 189.66 659.34 191.49 660.37 C 195.47 662.61 199.38 669.38 200.08 673.82 C 200.90 678.95 199.85 680.57 196.91 684.35 C 193.40 684.35 191.56 684.62 188.50 682.62 C 184.55 680.02 181.82 672.91 181.48 668.20 C 181.14 663.47 182.60 662.19 185.65 659.09 Z" fill="#fefefe" fill-rule="nonzero" node-id="112" stroke="none" target-height="25.961975" target-width="19.756012" target-x="181.143" target-y="658.661"></path><path d="M 188.05 714.63 C 193.56 714.43 199.87 713.77 205.18 715.47 C 216.52 719.10 225.74 727.43 230.46 738.40 C 234.26 747.21 235.87 757.61 232.25 766.77 C 227.90 777.78 219.87 783.56 209.30 788.13 C 202.34 788.95 197.44 789.18 190.70 786.78 C 179.61 782.83 172.01 774.20 167.22 763.65 C 163.18 754.70 162.41 744.04 166.08 734.81 C 170.25 724.35 177.93 718.82 188.05 714.63 Z" fill="#bf6f99" fill-rule="nonzero" node-id="114" stroke="none" target-height="75.40698" target-width="73.45001" target-x="162.415" target-y="713.771"></path><path d="M 807.53 372.48 C 825.50 422.49 838.17 469.86 814.43 520.83 C 792.49 567.93 744.82 599.09 697.18 616.20 C 608.37 648.12 508.71 654.85 415.92 639.33 C 380.61 633.42 344.73 624.18 312.29 608.79 C 273.00 590.17 236.91 560.00 222.04 517.91 C 216.13 501.14 212.76 484.50 213.06 466.72 C 218.05 478.88 218.69 490.21 226.70 501.50 C 264.36 554.70 357.17 584.26 418.82 595.14 C 502.03 609.82 594.62 604.50 674.96 578.13 C 701.58 569.39 727.51 558.65 750.47 542.33 C 781.91 519.98 804.12 490.38 811.12 452.07 C 813.79 437.48 811.66 423.00 809.06 408.57 C 806.89 396.64 803.73 386.13 807.08 374.02 L 807.53 372.48 Z" fill="#d0d4c8" fill-rule="nonzero" node-id="116" stroke="none" target-height="282.37" target-width="625.411" target-x="212.76001" target-y="372.482"></path><path d="M 299.72 777.02 C 285.14 759.94 273.25 742.79 264.73 721.81 C 247.76 680.00 262.84 637.10 279.55 597.89 C 330.61 627.36 385.93 641.78 444.07 648.51 C 528.51 658.29 615.61 650.30 696.21 622.50 C 706.54 618.95 716.58 615.07 726.46 610.41 C 732.39 607.62 753.10 594.60 757.93 595.31 C 769.98 611.29 779.95 636.16 783.30 655.81 C 790.15 696.10 769.51 737.24 746.91 769.16 C 740.87 776.09 734.23 785.53 725.90 789.58 C 718.66 793.09 711.25 800.92 704.65 805.82 C 692.96 814.47 681.15 821.44 668.18 828.04 C 665.62 830.68 663.17 832.27 662.61 836.02 C 659.13 839.09 645.40 841.68 640.42 842.15 C 620.96 843.99 601.13 840.11 586.02 827.14 C 583.81 825.39 576.03 815.58 574.21 815.04 C 572.53 814.53 565.96 816.08 563.94 816.34 C 552.83 817.70 541.73 819.18 530.54 819.53 C 505.49 820.31 479.73 818.22 455.62 811.30 L 456.63 806.47 L 459.85 804.88 C 460.52 803.04 460.86 801.15 461.29 799.24 C 462.71 793.47 464.02 787.79 464.30 781.83 C 465.78 748.52 439.81 719.66 418.72 696.79 L 455.43 705.48 L 466.13 706.64 L 468.11 705.36 L 467.14 703.29 C 455.49 697.54 437.15 695.02 424.34 692.07 C 421.44 691.39 417.00 691.25 414.37 690.14 C 412.48 689.35 408.94 685.18 407.16 683.56 C 397.73 674.96 383.59 659.04 370.74 657.03 C 398.29 680.52 454.33 735.48 457.10 773.21 L 457.34 789.29 C 453.75 783.42 452.31 776.74 449.09 770.66 C 445.01 762.95 437.86 753.70 428.98 751.43 L 424.20 750.03 C 419.58 749.46 414.81 749.78 410.14 749.87 L 395.10 755.87 L 385.25 762.83 C 382.73 767.65 378.87 771.04 376.05 775.57 C 372.66 780.97 369.86 787.50 367.72 793.50 L 367.26 794.41 C 367.84 807.49 367.07 816.53 371.22 829.20 C 343.33 815.64 322.11 798.11 299.72 777.02 Z" fill="#1c2430" fill-rule="nonzero" node-id="118" stroke="none" target-height="249.39001" target-width="542.38196" target-x="247.764" target-y="594.602"></path><path d="M 566.32 707.78 L 569.76 703.37 C 577.50 696.91 608.99 697.40 620.78 692.98 C 631.95 688.80 647.64 668.79 659.24 669.74 C 637.50 687.65 617.56 706.33 599.43 727.97 C 586.54 743.36 575.00 757.88 572.96 778.60 C 572.57 782.56 572.90 785.73 573.72 789.61 L 575.73 799.85 C 576.21 804.11 576.96 807.91 579.00 811.73 C 581.90 817.18 586.48 820.64 586.02 827.14 C 583.81 825.39 576.03 815.58 574.21 815.04 C 572.53 814.54 565.96 816.09 563.94 816.34 C 552.83 817.70 541.73 819.18 530.54 819.53 C 505.49 820.32 479.73 818.22 455.62 811.30 L 456.63 806.47 L 459.85 804.88 C 460.52 803.04 460.86 801.15 461.29 799.24 C 462.71 793.47 464.02 787.79 464.30 781.83 C 465.78 748.52 439.81 719.66 418.72 696.79 L 455.43 705.48 L 466.13 706.64 C 490.73 712.85 521.88 711.65 547.05 709.76 C 552.58 709.34 560.40 709.69 565.66 708.19 L 566.32 707.78 Z" fill="#d0d4c8" fill-rule="nonzero" node-id="120" stroke="none" target-height="158.35504" target-width="240.518" target-x="418.724" target-y="668.788"></path><path d="M 566.32 707.78 L 569.76 703.37 C 577.50 696.91 608.99 697.40 620.78 692.98 C 631.95 688.80 647.64 668.79 659.24 669.74 C 637.50 687.65 617.56 706.33 599.43 727.97 C 586.54 743.36 575.00 757.88 572.96 778.60 C 572.57 782.56 572.90 785.73 573.73 789.61 L 575.73 799.85 C 576.21 804.11 576.96 807.91 579.00 811.73 C 581.90 817.18 586.48 820.64 586.02 827.14 C 583.81 825.39 576.03 815.58 574.21 815.04 C 572.53 814.54 565.96 816.09 563.94 816.34 C 552.83 817.70 541.73 819.18 530.54 819.53 C 505.49 820.32 479.73 818.22 455.62 811.30 L 456.63 806.47 L 459.85 804.88 C 496.64 812.50 532.53 813.76 569.68 807.33 C 567.87 798.93 565.31 790.52 565.47 781.86 C 566.13 750.95 595.18 721.09 616.32 700.97 L 578.25 707.11 L 566.32 707.78 Z" fill="#010100" fill-rule="nonzero" node-id="122" stroke="none" target-height="158.35504" target-width="203.625" target-x="455.617" target-y="668.788"></path><path d="M 578.25 707.11 C 575.71 716.03 566.52 725.67 562.41 734.84 C 555.09 751.09 552.51 767.18 547.81 783.98 C 547.03 786.82 545.57 788.83 542.95 790.22 C 529.22 797.53 504.86 793.59 490.56 789.60 C 486.90 774.34 483.62 759.45 476.50 745.30 C 472.62 737.61 468.15 730.44 463.12 723.44 C 460.00 719.10 452.34 711.21 451.78 706.31 L 455.43 705.48 L 466.13 706.64 C 490.73 712.85 521.88 711.65 547.05 709.76 C 552.58 709.34 560.40 709.69 565.66 708.19 L 566.32 707.78 L 578.25 707.11 Z" fill="#fefefe" fill-rule="nonzero" node-id="124" stroke="none" target-height="92.048035" target-width="126.47" target-x="451.782" target-y="705.483"></path><path d="M 358.93 795.73 L 355.47 796.98 C 351.39 798.17 344.54 794.73 340.86 792.83 C 307.03 775.38 282.13 738.60 270.89 702.97 C 266.55 689.19 261.31 659.49 268.83 646.61 C 273.39 638.78 282.11 633.59 290.77 631.54 C 321.16 624.35 346.30 641.78 370.74 657.03 C 398.29 680.52 454.33 735.48 457.10 773.21 L 457.34 789.29 C 453.75 783.42 452.31 776.74 449.09 770.66 C 445.01 762.95 437.86 753.70 428.98 751.43 L 424.20 750.03 C 419.58 749.46 414.81 749.78 410.14 749.87 L 395.10 755.87 L 385.25 762.83 C 382.73 767.65 378.87 771.04 376.05 775.57 C 372.66 780.97 369.86 787.50 367.72 793.50 L 367.26 794.41 C 364.79 795.66 361.66 795.53 358.93 795.73 Z" fill="#293741" fill-rule="nonzero" node-id="126" stroke="none" target-height="173.828" target-width="196.02902" target-x="261.309" target-y="624.347"></path><path d="M 410.14 749.87 L 408.47 744.70 C 410.47 741.51 411.75 738.91 415.92 738.30 C 418.07 737.99 420.82 738.48 422.95 738.76 C 426.81 742.57 426.82 742.56 427.14 747.96 L 424.20 750.03 C 419.58 749.46 414.81 749.78 410.14 749.87 Z" fill="#b9bab9" fill-rule="nonzero" node-id="128" stroke="none" target-height="12.04303" target-width="18.67096" target-x="408.471" target-y="737.987"></path><path d="M 358.93 795.73 C 355.73 790.68 354.42 788.58 354.83 782.59 C 357.55 779.61 357.85 778.80 361.90 777.89 L 364.66 779.79 C 367.69 784.66 367.80 788.00 367.72 793.50 L 367.26 794.41 C 364.79 795.66 361.66 795.53 358.93 795.73 Z" fill="#b9bab9" fill-rule="nonzero" node-id="130" stroke="none" target-height="17.841003" target-width="13.377014" target-x="354.422" target-y="777.893"></path><path d="M 385.25 762.83 L 379.87 759.74 C 377.68 755.29 377.68 755.14 378.82 750.31 C 382.90 746.91 383.25 746.85 388.56 746.61 C 393.19 749.18 393.24 751.11 395.10 755.87 L 385.25 762.83 Z" fill="#b9bab9" fill-rule="nonzero" node-id="132" stroke="none" target-height="16.223083" target-width="17.418" target-x="377.677" target-y="746.6099"></path><path d="M 659.24 669.74 C 677.76 656.52 707.66 643.00 730.86 646.72 C 742.23 648.55 751.83 652.32 758.94 661.89 C 766.37 671.89 764.57 685.99 762.61 697.45 C 757.56 726.90 730.58 764.98 706.18 782.16 C 697.52 788.26 684.07 798.24 673.40 799.95 L 670.97 797.53 C 670.62 805.81 666.56 820.48 668.18 828.04 C 665.62 830.68 663.17 832.27 662.61 836.02 C 659.13 839.09 645.40 841.68 640.42 842.15 C 620.96 843.99 601.13 840.11 586.02 827.14 C 586.48 820.64 581.90 817.18 579.00 811.73 C 576.96 807.91 576.21 804.11 575.73 799.85 L 573.73 789.61 C 572.90 785.73 572.57 782.56 572.96 778.60 C 575.00 757.88 586.54 743.36 599.43 727.97 C 617.56 706.33 637.50 687.65 659.24 669.74 Z" fill="#293741" fill-rule="nonzero" node-id="134" stroke="none" target-height="200.99603" target-width="193.802" target-x="572.565" target-y="642.996"></path><path d="M 655.26 761.34 C 658.68 758.47 661.09 756.09 665.68 755.40 C 669.01 758.08 668.95 758.00 669.48 762.24 C 668.00 765.92 665.94 767.42 662.85 769.79 L 655.26 761.34 Z" fill="#b9bab9" fill-rule="nonzero" node-id="136" stroke="none" target-height="14.389893" target-width="14.217957" target-x="655.257" target-y="755.405"></path><path d="M 628.24 750.87 C 630.09 745.36 631.95 743.61 636.59 740.49 C 641.17 739.77 641.41 739.40 645.25 741.89 C 646.82 745.58 647.68 748.06 646.18 751.92 L 645.06 754.34 L 628.24 750.87 Z" fill="#b9bab9" fill-rule="nonzero" node-id="138" stroke="none" target-height="14.936951" target-width="19.438965" target-x="628.241" target-y="739.3981"></path><path d="M 596.64 762.13 C 594.12 758.62 594.02 757.47 593.52 753.12 C 595.31 748.44 596.77 745.80 600.44 742.32 C 604.31 741.52 605.02 741.18 608.86 742.62 C 611.80 747.67 610.88 749.20 609.91 754.74 L 596.64 762.13 Z" fill="#b9bab9" fill-rule="nonzero" node-id="140" stroke="none" target-height="20.94806" target-width="18.278992" target-x="593.518" target-y="741.17896"></path><path d="M 628.24 750.87 L 645.06 754.34 C 648.88 756.30 651.95 758.66 655.26 761.34 L 662.85 769.80 C 667.25 778.67 670.95 787.47 670.97 797.53 C 670.62 805.81 666.56 820.48 668.18 828.04 C 665.62 830.68 663.17 832.27 662.61 836.02 C 659.13 839.09 645.40 841.68 640.42 842.15 C 620.96 843.99 601.13 840.11 586.02 827.14 C 586.48 820.64 581.90 817.18 579.00 811.73 C 576.96 807.91 576.21 804.11 575.73 799.85 L 575.95 799.20 C 578.59 792.61 579.73 785.57 582.85 779.15 C 586.09 772.53 591.53 767.33 596.64 762.13 L 609.91 754.74 L 628.24 750.87 Z" fill="#0c0c17" fill-rule="nonzero" node-id="142" stroke="none" target-height="93.12598" target-width="95.24597" target-x="575.726" target-y="750.866"></path><path d="M 262.75 297.72 C 299.18 238.76 358.05 195.18 424.34 175.25 C 436.20 171.68 448.36 169.12 460.56 166.96 C 465.23 166.14 473.07 166.08 477.09 164.38 C 481.64 162.45 488.71 154.59 492.79 151.22 C 506.07 140.29 518.80 133.78 534.92 128.18 C 531.09 134.90 524.82 144.68 524.48 152.43 C 525.25 153.15 525.79 154.21 526.78 154.59 C 527.35 154.81 536.20 151.93 537.45 151.59 C 552.53 147.42 565.81 147.34 581.28 147.65 L 555.86 163.99 C 569.35 167.34 583.45 167.59 597.11 170.24 C 635.52 177.70 668.65 195.78 700.59 217.62 L 707.28 222.55 C 723.09 235.28 737.65 248.18 750.48 264.00 C 776.49 296.06 792.80 334.32 807.53 372.48 L 807.08 374.02 C 803.73 386.13 806.89 396.64 809.06 408.57 C 811.66 423.00 813.79 437.48 811.12 452.07 C 804.12 490.38 781.91 519.98 750.47 542.33 C 727.51 558.65 701.58 569.39 674.96 578.13 C 594.62 604.50 502.03 609.82 418.82 595.14 C 357.17 584.26 264.36 554.70 226.70 501.50 C 218.69 490.21 218.05 478.88 213.06 466.72 C 209.62 420.31 228.36 374.72 245.00 332.34 C 245.74 331.95 248.68 324.92 249.22 323.78 L 262.75 297.72 Z" fill="#fefefe" fill-rule="nonzero" node-id="144" stroke="none" target-height="481.64502" target-width="604.177" target-x="209.617" target-y="128.175"></path><path d="M 519.41 430.79 C 512.27 428.05 504.73 425.78 499.21 420.21 C 495.50 416.48 491.71 411.70 490.64 406.46 C 491.44 403.36 491.41 401.73 494.36 399.94 C 502.67 394.92 535.47 395.93 545.34 397.84 C 549.31 401.39 549.35 401.90 550.43 407.16 C 548.97 414.52 544.65 418.95 538.66 423.05 C 534.12 426.17 528.51 427.70 524.16 430.79 C 520.95 435.08 522.58 449.85 522.59 455.58 L 521.17 455.92 C 521.23 450.27 522.89 436.80 520.25 432.15 L 519.41 430.79 Z" fill="#07050b" fill-rule="nonzero" node-id="146" stroke="none" target-height="60.999023" target-width="59.791992" target-x="490.64" target-y="394.92398"></path><path d="M 283.25 462.25 C 293.73 461.26 306.10 460.20 316.03 464.32 C 323.07 467.25 328.38 471.31 331.20 478.72 C 332.87 483.12 332.50 486.14 330.57 490.30 C 327.73 496.41 321.06 499.23 315.17 501.46 C 306.02 502.82 297.19 502.91 288.29 500.11 C 280.52 497.67 271.52 492.37 267.97 484.75 C 266.30 481.17 265.93 477.52 267.63 473.86 C 270.72 467.24 276.86 464.75 283.25 462.25 Z" fill="#e13c77" fill-rule="nonzero" node-id="148" stroke="none" target-height="42.70999" target-width="66.94" target-x="265.93" target-y="460.198"></path><path d="M 709.38 469.90 L 725.15 461.50 C 741.78 461.36 761.05 460.07 773.94 472.77 C 776.96 475.74 779.41 479.68 779.45 484.04 C 779.46 488.72 776.49 492.90 773.08 495.84 C 763.02 504.51 747.19 506.81 734.45 505.31 C 725.49 504.26 711.64 499.98 706.22 492.23 C 703.90 488.93 703.13 483.34 704.31 479.44 C 705.26 476.24 707.42 472.61 709.38 469.90 Z" fill="#e13c77" fill-rule="nonzero" node-id="150" stroke="none" target-height="46.738007" target-width="76.33093" target-x="703.1321" target-y="460.069"></path><path d="M 519.41 430.79 L 520.25 432.15 C 522.89 436.80 521.23 450.27 521.17 455.92 L 522.59 455.58 C 522.58 449.85 520.95 435.08 524.16 430.79 C 524.16 438.32 522.14 454.36 526.07 460.46 C 536.12 465.74 548.50 466.64 559.36 463.22 C 567.33 460.71 573.44 455.41 579.71 450.09 C 589.65 464.09 592.86 485.42 590.19 502.08 C 588.24 514.15 583.47 524.50 576.85 534.69 C 562.72 551.09 546.20 560.86 524.45 562.70 C 508.90 564.01 490.32 558.37 478.44 548.31 L 468.17 537.79 L 465.63 534.47 C 461.94 529.58 459.47 524.98 457.36 519.18 C 448.43 494.65 453.48 471.59 464.26 448.73 C 469.33 452.98 474.81 458.07 480.80 460.96 C 493.99 467.32 505.87 465.48 519.30 460.88 L 519.41 430.79 Z" fill="#0c0c17" fill-rule="nonzero" node-id="152" stroke="none" target-height="133.22202" target-width="144.42996" target-x="448.433" target-y="430.79"></path><path d="M 468.17 537.79 C 467.76 530.26 465.70 522.59 469.63 515.71 C 475.43 505.62 487.98 498.65 499.04 496.30 C 503.87 495.27 512.10 494.91 516.35 497.99 C 520.87 501.28 520.93 505.91 521.53 511.01 C 521.73 512.65 521.77 513.47 522.89 514.79 L 523.14 509.65 C 523.36 506.02 523.60 500.85 526.54 498.45 C 531.07 494.74 537.52 494.95 543.06 495.37 C 553.54 496.17 564.58 502.47 571.24 510.50 C 577.52 518.10 577.78 525.40 576.85 534.69 C 562.72 551.09 546.20 560.86 524.45 562.70 C 508.90 564.01 490.32 558.37 478.44 548.31 L 468.17 537.79 Z" fill="#f27671" fill-rule="nonzero" node-id="154" stroke="none" target-height="69.275024" target-width="112.08301" target-x="465.701" target-y="494.737"></path><path d="M 385.24 276.96 C 405.72 274.50 426.66 278.18 444.97 287.59 C 464.19 297.46 481.51 315.13 487.96 336.05 C 491.89 348.77 492.44 362.54 485.70 374.51 C 481.06 382.75 473.93 389.67 468.92 397.76 C 462.03 408.90 456.08 420.65 448.41 431.29 C 432.49 453.37 411.91 467.66 385.74 474.88 C 363.23 479.07 334.67 472.92 315.90 460.06 C 297.66 447.55 282.39 429.96 278.48 407.55 C 273.98 381.62 284.36 352.79 299.14 331.77 C 319.44 302.91 350.64 283.09 385.24 276.96 Z" fill="#1c2430" fill-rule="nonzero" node-id="156" stroke="none" target-height="204.56998" target-width="218.46097" target-x="273.975" target-y="274.496"></path><path d="M 298.45 362.95 C 304.47 362.70 309.71 364.07 314.89 367.10 C 318.41 369.14 321.66 371.54 322.79 375.58 C 320.58 379.88 315.88 381.29 311.69 383.25 C 302.34 383.99 296.93 384.70 289.24 378.39 C 287.18 373.77 287.05 373.48 288.25 368.58 C 291.50 365.19 293.92 364.09 298.45 362.95 Z" fill="#fefefe" fill-rule="nonzero" node-id="158" stroke="none" target-height="21.99405" target-width="35.73401" target-x="287.052" target-y="362.705"></path><path d="M 360.46 373.00 C 364.92 359.62 369.93 347.79 383.40 341.20 C 392.38 336.80 405.35 334.76 414.94 338.22 C 425.08 341.88 434.36 348.74 438.82 358.78 C 442.88 367.98 442.71 376.71 441.38 386.48 C 441.87 389.99 440.50 392.80 438.93 395.93 C 434.29 405.18 424.50 413.48 414.72 416.84 L 413.11 417.37 C 410.34 418.33 407.65 419.29 404.69 419.62 C 390.85 421.18 377.00 417.98 366.23 408.86 C 359.49 403.16 354.95 394.25 354.48 385.41 C 354.14 378.96 356.25 377.24 360.46 373.00 Z" fill="#07050b" fill-rule="nonzero" node-id="160" stroke="none" target-height="86.41498" target-width="88.73505" target-x="354.141" target-y="334.764"></path><path d="M 360.46 373.00 C 364.92 359.62 369.93 347.79 383.40 341.20 C 392.38 336.80 405.35 334.76 414.94 338.22 C 425.09 341.88 434.36 348.74 438.82 358.78 C 442.88 367.98 442.71 376.71 441.38 386.48 C 437.68 387.90 436.24 388.80 432.25 388.21 C 432.75 385.39 433.32 382.37 432.96 379.50 C 431.73 369.95 425.09 359.83 417.19 354.47 C 411.46 350.60 404.08 348.53 397.25 350.14 C 388.08 352.30 381.21 357.83 376.44 365.88 C 367.95 380.18 373.28 388.16 377.06 402.43 C 373.34 401.70 370.90 400.29 368.21 397.56 C 361.36 390.61 360.58 382.30 360.46 373.00 Z" fill="#fefefe" fill-rule="nonzero" node-id="162" stroke="none" target-height="67.662994" target-width="82.41104" target-x="360.465" target-y="334.764"></path><path d="M 709.38 469.90 C 697.58 474.10 683.84 477.33 671.29 476.75 C 646.41 475.59 625.34 464.27 608.77 445.90 C 596.44 432.25 587.48 417.22 576.64 402.52 C 569.80 393.22 558.53 381.89 554.32 371.26 C 551.25 363.51 550.86 356.19 551.40 347.90 C 552.64 329.20 564.45 310.71 578.29 298.68 C 599.71 280.06 625.81 272.94 653.76 275.16 C 683.08 277.48 714.04 295.77 732.65 318.02 C 752.45 341.69 764.53 369.74 761.52 400.88 C 759.03 426.65 744.66 445.78 725.15 461.50 L 709.38 469.90 Z" fill="#1c2430" fill-rule="nonzero" node-id="164" stroke="none" target-height="204.39401" target-width="213.67096" target-x="550.863" target-y="272.939"></path><path d="M 722.72 367.16 L 723.97 366.78 C 729.53 365.26 738.10 366.29 742.87 369.50 C 746.84 372.19 748.43 374.46 748.99 379.09 C 745.90 383.49 744.95 384.15 740.06 386.47 C 733.01 387.85 724.98 387.55 719.00 382.95 C 715.97 380.62 715.14 378.45 714.47 374.88 C 716.49 370.90 718.96 369.38 722.72 367.16 Z" fill="#fefefe" fill-rule="nonzero" node-id="166" stroke="none" target-height="22.580994" target-width="34.518005" target-x="714.469" target-y="365.265"></path><path d="M 606.33 388.40 L 606.09 387.10 C 605.55 384.31 604.11 381.90 603.58 379.09 C 602.11 371.23 606.24 360.95 610.54 354.58 C 616.72 345.46 626.58 339.25 637.35 337.25 C 649.03 335.09 661.58 337.70 671.01 344.95 C 679.95 351.83 686.11 362.89 687.23 374.11 C 688.07 382.50 685.45 389.90 680.38 396.47 C 677.37 398.70 675.22 400.73 671.37 400.85 C 675.99 395.44 677.91 388.21 677.37 381.16 C 676.60 371.31 671.27 362.55 663.68 356.40 C 657.22 351.16 649.20 348.53 640.87 349.49 C 633.55 350.34 626.58 355.30 622.20 361.07 C 615.74 369.56 615.76 378.81 616.96 388.91 L 615.16 391.08 L 606.33 388.40 Z" fill="#fefefe" fill-rule="nonzero" node-id="168" stroke="none" target-height="65.75601" target-width="85.96704" target-x="602.105" target-y="335.089"></path><path d="M 606.33 388.40 L 615.16 391.08 L 616.96 388.91 C 615.76 378.81 615.74 369.56 622.20 361.07 C 626.58 355.30 633.55 350.34 640.87 349.49 C 649.20 348.53 657.22 351.16 663.68 356.40 C 671.27 362.55 676.60 371.31 677.37 381.16 C 677.91 388.21 675.99 395.44 671.37 400.85 C 675.22 400.73 677.37 398.70 680.38 396.47 L 682.50 399.01 L 681.92 402.95 C 678.34 407.38 674.64 411.04 669.91 414.22 C 660.42 420.57 649.14 422.81 637.91 420.37 C 626.39 417.86 614.12 409.78 608.17 399.49 C 605.68 395.21 605.15 393.12 606.33 388.40 Z" fill="#07050b" fill-rule="nonzero" node-id="170" stroke="none" target-height="74.280975" target-width="77.34198" target-x="605.155" target-y="348.528"></path></svg>