<?xml version="1.0" standalone="no"?><!DOCTYPE svg PUBLIC "-//W3C//DTD SVG 1.1//EN" "http://www.w3.org/Graphics/SVG/1.1/DTD/svg11.dtd"><svg height="1024" node-id="1" sillyvg="true" template-height="1024" template-width="1024" version="1.1" viewBox="0 0 1024 1024" width="1024" xmlns="http://www.w3.org/2000/svg" xmlns:xlink="http://www.w3.org/1999/xlink"><defs node-id="36"></defs><path d="M 0.00 0.00 L 1024.00 0.00 L 1024.00 1024.00 L 0.00 1024.00 Z" fill="#ffffff" fill-rule="nonzero" node-id="38" stroke="none" target-height="1024" target-width="1024" target-x="0" target-y="0"></path><path d="M 476.91 672.27 C 508.97 679.13 541.82 678.57 573.93 672.66 C 567.75 690.95 555.09 709.62 534.28 711.76 C 507.73 718.06 480.11 699.61 476.91 672.27 Z M 491.87 685.77 C 506.38 708.66 540.63 705.74 556.83 686.22 C 535.18 686.61 513.52 686.56 491.87 685.77 Z" fill="#020202" fill-rule="nonzero" node-id="40" stroke="none" target-height="45.783997" target-width="97.02594" target-x="476.90704" target-y="672.272"></path><path d="M 504.81 127.81 C 528.49 110.09 565.66 117.17 580.91 142.66 C 605.32 184.62 636.37 222.02 664.94 261.11 C 714.21 326.58 754.32 398.24 794.48 469.45 C 821.98 517.82 847.46 567.37 870.97 617.77 C 888.52 657.65 906.24 698.43 911.36 742.07 C 915.52 776.61 899.21 812.27 870.80 832.18 C 839.36 854.57 800.61 862.27 763.65 870.48 C 658.08 891.80 550.42 902.49 442.77 904.96 C 369.93 905.92 296.25 905.86 224.75 890.12 C 189.26 881.28 149.10 869.53 129.14 836.06 C 105.51 795.56 109.17 745.06 122.95 701.86 C 145.67 635.26 187.07 577.50 225.49 519.34 C 249.73 474.68 282.18 435.25 311.32 393.80 C 289.55 385.02 265.31 379.85 247.14 364.21 C 215.98 335.81 236.90 274.50 278.86 270.73 C 302.09 266.68 324.65 275.40 346.13 283.10 C 338.43 270.00 326.28 257.57 327.57 241.26 C 328.92 214.14 360.48 192.26 385.85 205.15 C 385.90 180.85 408.18 157.22 433.37 163.69 C 447.04 165.55 452.72 180.23 460.54 188.83 C 475.50 168.70 484.84 143.78 504.81 127.81 Z M 513.98 159.59 C 495.19 188.89 476.29 218.14 456.60 246.88 C 451.99 225.84 451.26 202.11 437.65 184.50 C 423.75 168.87 397.38 189.00 405.31 206.89 C 412.84 231.41 422.91 255.37 426.57 280.96 C 427.13 287.43 422.69 292.38 420.16 297.84 C 409.81 272.02 401.31 244.12 382.47 223.03 C 365.82 205.43 333.03 233.16 347.20 252.45 C 363.57 280.06 386.30 304.59 395.63 335.92 C 361.55 316.40 326.28 292.66 285.33 293.34 C 257.38 294.35 245.12 338.34 270.26 352.29 C 296.86 365.79 326.34 372.76 353.62 385.02 C 334.44 413.54 313.12 440.54 293.38 468.66 C 281.68 487.11 263.90 501.96 258.56 523.89 C 229.99 566.59 199.78 608.38 176.05 654.10 C 157.03 689.71 140.78 728.63 142.19 769.80 C 142.69 795.17 149.84 823.35 171.83 838.65 C 197.93 856.25 229.99 861.43 260.36 866.77 C 324.70 875.83 389.95 876.22 454.80 874.65 C 557.51 871.72 660.16 861.54 760.95 841.01 C 795.04 832.91 832.33 827.12 859.50 803.10 C 878.51 786.57 886.66 759.62 881.04 735.21 C 867.37 664.17 828.90 601.63 801.11 535.87 C 764.66 479.46 734.69 419.16 698.91 362.30 C 664.77 306.05 623.43 254.70 584.06 202.05 C 572.13 186.87 564.93 168.53 552.73 153.57 C 541.87 141.31 521.29 145.58 513.98 159.59 Z" fill="#feffff" fill-rule="nonzero" node-id="42" stroke="none" target-height="795.83203" target-width="810.005" target-x="105.513" target-y="110.088"></path><path d="M 793.46 220.72 C 808.20 206.16 837.06 222.07 827.66 242.10 C 816.53 254.36 799.82 259.48 787.16 269.94 C 769.95 281.86 758.54 299.92 742.22 312.80 C 740.03 310.38 735.70 305.54 733.51 303.13 C 740.71 269.04 765.23 240.19 793.46 220.72 Z" fill="#feffff" fill-rule="nonzero" node-id="44" stroke="none" target-height="106.64299" target-width="103.55011" target-x="733.5059" target-y="206.157"></path><path d="M 513.97 159.58 C 521.28 145.58 541.87 141.30 552.73 153.57 C 564.93 168.53 572.13 186.86 584.05 202.05 C 623.43 254.70 664.77 306.05 698.91 362.30 C 734.68 419.16 764.66 479.46 801.11 535.87 C 828.90 601.63 867.37 664.17 881.04 735.21 C 886.66 759.62 878.51 786.56 859.49 803.10 C 832.33 827.12 795.04 832.91 760.95 841.01 C 660.16 861.54 557.51 871.72 454.80 874.65 C 389.95 876.22 324.70 875.83 260.36 866.77 C 229.98 861.43 197.92 856.25 171.82 838.65 C 149.83 823.35 142.69 795.17 142.18 769.80 C 140.78 728.63 157.03 689.71 176.04 654.10 C 199.78 608.38 229.98 566.58 258.56 523.89 C 263.90 501.96 281.67 487.11 293.37 468.66 C 313.12 440.54 334.43 413.54 353.61 385.02 C 326.33 372.76 296.86 365.78 270.26 352.29 C 245.11 338.34 257.38 294.35 285.33 293.34 C 326.28 292.66 361.54 316.40 395.63 335.92 C 386.29 304.59 363.57 280.06 347.20 252.45 C 333.03 233.15 365.82 205.43 382.47 223.03 C 401.31 244.12 409.80 272.02 420.15 297.84 C 422.68 292.38 427.13 287.43 426.56 280.96 C 422.91 255.37 412.84 231.41 405.30 206.89 C 397.37 189.00 423.75 168.87 437.65 184.50 C 451.26 202.11 451.99 225.84 456.60 246.88 C 476.29 218.14 495.19 188.89 513.97 159.58 Z M 512.06 210.77 C 496.99 225.73 487.65 245.13 475.16 262.07 C 455.19 289.46 435.79 317.24 415.48 344.35 C 424.71 345.93 433.88 347.62 443.27 348.74 C 504.86 360.67 567.35 369.05 627.87 386.03 C 574.49 374.56 520.50 366.06 466.27 359.93 C 454.18 358.36 442.03 359.43 430.11 360.83 C 423.25 358.25 416.33 356.05 409.13 354.76 C 375.38 396.21 345.29 440.65 313.51 483.62 C 352.66 479.12 392.03 478.22 431.40 478.11 C 540.75 484.91 650.99 490.88 758.03 516.02 C 756.39 511.41 754.88 506.91 753.41 502.35 L 746.72 498.98 C 730.01 459.88 707.63 423.21 685.19 387.27 C 682.37 383.00 679.51 378.78 676.69 374.56 L 673.88 373.55 C 660.94 345.48 642.83 320.28 624.33 295.64 C 621.18 291.76 618.08 287.88 614.99 284.00 L 612.24 283.38 C 587.94 245.30 555.71 212.51 536.64 171.06 C 527.08 183.32 517.01 195.81 512.06 210.77 Z M 414.70 196.37 C 419.53 222.92 432.70 247.50 434.78 274.83 C 440.68 266.23 450.86 258.02 448.28 246.32 C 446.19 228.15 443.21 209.47 434.83 193.05 C 431.52 183.54 412.33 185.29 414.70 196.37 Z M 350.69 239.40 C 369.08 264.71 384.66 291.76 400.97 318.37 C 402.60 318.48 405.87 318.59 407.50 318.65 C 415.09 305.99 406.71 291.99 403.17 279.45 L 401.08 278.71 C 392.54 259.76 386.63 236.87 367.39 225.73 L 366.72 223.54 C 361.38 228.82 356.03 234.11 350.69 239.40 Z M 270.43 309.71 C 265.93 318.14 264.74 332.26 276.11 335.52 C 305.24 348.01 335.67 357.40 364.98 369.61 C 372.40 362.41 377.52 353.35 383.03 344.75 C 365.26 334.85 347.99 323.71 328.47 317.58 L 328.53 317.19 C 324.76 315.84 317.33 313.02 313.57 311.62 C 299.95 306.61 283.75 300.48 270.43 309.71 Z M 296.86 511.74 C 290.62 520.52 284.49 529.46 278.69 538.52 C 243.59 588.91 208.22 639.82 183.24 696.18 C 170.70 724.07 164.29 754.84 167.38 785.44 C 171.54 799.28 175.82 815.08 190.16 821.77 C 221.04 838.14 256.59 842.14 290.84 845.85 C 405.36 855.63 520.66 849.62 634.62 836.79 C 690.47 829.59 746.21 820.65 800.66 806.19 C 821.64 800.18 844.42 790.33 854.26 769.41 C 861.24 755.40 858.03 739.32 854.32 724.86 C 838.96 667.72 811.68 614.90 785.31 562.31 C 780.75 554.32 776.64 543.97 766.18 543.07 C 669.33 520.91 570.11 510.51 471.00 505.78 C 412.95 503.70 354.40 502.46 296.86 511.74 Z" fill="#000000" fill-rule="nonzero" node-id="46" stroke="none" target-height="734.917" target-width="745.88403" target-x="140.777" target-y="141.304"></path><path d="M 356.03 659.62 C 367.40 632.56 409.24 628.51 424.94 653.60 C 430.22 661.92 439.50 679.70 424.04 683.13 C 416.11 672.55 413.12 655.85 398.16 652.87 C 383.65 648.37 372.96 661.42 366.21 672.27 L 364.13 675.25 C 355.98 687.23 349.12 665.07 356.03 659.62 Z" fill="#000000" fill-rule="nonzero" node-id="48" stroke="none" target-height="58.720947" target-width="90.38901" target-x="349.115" target-y="628.512"></path><path d="M 610.27 656.02 C 624.16 630.09 666.01 631.49 679.11 657.48 C 681.08 663.22 688.51 675.76 676.86 676.60 C 675.96 676.55 674.05 676.49 673.10 676.43 C 665.11 665.69 656.33 648.82 639.97 652.98 C 623.71 655.00 621.01 673.51 612.74 684.42 C 597.89 681.95 605.66 664.34 610.27 656.02 Z" fill="#000000" fill-rule="nonzero" node-id="50" stroke="none" target-height="54.335022" target-width="90.61304" target-x="597.894" target-y="630.087"></path><path d="M 512.06 210.77 C 517.01 195.81 527.08 183.32 536.64 171.06 C 555.71 212.51 587.94 245.31 612.24 283.38 C 572.86 272.92 532.31 268.08 491.64 267.92 C 501.49 250.09 508.57 230.85 512.06 210.77 Z" fill="#6fa902" fill-rule="nonzero" node-id="52" stroke="none" target-height="112.324005" target-width="120.59198" target-x="491.643" target-y="171.06"></path><path d="M 475.17 262.07 C 487.65 245.14 496.99 225.73 512.06 210.77 C 508.58 230.85 501.49 250.09 491.65 267.92 C 532.31 268.08 572.87 272.92 612.24 283.38 L 614.99 284.00 C 618.09 287.88 621.18 291.76 624.33 295.64 C 619.44 294.80 609.71 293.06 604.81 292.21 C 564.93 284.51 524.10 280.18 483.49 282.65 C 467.80 298.51 456.88 318.31 443.10 335.81 C 505.43 335.92 568.76 338.56 628.94 355.94 C 644.02 361.68 658.64 368.37 673.88 373.55 L 676.70 374.56 C 679.51 378.78 682.38 383.00 685.19 387.27 C 671.80 381.42 658.02 376.64 644.02 372.70 C 578.83 353.47 510.55 352.23 443.27 348.74 C 433.88 347.62 424.71 345.93 415.49 344.36 C 435.79 317.24 455.20 289.46 475.17 262.07 Z" fill="#fefefe" fill-rule="nonzero" node-id="54" stroke="none" target-height="176.50099" target-width="269.702" target-x="415.488" target-y="210.77"></path><path d="M 313.51 483.62 C 345.29 440.65 375.38 396.21 409.13 354.76 C 416.33 356.05 423.25 358.25 430.11 360.83 C 437.59 365.00 448.78 366.35 451.88 375.57 C 443.16 393.18 420.89 385.92 405.42 385.98 C 387.31 412.75 368.13 438.74 348.95 464.72 C 413.80 459.94 478.99 458.25 543.90 463.94 C 545.58 467.93 548.85 475.86 550.48 479.85 C 510.82 477.60 471.06 474.62 431.40 478.11 C 392.03 478.22 352.66 479.12 313.51 483.62 Z" fill="#fefefe" fill-rule="nonzero" node-id="56" stroke="none" target-height="128.86096" target-width="236.96704" target-x="313.511" target-y="354.76"></path><path d="M 414.70 196.37 C 412.34 185.29 431.52 183.55 434.84 193.05 C 443.22 209.48 446.20 228.15 448.28 246.32 C 450.87 258.02 440.69 266.23 434.78 274.83 C 432.70 247.50 419.54 222.92 414.70 196.37 Z" fill="#7cae00" fill-rule="nonzero" node-id="58" stroke="none" target-height="91.28801" target-width="38.52899" target-x="412.338" target-y="183.546"></path><path d="M 833.68 272.70 C 847.35 268.98 866.14 261.05 877.38 274.27 C 886.78 284.12 879.86 303.58 865.35 302.73 C 834.81 305.49 805.50 314.71 778.00 328.04 C 770.40 333.61 760.22 323.99 766.24 316.46 C 782.50 294.52 808.71 282.20 833.68 272.70 Z" fill="#ffffff" fill-rule="nonzero" node-id="60" stroke="none" target-height="72.558014" target-width="126.554016" target-x="760.224" target-y="261.054"></path><path d="M 431.41 478.11 C 471.06 474.62 510.83 477.60 550.48 479.85 C 609.37 485.03 668.03 492.23 726.36 501.68 C 735.31 502.75 744.36 502.52 753.42 502.35 C 754.88 506.91 756.40 511.41 758.03 516.02 C 650.99 490.88 540.75 484.92 431.41 478.11 Z" fill="#6ea903" fill-rule="nonzero" node-id="62" stroke="none" target-height="41.39804" target-width="326.62305" target-x="431.406" target-y="474.62198"></path><path d="M 350.69 239.40 C 356.03 234.11 361.38 228.82 366.72 223.54 L 367.40 225.73 C 374.65 244.41 379.26 271.91 401.09 278.71 L 403.17 279.45 C 406.71 291.99 415.09 306.00 407.50 318.65 C 405.87 318.59 402.61 318.48 400.98 318.37 C 384.66 291.76 369.08 264.71 350.69 239.40 Z" fill="#6ca011" fill-rule="nonzero" node-id="64" stroke="none" target-height="95.11299" target-width="64.40198" target-x="350.691" target-y="223.537"></path><path d="M 301.75 314.21 C 304.74 313.53 310.64 312.30 313.57 311.62 C 317.33 313.03 324.76 315.84 328.53 317.19 L 328.47 317.58 C 327.69 320.73 326.11 327.09 325.32 330.29 C 316.66 329.73 291.35 328.21 301.75 314.21 Z" fill="#fefdfe" fill-rule="nonzero" node-id="66" stroke="none" target-height="18.674011" target-width="37.179016" target-x="291.349" target-y="311.62"></path><path d="M 367.40 225.73 C 386.63 236.87 392.54 259.76 401.09 278.71 C 379.26 271.91 374.65 244.41 367.40 225.73 Z" fill="#88b81d" fill-rule="nonzero" node-id="68" stroke="none" target-height="52.98398" target-width="33.69101" target-x="367.396" target-y="225.73102"></path><path d="M 278.70 538.52 C 309.12 535.37 339.44 530.47 370.10 529.80 C 486.81 526.48 604.53 531.65 718.94 556.57 C 734.91 560.68 754.32 563.49 762.81 579.69 C 781.71 611.69 798.64 647.41 797.91 685.38 C 798.13 707.82 783.06 725.48 770.29 742.30 C 762.02 730.15 754.82 717.33 748.80 703.94 C 757.35 704.61 765.96 705.35 774.57 706.08 C 781.82 688.86 783.40 670.25 780.47 651.85 C 772.93 651.52 765.40 651.24 757.92 650.95 C 755.67 662.65 753.36 674.30 751.00 685.94 C 742.39 690.83 730.64 693.98 727.82 704.78 C 734.18 724.92 740.25 745.34 740.48 766.65 C 723.44 768.57 707.41 774.70 695.93 787.91 C 688.62 786.51 681.37 785.10 674.11 783.70 C 673.04 779.98 670.90 772.50 669.83 768.79 C 664.10 772.62 654.53 773.57 653.18 781.62 C 650.99 791.12 661.57 795.23 666.68 801.08 C 666.29 806.48 665.90 811.87 665.56 817.27 C 590.02 826.89 513.81 827.68 437.82 828.19 C 397.83 827.96 357.72 829.59 317.90 825.21 C 313.29 814.18 311.09 801.25 302.15 792.70 C 294.56 787.97 285.89 785.38 277.63 782.18 C 271.21 774.81 264.92 767.38 258.67 759.96 C 267.67 761.87 276.73 763.78 285.84 765.70 C 285.61 743.93 284.43 714.51 260.92 704.73 C 247.76 700.62 246.24 716.76 241.12 724.98 C 230.49 716.26 219.02 706.41 204.17 709.79 C 211.09 722.16 217.95 734.59 224.42 747.30 C 218.12 740.55 211.88 733.75 205.69 727.00 C 188.48 743.37 177.90 764.63 167.38 785.44 C 164.29 754.84 170.70 724.08 183.25 696.18 C 208.22 639.82 243.60 588.91 278.70 538.52 Z M 356.04 659.62 C 349.12 665.07 355.98 687.23 364.13 675.25 C 363.29 678.85 361.60 686.05 360.76 689.65 C 356.65 686.22 352.55 682.79 348.67 679.25 C 344.45 685.60 336.29 693.59 342.76 701.46 C 353.50 709.56 368.13 709.39 380.95 708.72 C 390.57 708.21 402.38 702.64 401.71 691.28 C 397.21 675.82 378.98 675.31 366.21 672.27 C 372.96 661.42 383.65 648.37 398.16 652.87 C 413.13 655.85 416.11 672.55 424.04 683.13 C 439.50 679.70 430.22 661.92 424.94 653.60 C 409.24 628.51 367.40 632.56 356.04 659.62 Z M 610.27 656.02 C 605.66 664.34 597.89 681.95 612.74 684.42 C 621.01 673.51 623.71 655.00 639.97 652.98 C 656.34 648.82 665.11 665.69 673.10 676.43 C 660.95 676.38 646.72 673.45 636.71 682.51 C 626.75 689.93 629.67 707.54 642.10 710.24 C 657.24 712.83 674.16 713.16 688.00 705.51 C 698.46 696.91 688.28 685.43 683.00 677.50 C 681.87 684.25 680.75 691.06 679.62 697.86 C 677.20 691.00 676.98 683.75 676.87 676.60 C 688.51 675.76 681.08 663.22 679.12 657.48 C 666.01 631.49 624.16 630.09 610.27 656.02 Z M 476.91 672.27 C 480.11 699.61 507.73 718.06 534.28 711.76 C 555.09 709.62 567.75 690.95 573.93 672.66 C 541.82 678.57 508.97 679.13 476.91 672.27 Z" fill="#fefaf4" fill-rule="nonzero" node-id="70" stroke="none" target-height="303.112" target-width="634.347" target-x="164.291" target-y="526.481"></path><path d="M 483.49 282.65 C 524.10 280.18 564.94 284.51 604.82 292.21 C 612.63 313.59 621.35 334.57 628.95 355.94 C 568.76 338.56 505.43 335.92 443.11 335.81 C 456.89 318.31 467.80 298.51 483.49 282.65 Z" fill="#6aa400" fill-rule="nonzero" node-id="72" stroke="none" target-height="75.76398" target-width="185.83902" target-x="443.106" target-y="280.178"></path><path d="M 604.81 292.21 C 609.70 293.06 619.43 294.80 624.33 295.64 C 642.83 320.28 660.94 345.48 673.88 373.55 C 658.64 368.37 644.01 361.68 628.94 355.94 C 621.35 334.57 612.63 313.59 604.81 292.21 Z" fill="#518501" fill-rule="nonzero" node-id="74" stroke="none" target-height="81.33301" target-width="69.07001" target-x="604.809" target-y="292.214"></path><path d="M 270.43 309.71 C 283.76 300.48 299.96 306.61 313.57 311.62 C 310.64 312.29 304.74 313.53 301.76 314.21 C 291.35 328.21 316.66 329.73 325.33 330.29 C 326.11 327.09 327.69 320.73 328.48 317.58 C 347.99 323.71 365.26 334.85 383.04 344.75 C 377.52 353.35 372.40 362.41 364.98 369.61 C 335.68 357.40 305.25 348.01 276.11 335.52 C 264.75 332.26 265.93 318.14 270.43 309.71 Z" fill="#73a601" fill-rule="nonzero" node-id="76" stroke="none" target-height="69.12698" target-width="118.28705" target-x="264.748" target-y="300.482"></path><path d="M 443.27 348.74 C 510.54 352.23 578.83 353.47 644.02 372.70 C 657.35 408.98 679.23 442.22 684.23 481.32 C 637.77 473.16 590.86 468.15 543.90 463.94 C 478.99 458.25 413.80 459.94 348.95 464.72 C 368.13 438.74 387.31 412.75 405.42 385.98 C 420.89 385.92 443.16 393.18 451.88 375.57 C 448.79 366.35 437.59 365.00 430.11 360.83 C 442.04 359.43 454.19 358.36 466.28 359.94 C 520.50 366.07 574.50 374.56 627.87 386.03 C 567.35 369.05 504.86 360.67 443.27 348.74 Z" fill="#6da802" fill-rule="nonzero" node-id="78" stroke="none" target-height="132.57303" target-width="335.28497" target-x="348.948" target-y="348.742"></path><path d="M 828.11 357.69 C 849.43 355.10 874.68 350.94 893.08 364.83 C 907.42 375.63 894.93 402.91 877.10 394.64 C 850.10 385.42 821.64 388.11 793.86 385.58 C 786.77 365.84 814.39 360.89 828.11 357.69 Z" fill="#fefffe" fill-rule="nonzero" node-id="80" stroke="none" target-height="51.972015" target-width="120.64801" target-x="786.77" target-y="350.935"></path><path d="M 644.02 372.70 C 658.02 376.64 671.80 381.42 685.19 387.27 C 707.63 423.21 730.02 459.88 746.72 498.98 C 726.42 491.44 705.44 485.81 684.23 481.32 C 679.23 442.22 657.35 408.98 644.02 372.70 Z" fill="#548601" fill-rule="nonzero" node-id="82" stroke="none" target-height="126.27399" target-width="102.706055" target-x="644.016" target-y="372.70297"></path><path d="M 296.86 511.74 C 354.40 502.46 412.95 503.70 471.00 505.78 C 570.11 510.51 669.32 520.91 766.18 543.07 C 776.64 543.97 780.75 554.32 785.30 562.31 C 811.68 614.90 838.96 667.72 854.32 724.86 C 858.03 739.32 861.24 755.40 854.26 769.41 C 844.42 790.33 821.64 800.18 800.66 806.20 C 746.21 820.65 690.47 829.59 634.62 836.79 C 520.66 849.62 405.36 855.63 290.84 845.85 C 256.59 842.14 221.04 838.14 190.16 821.77 C 175.82 815.08 171.54 799.28 167.38 785.44 C 177.90 764.63 188.47 743.37 205.68 727.00 C 211.87 733.75 218.11 740.55 224.41 747.30 C 217.95 734.59 211.08 722.16 204.16 709.79 C 219.01 706.41 230.49 716.26 241.12 724.98 C 246.24 716.76 247.76 700.62 260.92 704.73 C 284.43 714.51 285.61 743.93 285.83 765.70 C 276.72 763.78 267.67 761.87 258.67 759.96 C 264.91 767.38 271.21 774.81 277.62 782.18 C 285.89 785.38 294.55 787.97 302.15 792.70 C 311.09 801.25 313.28 814.18 317.90 825.21 C 357.72 829.59 397.82 827.96 437.81 828.19 C 513.80 827.68 590.02 826.89 665.55 817.27 C 665.89 811.87 666.29 806.48 666.68 801.08 C 661.56 795.23 650.99 791.12 653.18 781.62 C 654.53 773.57 664.09 772.62 669.83 768.79 C 670.90 772.50 673.04 779.98 674.11 783.70 C 681.36 785.10 688.62 786.51 695.93 787.91 C 707.40 774.70 723.43 768.57 740.48 766.65 C 740.25 745.34 734.18 724.92 727.82 704.78 C 730.63 693.98 742.39 690.83 750.99 685.94 C 753.36 674.30 755.66 662.65 757.91 650.95 C 765.39 651.24 772.93 651.52 780.47 651.85 C 783.39 670.25 781.82 688.86 774.56 706.08 C 765.96 705.35 757.35 704.61 748.80 703.94 C 754.82 717.33 762.02 730.15 770.29 742.30 C 783.05 725.48 798.13 707.82 797.90 685.38 C 798.63 647.41 781.70 611.69 762.80 579.69 C 754.31 563.49 734.91 560.68 718.93 556.57 C 604.53 531.65 486.80 526.48 370.09 529.80 C 339.44 530.47 309.12 535.37 278.69 538.52 C 284.49 529.46 290.62 520.52 296.86 511.74 Z M 764.44 681.95 C 777.49 679.64 774.62 665.47 776.47 655.74 C 757.86 653.09 763.99 670.25 764.44 681.95 Z M 253.44 714.68 C 255.12 724.64 257.21 736.79 269.58 738.19 C 268.17 728.74 268.57 707.93 253.44 714.68 Z M 230.04 757.93 C 236.56 757.37 243.14 756.70 249.72 755.91 C 248.54 750.34 246.29 739.15 245.11 733.58 C 234.99 737.35 224.47 745.79 230.04 757.93 Z M 796.16 783.53 C 822.26 784.82 832.83 757.15 831.82 735.32 C 807.52 736.17 799.25 763.62 796.16 783.53 Z M 720.00 795.96 C 733.39 791.57 747.67 786.79 755.94 774.47 C 741.60 774.13 722.14 779.08 720.00 795.96 Z" fill="#fefaf4" fill-rule="nonzero" node-id="84" stroke="none" target-height="353.17203" target-width="693.857" target-x="167.38" target-y="502.46298"></path><path d="M 543.90 463.93 C 590.86 468.15 637.77 473.16 684.23 481.31 C 705.44 485.81 726.42 491.44 746.72 498.98 L 753.41 502.35 C 744.36 502.52 735.30 502.74 726.36 501.68 C 668.03 492.23 609.37 485.03 550.48 479.85 C 548.85 475.86 545.58 467.93 543.90 463.93 Z" fill="#e8e7dd" fill-rule="nonzero" node-id="86" stroke="none" target-height="38.810028" target-width="209.51898" target-x="543.896" target-y="463.93396"></path><path d="M 764.44 681.95 C 763.99 670.25 757.86 653.09 776.48 655.74 C 774.62 665.47 777.49 679.64 764.44 681.95 Z" fill="#fefaf4" fill-rule="nonzero" node-id="88" stroke="none" target-height="28.854004" target-width="19.630005" target-x="757.858" target-y="653.092"></path><path d="M 364.13 675.25 L 366.22 672.27 C 378.98 675.31 397.21 675.82 401.71 691.28 C 402.38 702.64 390.57 708.21 380.95 708.72 C 368.13 709.39 353.50 709.56 342.76 701.46 C 336.29 693.59 344.45 685.60 348.67 679.25 C 352.55 682.79 356.65 686.22 360.76 689.65 C 361.60 686.05 363.29 678.85 364.13 675.25 Z" fill="#f96f72" fill-rule="nonzero" node-id="90" stroke="none" target-height="37.291077" target-width="66.09003" target-x="336.293" target-y="672.272"></path><path d="M 636.70 682.51 C 646.72 673.45 660.95 676.38 673.10 676.43 C 674.05 676.49 675.96 676.55 676.86 676.60 C 676.98 683.75 677.20 691.00 679.62 697.86 C 680.75 691.06 681.87 684.25 683.00 677.50 C 688.28 685.43 698.46 696.91 688.00 705.51 C 674.16 713.16 657.23 712.83 642.10 710.24 C 629.67 707.54 626.75 689.93 636.70 682.51 Z" fill="#fc6f6f" fill-rule="nonzero" node-id="92" stroke="none" target-height="39.710022" target-width="71.71503" target-x="626.748" target-y="673.453"></path><path d="M 491.87 685.77 C 513.52 686.56 535.18 686.62 556.83 686.22 C 540.63 705.74 506.38 708.66 491.87 685.77 Z" fill="#872447" fill-rule="nonzero" node-id="94" stroke="none" target-height="22.893066" target-width="64.96399" target-x="491.87" target-y="685.771"></path><path d="M 253.44 714.68 C 268.57 707.93 268.18 728.74 269.58 738.19 C 257.21 736.79 255.13 724.64 253.44 714.68 Z" fill="#fefaf4" fill-rule="nonzero" node-id="96" stroke="none" target-height="30.26001" target-width="16.143005" target-x="253.439" target-y="707.932"></path><path d="M 230.04 757.94 C 224.47 745.79 234.99 737.35 245.12 733.58 C 246.30 739.15 248.55 750.34 249.73 755.91 C 243.15 756.70 236.57 757.37 230.04 757.94 Z" fill="#fefaf4" fill-rule="nonzero" node-id="98" stroke="none" target-height="24.35498" target-width="25.254974" target-x="224.475" target-y="733.581"></path><path d="M 796.16 783.53 C 799.26 763.62 807.53 736.17 831.83 735.32 C 832.84 757.15 822.26 784.82 796.16 783.53 Z" fill="#fefaf4" fill-rule="nonzero" node-id="100" stroke="none" target-height="49.49701" target-width="36.673035" target-x="796.165" target-y="735.324"></path><path d="M 720.00 795.96 C 722.14 779.08 741.60 774.13 755.94 774.47 C 747.67 786.79 733.39 791.57 720.00 795.96 Z" fill="#faf8f9" fill-rule="nonzero" node-id="102" stroke="none" target-height="21.823975" target-width="35.94098" target-x="720.002" target-y="774.13403"></path></svg>