<?xml version="1.0" standalone="no"?><!DOCTYPE svg PUBLIC "-//W3C//DTD SVG 1.1//EN" "http://www.w3.org/Graphics/SVG/1.1/DTD/svg11.dtd"><svg t="1781404075132" class="icon" viewBox="0 0 1024 1024" version="1.1" xmlns="http://www.w3.org/2000/svg" p-id="20412" xmlns:xlink="http://www.w3.org/1999/xlink" width="200" height="200"><path d="M512 512m-512 0a512 512 0 1 0 1024 0 512 512 0 1 0-1024 0Z" fill="#FFFFFF" p-id="20413"></path><path d="M491.434667 895.146667l-12.501334-1.194667a344.064 344.064 0 0 1-99.029333-25.6 289.578667 289.578667 0 0 1-68.693333-40.277333 286.634667 286.634667 0 0 0-14.122667-12.074667 347.904 347.904 0 0 1-124.117333-240.085333l-0.981334-12.202667 0.426667-22.997333 0.426667-22.997334 1.28-9.941333a346.197333 346.197333 0 0 1 170.197333-259.84l9.301333-5.290667 9.301334-9.429333a217.216 217.216 0 0 1 105.514666-61.482667l4.864-1.066666h60.629334l9.002666 2.56 9.088 2.773333 7.978667 4.266667a105.984 105.984 0 0 1 24.106667 17.365333l4.266666 4.266667 1.877334-0.426667 8.277333-2.133333 6.4-1.706667h12.8l4.821333 1.962667 4.821334 1.962666 7.936 6.826667a99.584 99.584 0 0 0 23.296 16.256 121.472 121.472 0 0 1 32.597333 24.832 148.138667 148.138667 0 0 0 14.634667 13.482667 348.8 348.8 0 0 1 29.866666 548.650666 84.352 84.352 0 0 0-9.045333 8.533334 53.248 53.248 0 0 1-7.936 6.826666 337.066667 337.066667 0 0 1-169.173333 67.072l-12.8 1.365334h-44.885334z m59.093333-356.48c1.109333-9.045333-0.682667-17.066667-2.986667-13.141334a29.866667 29.866667 0 0 0 0 11.904c0.384 1.877333 2.816 2.816 2.986667 1.237334z m73.472-25.941334a3.285333 3.285333 0 0 0-2.176-6.016 3.413333 3.413333 0 0 0-2.346667 6.101334c1.621333 1.621333 2.688 1.621333 4.522667 0z m-189.824-15.317333a2.816 2.816 0 0 0-0.213333-2.133333l-0.64-1.066667-0.896 0.554667a2.773333 2.773333 0 0 0-0.896 2.133333v1.578667h1.109333a1.792 1.792 0 0 0 1.536-1.109334z m100.736-125.781333a8.533333 8.533333 0 0 0 0.853333-3.285334v-1.706666h-3.072v6.528h0.768c0.426667 0 1.152-0.725333 1.621334-1.578667z m23.466667-3.328v-1.621334h-12.8v3.285334h12.8z m-9.045334-8.96l1.152-0.64-0.896-0.554667c-1.066667-0.682667-0.341333-2.944 0.981334-2.944 0.512 0 1.408-0.768 1.962666-1.706667l1.024-1.706666 2.176 0.256 2.176 0.256 0.256 2.261333 0.256 2.261333h3.114667v-1.621333a10.88 10.88 0 0 1 1.194667-3.882667c1.536-2.986667 1.536-4.266667 0-4.266666h-1.194667v-1.962667a4.266667 4.266667 0 0 1 1.194667-2.986667c2.133333-1.792-0.810667-4.906667-3.242667-3.370666a9.685333 9.685333 0 0 1-3.242667 0.725333l-6.656 0.682667-4.266666 0.512v3.114666h3.498666c4.053333 0 4.565333 0.341333 4.010667 2.517334s-2.261333 2.090667-2.944 0.341333c-0.256-0.682667-0.810667-1.237333-1.28-1.237333h-0.810667l0.469334 2.389333 0.469333 2.389333-1.536 0.768a10.794667 10.794667 0 0 1-4.266667 0.896h-2.645333l0.981333 0.981334c1.28 1.28 1.237333 3.882667 0 4.266666a2.602667 2.602667 0 0 0-1.152 2.133334v1.706666l4.266667-0.554666a22.528 22.528 0 0 0 5.333333-1.237334z m-13.610666-2.517334v-3.242666h-6.485334v6.570666h6.485334z m6.442666-8.192v-1.578666h-3.242666v3.285333h3.242666z m27.477334-13.098666v-1.664h-4.864v3.285333h4.864z" fill="#CAE3FD" p-id="20414"></path><path d="M487.082667 169.984l-10.88 1.408-10.88 1.408-10.24 3.2a203.178667 203.178667 0 0 0-39.168 17.066667 233.728 233.728 0 0 0-62.208 52.138666 490.24 490.24 0 0 1-8.746667 10.922667 318.037333 318.037333 0 0 0-39.466667 68.266667 372.565333 372.565333 0 0 1-3.626666 9.002666 491.050667 491.050667 0 0 0-29.098667 105.386667 587.050667 587.050667 0 0 0-2.816 105.642667c0 1.578667 0.554667 6.741333 0.810667 11.477333s0.981333 15.616 1.621333 24.149333 1.536 25.130667 2.005333 36.864a430.933333 430.933333 0 0 0 3.413334 51.584l0.896 2.005334 5.717333 2.389333a118.528 118.528 0 0 0 15.829333 4.608l16.597334 3.754667c3.584 0.853333 11.946667 2.474667 18.56 3.669333s17.493333 3.2 24.149333 4.522667a168.832 168.832 0 0 0 17.365333 2.602666l5.248 0.256 0.384-5.717333 0.384-5.717333 13.738667 0.256c7.552 0 16.810667 0.597333 20.565333 1.024s12.288 0.981333 18.986667 1.237333 14.378667 0.64 17.066667 0.896l5.034666 0.426667v5.802666a99.669333 99.669333 0 0 1-22.485333 66.688l-5.034667 5.12-2.133333 0.426667a24.021333 24.021333 0 0 0-11.989333 5.12 307.2 307.2 0 0 1-51.712 28.842667 227.285333 227.285333 0 0 0-52.138667 29.866666l-0.554667 1.450667 1.834667 2.005333a83.242667 83.242667 0 0 0 9.514667 7.168 337.066667 337.066667 0 0 0 171.093333 57.728 294.4 294.4 0 0 0 43.818667-0.896 107.946667 107.946667 0 0 1 12.117333-1.109333 317.653333 317.653333 0 0 0 64.938667-13.269333 343.253333 343.253333 0 0 0 106.112-56.192l3.84-3.2v-1.749334a61.866667 61.866667 0 0 0-6.528-11.392l-6.528-9.856-5.76-5.376a55.722667 55.722667 0 0 0-38.784-14.250666c-20.608-2.645333-30.208-4.266667-38.4-5.717334l-15.317334-2.944-7.68-1.450666-6.442666-3.072a81.621333 81.621333 0 0 0-11.221334-4.266667l-4.778666-1.28-3.498667-3.498667-3.498667-3.498666-3.285333-6.4-3.285333-6.4-1.962667-7.936a106.666667 106.666667 0 0 1-2.773333-36.693334l0.810666-0.810666 5.034667 0.64c2.773333 0.341333 14.634667 1.408 26.410667 2.304l32.341333 2.56 10.965333 0.896 21.717334-0.896c28.8-1.194667 26.624-0.341333 25.344-10.069334a313.344 313.344 0 0 1-0.768-25.344v-19.413333l2.048-13.354667c1.109333-7.338667 3.029333-17.066667 4.266666-21.930666l2.176-8.533334 11.264-1.450666 11.264-1.450667 8.064-2.517333a55.466667 55.466667 0 0 0 20.778667-10.837334l5.418667-4.266666 3.2-4.650667a50.858667 50.858667 0 0 0 8.917333-29.482667v-6.869333l-1.237333-4.821333a55.466667 55.466667 0 0 0-3.84-9.770667l-2.602667-4.992-5.589333-5.973333-5.589334-5.973334-6.144-4.266666c-9.301333-6.186667-9.770667-6.528-9.770666-7.850667a28.416 28.416 0 0 1 3.242666-6.656 77.653333 77.653333 0 0 0 9.386667-25.6l1.109333-6.954667 0.512-18.816 0.512-18.816-0.938666-9.002666a335.36 335.36 0 0 0-2.602667-18.432c-1.450667-8.533333-2.730667-13.610667-8.533333-36.565334a162.133333 162.133333 0 0 1-2.816-17.621333l-1.322667-11.733333-3.114667-11.861334a126.08 126.08 0 0 0-13.952-35.456l-5.845333-10.410666-5.248-6.314667a151.125333 151.125333 0 0 0-51.626667-41.301333l-6.869333-3.541334-7.637333-7.04-7.466667-7.210666-4.437333-2.176-4.266667-2.005334h-16.213333l-6.016 2.048c-7.296 2.474667-7.765333 2.517333-9.685334 0.298667a148.053333 148.053333 0 0 0-9.6-8.277333l-8.064-6.528-9.258666-4.736-9.301334-4.736-9.685333-2.645334-10.069333-2.432-21.802667-0.426666-21.589333-0.426667z m-3.541334 318.72h0.810667c1.237333 0 3.285333 7.936 3.370667 13.056a25.6 25.6 0 0 0 0.64 6.101333l0.597333 1.536-1.749333 3.669334a14.592 14.592 0 0 1-2.858667 4.266666c-3.328 2.133333-3.584 1.237333-1.450667-5.162666l1.664-5.034667v-6.186667a56.064 56.064 0 0 0-0.512-9.258666l-0.512-2.986667z m-50.816 4.266667a2.730667 2.730667 0 0 1 3.328 1.92l0.64 1.749333-1.194666 1.749333c-2.005333 2.858667-5.12 1.621333-5.12-2.005333a3.328 3.328 0 0 1 2.389333-3.413333z m233.642667 10.965333l1.024 1.28a18.602667 18.602667 0 0 1 1.706667 14.165333 19.370667 19.370667 0 0 1-2.986667 5.930667l-1.877333 2.261333 0.597333-2.858666a115.626667 115.626667 0 0 0 1.066667-11.818667z m-46.378667 1.92h1.962667a4.266667 4.266667 0 0 1 3.456 6.698667 4.266667 4.266667 0 0 1-7.466667-0.938667l-0.554666-1.749333 1.28-2.005334 1.28-2.005333z m-71.509333 18.901333c1.877333-0.896 3.114667 6.144 2.176 14.037334 0 1.408-2.602667 0.469333-3.157333-1.237334a29.866667 29.866667 0 0 1 0-11.946666 2.218667 2.218667 0 0 1 0.853333-0.810667z m-7.637333 347.904c0.341333 0-0.981333 1.664-2.986667 3.669334-4.693333 4.778667-5.290667 4.821333-2.986667 0.341333a7.850667 7.850667 0 0 1 5.973334-4.010667z" fill="#EEC5B9" p-id="20415"></path><path d="M490.325333 894.250667a338.858667 338.858667 0 0 1-168.064-58.624c-8.32-5.717333-9.984-7.424-9.258666-9.472a259.157333 259.157333 0 0 1 52.437333-29.866667 307.498667 307.498667 0 0 0 50.901333-28.330667 19.754667 19.754667 0 0 1 11.733334-5.034666h2.773333l4.266667-3.712a94.634667 94.634667 0 0 0 24.021333-64.896l0.554667-8.917334-1.024-0.64a135.978667 135.978667 0 0 0-17.066667-1.28c-8.533333-0.384-19.669333-1.066667-24.32-1.536s-14.250667-0.981333-21.333333-1.066666h-12.8l-0.384 5.717333-0.426667 5.717333-5.248-0.256a157.866667 157.866667 0 0 1-17.365333-2.688q-10.453333-2.133333-20.992-4.010666c-4.864-0.853333-18.005333-3.584-29.141334-6.058667l-20.266666-4.522667-4.266667-1.962666-4.266667-1.962667-1.322666-4.821333a132.650667 132.650667 0 0 1-2.986667-34.133334 1886.72 1886.72 0 0 0-4.010667-74.496l-1.706666-23.765333v-19.114667a417.066667 417.066667 0 0 1 5.76-73.344 125.781333 125.781333 0 0 0 1.621333-13.482666 145.877333 145.877333 0 0 1 1.962667-15.488l3.669333-16.384a410.154667 410.154667 0 0 1 27.477333-82.304 241.92 241.92 0 0 1 155.648-140.330667l7.253334-1.664 26.709333-0.384 26.709333-0.384 10.624 2.602667 10.624 2.602666 8.533334 4.266667a102.741333 102.741333 0 0 1 24.917333 17.322667l6.144 5.418666 6.954667-2.346666 6.954666-2.346667h16.128l4.864 2.517333 4.821334 2.517334 5.674666 6.016 5.674667 6.016 10.88 5.802666a136.533333 136.533333 0 0 1 78.464 114.432l0.768 10.24 3.2 10.24a308.48 308.48 0 0 1 9.898667 40.96l1.877333 11.050667v45.013333l-1.066667 7.722667a85.333333 85.333333 0 0 1-11.008 30.250667 11.562667 11.562667 0 0 0-2.005333 4.736v1.664l6.869333 4.693333a66.645333 66.645333 0 0 1 16.554667 15.914667c0 0.426667-2.346667-0.384-5.248-1.749334l-5.248-2.517333-1.877333 0.469333-1.877334 0.469334-1.408 3.925333c-0.768 2.133333-1.706667 4.650667-2.090666 5.546667a26.282667 26.282667 0 0 0-1.194667 4.266666 9.770667 9.770667 0 0 1-2.474667 4.266667 6.229333 6.229333 0 0 0-1.962666 3.498667 5.418667 5.418667 0 0 1-1.066667 2.944 114.474667 114.474667 0 0 0-8.533333 21.333333 59.733333 59.733333 0 0 1-2.944 8.533333 4.522667 4.522667 0 0 0-0.725334 3.029334 8.533333 8.533333 0 0 1-0.853333 4.266666l-1.322667 3.370667 0.853334 1.792a33.749333 33.749333 0 0 1 1.322666 3.328l0.512 1.536 5.034667-0.512a46.933333 46.933333 0 0 0 32.853333-16.042667l2.730667-3.669333 0.298667 0.981333a13.525333 13.525333 0 0 1-1.962667 5.162667l-2.261333 4.266667-4.608 4.266666a72.533333 72.533333 0 0 1-44.074667 17.792 31.146667 31.146667 0 0 0-8.96 1.877334 203.946667 203.946667 0 0 0-7.338667 32.597333l-1.664 11.221333v19.541334c0 10.709333 0.384 22.144 0.768 25.6 1.237333 9.728 3.413333 8.874667-25.344 10.069333l-21.717333 0.896-10.965333-0.896-32.341334-2.56a1169.237333 1169.237333 0 0 1-26.410666-2.304 17.066667 17.066667 0 0 0-5.973334 0l-0.938666 0.597333 0.426666 12.544 0.426667 12.586667 1.749333 8.533333 1.749334 8.533334 3.029333 6.570666 3.029333 6.570667 4.266667 4.864 4.266667 4.864h2.602666a32.597333 32.597333 0 0 1 13.397334 4.266667l6.485333 3.072 7.68 1.408 15.317333 2.986666c8.234667 1.664 17.834667 3.072 38.4 5.717334a55.722667 55.722667 0 0 1 38.741334 14.250666l5.76 5.376 6.528 9.856a76.288 76.288 0 0 1 6.528 10.965334 219.093333 219.093333 0 0 1-54.912 37.930666 328.789333 328.789333 0 0 1-120.234667 36.181334 79.402667 79.402667 0 0 0-12.373333 1.237333l-6.314667 1.237333h-19.072c-10.496 0-20.565333-0.256-22.314667-0.384z m58.922667-6.869334l1.493333-1.664-0.938666-0.981333-0.938667-0.981333-0.725333 0.768a8.277333 8.277333 0 0 0-1.28 2.602666l-0.554667 1.834667h0.725333a5.034667 5.034667 0 0 0 2.218667-1.536z m-7.936-12.8c4.053333-1.962667 4.266667-2.858667 0.981333-2.858666a9.728 9.728 0 0 0-9.642666 9.258666c0 3.456 1.066667 3.157333 3.157333-0.853333l2.090667-3.882667z m7.722667-22.528a71.210667 71.210667 0 0 0 38.101333-13.482666l4.821333-3.712 3.413334-5.12 3.413333-5.12 2.005333-6.570667a57.898667 57.898667 0 0 0 2.517334-21.333333l-0.554667-2.133334-8.234667-4.266666q-6.997333-3.498667-13.909333-7.082667-4.266667-2.218667-8.533333-4.266667a28.928 28.928 0 0 1-5.12-3.114666 8.106667 8.106667 0 0 0-3.754667-1.834667 10.794667 10.794667 0 0 1-3.754667-1.152q-2.133333-1.066667-4.266666-1.962667l-3.242667-1.322666a50.645333 50.645333 0 0 1-4.266667-2.474667q-2.773333-1.706667-5.632-3.157333a38.826667 38.826667 0 0 1-5.205333-3.328 10.922667 10.922667 0 0 0-3.797333-2.133334 7.68 7.68 0 0 1-3.2-2.048 7.338667 7.338667 0 0 0-3.84-2.048 5.973333 5.973333 0 0 1-3.370667-1.621333l-1.706667-1.621333h-2.389333a23.850667 23.850667 0 0 1-3.882667-0.512l-1.536-0.384 1.109334-0.768 1.109333-0.768-3.242667 0.384-11.904 1.450666-8.533333 1.066667-0.426667 1.408-0.426666 1.408-2.389334 0.512c-1.322667 0.298667-2.389333 0.853333-2.389333 1.28s-0.256 0.682667-0.597333 0.597333a20.650667 20.650667 0 0 0-8.746667 4.821334 22.997333 22.997333 0 0 1-3.712 2.688 20.821333 20.821333 0 0 0-3.541333 2.901333 19.413333 19.413333 0 0 1-6.144 3.797333 12.8 12.8 0 0 0-4.821334 2.858667 6.144 6.144 0 0 1-2.688 1.92 22.485333 22.485333 0 0 0-5.162666 2.858667 22.058667 22.058667 0 0 1-5.248 2.858666 55.125333 55.125333 0 0 0-11.648 11.008l-2.602667 3.157334v1.962666a91.776 91.776 0 0 0 35.498667 40.192 138.752 138.752 0 0 0 14.506666 6.357334l10.026667 3.797333 9.301333 1.92 11.349334 2.261333a319.018667 319.018667 0 0 0 37.248 0.042667z m0.981333-171.178666l5.632-0.810667 12.416-6.144a114.858667 114.858667 0 0 0 15.530667-8.832 37.546667 37.546667 0 0 1 5.248-3.84 49.194667 49.194667 0 0 0 6.912-5.674667 35.413333 35.413333 0 0 1 11.989333-8.96 27.605333 27.605333 0 0 0 5.802667-3.413333 12.501333 12.501333 0 0 1 3.882666-2.346667 15.189333 15.189333 0 0 0 4.266667-3.84c1.877333-2.133333 4.266667-4.650667 5.248-5.632a8.277333 8.277333 0 0 0 2.176-3.413333c0.469333-2.389333 2.304-5.077333 3.456-5.077333a1.152 1.152 0 0 0 1.024-1.237334c0-1.450667 3.669333-5.461333 6.229333-6.869333a5.418667 5.418667 0 0 0 2.346667-3.072 29.866667 29.866667 0 0 1 2.645333-5.76l3.072-5.418667a9.728 9.728 0 0 1 2.090667-2.602666c1.322667-0.981333 2.261333-5.205333 1.28-5.802667a2.688 2.688 0 0 1-0.682667-2.005333v-1.578667l-2.432-1.834667-2.432-1.834666 0.384-1.066667 0.384-1.066667h-1.621333a2.304 2.304 0 0 1-2.048-1.194666 6.058667 6.058667 0 0 0-3.114667-2.176l-2.688-0.981334-0.853333-1.92c-0.469333-1.066667-1.450667-1.92-2.133333-1.92h-1.28l-1.152-2.645333a9.642667 9.642667 0 0 0-5.290667-6.058667c-1.152-0.512-2.133333-1.450667-2.176-2.048s-0.64-3.2-1.28-5.76l-1.152-4.650666 1.109333-1.493334c1.792-2.389333 1.365333-3.370667-2.133333-5.205333a34.858667 34.858667 0 0 1-13.312-13.525333l-2.816-5.12-1.152-5.589334a67.456 67.456 0 0 1-1.194667-11.178666v-5.290667l-0.725333 0.469333a35.157333 35.157333 0 0 0-4.010667 12.8l-0.512 4.266667-2.389333 0.64-2.389333 0.64-0.768-0.810667a18.048 18.048 0 0 1-1.109334-6.314666 19.370667 19.370667 0 0 0-1.066666-6.314667 3.712 3.712 0 0 1-0.725334-2.176 10.666667 10.666667 0 0 0-1.408-3.882667l-1.408-2.474666 0.981334-2.773334a17.066667 17.066667 0 0 0 0.981333-4.266666 4.48 4.48 0 0 1 1.194667-2.645334l1.194666-1.237333v-5.546667l1.664-0.896a4.266667 4.266667 0 0 1 2.816-0.469333l1.152 0.469333v-3.328l3.029334-2.816 3.029333-2.816 2.602667-0.512 2.602666-0.512 1.664-2.346666 1.664-2.346667 5.845334-1.706667 8.106666-2.474666a6.528 6.528 0 0 1 3.456-0.298667 4.266667 4.266667 0 0 0 2.986667-0.725333l1.792-1.194667h5.077333a13.44 13.44 0 0 0 5.461334-0.469333c0-0.341333 1.109333-0.426667 2.005333 0l1.621333 0.426666v-2.688h1.493334a3.712 3.712 0 0 0 2.517333-1.237333l0.896-1.365333h6.186667l2.858666-2.389334c2.773333-2.474667 4.864-2.645333 3.968-0.298666l-0.469333 1.194666h0.853333a1.834667 1.834667 0 0 0 1.365334-0.853333c0.298667-0.469333 1.493333-0.725333 2.688-0.597333l2.176 0.213333 0.256-1.834667 0.256-1.834666h1.578666c2.048 0 2.005333-1.365333 0-2.048-0.896-0.298667-1.621333-0.853333-1.621333-1.237334 0-1.237333-5.845333-2.432-12.8-2.645333a16.554667 16.554667 0 0 1-6.570667-0.896v-0.682667l-5.034666 0.64a64.64 64.64 0 0 1-8.874667 0.512 24.533333 24.533333 0 0 0-7.466667 1.109334l-3.626666 1.237333h-13.568l-2.261334-1.706667a21.802667 21.802667 0 0 1-4.266666-4.266666l-1.834667-2.688v-6.229334l1.578667-3.114666a24.234667 24.234667 0 0 1 19.029333-12.074667l5.632-1.109333h20.522667l11.52 2.517333c6.357333 1.365333 14.037333 2.816 17.066666 3.2l5.546667 0.682667 2.304-0.810667 2.304-0.810667v-9.344l-1.621333-1.408-1.621334-1.408v-5.546666l-2.517333-5.632a40.32 40.32 0 0 0-4.736-8.064 110.08 110.08 0 0 1-6.613333-8.533334 259.925333 259.925333 0 0 0-32.128-33.749333 253.056 253.056 0 0 0-31.061334-23.338667 241.194667 241.194667 0 0 1-18.346666-13.354666l-2.986667-2.901334-4.266667-0.341333-4.266666-0.341333-10.496 2.218666a146.901333 146.901333 0 0 0-60.330667 27.392 268.373333 268.373333 0 0 1-8.106667 6.186667 93.610667 93.610667 0 0 0-20.608 22.357333 44.032 44.032 0 0 1-4.010666 5.376 51.2 51.2 0 0 0-5.76 9.173334l-2.773334 5.546666-0.810666 7.125334c-1.152 10.069333-0.725333 10.581333 9.130666 12.373333 18.816 3.370667 31.488 12.330667 31.488 22.186667v3.541333l-1.664 2.773333-1.664 2.773334-5.418666-0.469334a51.754667 51.754667 0 0 1-10.581334-2.261333 152.064 152.064 0 0 0-13.184-3.626667l-8.021333-1.834666-2.944 0.341333c-4.010667 0.469333-6.229333 1.706667-7.296 4.053333l-0.896 1.962667 0.512 3.669333a9.514667 9.514667 0 0 0 1.578667 4.608 3.370667 3.370667 0 0 1 1.109333 2.218667 11.008 11.008 0 0 0 5.205333 5.888 60.032 60.032 0 0 1 15.829334 11.776 29.013333 29.013333 0 0 0 10.922666 7.850667h1.706667l1.493333 3.370666a25.258667 25.258667 0 0 0 3.669334 5.717334 40.917333 40.917333 0 0 1 5.546666 25.173333v6.826667l-0.896 1.664-0.896 1.664-3.285333-3.498667-3.285333-3.498667-1.024-3.925333a49.92 49.92 0 0 0-10.410667-17.92l-2.986667-2.858667 0.512 2.474667 1.408 6.954667 0.896 4.48-0.512 4.906666-0.512 4.906667-2.432 6.229333-2.432 6.229334-3.925333 4.266666a70.570667 70.570667 0 0 1-10.922667 9.258667l-6.997333 4.778667 0.341333 2.944a14.208 14.208 0 0 1-0.426666 5.205333l-0.768 2.261333h-1.664a23.722667 23.722667 0 0 0-6.997334 3.413334l-5.333333 3.413333h-4.437333v1.28a2.304 2.304 0 0 1-1.408 1.877333 38.4 38.4 0 0 0-9.045334 9.770667 16.213333 16.213333 0 0 1-3.626666 6.784l-1.152 0.981333 0.981333 1.578667 0.981333 1.578667-0.981333 1.621333c-1.493333 2.474667-1.237333 3.754667 1.408 6.826667a11.946667 11.946667 0 0 1 2.432 3.584 17.834667 17.834667 0 0 0 2.730667 4.266666 108.117333 108.117333 0 0 1 7.296 12.8l4.522666 9.173334 1.578667 0.512 1.578667 0.512v4.266666l5.632 6.101334a43.562667 43.562667 0 0 1 5.632 6.869333c0 0.426667 0 0.554667 0.469333 0.298667s3.541333 1.92 3.541333 3.072a50.218667 50.218667 0 0 0 12.373334 13.269333 58.24 58.24 0 0 1 7.338666 6.656l2.346667 2.816 4.992 2.261333a23.168 23.168 0 0 1 5.546667 3.114667 48.469333 48.469333 0 0 0 17.792 8.533333l12.117333 3.456a71.850667 71.850667 0 0 0 27.434667 1.237334z m-17.450667-37.845334l-6.357333-1.109333-4.266667-2.261333a35.157333 35.157333 0 0 1-7.509333-5.376l-3.072-3.114667-1.194667-3.584-1.194666-3.584 0.896-0.896a9.514667 9.514667 0 0 1 4.778666-0.896h3.882667v-1.024a14.933333 14.933333 0 0 0-5.845333-2.56c-10.496-3.157333-18.346667-7.424-18.346667-9.898667v-0.853333l3.413333 0.512c1.877333 0.298667 7.594667 0.725333 12.8 0.981333l9.301334 0.469334 9.258666-1.706667a104.064 104.064 0 0 1 14.762667-1.706667h5.504l2.901333-1.237333a19.242667 19.242667 0 0 1 6.314667-1.237333h3.413333l2.730667 2.048a77.397333 77.397333 0 0 0 8.789333 5.12l6.058667 3.072h14.378667l0.341333 0.981333 0.341333 0.981333-3.413333 2.517334a16.213333 16.213333 0 0 1-4.266667 2.517333 8.96 8.96 0 0 0-3.2 2.090667l-2.304 2.048-0.341333 2.645333-0.341333 2.645333-3.925334 3.754667a55.466667 55.466667 0 0 1-8.533333 6.528l-4.693333 2.730667h-24.234667z m13.610667-60.16l-6.485333-0.554666-3.626667-1.621334a16.682667 16.682667 0 0 1-4.736-2.986666l-1.109333-1.365334 0.469333-1.28c1.024-2.730667 14.378667-6.101333 24.149333-6.101333h4.693334l1.194666-1.194667c1.92-1.962667 7.68 3.456 8.917334 8.533334l0.512 2.005333-2.005334 2.048c-3.328 3.413333-8.064 3.968-22.016 2.730667z m-76.8 86.954667a397.44 397.44 0 0 0-32.938667-23.68c-2.602667-1.706667-6.229333-4.266667-8.064-5.717333a138.581333 138.581333 0 0 0-19.584-13.354667h-1.194666l1.237333 2.645333a126.037333 126.037333 0 0 0 22.869333 21.632 292.864 292.864 0 0 0 36.650667 19.157334h1.578667z m223.402667-119.978667l3.114666-5.589333v-2.56a13.397333 13.397333 0 0 1 1.152-4.778667 11.306667 11.306667 0 0 0 1.109334-4.266666 11.648 11.648 0 0 1 1.237333-4.266667 8.832 8.832 0 0 0 1.024-4.266667 4.906667 4.906667 0 0 1 0.426667-2.688 67.84 67.84 0 0 0 0.853333-11.733333l0.213333-10.752-3.114666 0.512a57.685333 57.685333 0 0 0-7.338667 1.92l-4.266667 1.408-1.834666 6.528a81.066667 81.066667 0 0 1-12.288 25.173333c-3.626667 4.266667-3.925333 5.12-1.792 6.272a43.434667 43.434667 0 0 1 5.845333 5.504l6.613333 7.082667 2.218667 2.389333 1.792-0.256 1.792-0.256z m-26.88-17.408a26.624 26.624 0 0 0 4.608-5.802666l2.133333-3.669334 0.384-5.888 0.384-5.888-2.176-4.266666c-1.877333-3.84-4.736-7.253333-6.058667-7.296a65.152 65.152 0 0 0 0 10.24l0.298667 10.24-2.090667 6.442666c-2.986667 9.173333-2.432 10.538667 2.688 6.144z m-41.045334-18.346666l1.578667-0.853334v-5.12l-1.322667-1.493333a4.266667 4.266667 0 0 0-6.058666 0l-1.493334 1.365333v5.418667l1.408 0.853333a5.802667 5.802667 0 0 0 5.888 0z m-188.629333-15.616l0.810667-1.322667-0.512-2.090667c-0.981333-3.925333-5.632-3.456-6.656 0.64l-0.512 2.048 1.024 1.28 1.024 1.237334 2.005333-0.256a4.266667 4.266667 0 0 0 2.816-1.536z m243.882667-42.666667a11.818667 11.818667 0 0 1 3.2-1.536l1.621333-0.426667h-5.888l-0.469333-1.237333a2.005333 2.005333 0 0 0-1.706667-1.237333 1.237333 1.237333 0 0 0-1.237333 1.237333c0 0.682667 0.384 1.237333 0.810666 1.237333s0.810667 0.725333 0.810667 1.621334c-0.128 1.578667 0.384 1.706667 2.730667 0.170666z m81.792 93.866667q0-5.717333-0.341334-11.434667l-0.213333-5.717333 0.896 1.578666a41.728 41.728 0 0 1 1.237333 9.898667l0.384 8.32-0.896 1.536-0.896 1.536z" fill="#DDAFA2" p-id="20416"></path><path d="M500.352 894.336a337.322667 337.322667 0 0 1-177.194667-58.624c-9.045333-6.229333-10.197333-7.296-9.557333-9.002667a243.712 243.712 0 0 1 52.010667-29.482666c21.333333-10.922667 40.746667-21.077333 42.666666-22.528l7.552-5.632a40.32 40.32 0 0 1 6.741334-4.266667l2.858666-1.194667 2.304 0.981334 2.304 0.981333 5.802667-5.546667a85.845333 85.845333 0 0 0 24.106667-62.762666l0.896-12.288-0.768-0.768-0.768-0.768-17.664-0.725334c-9.728-0.384-21.333333-1.109333-25.6-1.536s-13.866667-0.938667-20.992-1.066666l-12.8-0.256V691.882667l-5.461334-0.554667a189.482667 189.482667 0 0 1-15.104-2.602667q-11.264-2.346667-22.570666-4.266666a1064.277333 1064.277333 0 0 1-29.312-6.058667l-16.426667-3.669333-4.266667-1.962667-4.266666-1.962667-2.176-7.722666-2.176-7.722667v-14.762667a597.333333 597.333333 0 0 0-1.194667-33.109333l-2.048-33.493333q-0.725333-13.056-1.706667-26.112a493.525333 493.525333 0 0 1 1.706667-79.914667 512.64 512.64 0 0 1 18.645333-77.397333 780.8 780.8 0 0 1 40.490667-96.213334 251.434667 251.434667 0 0 1 14.250667-23.765333c6.272-7.296 4.266667-7.637333-3.626667-0.682667l-6.272 5.461334-1.28-0.853334-1.28-0.853333v-1.962667a137.472 137.472 0 0 1 25.6-35.285333 208.341333 208.341333 0 0 1 34.517333-30.592l9.898667-7.168 14.421333-7.808 14.677334-7.68 13.184-4.266667 13.184-4.266666 8.874666-1.493334 8.874667-1.493333h46.762667l10.069333 2.645333 10.069333 2.645334 9.685334 4.949333a83.114667 83.114667 0 0 1 22.698666 15.573333l7.850667 6.656 6.485333-2.389333 6.485334-2.389333h17.066666l4.821334 3.029333a33.621333 33.621333 0 0 1 11.136 10.666667l1.365333 2.218666 11.477333 5.717334a211.285333 211.285333 0 0 1 20.352 11.690666l8.832 6.016 8.106667 7.722667a128.64 128.64 0 0 1 36.608 57.898667l2.090667 7.082666 0.64 12.288 0.64 12.288 2.048 6.144q2.816 8.533333 5.674666 16.768a302.677333 302.677333 0 0 1 10.368 44.202667l1.066667 7.381333v43.434667l-1.024 6.528a74.453333 74.453333 0 0 1-1.749333 8.533333 156.458667 156.458667 0 0 1-9.045334 21.333334 14.762667 14.762667 0 0 0-2.261333 5.802666v2.133334l2.048 1.962666 2.048 1.962667-2.346667 1.834667-2.346666 1.877333-0.512 2.688a67.242667 67.242667 0 0 1-2.645334 8.192l-2.133333 5.504-2.602667 2.901333a8.96 8.96 0 0 1-3.925333 2.901334h-1.322667v-2.944c0-1.621333 0.810667-7.978667 1.792-14.122667l1.792-11.178667v-30.293333l-2.56-10.368a238.293333 238.293333 0 0 0-104.106666-133.162667 299.221333 299.221333 0 0 1-18.816-13.44l-4.821334-4.266666-4.266666-0.426667-4.266667-0.426667-10.282667 1.365334a157.098667 157.098667 0 0 0-90.026666 46.933333c-1.493333 1.792-4.778667 5.546667-7.253334 8.32a82.389333 82.389333 0 0 0-14.250666 20.821333l-6.144 10.965334v8.533333l3.242666 0.597333c1.792 0.298667 7.936 1.237333 13.696 2.005334l10.496 1.408 7.552 2.432 7.552 2.432 4.266667 2.816 4.266667 2.816 2.048 3.541333 2.048 3.541333v5.205334l-1.664 2.176-1.664 2.176h-1.792a63.616 63.616 0 0 1-10.112-2.858667 158.464 158.464 0 0 0-30.933334-7.722667l-6.229333-0.64-6.229333 0.64-6.229334 0.64-1.92 2.346667a31.872 31.872 0 0 0-3.456 5.632l-1.536 3.285333v9.984l2.432 3.413334a18.816 18.816 0 0 0 2.773334 3.413333 91.306667 91.306667 0 0 1 37.333333 12.8l6.613333 4.266667 5.248 5.845333 5.248 5.845333 3.285334 6.613334 3.285333 6.613333 0.853333 5.930667 0.853334 5.930666-0.554667 2.944-0.554667 2.944-1.194666-1.024c-1.749333-1.493333-2.688-3.541333-4.053334-8.789333-1.962667-7.722667-13.397333-22.272-17.450666-22.272h-1.194667l2.048 5.504 2.048 5.546667v13.909333l-2.218667 6.186667-2.218666 6.186666-3.498667 4.266667a38.4 38.4 0 0 1-14.890667 11.050667l-3.456 1.365333-8.832-0.554667-8.832-0.554666-3.285333 1.493333-3.285333 1.493333-1.322667-0.853333-1.365333-0.853333-0.256-2.986667-0.256-2.986667-1.749334-1.237333-1.706666-1.237333-1.92 1.834666a27.946667 27.946667 0 0 0-4.266667 6.741334 26.410667 26.410667 0 0 1-4.053333 6.528 53.674667 53.674667 0 0 0-8.021334 36.608 52.778667 52.778667 0 0 1 2.346667 6.698666 203.136 203.136 0 0 0 6.528 19.370667 36.138667 36.138667 0 0 1 4.778667 10.666667 19.2 19.2 0 0 0 2.005333 5.717333l2.005333 4.010667-0.469333 1.28c-0.981333 2.645333-8.533333-0.768-19.584-8.533334a20.394667 20.394667 0 0 0-5.461333-3.157333h-1.066667v4.650667l2.389333 3.626666a135.978667 135.978667 0 0 0 48.298667 39.125334 96.597333 96.597333 0 0 1 11.52 6.357333 225.066667 225.066667 0 0 0 37.802667 15.530667l17.322666 6.058666 8.533334 1.237334a88.234667 88.234667 0 0 0 38.4-2.474667c1.322667-0.64 5.973333-2.432 10.325333-4.010667a285.098667 285.098667 0 0 0 38.912-19.029333c4.266667-2.688 8.533333-5.077333 9.258667-5.376a374.997333 374.997333 0 0 0 32.682666-23.168 203.605333 203.605333 0 0 0 28.074667-30.762667 37.888 37.888 0 0 1 7.125333-7.850666 12.8 12.8 0 0 0 3.968-3.84c2.389333-3.541333 3.370667-4.010667 6.058667-2.944a15.914667 15.914667 0 0 0 4.650667 0.810666c2.773333 0 6.869333 1.92 5.717333 2.645334a34.901333 34.901333 0 0 1-6.357333 0.981333 70.272 70.272 0 0 0-7.04 0.938667l-1.408 0.384v2.730666a67.541333 67.541333 0 0 1-2.090667 10.794667 263.04 263.04 0 0 0-5.12 77.226667l0.853333 6.869333-1.066666 1.066667-1.066667 1.066666-21.333333 0.938667-21.333334 0.938667-9.258666-0.554667c-7.765333-0.469333-41.386667-3.114667-64.341334-5.077333l-5.845333-0.512-0.554667 1.450666a196.266667 196.266667 0 0 0 2.816 35.626667l1.621334 7.765333 2.773333 6.144a37.290667 37.290667 0 0 0 11.050667 15.488l3.242666 2.389334 3.072-0.426667 3.072-0.426667 8.874667 4.266667a55.04 55.04 0 0 0 10.709333 4.266667c1.024 0 6.442667 0.938667 12.032 2.090666 11.776 2.432 31.232 5.418667 46.933334 7.253334a50.602667 50.602667 0 0 1 35.925333 13.44l6.954667 6.272 3.2 5.333333q2.858667 4.736 5.973333 9.301333c4.266667 6.229333 4.266667 6.485333-12.416 18.261334a337.322667 337.322667 0 0 1-138.325333 57.941333c-18.986667 3.2-23.466667 3.072-20.181334-0.597333a10.88 10.88 0 0 0 2.133334-4.010667l0.512-2.176-1.536-1.92-1.749334-2.048-1.450666 0.896a14.506667 14.506667 0 0 0-3.285334 4.266667 32.042667 32.042667 0 0 1-3.072 4.906666 4.608 4.608 0 0 0-1.194666 2.218667 125.610667 125.610667 0 0 1-41.130667 2.986667z m35.498667-8.533333a15.488 15.488 0 0 1 1.664-4.906667l1.664-3.285333 3.370666-1.578667a17.578667 17.578667 0 0 1 4.778667-1.578667c1.664 0 1.834667-0.938667 0.426667-2.304l-0.981334-0.981333h-7.338666l-2.602667 1.621333a12.8 12.8 0 0 0-3.925333 4.266667l-1.322667 2.645333 0.426667 3.157334c0.64 4.949333 3.797333 7.424 3.797333 3.029333z m14.122666-32.682667c35.2-3.925333 51.754667-19.242667 54.912-50.816l0.554667-5.376-0.981333-6.016-1.024-6.016-2.133334-1.962667a168.533333 168.533333 0 0 0-16.512-12.245333 85.333333 85.333333 0 0 1-7.722666-5.717333 66.218667 66.218667 0 0 0-5.802667-4.266667 42.154667 42.154667 0 0 1-6.570667-6.954667 53.290667 53.290667 0 0 0-7.765333-8.064q-2.986667-2.218667-5.76-4.693333a8.789333 8.789333 0 0 0-3.413333-2.261333 40.533333 40.533333 0 0 1-9.258667-5.717334 3.754667 3.754667 0 0 0-2.048-0.853333 6.954667 6.954667 0 0 1-2.901333-1.322667 60.330667 60.330667 0 0 0-11.946667-6.058666 11.050667 11.050667 0 0 1-3.242667-1.194667 116.650667 116.650667 0 0 0-17.066666-6.357333 56.106667 56.106667 0 0 1-6.613334-1.237334l-5.376-1.28-3.072 1.92a48.64 48.64 0 0 0-13.568 14.122667 9.472 9.472 0 0 1-2.304 3.584 6.229333 6.229333 0 0 0-1.834666 2.005333 30.805333 30.805333 0 0 1-3.242667 4.266667 48.256 48.256 0 0 0-4.778667 6.698667 155.904 155.904 0 0 1-23.466666 24.234666 37.76 37.76 0 0 0-11.989334 12.544l-1.28 3.114667 0.896 3.456a114.901333 114.901333 0 0 0 32.64 42.282667 81.066667 81.066667 0 0 0 25.6 13.397333l10.069334 3.669333 8.874666 1.706667 10.496 2.048a322.944 322.944 0 0 0 37.930667-0.256z m-114.005333-353.450667a4.693333 4.693333 0 0 0 0-6.826666c-2.090667-2.133333-2.858667-2.048-5.290667 0.384-4.266667 4.266667 0.810667 10.709333 5.418667 6.442666z m98.133333 141.226667l-5.205333-0.768-4.864-2.346667a30.122667 30.122667 0 0 1-7.253333-4.864l-2.389334-2.517333 0.938667-0.938667a14.08 14.08 0 0 1 3.968-2.048l3.072-1.109333 9.386667 0.896 9.386666 0.896 5.930667-0.810667a66.645333 66.645333 0 0 1 8.746667-0.682666h2.816l0.298666-1.450667 0.298667-1.450667h-2.944a74.197333 74.197333 0 0 1-8.533333-0.810666c-2.986667-0.426667-10.112-1.408-15.872-2.133334-19.242667-2.432-37.333333-7.978667-35.541334-10.965333l0.426667-0.682667 4.650667 1.322667 4.650666 1.322667h23.381334l4.266666-1.194667 4.266667-1.194667h17.92l2.56 1.322667a60.757333 60.757333 0 0 0 9.173333 3.072l6.613334 1.749333h15.829333l-0.298667 0.896a24.704 24.704 0 0 1-11.989333 5.589334c-7.850667 2.218667-11.776 5.930667-6.997333 6.613333l1.792 0.256 0.256 1.365333 0.256 1.365334-2.389334 2.773333a26.752 26.752 0 0 1-6.698666 4.992l-4.266667 2.218667h-10.496a155.093333 155.093333 0 0 1-15.701333-0.853334z m115.2-91.562667l-3.797333-2.474666-3.626667 0.810666-3.626666 0.810667-5.418667-0.853333a95.402667 95.402667 0 0 1-10.666667-2.432l-5.248-1.578667-3.370666-3.498667a50.005333 50.005333 0 0 1-5.930667-7.978666l-2.56-4.266667-1.194667-5.76-1.194666-5.76 0.512-7.168 0.512-7.168h-0.810667c-1.493333 0-5.034667 6.4-6.826667 12.416a16.085333 16.085333 0 0 1-2.816 6.272l-1.066666 0.341333 0.298666-6.016 0.298667-6.058666 2.474667-5.333334a64.725333 64.725333 0 0 1 37.034666-31.061333l5.632-1.792 8.917334-0.469333 8.917333-0.469334 5.589333 0.981334a27.050667 27.050667 0 0 1 6.4 1.664 23.082667 23.082667 0 0 0 3.84 1.962666l3.029334 1.28 2.346666-2.005333a8.533333 8.533333 0 0 1 3.285334-2.005333h0.938666l-0.554666 4.266666-0.554667 4.266667 6.016 3.797333a37.76 37.76 0 0 0 15.317333 7.082667h2.218667v1.578667c0 2.346667-3.157333 4.266667-10.112 6.656l-6.229333 2.005333-1.024 1.621333a39.04 39.04 0 0 0-2.389334 7.594667 28.970667 28.970667 0 0 1-2.773333 7.765333 60.032 60.032 0 0 0-3.669333 6.144 12.074667 12.074667 0 0 1-3.029334 4.266667h-0.768l0.512-1.322667c0.298667-0.725333 0.896-2.986667 1.408-4.992l0.896-3.626666-0.469333-5.461334a47.530667 47.530667 0 0 0-2.261333-10.368l-1.792-4.906666-2.346667-2.261334c-2.346667-2.218667-8.234667-4.608-9.130667-3.669333a22.912 22.912 0 0 0 1.706667 6.869333l2.176 6.4-0.341333 8.533334-0.341334 8.533333-1.834666 4.608a57.728 57.728 0 0 1-6.144 10.453333l-4.266667 5.845334 1.408 0.512a11.008 11.008 0 0 1 2.816 1.749333l1.408 1.237333v4.650667h-1.877333a15.274667 15.274667 0 0 1-5.674667-2.474667z m-24.106666-34.858666l1.792-1.28v-5.589334l-1.749334-1.664a4.778667 4.778667 0 0 0-7.125333 0l-1.621333 1.621334v5.632l1.792 1.28a5.290667 5.290667 0 0 0 6.912 0z m40.405333 32.853333a11.221333 11.221333 0 0 1-3.370667-3.285333l-0.469333-1.28 1.749333-1.664a7.338667 7.338667 0 0 1 2.176-1.621334 15.744 15.744 0 0 1 7.168 5.162667l0.256 1.450667-1.877333 1.578666c-2.346667 2.090667-2.176 2.090667-5.418667-0.384z m31.189333-95.957333a82.688 82.688 0 0 0-29.056-10.709334l-5.632-1.237333h-26.624l-10.197333 2.261333a107.008 107.008 0 0 1-12.8 2.261334h-2.517333l-1.621334-1.621334-1.621333-1.621333v-7.466667l1.834667-2.730666a26.837333 26.837333 0 0 1 12.8-9.429334l4.266666-1.322666 10.112-0.426667 10.112-0.426667 8.533334 1.450667c4.650667 0.768 12.117333 2.474667 16.64 3.754667l8.234666 2.346666 6.314667 3.797334a108.544 108.544 0 0 1 19.413333 15.104l2.602667 2.730666v2.133334c0.085333 4.949333-3.882667 5.333333-10.794667 1.109333z" fill="#C68878" p-id="20417"></path><path d="M485.504 893.141333a342.869333 342.869333 0 0 1-113.706667-29.866666 220.501333 220.501333 0 0 1-57.685333-35.84v-1.237334l6.101333-4.053333c3.370667-2.218667 23.68-12.8 45.141334-23.765333s40.064-20.565333 41.301333-21.589334a53.888 53.888 0 0 1 5.12-3.626666 23.808 23.808 0 0 0 4.266667-3.498667c2.986667-3.370667 10.837333-6.314667 10.837333-4.266667a9.770667 9.770667 0 0 1-2.005333 3.157334 15.488 15.488 0 0 0-3.669334 11.648v4.821333l1.621334 4.266667a126.634667 126.634667 0 0 0 39.338666 47.616 128.341333 128.341333 0 0 0 38.912 14.805333l11.434667 2.176 4.565333 0.896 16-0.512c49.92-1.664 69.290667-15.786667 72.533334-52.906667l0.512-6.144-0.938667-5.333333a44.416 44.416 0 0 0-14.122667-24.746667l-3.242666-3.029333h5.034666l7.509334 3.754667 7.466666 3.754666 5.333334 0.682667c2.944 0.384 8.917333 1.450667 13.354666 2.432 9.173333 1.962667 17.792 3.285333 36.736 5.674667a119.168 119.168 0 0 1 31.402667 6.272l4.266667 2.005333 4.522666 4.266667c2.474667 2.346667 5.461333 5.077333 6.613334 6.016a38.741333 38.741333 0 0 1 5.461333 7.381333q2.944 4.864 6.101333 9.557333l2.773334 3.968-0.853334 1.621334a252.074667 252.074667 0 0 1-43.52 30.378666 337.066667 337.066667 0 0 1-119.978666 40.874667c-9.088 1.109333-9.941333 0.896-7.978667-2.090667l1.322667-2.048v-3.669333a12.8 12.8 0 0 0-4.864-10.538667l-2.517334-2.133333h-2.986666a12.416 12.416 0 0 0-10.112 5.674667l-1.536 2.645333v6.570667l1.578666 2.133333a8.533333 8.533333 0 0 0 2.517334 2.474667l0.938666 0.341333v-2.602667a12.245333 12.245333 0 0 1 5.205334-9.813333c4.693333-2.944 6.4-1.834667 4.266666 2.816l-0.938666 2.090667h-1.322667a6.869333 6.869333 0 0 0-3.114667 1.28l-1.792 1.28v3.328l0.213334 3.328-3.626667 1.109333-3.626667 1.109333h-19.370666c-10.666667 0-22.997333-0.384-27.477334-0.725333z m40.362667-191.488l-5.674667-0.469333-3.072-2.858667a39.381333 39.381333 0 0 0-4.266667-3.541333c-3.797333-2.176 0.426667-2.816 6.442667-0.981333a78.848 78.848 0 0 0 18.517333 2.432 19.669333 19.669333 0 0 1 6.528 1.237333 1.322667 1.322667 0 0 0 1.664 0.213333l0.64-0.597333-0.554666 0.981333-0.554667 0.981334h3.328l-0.384-1.024-0.384-1.024 1.109333 0.426666 1.109334 0.426667-0.64 1.792-0.64 1.792h-1.536a5.802667 5.802667 0 0 0-2.517334 0.682667l-1.024 0.64v-0.725334c0-0.384-0.981333-0.597333-2.218666-0.469333a78.677333 78.677333 0 0 1-15.957334 0.341333z m106.069333-3.413333l-25.813333-1.962667a282.794667 282.794667 0 0 1-41.514667-4.565333l-0.768-0.768 1.194667-1.066667a48.384 48.384 0 0 1 8.533333-3.797333 358.058667 358.058667 0 0 0 81.066667-48.042667 212.608 212.608 0 0 0 28.586666-31.36l4.864-6.656 1.92-0.469333a6.272 6.272 0 0 1 3.114667 0l1.194667 0.469333v2.261334a51.2 51.2 0 0 1-1.621334 8.533333 228.864 228.864 0 0 0-3.285333 16.384l-1.664 10.24-0.682667 20.053333-0.682666 20.053334 0.725333 5.717333c0.384 3.157333 0.725333 7.466667 0.768 9.642667v3.882666h-1.024c-3.584 0.384-45.056 2.389333-46.165333 2.218667l-8.533334-0.768z m-259.754667-7.722667q-7.082667-1.194667-14.122666-2.816a333.653333 333.653333 0 0 0-16.341334-3.285333 621.781333 621.781333 0 0 1-34.517333-7.082667l-12.8-2.901333-3.242667-1.749333-3.242666-1.749334-2.389334-6.954666-2.389333-6.954667v-16.384c0-18.517333-1.578667-49.152-2.816-61.397333-1.621333-16.170667-2.56-38.101333-2.645333-62.634667v-24.96l1.450666-13.098667a237.354667 237.354667 0 0 1 6.698667-40.96c1.578667-5.845333 3.925333-14.72 5.162667-19.669333s3.968-14.378667 6.016-20.864l4.565333-14.72c0.469333-1.578667 2.048-5.802667 3.541333-9.429333q2.901333-7.125333 5.632-14.336t6.058667-14.336c1.706667-3.626667 4.266667-10.069333 5.930667-14.336a209.408 209.408 0 0 1 42.24-74.026667c6.869333-7.594667 6.869333-7.466667 0-5.589333l-5.418667 1.450666-1.152-1.578666c-2.517333-3.498667 0-7.338667 13.866667-21.333334a198.656 198.656 0 0 1 53.205333-38.4l13.397333-6.869333 12.8-4.266667 12.8-4.266666 10.112-1.621334 10.112-1.621333 23.381334 0.341333 23.381333 0.341334 8.874667 2.517333 8.874666 2.517333 10.496 5.333334 10.496 5.333333 6.869334 5.845333 9.557333 8.234667c3.285333 2.901333 3.029333 2.901333 8.789333 0.213333l4.650667-2.176 8.234667-0.384c10.538667-0.469333 11.008-0.341333 18.261333 5.504l6.058667 4.864 0.256 1.877334 0.256 1.877333 15.317333 7.765333 15.317333 7.765334 5.632 4.266666 8.533334 6.4a133.717333 133.717333 0 0 1 42.24 64.682667l1.237333 5.376 0.341333 11.221333 0.341334 11.221334 1.621333 4.906666c0.896 2.688 3.498667 9.898667 5.76 15.957334a270.890667 270.890667 0 0 1 11.904 45.44l1.450667 9.002666v49.152l-0.981334 4.821334a146.858667 146.858667 0 0 1-10.197333 27.818666l-2.901333 5.546667v3.029333a58.624 58.624 0 0 1-9.301334 26.325334l-1.877333 1.792-0.554667-0.896a123.136 123.136 0 0 1 1.621334-17.066667l2.133333-16.170667-0.597333-13.482666-0.384-13.525334-2.517334-8.832a240 240 0 0 0-105.429333-131.84 306.218667 306.218667 0 0 1-17.621333-12.544l-4.650667-3.882666-3.754667-0.725334-3.754666-0.725333-12.117334 0.896-12.117333 0.896-9.301333 2.346667-9.301334 2.346666-11.264 4.906667a198.826667 198.826667 0 0 0-35.968 19.925333l-9.386666 6.442667-8.32 8.789333a199.722667 199.722667 0 0 0-18.858667 23.04q-1.749333 2.389333-3.712 4.608a55.466667 55.466667 0 0 0-9.386667 17.578667l-1.152 4.48 1.322667 0.981333a23.338667 23.338667 0 0 0 7.509333 1.450667c3.413333 0.256 11.434667 1.066667 17.877334 1.792l11.690666 1.322667 6.442667 2.048c13.994667 4.266667 21.333333 11.093333 20.437333 18.688l-0.256 2.261333-2.090666 1.578667-2.090667 1.578666-5.589333-2.133333a294.101333 294.101333 0 0 0-17.28-5.461333l-11.733334-3.370667-14.122666-0.384-14.122667-0.384-3.413333 0.938667a17.834667 17.834667 0 0 0-5.802667 2.986666l-2.389333 2.048-1.237334 3.882667a78.592 78.592 0 0 0-2.090666 8.277333l-0.810667 4.266667 0.938667 3.242667 0.938666 3.242666 1.664 1.066667 1.664 1.066667 6.869334 0.512a87.552 87.552 0 0 1 36.48 8.789333l6.656 3.498667 8.064 8.234666 8.064 8.234667 3.541333 6.656 3.114667 6.485333 0.810666 5.930667a25.984 25.984 0 0 1 0.256 7.381333l-0.554666 1.450667-1.194667-1.194667a18.304 18.304 0 0 1-2.389333-5.888 39.424 39.424 0 0 0-16.768-22.485333c-3.84-2.645333-4.565333-1.92-2.432 2.517333a44.074667 44.074667 0 0 1 2.688 8.533334l0.981333 4.864-0.512 5.930666-0.512 5.930667-2.389333 5.290667a33.621333 33.621333 0 0 1-19.754667 18.944l-3.754667 1.28-8.021333-0.938667-8.021333-0.938667-3.242667 0.981334-3.242667 0.981333-1.237333-1.024a3.797333 3.797333 0 0 1-1.237333-2.517333v-1.493334l-4.266667-4.266666-4.266667-4.266667-2.688-5.888-2.688-5.888v-8.533333a63.061333 63.061333 0 0 1 0.896-11.648c0.981333-3.456 0-4.010667-1.621333-1.194667a55.466667 55.466667 0 0 0-3.712 22.912v6.357333h-0.853333a21.589333 21.589333 0 0 1-5.077334-4.266666l-4.266666-4.266667-3.2-7.978667c-3.370667-8.533333-3.925333-9.130667-4.693334-6.144a28.629333 28.629333 0 0 0 1.450667 14.677334 140.202667 140.202667 0 0 1 2.901333 15.744l0.896 8.064-0.981333 11.861333-0.981333 11.861333 0.469333 9.130667 0.469333 9.130667 1.706667 5.717333a101.290667 101.290667 0 0 1 5.76 26.410667c0 0.554667-0.981333 1.621333-2.133333 2.346666l-2.048 1.365334-3.114667-1.450667-3.114667-1.450667-0.981333 0.597334-0.981333 0.597333 0.426666 3.114667 0.426667 3.114666 2.645333 3.968a142.677333 142.677333 0 0 0 51.2 42.666667l9.813334 4.949333 1.621333 2.133334 1.621333 2.133333-0.469333 4.693333a17.066667 17.066667 0 0 1-1.322667 5.802667l-0.896 1.152-16.128-0.597333c-8.874667-0.298667-18.901333-0.896-22.314666-1.28s-13.44-0.981333-22.4-1.28l-16.213334-0.597334v12.117334h-1.194666a61.866667 61.866667 0 0 1-8.064-0.938667z m64-190.378666l1.450667-1.664v-5.12l-1.493333-1.109334a6.528 6.528 0 0 0-3.328-1.109333h-1.834667l-1.237333 1.834667c-3.712 5.376 2.133333 11.946667 6.4 7.168z m119.765334 121.130666a160.597333 160.597333 0 0 1-49.92-7.594666c0.64-0.554667 48.896 1.92 55.466666 2.858666a145.834667 145.834667 0 0 0 15.573334 1.024h8.533333l-1.28 0.938667a50.602667 50.602667 0 0 1-14.506667 2.944 120.149333 120.149333 0 0 1-13.824-0.170667z m94.336-73.216l-1.024-1.28 0.853333-0.853333 0.853333-0.853333 1.706667 0.554666 1.706667 0.554667v3.157333h-1.493334a3.797333 3.797333 0 0 1-2.56-1.28z m-22.485334-2.090666a72.533333 72.533333 0 0 1-7.381333-2.005334l-3.84-1.28-3.626667-3.925333a35.968 35.968 0 0 1-8.533333-16.384l-1.024-4.266667 0.512-9.429333 0.512-9.429333-2.474667 2.389333a38.4 38.4 0 0 0-7.253333 13.184 2.176 2.176 0 0 1-0.938667 1.621333l-0.938666 0.597334 0.512-4.266667 0.512-4.266667 2.432-5.162666 2.432-5.162667 4.864-5.418667a70.954667 70.954667 0 0 1 30.293333-20.010666l4.821333-1.493334h23.381334l5.845333 2.773334 5.845333 2.773333 2.218667-1.109333 2.944-1.450667 0.725333-0.341333-0.469333 2.944-0.469333 2.944 2.261333 1.877333a60.373333 60.373333 0 0 0 19.157333 10.453333c5.205333 0 1.152 4.053333-6.613333 6.570667a27.605333 27.605333 0 0 0-7.04 3.157333l-1.408 1.322667-1.621333 6.442667c-1.706667 6.698667-2.730667 8.533333-4.522667 8.533333h-1.066667l-0.512-3.882667a46.933333 46.933333 0 0 0-6.058666-18.090666l-2.304-3.456-6.101334-2.816a118.997333 118.997333 0 0 0-6.4-2.816 58.581333 58.581333 0 0 0 3.029334 6.954666l3.285333 6.954667 0.853333 6.058667 0.853334 6.058666-1.024 5.76a39.466667 39.466667 0 0 1-9.642667 19.925334l-4.266667 4.608-3.626666 1.749333-3.626667 1.706667h-5.461333a62.72 62.72 0 0 1-9.002667-0.938667z m-3.328-30.592a5.376 5.376 0 0 0 1.621334-8.917334l-1.664-2.176h-5.461334l-1.664 1.792-1.621333 1.792v2.133334a5.845333 5.845333 0 0 0 8.832 5.333333z m40.576 29.866666c-2.517333-2.517333-0.426667-4.608 3.114667-3.114666l2.389333 1.024-0.256 1.322666-0.256 1.322667-2.005333 0.256a4.266667 4.266667 0 0 1-2.944-0.981333z m-253.013333-15.104a5.034667 5.034667 0 0 1 4.821333-7.082666h2.133334l1.664 1.706666 1.664 1.706667-1.066667 1.322667c-2.645333 3.242667-8.32 4.736-9.173333 2.389333z m287.104-79.061333a104.789333 104.789333 0 0 0-47.701333-14.250667l-5.76-0.554666-6.357334 0.938666q-7.253333 1.152-14.421333 2.645334c-4.266667 0.938667-9.642667 1.877333-11.52 2.090666l-3.456 0.384-1.28-1.066666-1.28-1.066667 0.384-3.968 0.384-3.968 3.157333-3.285333a25.6 25.6 0 0 1 14.208-7.637334l5.077334-1.194666h16.384l9.173333 1.621333a74.752 74.752 0 0 1 42.24 19.072l7.68 6.485333 0.469333 1.92c0.853333 3.712-2.816 4.693333-7.338666 1.706667z" fill="#A66A5D" p-id="20418"></path><path d="M501.589333 893.525333a337.749333 337.749333 0 0 1-137.941333-34.986666 283.306667 283.306667 0 0 1-47.573333-29.184l-1.408-1.578667 0.597333-0.938667a118.144 118.144 0 0 1 32.042667-17.066666 45.312 45.312 0 0 0 8.106666-3.754667c1.834667-1.194667 9.685333-5.290667 17.493334-9.173333s15.317333-7.893333 16.768-8.917334a69.717333 69.717333 0 0 1 8.533333-4.693333 30.976 30.976 0 0 0 7.082667-4.266667 30.677333 30.677333 0 0 1 5.162666-4.010666 90.197333 90.197333 0 0 0 7.552-5.589334 12.8 12.8 0 0 1 5.12-2.986666h1.621334l-2.090667 2.517333c-2.730667 3.285333-3.2 5.418667-2.688 12.288l0.384 5.632 3.2 6.784a107.605333 107.605333 0 0 0 76.8 59.136l10.624 2.090667a158.592 158.592 0 0 0 18.944 0.768h15.061333l7.68-1.109334c35.413333-5.205333 51.968-21.845333 53.802667-54.101333l0.426667-7.381333-0.896-4.864a51.2 51.2 0 0 0-3.285334-10.026667l-2.389333-5.162667-4.266667-4.48-4.266666-4.48h1.237333a42.666667 42.666667 0 0 1 8.149333 3.669334l6.869334 3.669333h2.688a77.44 77.44 0 0 1 10.325333 1.664 699.733333 699.733333 0 0 0 50.816 8.149333 42.922667 42.922667 0 0 1 33.152 12.8l6.784 6.314667 2.858667 4.992c1.578667 2.773333 4.010667 6.613333 5.461333 8.533333a14.208 14.208 0 0 1 2.56 5.077334v1.450666l-3.413333 2.773334a340.949333 340.949333 0 0 1-160.725334 67.413333l-5.504 0.554667 0.554667-1.962667a47.829333 47.829333 0 0 0 1.024-4.949333l0.469333-2.986667-0.896-2.816a17.066667 17.066667 0 0 0-3.669333-5.504l-2.730667-2.688-3.541333-0.384-3.541333-0.384-2.901334 1.237333a15.104 15.104 0 0 0-5.077333 4.266667l-2.218667 2.944v8.533333l1.706667 2.944 1.706667 2.944-0.64 0.64a234.666667 234.666667 0 0 1-32.085334 1.066667z m132.266667-196.266666a539.349333 539.349333 0 0 1-67.498667-6.229334l-0.682666-0.682666 6.869333-2.645334a372.053333 372.053333 0 0 0 81.408-48.341333 209.066667 209.066667 0 0 0 27.818667-29.866667l6.656-8.533333h4.736v1.877333a47.445333 47.445333 0 0 1-1.578667 7.68 228.693333 228.693333 0 0 0-3.584 18.389334l-1.962667 12.586666-0.213333 18.816c0 10.368 0 22.613333 0.426667 27.221334l0.682666 8.533333h-1.109333a258.901333 258.901333 0 0 1-22.485333 1.066667c-9.557333 0.298667-17.877333 0.597333-18.56 0.725333s-5.546667 0-10.88-0.426667z m-263.722667-7.978667c-4.778667-0.853333-11.477333-2.261333-14.933333-3.114667s-8.192-1.834667-12.330667-2.56c-7.509333-1.194667-26.026667-5.12-36.565333-7.722666l-7.936-1.962667-2.133333-1.621333-2.133334-1.621334-0.213333-1.962666a48 48 0 0 0-1.92-6.869334l-1.706667-4.906666 0.554667-19.413334 0.554667-19.413333-0.853334-5.12a414.293333 414.293333 0 0 1-3.285333-37.461333 201.813333 201.813333 0 0 0-1.578667-18.005334 132.266667 132.266667 0 0 1-1.28-15.573333l-0.725333-21.717333a397.226667 397.226667 0 0 1 5.632-69.205334 275.498667 275.498667 0 0 1 6.656-30.72q2.218667-7.765333 4.266667-15.573333c0.981333-4.266667 3.925333-12.8 6.528-19.669333s5.802667-15.658667 7.168-19.754667 3.370667-9.472 4.48-11.861333c2.261333-4.864 7.637333-19.242667 10.496-28.16a301.141333 301.141333 0 0 1 13.909333-33.152l4.608-9.429334 7.424-10.666666 7.424-10.666667 10.368-10.325333a135.978667 135.978667 0 0 1 12.373333-11.392 61.866667 61.866667 0 0 0 14.506667-12.458667c0-1.450667-2.730667-0.469333-8.533333 3.029333l-6.229334 3.669334-3.84 0.512-3.84 0.512-1.237333-1.024a4.522667 4.522667 0 0 1-1.237333-3.072v-1.834667l5.461333-5.76a156.757333 156.757333 0 0 1 44.202667-31.402667l14.549333-7.466666 12.8-4.266667 12.8-4.266667 10.368-1.621333 10.368-1.621333h17.834667a108.842667 108.842667 0 0 1 38.016 4.266666l8.832 2.602667 9.258666 4.821333 9.258667 4.821334 7.68 6.229333a153.173333 153.173333 0 0 1 12.245333 11.093333 20.778667 20.778667 0 0 0 5.76 4.864 3.370667 3.370667 0 0 1 2.176 1.237334 3.072 3.072 0 0 0 4.949334 0l1.109333-1.322667-3.498667-3.072-3.498666-3.029333 2.176-1.749334c2.858667-2.261333 6.4-2.901333 14.208-2.432l6.442666 0.384 4.266667 4.266667 4.266667 4.266667-0.469334 1.834666v1.92l4.266667 2.005334 15.530667 7.125333 11.306666 5.162667 6.058667 4.266666 10.453333 7.381334a121.301333 121.301333 0 0 1 42.666667 62.464l1.066667 4.522666-0.298667 5.333334q-0.256 5.717333-0.298667 11.477333v6.144l3.882667 8.192a210.048 210.048 0 0 1 21.077333 90.496l0.512 16.768-1.194666 9.045333-1.194667 9.045334-3.242667 10.197333a145.792 145.792 0 0 1-6.101333 15.914667 30.250667 30.250667 0 0 0-2.858667 7.381333 68.906667 68.906667 0 0 1-8.874666 25.6h-0.896l0.469333-3.498667c1.493333-11.221333 2.816-25.344 3.285333-34.986666l0.512-11.050667-1.28-6.272a233.344 233.344 0 0 0-107.349333-141.909333c-8.533333-5.717333-17.066667-11.776-18.944-13.482667a45.269333 45.269333 0 0 0-5.589333-4.266667l-1.962667-1.066666-15.786667 0.512a114.133333 114.133333 0 0 0-54.101333 11.776 144.725333 144.725333 0 0 0-29.866667 16.853333 177.28 177.28 0 0 1-12.245333 8.533333 166.4 166.4 0 0 0-40.533333 43.264l-3.669334 7.082667a22.784 22.784 0 0 0-1.621333 7.125333l-0.341333 4.650667 2.730666 0.426667c1.493333 0.256 8.917333 0.64 16.512 0.896l13.824 0.469333 8.96 1.536 8.96 1.536 5.12 2.432a163.541333 163.541333 0 0 1 18.090667 10.410667l1.834667 1.322666v6.4l-1.578667 0.853334-1.578667 0.853333-5.333333-2.048a285.568 285.568 0 0 0-30.250667-8.533333 152.917333 152.917333 0 0 0-18.133333-0.896h-13.696l-7.68 1.408a55.466667 55.466667 0 0 0-9.728 2.474666 35.754667 35.754667 0 0 0-11.946667 20.394667 109.184 109.184 0 0 1-3.669333 11.648 52.906667 52.906667 0 0 0-2.048 5.632 34.389333 34.389333 0 0 0 17.066667-4.266667c0.64-6.528 1.024-6.826667 3.968-3.541333l2.389333 2.645333 1.834667-0.384c1.024-0.213333 4.266667-0.597333 7.082666-0.896l5.290667-0.512 7.253333 0.853334a61.952 61.952 0 0 1 43.818667 20.608l5.034667 5.205333 3.584 7.381333 3.584 7.381334 0.384 5.333333 0.384 5.333333-1.493334-4.522666a40.96 40.96 0 0 0-18.218666-23.04l-4.906667-3.328-0.256 1.237333a13.866667 13.866667 0 0 0 1.706667 5.205333 36.181333 36.181333 0 0 1-5.333334 40.618667l-3.754666 4.266667-4.992 2.474666-4.992 2.474667-12.8-0.341333-12.8-0.341334-0.341334-1.109333a38.101333 38.101333 0 0 0-4.949333-6.058667 30.677333 30.677333 0 0 1-8.874667-15.829333l-1.024-4.266667 0.426667-6.272a31.317333 31.317333 0 0 1 5.418667-17.536c3.968-6.656 3.968-6.357333 0-6.357333h-3.456l-2.986667 2.048-2.986667 2.048-3.2 6.741333a84.949333 84.949333 0 0 0-4.565333 12.074667 30.72 30.72 0 0 1-2.048 6.101333l-0.64 0.768-2.176-4.864-2.176-4.864-0.896-6.954666-0.896-6.954667-3.370667-0.256-3.370666-0.256-1.152 1.877333a250.538667 250.538667 0 0 0-1.28 91.136l1.621333 9.002667-0.256 5.333333-0.256 5.333334-1.834667 0.256a4.266667 4.266667 0 0 0-2.730666 1.962666l-0.896 1.706667 0.426666 3.2 0.426667 3.2 3.413333 5.888a133.845333 133.845333 0 0 0 23.594667 28.032l9.813333 9.472 7.850667 5.290667c4.266667 2.901333 12.586667 7.722667 18.346667 10.709333l10.538666 5.418667 0.512 2.090666a22.869333 22.869333 0 0 1 0 6.656l-0.725333 4.608-14.122667-0.256c-7.765333 0-17.066667-0.64-20.992-1.066666s-14.506667-1.024-23.893333-1.28l-17.066667-0.512-0.725333 1.152a17.834667 17.834667 0 0 0-0.725333 5.973333v4.48h-0.810667a76.288 76.288 0 0 1-9.472-1.322667z m67.157334-189.312l1.621333-2.645333-0.469333-2.048a5.674667 5.674667 0 0 0-5.077334-4.906667h-2.048l-1.877333 1.792-1.877333 1.792v6.186667l1.792 1.28a8.234667 8.234667 0 0 0 4.053333 1.28h2.261333z m193.962666 45.525333l-7.253333-1.664-5.632-1.322666-3.925333-3.712a37.034667 37.034667 0 0 1-9.557334-33.834667 37.632 37.632 0 0 0 1.237334-4.949333l0.554666-3.072h-1.237333a10.88 10.88 0 0 0-4.266667 2.645333l-2.986666 2.645333 1.450666-2.816a61.354667 61.354667 0 0 1 46.165334-27.392l6.656-0.512 5.461333 0.896a50.176 50.176 0 0 1 10.709333 3.285334 22.229333 22.229333 0 0 0 6.869334 2.218666h1.621333l0.256 1.621334 0.256 1.621333 7.850667 5.162667a60.416 60.416 0 0 0 11.264 6.101333c5.333333 1.493333 4.266667 2.688-4.266667 5.546667-7.253333 2.389333-8.021333 3.242667-10.026667 10.538666-2.261333 8.533333-3.456 8.874667-4.48 1.962667a50.517333 50.517333 0 0 0-2.176-8.234667l-1.621333-4.266666-4.949333-5.674667-4.949334-5.674667-4.821333-1.621333a22.272 22.272 0 0 0-9.173333-1.792h-1.109334l3.925334 4.266667a37.077333 37.077333 0 0 1 9.173333 18.730666l0.938667 5.376-0.938667 6.442667-0.938667 6.442667-2.816 5.461333a31.744 31.744 0 0 1-13.482666 14.208l-4.010667 2.048h-4.266667a43.221333 43.221333 0 0 1-5.333333-0.682667z m-4.650666-31.061333l1.834666-2.048v-2.304a7.808 7.808 0 0 0-5.589333-7.04l-2.346667-0.512-1.877333 1.024a7.125333 7.125333 0 0 0-0.341333 12.8l2.517333 1.109333 2.005333-0.426666a8.533333 8.533333 0 0 0 4.010667-2.602667z m-211.925334 13.184" fill="#47332F" p-id="20419"></path></svg>