<?xml version="1.0" encoding="UTF-8"?>
<svg version="1.1" xmlns="http://www.w3.org/2000/svg" width="3710" height="3121" viewBox="-742 -624 5194 4369" role="img" aria-labelledby="title desc">
<title id="title">Campux logo</title>
<desc id="desc">Campux refined logo</desc>
<path d="M0 0 C304.26 0 608.52 0 922 0 C888.5764722 308.87949827 888.5764722 308.87949827 878.40921187 402.38413668 C877.49964912 410.74955532 876.59044697 419.11501313 875.68132973 427.48048019 C875.56336971 428.56591747 875.56336971 428.56591747 875.44302666 429.67328276 C875.04230572 433.36062804 874.64159012 437.04797391 874.24087683 440.73532002 C871.50912162 465.87275184 868.77686014 491.01012861 866.04418945 516.14746094 C865.40441728 522.03261294 864.76464575 527.91776501 864.12487793 533.80291748 C864.04542268 534.53381739 863.96596742 535.26471729 863.88410443 536.01776568 C861.99523234 553.39333502 860.10659764 570.76893017 858.21801758 588.14453125 C858.13594704 588.89960791 858.05387651 589.65468457 857.96931899 590.43264234 C856.08353129 607.78253788 854.1978075 625.13244037 852.31216145 642.4823513 C852.23246835 643.21561014 852.15277525 643.94886898 852.07066721 644.70434778 C851.35337993 651.30413266 850.63609303 657.90391759 849.91881648 664.50370364 C848.09592783 681.2764084 846.27286843 698.04909457 844.44944946 714.82174169 C843.31887028 725.2213572 842.18844008 735.62098891 841.05811062 746.02063157 C840.41501968 751.93735238 839.77186585 757.85406633 839.1285038 763.77075768 C834.73475407 804.17860575 830.36575746 844.58911977 826 885 C826.76991152 885.00939339 827.53982304 885.01878678 828.33306522 885.02846482 C912.17596272 886.05142483 996.01884931 887.07527677 1079.86167908 888.10377502 C1081.11457991 888.11914408 1082.36748075 888.13451314 1083.65834828 888.15034792 C1110.88886758 888.48438398 1138.11938492 888.81857964 1165.34990025 889.15293964 C1178.03330875 889.30867667 1190.71671762 889.46438428 1203.40012676 889.62006969 C1205.41335237 889.64478166 1207.42657796 889.66949443 1209.43980356 889.69420724 C1240.42217789 890.07451589 1271.40455951 890.45421799 1302.38696289 890.83215332 C1303.38536335 890.84433221 1303.38536335 890.84433221 1304.40393352 890.85675714 C1315.13463955 890.98765093 1325.86534621 891.11849357 1336.59605296 891.24932942 C1381.51800715 891.79704865 1426.4399326 892.34706506 1471.36182068 892.90018211 C1477.61576527 892.97718498 1483.86971019 893.05416101 1490.12365532 893.13112068 C1491.35449167 893.14626791 1492.58532802 893.16141515 1493.85346244 893.17702139 C1513.64690347 893.4205395 1533.44037387 893.66158443 1553.23385645 893.90169875 C1573.14485444 894.14329163 1593.05581894 894.38750376 1612.9667523 894.63436633 C1624.78845091 894.78085681 1636.61016984 894.92536217 1648.43192781 895.06698358 C1656.34134552 895.16193466 1664.25072802 895.25951676 1672.1600877 895.35918324 C1676.65868505 895.41579673 1681.157288 895.47131854 1685.6559378 895.52361374 C1703.78679537 895.73510227 1721.8897587 896.03355469 1740 897 C1739.25723089 909.93791555 1737.68330617 922.75238032 1736.12890625 935.61328125 C1735.84336825 937.99631779 1735.55813104 940.37939038 1735.2731781 942.76249695 C1734.52557599 949.0082371 1733.77403777 955.25349727 1733.02160645 961.49865723 C1732.26145836 967.81328277 1731.50484795 974.12833197 1730.74804688 980.44335938 C1729.89417484 987.56713924 1729.03997741 994.6908784 1728.18299866 1001.81428528 C1725.38443259 1024.88614488 1725.38443259 1024.88614488 1722.81640625 1047.984375 C1722.60889397 1049.92970564 1722.4012062 1051.87501757 1722.19335938 1053.8203125 C1721.87805162 1056.77879176 1721.56382823 1059.73736869 1721.25268555 1062.69628906 C1720.16763397 1072.99699973 1719.01206364 1083.26852634 1717.49609375 1093.515625 C1715.84974872 1104.64543453 1714.65979029 1115.8105531 1713.5 1127 C1712.24156117 1139.14119018 1710.87720777 1151.23533273 1709.09146118 1163.31123352 C1707.7607264 1172.41025221 1706.8054105 1181.54032055 1705.875 1190.6875 C1705.54350843 1193.94188522 1705.2069008 1197.19568275 1704.8671875 1200.44921875 C1704.79426483 1201.18234787 1704.72134216 1201.91547699 1704.64620972 1202.67082214 C1704.1127827 1207.7744346 1704.1127827 1207.7744346 1703 1210 C1703.84046875 1210.12632813 1704.6809375 1210.25265625 1705.546875 1210.3828125 C1711.79797256 1211.50009012 1717.8821573 1213.31695332 1724 1215 C1724.88171875 1215.22558594 1725.7634375 1215.45117188 1726.671875 1215.68359375 C1753.59489592 1222.95642323 1776.56863935 1241.53800453 1790.875 1265.125 C1799.20213017 1280.18935481 1803.57741746 1295.82624572 1804 1313 C1804.04664795 1314.17949219 1804.04664795 1314.17949219 1804.09423828 1315.3828125 C1804.7273077 1332.23073032 1802.66126275 1348.38823798 1800 1365 C1799.82388184 1366.12277344 1799.64776367 1367.24554687 1799.46630859 1368.40234375 C1797.84314235 1378.71458405 1796.07258613 1388.94632905 1793.78125 1399.1328125 C1792.49542051 1405.49766847 1791.52582898 1411.91358769 1790.53320312 1418.32983398 C1789.61056172 1424.27579843 1788.62109368 1430.20567907 1787.5625 1436.12890625 C1786.48695911 1442.15321769 1785.46691539 1448.18385581 1784.5 1454.2265625 C1784.37633057 1454.99866562 1784.25266113 1455.77076874 1784.12524414 1456.56626892 C1783.62301759 1459.70855456 1783.12249656 1462.85110249 1782.625 1465.99414062 C1781.15060628 1475.29357186 1779.54213882 1484.53122375 1777.65185547 1493.75634766 C1776.84284753 1497.78199542 1776.17076115 1501.81498822 1775.5625 1505.875 C1775.31296015 1507.4987687 1775.06293436 1509.12246277 1774.8125 1510.74609375 C1774.68230469 1511.59413574 1774.55210938 1512.44217773 1774.41796875 1513.31591797 C1773.97803933 1516.14102549 1773.52230908 1518.9632182 1773.0625 1521.78515625 C1771.09100445 1533.89952883 1769.27157422 1546.02478894 1767.57495117 1558.18066406 C1766.13839817 1568.3310912 1764.44214469 1578.42771272 1762.71948242 1588.53271484 C1761.38849904 1596.4230627 1760.30392354 1604.28382563 1759.45703125 1612.23828125 C1758.97663626 1616.19230151 1758.29775387 1620.08776327 1757.5625 1624 C1756.03474272 1632.16762547 1755.0726965 1640.37497672 1754.12744141 1648.62768555 C1753.48361308 1654.17765405 1752.7837718 1659.70073824 1751.86694336 1665.21264648 C1750.10149998 1675.90065477 1749.09063175 1686.09368248 1748 1697 C1714.01 1697 1680.02 1697 1645 1697 C1644.67 1701.62 1644.34 1706.24 1644 1711 C1643.56992145 1714.3271179 1643.11405242 1717.62621023 1642.59375 1720.9375 C1640.89960073 1732.25945139 1639.6800809 1743.61479303 1638.5 1755 C1637.24995943 1767.06016526 1635.89597705 1779.07313221 1634.12098694 1791.06816101 C1632.60551066 1801.45064213 1631.53183667 1811.87878888 1630.4375 1822.3125 C1630.02153258 1826.2463081 1629.60343132 1830.17988435 1629.18359375 1834.11328125 C1629.03330215 1835.52142845 1629.03330215 1835.52142845 1628.87997437 1836.95802307 C1627.78366245 1847.14372375 1626.61011934 1857.3185256 1625 1867.4375 C1623.22128134 1878.76293525 1622.05846928 1890.15087808 1621 1901.5625 C1619.97764241 1912.56881838 1618.7279564 1923.51627555 1617 1934.4375 C1615.22128134 1945.76293525 1614.05846928 1957.15087808 1613 1968.5625 C1611.97764241 1979.56881838 1610.7279564 1990.51627555 1609 2001.4375 C1607.22128134 2012.76293525 1606.05846928 2024.15087808 1605 2035.5625 C1603.97764241 2046.56881838 1602.7279564 2057.51627555 1601 2068.4375 C1599.22128134 2079.76293525 1598.05846928 2091.15087808 1597 2102.5625 C1595.97764241 2113.56881838 1594.7279564 2124.51627555 1593 2135.4375 C1591.19466259 2146.89577121 1590.04630045 2158.45255614 1588.81640625 2169.984375 C1588.66309341 2171.41959251 1588.66309341 2171.41959251 1588.50668335 2172.88380432 C1588.08657798 2176.82107997 1587.66677342 2180.75837537 1587.25268555 2184.69628906 C1586.16763397 2194.99699973 1585.01206364 2205.26852634 1583.49609375 2215.515625 C1581.84974872 2226.64543453 1580.65979029 2237.8105531 1579.5 2249 C1578.24915449 2261.06793118 1576.8933255 2273.0881794 1575.11645508 2285.09082031 C1573.61748621 2295.36121199 1572.56990905 2305.6777111 1571.5 2316 C1570.24995943 2328.06016526 1568.89597705 2340.07313221 1567.12098694 2352.06816101 C1565.60551066 2362.45064213 1564.53183667 2372.87878888 1563.4375 2383.3125 C1563.02153258 2387.2463081 1562.60343132 2391.17988435 1562.18359375 2395.11328125 C1562.08339935 2396.05204605 1561.98320496 2396.99081085 1561.87997437 2397.95802307 C1560.78366245 2408.14372375 1559.61011934 2418.3185256 1558 2428.4375 C1556.22128134 2439.76293525 1555.05846928 2451.15087808 1554 2462.5625 C1552.97764241 2473.56881838 1551.7279564 2484.51627555 1550 2495.4375 C1548.22128134 2506.76293525 1547.05846928 2518.15087808 1546 2529.5625 C1544.97764241 2540.56881838 1543.7279564 2551.51627555 1542 2562.4375 C1540.22128134 2573.76293525 1539.05846928 2585.15087808 1538 2596.5625 C1536.97764241 2607.56881838 1535.7279564 2618.51627555 1534 2629.4375 C1532.22128134 2640.76293525 1531.05846928 2652.15087808 1530 2663.5625 C1528.97764241 2674.56881838 1527.7279564 2685.51627555 1526 2696.4375 C1524.19466259 2707.89577121 1523.04630045 2719.45255614 1521.81640625 2730.984375 C1521.66309341 2732.41959251 1521.66309341 2732.41959251 1521.50668335 2733.88380432 C1521.08657798 2737.82107997 1520.66677342 2741.75837537 1520.25268555 2745.69628906 C1519.16763397 2755.99699973 1518.01206364 2766.26852634 1516.49609375 2776.515625 C1514.84974872 2787.64543453 1513.65979029 2798.8105531 1512.5 2810 C1511.24915449 2822.06793118 1509.8933255 2834.0881794 1508.11645508 2846.09082031 C1506.61748621 2856.36121199 1505.56990905 2866.6777111 1504.5 2877 C1503.13609453 2890.15871315 1501.60454625 2903.25816281 1499.67822266 2916.34716797 C1498.83550073 2922.07447302 1498.11363871 2927.81332057 1497.4375 2933.5625 C1497.26831055 2934.95758789 1497.26831055 2934.95758789 1497.09570312 2936.38085938 C1495.92119063 2946.24282746 1494.98875862 2956.11241378 1494 2966 C1197 2966 900 2966 594 2966 C595.12302977 2950.27758319 595.12302977 2950.27758319 595.83203125 2944.1640625 C595.99025234 2942.77726442 596.14845462 2941.39046419 596.30664062 2940.00366211 C596.38889893 2939.29225067 596.47115723 2938.58083923 596.5559082 2937.84786987 C598.16711362 2923.88990231 599.62861838 2909.92087644 601 2895.9375 C603.1623457 2873.96597239 605.48420481 2852.0060432 608.4375 2830.125 C612.15591623 2802.46765864 614.87600167 2774.6637007 617.61645508 2746.89550781 C618.57447191 2737.19598995 619.56007336 2727.50100251 620.625 2717.8125 C620.73602051 2716.78688965 620.84704102 2715.7612793 620.96142578 2714.70458984 C621.49839285 2709.89429324 622.12752241 2705.12092892 622.90625 2700.34375 C624.6094021 2689.5092306 625.67873597 2678.58699297 626.875 2667.6875 C627.0066153 2666.49691986 627.13823059 2665.30633972 627.27383423 2664.0796814 C629.17544013 2646.87656052 630.97214242 2629.66551356 632.66699219 2612.44091797 C633.60677776 2602.89272119 634.57665579 2593.34954815 635.625 2583.8125 C635.73610107 2582.78616455 635.84720215 2581.7598291 635.96166992 2580.70239258 C636.49855676 2575.89283141 637.12764145 2571.12019865 637.90625 2566.34375 C639.6094021 2555.5092306 640.67873597 2544.58699297 641.875 2533.6875 C642.0066153 2532.49691986 642.13823059 2531.30633972 642.27383423 2530.0796814 C644.17544013 2512.87656052 645.97214242 2495.66551356 647.66699219 2478.44091797 C648.60677776 2468.89272119 649.57665579 2459.34954815 650.625 2449.8125 C650.73610107 2448.78616455 650.84720215 2447.7598291 650.96166992 2446.70239258 C651.49855676 2441.89283141 652.12764145 2437.12019865 652.90625 2432.34375 C654.6094021 2421.5092306 655.67873597 2410.58699297 656.875 2399.6875 C657.0066153 2398.49691986 657.13823059 2397.30633972 657.27383423 2396.0796814 C659.17544013 2378.87656052 660.97214242 2361.66551356 662.66699219 2344.44091797 C663.60677776 2334.89272119 664.57665579 2325.34954815 665.625 2315.8125 C665.73610107 2314.78616455 665.84720215 2313.7598291 665.96166992 2312.70239258 C666.49855676 2307.89283141 667.12764145 2303.12019865 667.90625 2298.34375 C669.6094021 2287.5092306 670.67873597 2276.58699297 671.875 2265.6875 C672.0066153 2264.49691986 672.13823059 2263.30633972 672.27383423 2262.0796814 C674.17544013 2244.87656052 675.97214242 2227.66551356 677.66699219 2210.44091797 C678.60677776 2200.89272119 679.57665579 2191.34954815 680.625 2181.8125 C680.73610107 2180.78616455 680.84720215 2179.7598291 680.96166992 2178.70239258 C681.49725885 2173.9044584 682.12434649 2169.14359002 682.90234375 2164.37890625 C684.63721028 2153.34695544 685.71860515 2142.2230646 686.9375 2131.125 C687.20594231 2128.70149396 687.47441576 2126.27799137 687.74291992 2123.85449219 C689.33705773 2109.40029581 690.86055796 2094.9423121 692.15014648 2080.45751953 C692.25141846 2079.34231934 692.35269043 2078.22711914 692.45703125 2077.078125 C692.53928955 2076.13356445 692.62154785 2075.18900391 692.70629883 2074.21582031 C693 2072 693 2072 694 2070 C396.01 2070 98.02 2070 -209 2070 C-207.76758867 2055.21106398 -206.50133647 2040.44768758 -205.00120544 2025.68721008 C-204.80742997 2023.7648464 -204.6138384 2021.84246417 -204.42041063 2019.92006546 C-203.89434216 2014.69691726 -203.36570583 2009.47403184 -202.83660643 2004.25118992 C-202.25966654 1998.55140933 -201.68518665 1992.8513807 -201.11038303 1987.15138435 C-200.10621127 1977.19692383 -199.10049991 1967.24261982 -198.09375 1957.28841972 C-197.01914037 1946.66321872 -195.94542388 1936.03792824 -194.87283325 1925.41252327 C-194.77112055 1924.40493491 -194.77112055 1924.40493491 -194.66735304 1923.37699123 C-194.32170963 1919.95292996 -193.97608103 1916.52886719 -193.63045762 1913.1048039 C-191.13855846 1888.41806466 -188.6446375 1863.73153001 -186.14962769 1839.04510498 C-183.66257309 1814.43733554 -181.17643036 1789.82947424 -178.69143677 1765.22149658 C-178.613674 1764.45144464 -178.53591124 1763.68139269 -178.45579203 1762.88800584 C-177.74612973 1755.8605154 -177.03647755 1748.83302395 -176.32683753 1741.80553126 C-174.57609765 1724.46813992 -172.82521649 1707.13076284 -171.07423401 1689.793396 C-170.99502361 1689.00909294 -170.91581321 1688.22478989 -170.83420249 1687.41672008 C-166.08672737 1640.40968808 -161.33683385 1593.40290043 -156.58700949 1546.39610577 C-156.50925283 1545.62658434 -156.43149616 1544.85706292 -156.35138324 1544.06422266 C-155.96106154 1540.20139235 -155.57073914 1536.3385621 -155.18041562 1532.47573197 C-152.07210748 1501.71438972 -148.96429924 1470.95299697 -145.8566736 1440.19158576 C-145.20700606 1433.76073598 -144.55733341 1427.3298867 -143.90766144 1420.89903736 C-143.14145961 1413.31469985 -142.37525832 1405.73036228 -141.60905886 1398.14602453 C-138.85729606 1370.90731831 -136.10544123 1343.6686214 -133.35351562 1316.42993164 C-133.23121814 1315.21942323 -133.10892066 1314.00891482 -132.98291719 1312.76172434 C-129.51101969 1278.3966933 -126.03873214 1244.03170169 -122.56614164 1209.66674067 C-112.71426934 1112.17196399 -102.86477874 1014.67694772 -81.28494417 800.86144071 C-77.32633522 761.63589834 -73.36741071 722.41038783 -69.40815685 683.18491055 C-69.19819498 681.1047569 -68.98823338 679.02460322 -68.77827185 676.94444953 C-65.70381505 646.48486579 -62.62928049 616.0252899 -59.55467674 585.565721 C-59.13569564 581.41494702 -58.7167154 577.26417295 -58.29773545 573.11339885 C-58.22855116 572.42800004 -58.15936687 571.74260123 -58.08808609 571.03643276 C-57.73845479 567.57268518 -57.38882367 564.10893757 -57.03919275 560.64518994 C-56.89924388 559.25873494 -56.75929501 557.87227994 -56.61934614 556.48582494 C-56.5500514 555.79933103 -56.48075666 555.11283711 -56.40936208 554.40554035 C-55.98935283 550.24456517 -55.56934214 546.08359013 -55.14933045 541.92261519 C-52.00469265 510.76928632 -48.8602321 479.61593957 -45.71629505 448.46253997 C-45.49582399 446.27788334 -45.27535247 444.09322676 -45.05488081 441.9085702 C-44.76064853 438.99301857 -44.46641636 436.07746694 -44.17218431 433.16191529 C-44.02495374 431.70300451 -43.87772317 430.24409373 -43.73049259 428.78518295 C-43.6211281 427.70148799 -43.6211281 427.70148799 -43.50955423 426.59590021 C-42.99400091 421.48727319 -42.47844648 416.37864629 -41.96289062 411.27001953 C-41.89004426 410.54818713 -41.81719789 409.82635472 -41.74214405 409.08264861 C-38.34236928 375.39442681 -34.94227161 341.70623766 -31.54078674 308.01818848 C-31.43626247 306.98298728 -31.43626247 306.98298728 -31.3296266 305.92687293 C-29.80248037 290.80216953 -28.27521792 275.67747787 -26.74784305 260.55279757 C-26.13503598 254.48451995 -25.52224301 248.4162409 -24.90945435 242.34796143 C-24.8090104 241.35329829 -24.8090104 241.35329829 -24.70653729 240.33854095 C-22.50494955 218.53687572 -20.3047041 196.7350752 -18.10508393 174.93321136 C-15.99415807 154.01073226 -13.88183721 133.08839439 -11.76803601 112.16620559 C-10.5181122 99.79416498 -9.26927644 87.42201565 -8.02198454 75.04970942 C-7.19143097 66.81223695 -6.35947541 58.57490688 -5.52635351 50.33769377 C-5.05192014 45.64649008 -4.57811379 40.95522534 -4.10601509 36.26378608 C-3.67752325 32.00580378 -3.24725377 27.74800509 -2.81553373 23.49034893 C-2.66037046 21.95696183 -2.5058674 20.42350776 -2.35208967 18.8899811 C-2.14380488 16.81383953 -1.9331259 14.73795431 -1.72184277 12.66211605 C-1.6056818 11.51146599 -1.48952084 10.36081592 -1.36983985 9.17529768 C-1.01208211 6.10373215 -0.50837594 3.05025561 0 0 Z " fill="#27D6FE" transform="translate(209,1)"/>
<path d="M0 0 C304.26 0 608.52 0 922 0 C904.02759784 166.08978545 886.04526479 332.17830516 867.99102108 498.25918952 C867.24230613 505.14664374 866.49363648 512.03410288 865.74496841 518.92156219 C865.66807 519.62899629 865.59117159 520.33643038 865.51194293 521.06530187 C863.68248083 537.89566155 861.85334855 554.72605708 860.02426147 571.55645752 C859.94411712 572.29390704 859.86397277 573.03135657 859.78139981 573.79115305 C858.97012662 581.2560966 858.15885754 588.72104061 857.34759136 596.18598493 C855.64920328 611.81386351 853.95077949 627.4417382 852.25233459 643.0696106 C852.17266857 643.80264069 852.09300254 644.53567079 852.01092239 645.29091392 C849.5506416 667.92864951 847.09019978 690.56636759 844.62962341 713.20407104 C844.55262263 713.91249104 844.47562185 714.62091103 844.39628772 715.35079829 C843.54977054 723.13889444 842.70324955 730.92699018 841.856727 738.71508574 C836.1120484 791.56672817 830.36825859 844.41846711 824.62539864 897.27030718 C823.14411081 910.90265465 821.6627545 924.53499467 820.18133545 938.16732788 C820.08061619 939.09416798 819.97989693 940.02100809 819.87612557 940.97593425 C818.79519139 950.92290421 817.71424039 960.86987234 816.63327789 970.81683922 C816.25692204 974.28005342 815.88056668 977.74326767 815.50421143 981.20648193 C815.41230514 982.05220001 815.32039886 982.8979181 815.22570753 983.769264 C813.96681859 995.35353605 812.70804196 1006.9378203 811.44934994 1018.52211376 C810.68289421 1025.57610609 809.91640835 1032.63009516 809.14990234 1039.68408203 C809.06802005 1040.4376277 808.98613775 1041.19117338 808.90177417 1041.96755376 C806.33821965 1065.55917654 803.77254902 1089.15056814 801.20431519 1112.74168205 C799.907287 1124.65663147 798.61189167 1136.57175487 797.31979996 1148.48724067 C796.53256916 1155.74617234 795.74359382 1163.00491261 794.95290893 1170.26346886 C794.44447311 1174.931658 793.93815863 1179.60006923 793.43375635 1184.26869583 C793.07290073 1187.60206402 792.70846511 1190.93503826 792.34448242 1194.26806641 C792.220193 1195.42539906 792.09590359 1196.5827317 791.96784782 1197.77513504 C791.79604594 1199.33852678 791.79604594 1199.33852678 791.62077332 1200.9335022 C791.52404422 1201.82444895 791.42731512 1202.7153957 791.32765484 1203.63334084 C791.02555647 1205.81540499 790.58158186 1207.87727942 790 1210 C789.44323074 1210.03900925 788.88646149 1210.07801849 788.31282043 1210.11820984 C759.39443365 1212.15596033 730.64314448 1214.46194284 702 1219 C700.85797119 1219.17888763 700.85797119 1219.17888763 699.69287109 1219.36138916 C677.92806498 1222.77873606 656.38990293 1227.07616728 634.875 1231.8125 C633.77225739 1232.05510559 632.66951477 1232.29771118 631.53335571 1232.54766846 C628.39343833 1233.24139198 625.25497683 1233.94125038 622.1171875 1234.64453125 C620.71364769 1234.95664803 620.71364769 1234.95664803 619.28175354 1235.27507019 C618.40873093 1235.47280533 617.53570831 1235.67054047 616.63623047 1235.87426758 C615.8819577 1236.04412674 615.12768494 1236.2139859 614.35055542 1236.38899231 C613.18703049 1236.69144112 613.18703049 1236.69144112 612 1237 C610.4312059 1237.36695984 610.4312059 1237.36695984 608.83071899 1237.74133301 C605.84321364 1238.72210759 605.84321364 1238.72210759 604.76525879 1241.31596375 C604.53657104 1242.28894913 604.3078833 1243.26193451 604.07226562 1244.2644043 C603.79709106 1245.37543518 603.5219165 1246.48646606 603.23840332 1247.63116455 C602.96379272 1248.84987244 602.68918213 1250.06858032 602.40625 1251.32421875 C601.93245209 1253.27075447 601.45863344 1255.21728528 600.98394012 1257.16360283 C600.48223204 1259.2401804 599.99285793 1261.31932617 599.50683594 1263.39962769 C597.99526794 1269.86217781 596.40636828 1276.30579728 594.81686401 1282.74954414 C594.45883396 1284.2016341 594.10168108 1285.6539406 593.74539185 1287.10645866 C590.24936779 1301.34586922 586.26571399 1315.40791964 582 1329.4375 C581.69296143 1330.45016937 581.38592285 1331.46283875 581.06958008 1332.50619507 C579.39800947 1338.00987857 577.70872071 1343.50774122 576 1349 C578.72180589 1348.04554185 581.44307651 1347.08960292 584.1640625 1346.1328125 C584.92984619 1345.8644458 585.69562988 1345.5960791 586.48461914 1345.31958008 C591.27833597 1343.63237722 596.0106465 1341.84205611 600.71484375 1339.91796875 C604.02326117 1338.58894637 607.37404634 1337.38924005 610.73046875 1336.1875 C613.20041916 1335.29040929 615.65803299 1334.37325908 618.11328125 1333.4375 C658.83882366 1317.9979104 701.67222512 1308.2250472 745 1304 C746.29421875 1303.86851563 747.5884375 1303.73703125 748.921875 1303.6015625 C752.61528725 1303.29238546 756.29636828 1303.10341309 760 1303 C760.96099609 1302.97276855 761.92199219 1302.94553711 762.91210938 1302.91748047 C813.50430203 1301.71254359 813.50430203 1301.71254359 831.00390625 1317.84765625 C836.6425812 1323.76885353 839.05615793 1329.78789676 839.375 1337.9375 C838.90051679 1350.72877664 832.6068801 1361.25548683 823.46875 1369.90625 C802.70973815 1387.51199422 772.439358 1392.9357344 746.60824585 1398.54344177 C633.55395206 1422.5277025 633.55395206 1422.5277025 538 1484 C537.07832031 1484.85851563 536.15664063 1485.71703125 535.20703125 1486.6015625 C510.42606268 1510.29901905 494.69973347 1544.56792803 493.796875 1578.8984375 C493.3703991 1613.96123487 501.11857513 1647.98760127 526 1674 C526.61359375 1674.68835937 527.2271875 1675.37671875 527.859375 1676.0859375 C552.28458978 1702.49439621 596.06118846 1709.42963321 630 1711 C659.37860011 1712.01595762 688.18999713 1710.41069611 717.29296875 1706.41796875 C719.01767485 1706.18287879 720.74240615 1705.94797354 722.46716309 1705.71325684 C726.64506831 1705.1442965 730.82262654 1704.57285099 735 1704 C727.4281286 1773.53854922 719.64746063 1843.0537839 711.86656868 1912.56917948 C710.42767484 1925.42473216 708.99047231 1938.28047334 707.55396557 1951.13629296 C706.05989526 1964.50710187 704.56462293 1977.87777588 703.06807709 1991.24830794 C702.23519751 1998.68968748 701.40280071 2006.13112024 700.57171631 2013.5727005 C699.79827622 2020.49803861 699.02316888 2027.42318835 698.246912 2034.34821129 C697.96294644 2036.88386222 697.67953647 2039.41957545 697.39671898 2041.95535469 C697.01150049 2045.4084961 696.62429192 2048.86140868 696.23657227 2052.31427002 C696.06922105 2053.82084274 696.06922105 2053.82084274 695.898489 2055.35785127 C695.74184997 2056.74726761 695.74184997 2056.74726761 695.58204651 2058.16475296 C695.49313424 2058.95948493 695.40422197 2059.7542169 695.31261539 2060.57303166 C694.94942976 2063.39259862 694.46736355 2066.19581867 694 2069 C396.01 2069 98.02 2069 -209 2069 C-204.40227083 2019.57441142 -204.40227083 2019.57441142 -202.83662415 2004.16165161 C-202.64940733 2002.30538596 -202.46233953 2000.44910527 -202.27540088 1998.59281158 C-201.77628155 1993.64066223 -201.27513477 1988.68872015 -200.77356274 1983.7368187 C-200.22282961 1978.29563466 -199.67412515 1972.85424593 -199.12513638 1967.41288567 C-198.16874627 1957.93618637 -197.21112734 1948.45961192 -196.2526474 1938.98312378 C-194.83305979 1924.94761228 -193.41544669 1910.91190183 -191.99821822 1896.87615195 C-189.61808766 1873.30468875 -187.2363958 1849.73338356 -184.85379028 1826.16217041 C-182.47673097 1802.64577354 -180.10042983 1779.12930024 -177.72506714 1755.61273193 C-177.65050622 1754.87456698 -177.5759453 1754.13640202 -177.49912497 1753.37586842 C-176.81834347 1746.63601847 -176.13757104 1739.8961676 -175.45680932 1733.15631565 C-173.77513189 1716.50694104 -172.09334563 1699.85757742 -170.41148376 1683.20822144 C-170.33532882 1682.45433543 -170.25917388 1681.70044943 -170.18071121 1680.92371839 C-166.52825186 1644.76676534 -162.8745796 1608.60993487 -159.22070312 1572.453125 C-159.10585399 1571.31663889 -159.10585399 1571.31663889 -158.98868467 1570.15719346 C-158.52619189 1565.58061113 -158.06369847 1561.00402887 -157.60120486 1556.42744662 C-156.99131429 1550.39230438 -156.3814245 1544.35716207 -155.77153593 1538.32201963 C-155.62040308 1536.82648719 -155.46927012 1535.33095476 -155.31813705 1533.83542235 C-152.06777696 1501.67157543 -148.81795723 1469.50767394 -145.56835938 1437.34375 C-145.44057526 1436.07896916 -145.31279115 1434.81418833 -145.18113479 1433.5110808 C-143.65775249 1418.43295308 -142.13438941 1403.35482342 -140.61103771 1388.27669261 C-138.48826267 1367.26547439 -136.36545943 1346.25425901 -134.24264884 1325.24304438 C-133.74718774 1320.33905504 -133.25172812 1315.43506556 -132.75626969 1310.53107595 C-130.0240954 1283.48835245 -127.29181295 1256.44563987 -124.55926514 1229.4029541 C-124.43489209 1228.17209496 -124.31051904 1226.94123582 -124.18237711 1225.67307791 C-123.93086015 1223.18393839 -123.67934319 1220.69479887 -123.42782622 1218.20565934 C-113.49740203 1119.92910675 -103.56907706 1021.65234285 -81.28158252 800.82782422 C-77.32424708 761.61515584 -73.36660958 722.40251796 -69.40865698 683.18991187 C-69.19868388 681.10964589 -68.98871106 679.0293799 -68.77873829 676.94911389 C-65.70411483 646.48786406 -62.62941542 616.02662189 -59.55464335 585.56538706 C-59.13566516 581.41464214 -58.71668782 577.26389713 -58.29771078 573.11315209 C-58.19393519 572.08506236 -58.19393519 572.08506236 -58.08806313 571.03620314 C-57.73843531 567.5724903 -57.38880766 564.10877743 -57.03918021 560.64506455 C-56.8992329 559.25862512 -56.75928559 557.87218569 -56.61933827 556.48574626 C-56.55004428 555.79925982 -56.48075029 555.11277338 -56.40935648 554.40548432 C-55.98934973 550.24453434 -55.56934156 546.0835845 -55.14933241 541.92263477 C-52.00469392 510.76929937 -48.86023276 479.61594609 -45.71629505 448.46253997 C-45.49582399 446.27788334 -45.27535247 444.09322676 -45.05488081 441.9085702 C-44.76064853 438.99301857 -44.46641636 436.07746694 -44.17218431 433.16191529 C-44.02495374 431.70300451 -43.87772317 430.24409373 -43.73049259 428.78518295 C-43.6211281 427.70148799 -43.6211281 427.70148799 -43.50955423 426.59590021 C-42.99400091 421.48727319 -42.47844648 416.37864629 -41.96289062 411.27001953 C-41.89004426 410.54818713 -41.81719789 409.82635472 -41.74214405 409.08264861 C-38.34236928 375.39442681 -34.94227161 341.70623766 -31.54078674 308.01818848 C-31.43626247 306.98298728 -31.43626247 306.98298728 -31.3296266 305.92687293 C-29.80248037 290.80216953 -28.27521792 275.67747787 -26.74784305 260.55279757 C-26.13503598 254.48451995 -25.52224301 248.4162409 -24.90945435 242.34796143 C-24.8090104 241.35329829 -24.8090104 241.35329829 -24.70653729 240.33854095 C-22.50494955 218.53687572 -20.3047041 196.7350752 -18.10508393 174.93321136 C-15.99415807 154.01073226 -13.88183721 133.08839439 -11.76803601 112.16620559 C-10.5181122 99.79416498 -9.26927644 87.42201565 -8.02198454 75.04970942 C-7.19143097 66.81223695 -6.35947541 58.57490688 -5.52635351 50.33769377 C-5.05192014 45.64649008 -4.57811379 40.95522534 -4.10601509 36.26378608 C-3.67752325 32.00580378 -3.24725377 27.74800509 -2.81553373 23.49034893 C-2.66037046 21.95696183 -2.5058674 20.42350776 -2.35208967 18.8899811 C-2.14380488 16.81383953 -1.9331259 14.73795431 -1.72184277 12.66211605 C-1.6056818 11.51146599 -1.48952084 10.36081592 -1.36983985 9.17529768 C-1.01208211 6.10373215 -0.50837594 3.05025561 0 0 Z " fill="#0072D3" transform="translate(209,1)"/>
<path d="M0 0 C1.16233154 0.16653076 1.16233154 0.16653076 2.34814453 0.33642578 C18.20189331 2.64571758 33.63420293 5.69713865 48.95849609 10.39013672 C52.08017541 11.32268335 55.22975024 12.15095444 58.375 13 C64.5879381 14.77915955 70.21676309 17.13889995 76 20 C77.23646715 20.58311818 78.47348268 21.16507446 79.7109375 21.74609375 C119.98516073 40.92617458 147.06964947 75.68669709 162.125 117.25 C164.87270881 125.07121676 166.82964354 132.99500512 168.57519531 141.09082031 C168.95202213 142.78437531 169.375068 144.46749906 169.8046875 146.1484375 C174.55429003 164.8040928 175.52411505 183.83767718 175.375 203 C175.36851944 204.59158936 175.36851944 204.59158936 175.36190796 206.21533203 C175.14466914 251.94945898 167.69193271 297.94315139 149 340 C148.62359375 340.86238281 148.2471875 341.72476562 147.859375 342.61328125 C134.31772584 373.08199186 117.1095173 400.99491373 95 426 C94.28094482 426.81380127 94.28094482 426.81380127 93.54736328 427.64404297 C69.06302999 455.16369091 39.62102059 474.63190079 5 487 C4.30342285 487.25410645 3.6068457 487.50821289 2.88916016 487.77001953 C-13.03202025 493.55990546 -29.16147439 496.61129463 -46 498 C-46.69899414 498.05784668 -47.39798828 498.11569336 -48.11816406 498.17529297 C-57.41334298 498.91165293 -66.6773091 499.21100741 -76 499 C-76.72638672 498.98743164 -77.45277344 498.97486328 -78.20117188 498.96191406 C-96.64102119 498.58574728 -114.41007281 495.52767572 -132 490 C-133.90265625 489.46439453 -133.90265625 489.46439453 -135.84375 488.91796875 C-145.87048276 486.05563231 -154.85041791 481.96925007 -164 477 C-164.60585937 476.67628418 -165.21171875 476.35256836 -165.8359375 476.01904297 C-182.46326673 467.09274477 -197.73282359 456.00564728 -209.79296875 441.36328125 C-210.19128906 440.91339844 -210.58960937 440.46351563 -211 440 C-211.33 440 -211.66 440 -212 440 C-214.30189894 453.12557193 -216.35079535 466.23734395 -217.92285156 479.47094727 C-218.71470497 486.0253143 -219.7301371 492.49451768 -220.94555664 498.98217773 C-221.83391309 503.80643866 -222.46978277 508.62411349 -223 513.5 C-223.60851571 519.09081781 -224.40792901 524.59630882 -225.4375 530.125 C-226.67626975 536.80997718 -227.64196427 543.50580549 -228.5 550.25 C-228.62511963 551.23242676 -228.75023926 552.21485352 -228.87915039 553.22705078 C-229.13070124 555.20410097 -229.3822475 557.18115175 -229.63378906 559.15820312 C-230.95053043 569.37611617 -232.41016874 579.57152256 -234.125 589.73046875 C-237.01892159 606.94223124 -239.32696819 624.15543289 -241.30029297 641.49682617 C-241.4955595 643.20884543 -241.69102993 644.92084146 -241.88671875 646.6328125 C-241.98058365 647.45536026 -242.07444855 648.27790802 -242.17115784 649.12538147 C-242.83055016 654.80270085 -243.66305601 660.43807987 -244.5690918 666.08154297 C-245.27604311 670.86958603 -245.67303438 675.67739959 -246.0625 680.5 C-246.21750068 682.38562813 -246.37496767 684.2710555 -246.53515625 686.15625 C-246.600979 686.96900391 -246.66680176 687.78175781 -246.73461914 688.61914062 C-247.01114174 691.09995794 -247.51045864 693.5522932 -248 696 C-297.83 696 -347.66 696 -399 696 C-397.82459488 688.35986671 -396.64243648 680.85542253 -395.0625 673.3125 C-393.73018829 666.80888635 -392.50257172 660.30275407 -391.4375 653.75 C-389.71028456 643.14194151 -387.78594792 632.58874369 -385.51708984 622.08251953 C-383.77269448 614.0029546 -382.30310147 605.9344693 -381.07202148 597.76098633 C-380.38453397 593.25536329 -379.57253859 588.82242798 -378.5625 584.375 C-376.61705857 575.68671966 -375.34575831 566.88982896 -373.96484375 558.09765625 C-372.44896658 548.45667746 -370.73562567 538.85431781 -368.9140625 529.26660156 C-365.75995429 512.59915808 -363.01681684 495.88999702 -360.4375 479.125 C-358.26309257 465.0021533 -356.06381511 450.90867262 -353.31642151 436.88449097 C-352.10948225 430.69635751 -351.13091108 424.51049433 -350.375 418.25 C-349.18331231 408.57463087 -349.18331231 408.57463087 -348.06640625 403.92578125 C-346.20869791 395.96041859 -345.3572736 387.76396083 -344.25268555 379.66625977 C-342.96559138 370.27057397 -341.50682966 360.95464321 -339.66381836 351.65063477 C-338.95791503 347.7685559 -338.456889 343.91878923 -338 340 C-337.21991951 333.33136267 -336.09382193 326.79129154 -334.78125 320.20703125 C-332.47372455 308.19918559 -331.0524312 296.03050772 -329.5 283.90820312 C-328.67788489 277.61709567 -327.74299532 271.41389879 -326.43310547 265.20629883 C-325.51382459 260.52335558 -325.14827029 255.77105398 -324.66015625 251.02734375 C-324.14832475 246.68450264 -323.36963946 242.39779988 -322.5859375 238.09765625 C-321.06989913 229.73074813 -319.92495852 221.34019727 -318.86514282 212.90490723 C-317.23795032 199.97465838 -315.451386 187.09448658 -313.31103516 174.23779297 C-312.22849427 167.6613293 -311.39215471 161.09619273 -310.71801758 154.46655273 C-310.07948483 148.32497756 -309.15626819 142.24654491 -308.14038086 136.15673828 C-305.26016991 118.76582488 -303.50587805 101.20478588 -301.52905273 83.69458008 C-301.1349594 80.20888026 -300.73760627 76.72356398 -300.33984375 73.23828125 C-300.22003647 72.16854568 -300.10022919 71.09881012 -299.97679138 69.99665833 C-299.86319778 69.00429672 -299.74960419 68.01193512 -299.63256836 66.98950195 C-299.53423203 66.11985306 -299.43589569 65.25020416 -299.33457947 64.35420227 C-299.02523752 62.1775788 -298.54556238 60.12669325 -298 58 C-297.84739648 56.16875772 -297.7263963 54.33479015 -297.625 52.5 C-297.19111287 46.36959478 -296.40435623 40.32814031 -295.5 34.25 C-295.30398193 32.90905273 -295.30398193 32.90905273 -295.10400391 31.54101562 C-294.91330322 30.29094727 -294.91330322 30.29094727 -294.71875 29.015625 C-294.60466797 28.26571289 -294.49058594 27.51580078 -294.37304688 26.74316406 C-294 25 -294 25 -293 24 C-290.2308976 23.52172819 -287.46763131 23.09166966 -284.6875 22.6875 C-278.10252664 21.69160352 -271.5804231 20.55257578 -265.0625 19.1875 C-238.4582282 13.71133538 -211.51173498 9.89857323 -184.59399414 6.34368896 C-181.82074361 5.97624958 -179.04804553 5.60481637 -176.27539062 5.23291016 C-118.799948 -2.45966399 -57.76081122 -8.36864122 0 0 Z " fill="#0190E7" transform="translate(2406,1208)"/>
<path d="M0 0 C0.77081909 -0.00526703 1.54163818 -0.01053406 2.33581543 -0.01596069 C11.25822171 -0.06304182 19.82550762 0.29472384 28.64624023 1.74194336 C31.94386542 2.28173397 35.24332969 2.67973119 38.5625 3.0625 C46.2585454 4.15327809 53.50638388 6.35156518 60.89941406 8.68017578 C63.20842346 9.39115572 65.54124273 10.00085561 67.875 10.625 C94.81585724 18.84424458 117.717061 37.83271417 131.26171875 62.3359375 C138.56259309 76.63108778 142.35584769 91.23164995 142.75 107.25 C142.79664795 108.42949219 142.79664795 108.42949219 142.84423828 109.6328125 C143.4773077 126.48073032 141.41126275 142.63823798 138.75 159.25 C138.57388184 160.37277344 138.39776367 161.49554687 138.21630859 162.65234375 C136.59314235 172.96458405 134.82258613 183.19632905 132.53125 193.3828125 C131.24542051 199.74766847 130.27582898 206.16358769 129.28320312 212.57983398 C128.36056172 218.52579843 127.37109368 224.45567907 126.3125 230.37890625 C125.23695911 236.40321769 124.21691539 242.43385581 123.25 248.4765625 C123.12633057 249.24866562 123.00266113 250.02076874 122.87524414 250.81626892 C122.37301759 253.95855456 121.87249656 257.10110249 121.375 260.24414062 C119.90060628 269.54357186 118.29213882 278.78122375 116.40185547 288.00634766 C115.59284753 292.03199542 114.92076115 296.06498822 114.3125 300.125 C114.06296015 301.7487687 113.81293436 303.37246277 113.5625 304.99609375 C113.43230469 305.84413574 113.30210937 306.69217773 113.16796875 307.56591797 C112.72803933 310.39102549 112.27230908 313.2132182 111.8125 316.03515625 C109.84100445 328.14952883 108.02157422 340.27478894 106.32495117 352.43066406 C104.88839817 362.5810912 103.19214469 372.67771272 101.46948242 382.78271484 C100.13849904 390.6730627 99.05392354 398.53382563 98.20703125 406.48828125 C97.72663626 410.44230151 97.04775387 414.33776327 96.3125 418.25 C94.78474272 426.41762547 93.8226965 434.62497672 92.87744141 442.87768555 C92.23361308 448.42765405 91.5337718 453.95073824 90.61694336 459.46264648 C90.47522705 460.32059814 90.33351074 461.1785498 90.1875 462.0625 C90.08253488 462.68682954 89.97756975 463.31115908 89.86942387 463.95440769 C88.90060886 469.89413213 88.22946707 475.83421043 87.66015625 481.82421875 C87.57125122 482.73667358 87.48234619 483.64912842 87.39074707 484.5892334 C87.17477892 486.80926962 86.9612338 489.02950919 86.75 491.25 C86.14613307 491.24907821 85.54226614 491.24815641 84.92010021 491.24720669 C70.08955529 491.22492801 55.25901202 491.20848117 40.4284544 491.19818783 C33.2559263 491.1930752 26.0834095 491.18613106 18.91088867 491.17456055 C12.64472899 491.16445714 6.3785775 491.15811021 0.11240989 491.15591151 C-3.19220402 491.15463036 -6.49677625 491.15115423 -9.80138588 491.14426994 C-27.30793616 491.10930815 -44.76040876 491.46596816 -62.25 492.25 C-60.56519054 480.44389935 -58.80679842 468.67845709 -56.375 457 C-54.55611729 448.22823425 -53.09246149 439.40826168 -51.6875 430.5625 C-51.57956116 429.88348633 -51.47162231 429.20447266 -51.3604126 428.50488281 C-51.04092361 426.49416167 -50.72159848 424.48341459 -50.40234375 422.47265625 C-48.7939921 412.34431771 -47.01345439 402.25422311 -45.09765625 392.1796875 C-42.68966779 379.45904501 -40.52667065 366.74587484 -38.69506836 353.92919922 C-37.75251634 347.41196357 -36.67279032 340.95525136 -35.375 334.5 C-33.24910126 323.86522324 -31.6731386 313.15635067 -30.06121826 302.43466187 C-27.81717291 287.54493268 -25.29574625 272.71540095 -22.61010742 257.89916992 C-21.03879486 249.17108707 -19.71450187 240.46739599 -18.67041016 231.66040039 C-18.19373628 227.79358428 -17.54918515 224.01243592 -16.8125 220.1875 C-8.53802888 178.27535574 -8.53802888 178.27535574 -19.5625 138.625 C-27.35257026 128.81345582 -37.14664546 123.632541 -49.5625 121.5234375 C-71.71723781 119.26932173 -93.35539877 123.47611174 -111 137.5 C-112.77260496 139.05798463 -114.52218218 140.64248949 -116.25 142.25 C-117.21292969 143.12140625 -118.17585938 143.9928125 -119.16796875 144.890625 C-131.96023942 156.81900207 -141.16747037 171.35420127 -148.25 187.25 C-148.76949219 188.39082031 -149.28898437 189.53164062 -149.82421875 190.70703125 C-160.75182312 216.26213753 -165.90687101 244.75892412 -169.92773438 272.12792969 C-170.4574748 275.61619011 -171.06859404 279.08911486 -171.6875 282.5625 C-171.87070801 283.59455566 -171.87070801 283.59455566 -172.05761719 284.64746094 C-172.75155902 288.53103771 -173.46445949 292.41080254 -174.1875 296.2890625 C-178.15807659 317.66079877 -181.33043294 339.10340276 -183.93847656 360.68212891 C-185.01698435 369.57221109 -186.25084012 378.42109863 -187.75 387.25 C-189.99106014 400.45921894 -191.55520725 413.73738393 -193.14233398 427.0378418 C-195.74478896 448.80307874 -195.74478896 448.80307874 -197.25 456.5625 C-198.1827757 461.43771049 -198.7315197 466.31759506 -199.25 471.25 C-201.25522952 490.25522952 -201.25522952 490.25522952 -203.25 492.25 C-205.16094939 492.34658904 -207.07551866 492.37187192 -208.98890686 492.37025452 C-210.23557632 492.37162918 -211.48224579 492.37300385 -212.76669312 492.37442017 C-214.16094994 492.37088056 -215.55520653 492.36724574 -216.94946289 492.36352539 C-218.40771991 492.36324353 -219.86597707 492.36340124 -221.32423401 492.3639679 C-225.29513485 492.3642559 -229.26600575 492.35835877 -233.23689961 492.35139394 C-237.38225101 492.34516081 -241.52760302 492.34455663 -245.67295837 492.34336853 C-253.52819327 492.34025509 -261.38341432 492.33204154 -269.23864311 492.32201904 C-278.17924399 492.31085829 -287.11984552 492.30534755 -296.06045163 492.30032361 C-314.45697561 492.28985893 -332.8534867 492.27225925 -351.25 492.25 C-351.09520645 490.80687024 -350.93884294 489.36390881 -350.78181458 487.92102051 C-350.69490766 487.11745369 -350.60800074 486.31388687 -350.51846027 485.48596954 C-350.22225395 483.01890685 -349.77001433 480.63672134 -349.19921875 478.21875 C-348.9973999 477.33872314 -348.79558105 476.45869629 -348.58764648 475.55200195 C-348.37309814 474.62734131 -348.1585498 473.70268066 -347.9375 472.75 C-345.84429852 463.45654852 -344.15868838 454.15453346 -342.77026367 444.73046875 C-341.99094554 439.53914024 -341.09023568 434.39915703 -340.01516724 429.26022339 C-336.51845384 412.47657244 -333.95898731 395.52156606 -331.24047852 378.59869385 C-330.53476704 374.21054123 -329.82480548 369.82307672 -329.11523438 365.43554688 C-326.11604517 346.88748948 -326.11604517 346.88748948 -323.14913654 328.33425045 C-322.69500738 325.47812381 -322.23901621 322.62229585 -321.78288078 319.76648903 C-321.47640103 317.84209951 -321.172903 315.91723584 -320.86952209 313.99235535 C-319.96720912 308.34439182 -319.00378062 302.74729914 -317.68592834 297.18023682 C-316.86541064 293.54708586 -316.31769659 289.86711495 -315.75 286.1875 C-315.62109375 285.36531982 -315.4921875 284.54313965 -315.359375 283.69604492 C-314.45452117 277.83089549 -313.7086068 271.96018111 -313.01513672 266.06640625 C-312.48536596 261.72549677 -311.73955481 257.4730889 -310.875 253.1875 C-309.00225261 243.83462304 -307.92184325 234.367503 -306.73754883 224.90869141 C-305.78006175 217.27567083 -304.748958 209.66340908 -303.5625 202.0625 C-300.09507007 179.50942624 -298.22884509 156.9020589 -312.20703125 137.5390625 C-320.15560549 128.10111044 -329.15216683 124.172744 -341.40332031 122.93017578 C-344.60888999 122.77831204 -347.79093795 122.73078981 -351 122.75 C-352.13598633 122.75644531 -353.27197266 122.76289062 -354.44238281 122.76953125 C-378.33629183 123.28615631 -397.14031786 136.17538302 -413.30078125 152.99609375 C-425.75425472 166.43156154 -434.21046576 183.08836574 -440.25 200.25 C-440.65734375 201.32121094 -441.0646875 202.39242188 -441.484375 203.49609375 C-447.05564149 218.36999966 -450.49253902 233.69244198 -453.46289062 249.27075195 C-454.41907698 254.26034302 -455.46310397 259.1850018 -456.74609375 264.1015625 C-458.48375169 270.89909907 -459.59056968 277.76217749 -460.6875 284.6875 C-462.13160034 293.62809486 -463.6328507 302.54939878 -465.375 311.4375 C-467.76648117 323.70973076 -469.78209839 336.01984584 -471.25 348.4375 C-472.04304585 355.04621542 -473.16839711 361.52000291 -474.46875 368.04296875 C-477.14330884 382.01758178 -478.72863541 396.20309501 -480.57006836 410.3046875 C-481.86784066 420.22794832 -483.19723727 430.13460285 -484.8125 440.01171875 C-486.45060615 450.07202635 -487.51879944 460.17234297 -488.55493164 470.30932617 C-488.79363538 472.62730914 -489.03917033 474.94449901 -489.28515625 477.26171875 C-489.35291763 477.94828049 -489.42067902 478.63484222 -489.49049377 479.34220886 C-490.01011704 484.2154043 -491.0359459 488.39378359 -492.25 493.25 C-541.09 493.25 -589.93 493.25 -640.25 493.25 C-638.52241713 481.15691988 -636.81359286 469.75000838 -634.21875 457.92578125 C-633.21760331 453.24561602 -632.46043912 448.54437539 -631.75 443.8125 C-630.80440635 437.5160267 -629.68195017 431.29366794 -628.375 425.0625 C-626.26311285 414.92053029 -624.70104199 404.7014787 -623.17626953 394.45825195 C-622.05257627 387.01107612 -620.76635928 379.62205839 -619.3203125 372.23046875 C-617.07479459 360.70400958 -615.33403526 349.11615799 -613.625 337.5 C-613.17534058 334.4522007 -612.72433943 331.40462678 -612.2694397 328.35760498 C-611.99024881 326.48701624 -611.71395805 324.61599118 -611.44125366 322.7444458 C-610.71447591 317.86911996 -609.8298669 313.07591398 -608.7046051 308.27622986 C-607.9095378 304.73251884 -607.36456471 301.15072662 -606.8125 297.5625 C-606.68689697 296.75868896 -606.56129395 295.95487793 -606.43188477 295.12670898 C-605.30548328 287.81875056 -604.30152104 280.49468014 -603.34008789 273.16333008 C-602.15902225 264.24708084 -600.63433978 255.39833776 -599.06640625 246.54296875 C-596.84790197 234.00241534 -594.74082683 221.48371 -593.23852539 208.8347168 C-592.73682958 204.66958414 -592.14841593 200.57621754 -591.2890625 196.46875 C-589.97896674 190.16957306 -589.16180876 183.81243202 -588.3125 177.4375 C-586.93284602 167.20080809 -585.50410692 156.9728166 -584.03735352 146.74829102 C-583.38519629 142.20107162 -582.7396896 137.65294274 -582.09715271 133.10435486 C-581.58949906 129.51126926 -581.07982492 125.91847137 -580.57006836 122.32568359 C-580.31250128 120.50742764 -580.05567947 118.68906597 -579.79956055 116.87060547 C-577.37593507 99.67156945 -577.37593507 99.67156945 -576.19140625 93.51953125 C-574.81147663 86.25838844 -574.08022001 78.90232592 -573.25 71.5625 C-572.91795423 68.66261195 -572.58405568 65.76293837 -572.25 62.86328125 C-572.16781723 62.14783646 -572.08563446 61.43239166 -572.0009613 60.69526672 C-570.6820575 49.26129519 -569.22842654 37.8436176 -567.6875 26.4375 C-567.56181641 25.48552734 -567.43613281 24.53355469 -567.30664062 23.55273438 C-567.18353516 22.64201172 -567.06042969 21.73128906 -566.93359375 20.79296875 C-566.82587646 19.98883545 -566.71815918 19.18470215 -566.60717773 18.35620117 C-566.25 16.25 -566.25 16.25 -565.25 13.25 C-518.72 13.25 -472.19 13.25 -424.25 13.25 C-424.88117667 20.1929434 -425.56546956 26.9576287 -426.6875 33.8125 C-426.81874268 34.63314941 -426.94998535 35.45379883 -427.08520508 36.29931641 C-427.89753595 41.31042903 -428.79414591 46.29005759 -429.91796875 51.2421875 C-430.30825299 53.60225927 -430.30407858 55.86222268 -430.25 58.25 C-429.569375 57.52296875 -428.88875 56.7959375 -428.1875 56.046875 C-404.17805371 30.91864846 -372.60126561 15.69026594 -339.25 7.25 C-338.1259375 6.96253906 -337.001875 6.67507813 -335.84375 6.37890625 C-309.56463077 0.2237242 -283.91466389 0.63199754 -257.25 3.25 C-256.51845703 3.31944824 -255.78691406 3.38889648 -255.03320312 3.46044922 C-246.6734438 4.29430339 -238.96782114 6.3197372 -231.0390625 8.984375 C-228.79993824 9.73228867 -226.54778764 10.44536617 -224.2734375 11.078125 C-209.63251428 15.2848128 -195.33001498 23.86248596 -184.25 34.25 C-183.404375 35.00539063 -182.55875 35.76078125 -181.6875 36.5390625 C-172.69289673 44.95779178 -166.43286274 55.15034649 -161.22265625 66.26171875 C-160.19056714 68.48284762 -160.19056714 68.48284762 -158.25 71.25 C-157.23292969 70.01636719 -157.23292969 70.01636719 -156.1953125 68.7578125 C-135.35945501 43.67320756 -109.16563696 24.15182988 -78.25 13.25 C-77.3528125 12.90453125 -76.455625 12.5590625 -75.53125 12.203125 C-62.84023082 7.35067649 -49.63593959 4.39860001 -36.25 2.25 C-34.39568359 1.93869141 -34.39568359 1.93869141 -32.50390625 1.62109375 C-21.72139705 0.02557835 -10.87568999 0.03794872 0 0 Z " fill="#0190E7" transform="translate(1870.25,1206.75)"/>
<path d="M0 0 C1.50916992 0.00090637 1.50916992 0.00090637 3.04882812 0.00183105 C21.10778304 0.0310642 39.00241876 0.62237779 57 2.1875 C57.71148193 2.2483075 58.42296387 2.30911499 59.15600586 2.37176514 C94.35307661 5.40274286 129.53595934 10.37353154 164 18.1875 C163.39832901 31.76570345 162.64084672 45.32633536 161.75680542 58.88891602 C160.88530419 72.28213921 160.03703097 85.67386471 159.4296875 99.08203125 C159.38676071 100.02705002 159.34383392 100.97206879 159.29960632 101.94572449 C159.10032318 106.3914107 158.91104134 110.8372856 158.73461914 115.28393555 C158.31492298 125.34031586 157.42342331 135.22267778 156 145.1875 C149.46338407 144.53721277 143.3172464 143.11777364 136.96875 141.45703125 C134.78968743 140.89774206 132.61048261 140.33900688 130.43115234 139.78076172 C129.29909363 139.48941345 128.16703491 139.19806519 127.00067139 138.89788818 C97.53450745 131.34010355 68.35567286 124.95402871 38 122.1875 C37.02611328 122.0932373 36.05222656 121.99897461 35.04882812 121.90185547 C25.32967132 121.04383136 15.62518065 120.94427016 5.875 120.9375 C4.5554129 120.93648788 4.5554129 120.93648788 3.20916748 120.93545532 C-12.04257103 120.95392826 -26.91393742 121.77964977 -42 124.1875 C-43.0837793 124.35910645 -44.16755859 124.53071289 -45.28417969 124.70751953 C-60.92922589 127.27224363 -75.98766369 131.10683129 -91 136.1875 C-92.18207031 136.58582031 -93.36414063 136.98414063 -94.58203125 137.39453125 C-118.09313125 145.93579094 -139.48053112 158.67215859 -159 174.1875 C-159.55993652 174.63029297 -160.11987305 175.07308594 -160.69677734 175.52929688 C-175.16722738 187.07787086 -188.05863519 200.26010921 -199 215.1875 C-199.42474609 215.75678223 -199.84949219 216.32606445 -200.28710938 216.91259766 C-210.66602748 230.83620678 -219.12239411 245.7336174 -227 261.1875 C-227.52207031 262.19425781 -228.04414063 263.20101563 -228.58203125 264.23828125 C-249.81149293 307.45748837 -257.53619991 361.71047716 -250 409.1875 C-249.8146167 410.37182617 -249.8146167 410.37182617 -249.62548828 411.58007812 C-243.31271911 450.23718101 -225.08843463 484.19237848 -193.36303711 507.81030273 C-185.66826694 513.33838042 -177.4055746 517.84426993 -169 522.1875 C-168.02148071 522.70582397 -168.02148071 522.70582397 -167.02319336 523.23461914 C-154.63841966 529.66017279 -140.92484933 533.25485513 -127.3125 536 C-126.35351807 536.19456787 -125.39453613 536.38913574 -124.40649414 536.58959961 C-107.16898604 539.86750942 -90.13183374 540.59475625 -72.625 540.5625 C-71.50916534 540.56195618 -70.39333069 540.56141235 -69.24368286 540.56085205 C-49.24271347 540.51629971 -29.75999952 539.21814608 -10 536.1875 C-9.31921387 536.08566406 -8.63842773 535.98382812 -7.93701172 535.87890625 C26.61389871 530.70813301 60.61848372 522.32341906 94.14331055 512.59106445 C94.92964874 512.36297592 95.71598694 512.13488739 96.52615356 511.89988708 C97.99333131 511.47272416 99.45967474 511.04268129 100.92501831 510.60926819 C105.78361012 509.1875 105.78361012 509.1875 108 509.1875 C106.89487127 514.71314363 105.48299149 520.10118486 103.875 525.5 C98.2272197 544.49415087 92.83079474 563.53437465 87.93701172 582.73632812 C85.80078411 591.11549112 83.58761523 599.46999529 81.3125 607.8125 C78.29953393 618.88331937 75.57545265 630.00742446 73 641.1875 C67.80521936 642.77385298 62.67361901 643.86353936 57.31640625 644.73828125 C56.48156708 644.87728851 55.64672791 645.01629578 54.78659058 645.15951538 C52.04621854 645.61266761 49.30463349 646.05763631 46.5625 646.5 C45.60973175 646.65401276 44.6569635 646.80802551 43.67532349 646.96670532 C14.87154388 651.59925905 -13.91853733 655.09526077 -43 657.4375 C-44.02642609 657.52067474 -45.05285217 657.60384949 -46.11038208 657.68954468 C-125.33941593 664.02579698 -207.47181998 659.32887067 -279 621.1875 C-279.71607422 620.81012695 -280.43214844 620.43275391 -281.16992188 620.04394531 C-301.33335763 609.36764216 -319.67706867 596.2929977 -336.31640625 580.68359375 C-338.60284973 578.55690178 -340.92987084 576.51677439 -343.3125 574.5 C-347.28233652 571.04266287 -350.61603179 567.20931936 -354 563.1875 C-354.8353125 562.24003906 -355.670625 561.29257813 -356.53125 560.31640625 C-370.6142313 544.25131998 -381.58169738 525.79885302 -390 506.1875 C-390.50273437 505.02992188 -391.00546875 503.87234375 -391.5234375 502.6796875 C-395.25845347 493.74977623 -398.0173131 484.72320048 -400.43408203 475.35595703 C-400.95353712 473.36553421 -401.50454759 471.38341655 -402.05859375 469.40234375 C-426.72870394 378.11333679 -404.91188509 269.07796923 -358.5625 188.3125 C-336.4025379 150.6714211 -307.72586988 114.9828258 -273 88.1875 C-272.29246582 87.63980957 -271.58493164 87.09211914 -270.85595703 86.52783203 C-198.06578872 30.44018134 -105.8985624 1.21841155 0 0 Z " fill="#FEFEFE" transform="translate(560,1054.8125)"/>
<path d="M0 0 C1.0904811 0.00092179 2.1809622 0.00184359 3.30448818 0.00279331 C4.55115765 0.00141865 5.79782711 0.00004398 7.08227444 -0.00137234 C8.47653127 0.00216727 9.87078785 0.00580209 11.26504421 0.00952244 C12.72330123 0.0098043 14.18155839 0.00964659 15.63981533 0.00907993 C19.61071618 0.00879193 23.58158708 0.01468906 27.55248094 0.02165389 C31.69783233 0.02788702 35.84318434 0.02849119 39.9885397 0.0296793 C47.84377459 0.03279274 55.69899564 0.04100629 63.55422443 0.05102879 C72.49482531 0.06218954 81.43542684 0.06770028 90.37603295 0.07272422 C108.77255694 0.0831889 127.16906802 0.10078858 145.56558132 0.12304783 C145.0983514 3.16126642 144.62783126 6.19891473 144.15542507 9.23632908 C143.95886318 10.51787876 143.95886318 10.51787876 143.75833035 11.82531834 C143.04842661 16.37242133 142.24416248 20.84131735 141.12808132 25.31054783 C139.66940179 31.28886654 138.66932929 37.30209974 137.69058132 43.37304783 C136.30936444 51.93605454 134.74656219 60.4389365 133.00308132 68.93554783 C131.34575012 77.02165494 129.87805833 85.0976669 128.65469265 93.26001072 C127.83094959 98.67080453 126.80737947 104.01570144 125.69058132 109.37304783 C123.61028349 119.40421158 121.99434891 129.50424403 120.40396023 139.62207127 C118.43841539 152.10887139 116.22290054 164.54427594 113.95230007 176.97851658 C110.6115679 195.28462646 107.47944765 213.60564389 104.63369656 231.99536228 C103.17667438 241.39039439 101.58838552 250.74601554 99.82705593 260.08960056 C98.62267518 266.56338849 97.75596484 273.03685617 96.99526882 279.57617283 C96.16133664 286.45990392 94.96073265 293.27008472 93.56558132 300.06054783 C91.56681389 309.93043043 90.34037561 319.88308974 89.12808132 329.87304783 C88.27383138 336.88782672 87.35033406 343.86093577 86.06558132 350.81054783 C83.32961771 365.61861668 81.49462912 380.5390888 79.75869656 395.49243259 C78.8824901 402.87920713 77.80563423 410.21635127 76.62808132 417.56054783 C74.7441915 429.35186593 73.30534651 441.17457954 71.96035671 453.03686619 C71.88194042 453.72641392 71.80352413 454.41596165 71.72273159 455.12640476 C71.51189915 456.98793064 71.30399557 458.8497876 71.09634304 460.71167088 C70.3432077 467.19308435 69.43800819 473.65679615 68.56558132 480.12304783 C67.37193462 480.12082722 66.17828793 480.11860661 64.94847012 480.1163187 C53.60886543 480.09590198 42.26926455 480.08098745 30.92964554 480.07123566 C25.10214684 480.06605338 19.27466317 480.0590421 13.44717312 480.04760838 C7.80612131 480.03661179 2.16508381 480.0307361 -3.4759779 480.02817059 C-5.61055126 480.02634615 -7.74512398 480.02278491 -9.87969112 480.01731777 C-22.28810171 479.98684847 -34.63453386 480.21362188 -47.02523899 480.89819431 C-52.43365787 481.19312608 -57.83160691 481.24050415 -63.24691868 481.18554783 C-64.15377415 481.18103611 -65.06062962 481.17652439 -65.99496555 481.17187595 C-68.14148159 481.16051873 -70.28796183 481.14262038 -72.43441868 481.12304783 C-70.53826747 455.63780013 -70.53826747 455.63780013 -68.80160618 443.42773533 C-68.41704182 439.96665613 -68.37244326 436.60252492 -68.43441868 433.12304783 C-68.9216843 433.64511814 -69.40894993 434.16718845 -69.91098118 434.70507908 C-94.11321539 459.8313986 -125.1574882 475.31865965 -158.70639133 483.43628025 C-161.3706327 484.10699002 -163.99932975 484.86106066 -166.63754368 485.62695408 C-204.99325503 496.11224926 -247.76368291 494.96819485 -286.43441868 487.12304783 C-287.37172825 486.93661716 -288.30903782 486.7501865 -289.27475071 486.55810642 C-294.04907728 485.58560943 -298.74332207 484.44855536 -303.43441868 483.12304783 C-304.46051243 482.84074314 -305.48660618 482.55843845 -306.54379368 482.26757908 C-315.33080367 479.60590542 -323.36041875 475.42583266 -331.43441868 471.12304783 C-332.4888718 470.56617283 -333.54332493 470.00929783 -334.62973118 469.43554783 C-359.93276536 455.4007982 -379.45615595 432.7617262 -387.50448704 404.80395603 C-395.33365244 375.68983838 -393.09334619 341.96238629 -386.96884251 312.72729588 C-385.73532679 306.81934463 -384.73377465 300.90858446 -383.87191868 294.93554783 C-382.02834937 282.17933762 -379.74022861 269.5486396 -377.18441868 256.91601658 C-374.96965209 245.71529595 -373.12084397 234.46638612 -371.52426243 223.16137791 C-370.96730166 219.30181384 -370.32562779 215.51110397 -369.43832493 211.71289158 C-368.25564035 206.57989487 -367.59397476 201.40763748 -366.93441868 196.18554783 C-366.14296889 189.94527063 -365.20105692 183.80694847 -363.9207468 177.64819431 C-363.05798729 173.16851479 -362.51099096 168.64692269 -361.93441868 164.12304783 C-361.14190565 157.90486867 -360.19576406 151.78792714 -358.9207468 145.65039158 C-358.05857429 141.16986452 -357.51108324 136.64764669 -356.93441868 132.12304783 C-356.14190565 125.90486867 -355.19576406 119.78792714 -353.9207468 113.65039158 C-353.05857429 109.16986452 -352.51108324 104.64764669 -351.93441868 100.12304783 C-351.26021789 94.83316476 -350.56842067 89.58499989 -349.46566868 84.36523533 C-348.08436085 77.71342404 -347.29396478 70.98339735 -346.43441868 64.24804783 C-344.57727582 49.78264604 -344.57727582 49.78264604 -343.40707493 43.14257908 C-342.18635951 36.02830211 -341.54107316 28.86922215 -340.87191868 21.68554783 C-340.62377453 19.04069433 -340.37168812 16.39629073 -340.11801243 13.75195408 C-340.01029514 12.59767918 -339.90257786 11.44340427 -339.79159641 10.25415134 C-339.47651872 7.49210659 -338.99807403 4.84211548 -338.43441868 2.12304783 C-337.64866459 2.12526844 -336.8629105 2.12748905 -336.05334568 2.12977695 C-325.88871226 2.15710443 -315.72408287 2.17499425 -305.55941868 2.18554783 C-304.73937729 2.18640385 -303.9193359 2.18725986 -303.07444477 2.18814182 C-276.23055441 2.21284195 -249.40787154 1.96381752 -222.56930637 1.40907383 C-221.4948325 1.38687275 -220.42035862 1.36467167 -219.31332493 1.34179783 C-217.7683231 1.30952343 -217.7683231 1.30952343 -216.19210911 1.27659702 C-207.27206949 1.09944924 -198.3558299 1.07144169 -189.43441868 1.12304783 C-189.80970965 9.57728348 -191.02090708 17.44568278 -192.85141087 25.68872166 C-194.08802075 31.31174444 -195.08800494 36.92888474 -195.93441868 42.62304783 C-197.01033788 49.81705503 -198.39979751 56.89335108 -199.95394993 63.99804783 C-201.14306849 69.51701031 -202.09884169 75.04029169 -202.93441868 80.62304783 C-204.01113881 87.81695819 -205.39978549 94.89329612 -206.95394993 101.99804783 C-208.14306849 107.51701031 -209.09884169 113.04029169 -209.93441868 118.62304783 C-211.01058171 125.81323599 -212.39779754 132.88609527 -213.95175266 139.9870615 C-215.33668357 146.41316741 -216.38299481 152.86199689 -217.36239719 159.36059666 C-218.05356381 163.8856584 -218.86570425 168.34209021 -219.87191868 172.81054783 C-221.52589256 180.17982414 -222.7206001 187.61265569 -223.90097141 195.07104588 C-224.76122682 200.41765144 -225.75005284 205.70711683 -226.90707493 210.99804783 C-228.43786591 218.00912818 -229.70203211 225.04361192 -230.87191868 232.12304783 C-231.08364719 233.39454685 -231.29537571 234.66604588 -231.51352024 235.97607517 C-233.29892692 246.82956085 -234.78907941 257.71633737 -236.17831516 268.62695408 C-236.40563328 270.40779392 -236.40563328 270.40779392 -236.63754368 272.22461033 C-236.76806126 273.26955662 -236.89857883 274.31450291 -237.03305149 275.39111423 C-237.43441868 278.12304783 -237.43441868 278.12304783 -237.96933079 279.98071384 C-238.70895619 283.38764975 -238.63910987 286.82700892 -238.67269993 290.29882908 C-238.68480755 291.5021513 -238.68480755 291.5021513 -238.69715977 292.72978306 C-238.71097947 294.43189445 -238.72171107 296.13403331 -238.72958469 297.83618259 C-238.74100992 299.54948338 -238.76130828 301.26275132 -238.79110813 302.97583103 C-239.09318752 320.36986606 -237.09000418 335.95986982 -224.80941868 349.31054783 C-207.35692287 365.61485312 -182.89240399 368.42067572 -160.09457493 368.10351658 C-129.18512583 366.77573805 -100.80106139 352.4970998 -79.94662571 329.83789158 C-61.3687444 308.77056217 -50.47781011 281.36094047 -44.39926243 254.29882908 C-43.52544361 250.43539664 -42.49700749 246.62677144 -41.43441868 242.81054783 C-37.68096879 228.93014295 -35.25590555 214.70209455 -32.84506321 200.53564548 C-32.54841875 198.79281517 -32.24964975 197.05034602 -31.9495554 195.30810642 C-30.00729881 184.01816902 -28.19452195 172.75551006 -26.86410618 161.37695408 C-26.42202681 158.02920762 -25.73199818 154.83874085 -24.93051243 151.56445408 C-24.25761188 148.25293565 -23.88602219 144.91447684 -23.49691868 141.56054783 C-22.88500703 136.31749492 -22.10207171 131.1774972 -21.05941868 125.99804783 C-19.48031895 118.11171225 -18.46460908 110.15907286 -17.43441868 102.18554783 C-15.32865123 85.89957171 -15.32865123 85.89957171 -13.87191868 78.06054783 C-11.40300223 64.72303179 -9.61245404 51.29510493 -8.20590305 37.80664158 C-7.51881282 31.4240844 -6.51953747 25.1078133 -5.47396946 18.77539158 C-4.61639374 13.51294493 -3.98940417 8.28353758 -3.64535618 2.95898533 C-3.31844956 0.11368696 -2.88404699 0.14577432 0 0 Z " fill="#0190E7" transform="translate(3018.4344186782837,1212.8769521713257)"/>
<path d="M0 0 C13.82821 14.36300265 22.35150477 33.16513636 23.8125 53.0625 C23.93818359 54.68285156 23.93818359 54.68285156 24.06640625 56.3359375 C24.67838696 68.16112778 24.08123021 79.73345623 22.875 91.5 C22.74685861 92.84044354 22.61925346 94.18093846 22.4921875 95.52148438 C21.86671131 101.82315695 21.09785171 107.98409153 19.75878906 114.1730957 C18.70793703 119.3663419 18.05594714 124.63065378 17.3125 129.875 C16.0797734 138.38774798 14.74231005 146.81783185 12.96484375 155.234375 C11.70359284 161.32697502 10.67831775 167.46192327 9.61621094 173.59179688 C9.27458466 175.54681021 8.92283889 177.50004774 8.5703125 179.453125 C7.34122032 186.27527709 6.17668558 193.10272928 5.08984375 199.94921875 C4.98542969 200.60563354 4.88101562 201.26204834 4.7734375 201.93835449 C4.25263245 205.21478902 3.73613837 208.49173321 3.22705078 211.77001953 C2.08073127 219.01569459 0.77436472 226.19993326 -0.69140625 233.38671875 C-2.77574936 243.61746189 -4.55316231 253.88622366 -6.25 264.1875 C-6.40029663 265.09348938 -6.55059326 265.99947876 -6.70544434 266.93292236 C-9.12182726 281.51014697 -11.32645 296.10513527 -13.34130859 310.74365234 C-14.79772289 321.23435938 -16.36047519 331.70324268 -18.25 342.125 C-20.56855219 354.94987112 -22.38587891 367.85192273 -23.75 380.8125 C-24.42935235 387.25586351 -25.34298628 393.62187803 -26.4083252 400.01174927 C-27.93547877 409.43145203 -29.12324052 418.89768339 -30.35546875 428.359375 C-30.58853806 430.14112973 -30.82173204 431.92286815 -31.05505371 433.70458984 C-31.62147333 438.03203994 -32.1862054 442.35970716 -32.75 446.6875 C-34.06892746 446.68527939 -35.38785492 446.68305878 -36.74674988 446.68077087 C-49.26364677 446.66037278 -61.78054023 446.64544835 -74.29745007 446.63568783 C-80.73028959 446.63050095 -87.16311555 446.62348087 -93.59594727 446.61206055 C-99.82054589 446.60108086 -106.04513158 446.5951917 -112.26973915 446.59262276 C-114.62759924 446.59079537 -116.98545874 446.587228 -119.34331322 446.58176994 C-131.48034479 446.55482869 -143.57584112 446.63725804 -155.69591808 447.33124447 C-164.04792247 447.80769627 -172.38748519 447.77939577 -180.75 447.6875 C-179.90164137 441.18030966 -178.6768897 434.75527784 -177.4375 428.3125 C-177.21529785 427.15508301 -176.9930957 425.99766602 -176.76416016 424.80517578 C-175.51047954 418.35729087 -174.17632776 411.94525795 -172.625 405.5625 C-169.52468716 392.79300055 -167.40752715 379.86247602 -165.28320312 366.90209961 C-164.36125079 361.28670214 -163.39759792 355.68025881 -162.3984375 350.078125 C-160.49477385 339.37616263 -158.73722667 328.64991123 -156.96273804 317.92593384 C-151.64001774 285.76768234 -151.64001774 285.76768234 -148.9375 271 C-146.9188884 259.96191505 -145.23426758 248.88861212 -143.64453125 237.78125 C-142.774311 231.73365874 -141.77994217 225.70973532 -140.75 219.6875 C-141.92433594 220.26757812 -143.09867188 220.84765625 -144.30859375 221.4453125 C-160.25208064 229.22421138 -176.09572763 234.64143935 -193.21875 239.19140625 C-199.18997676 240.78698614 -205.09732076 242.56714654 -211.00805664 244.37158203 C-216.5944187 246.06667106 -222.20374362 247.65217533 -227.83422852 249.1940918 C-237.50707879 251.84746794 -247.10012993 254.6659178 -256.625 257.8125 C-257.58051758 258.12493652 -258.53603516 258.43737305 -259.52050781 258.75927734 C-266.14288859 260.98570736 -272.4411077 263.69256916 -278.75 266.6875 C-279.73178223 267.14527832 -279.73178223 267.14527832 -280.73339844 267.61230469 C-299.58024609 276.46702781 -317.09608061 288.18482659 -325.75 307.6875 C-326.10578125 308.48929688 -326.4615625 309.29109375 -326.828125 310.1171875 C-330.41894192 320.12887195 -330.23618604 333.00678276 -325.75 342.6875 C-319.0751681 353.97403395 -309.61156526 359.2636583 -297.1796875 362.6640625 C-261.50077891 370.79130401 -223.71726409 361.06572929 -190.19311523 348.93920898 C-189.02079346 348.51841064 -187.84847168 348.0976123 -186.640625 347.6640625 C-185.59938477 347.28330566 -184.55814453 346.90254883 -183.48535156 346.51025391 C-180.75 345.6875 -180.75 345.6875 -176.75 345.6875 C-177.37153394 350.0545937 -178.97488441 353.41195128 -181 357.3125 C-181.63957308 358.56040358 -182.27757952 359.80911126 -182.9140625 361.05859375 C-183.22762695 361.67331543 -183.54119141 362.28803711 -183.86425781 362.92138672 C-185.53513018 366.25299937 -187.05228493 369.65152766 -188.5703125 373.0546875 C-189.36029241 374.81775524 -190.16781651 376.57306077 -190.9921875 378.3203125 C-193.89660136 384.50797681 -196.25900574 390.78127733 -198.5078125 397.234375 C-199.62221194 400.33226527 -200.83157553 403.34855582 -202.125 406.375 C-206.94049104 417.72254513 -211.14484754 429.3823669 -214.828125 441.14453125 C-215.13234375 441.98371094 -215.4365625 442.82289063 -215.75 443.6875 C-216.09506592 444.69224365 -216.44013184 445.6969873 -216.7956543 446.73217773 C-218.75 449.6875 -218.75 449.6875 -222.38500977 450.88769531 C-223.89967919 451.12504958 -225.4192347 451.33244671 -226.94140625 451.515625 C-227.76011703 451.63556824 -228.57882782 451.75551147 -229.42234802 451.87908936 C-232.0495279 452.25741347 -234.68010068 452.59761754 -237.3125 452.9375 C-239.02573579 453.17986414 -240.73863312 453.42463366 -242.45117188 453.671875 C-265.58903975 456.96059569 -288.55770328 458.92183719 -311.9375 458.9375 C-312.8528653 458.93817474 -313.76823059 458.93884949 -314.71133423 458.93954468 C-358.16744273 458.88903573 -405.9948654 453.24506428 -438.5 421.5 C-445.08844436 414.85470105 -450.19314977 407.83610335 -454.75 399.6875 C-455.23726562 398.82769531 -455.72453125 397.96789063 -456.2265625 397.08203125 C-472.8021428 365.91383884 -475.6985706 326.06465636 -465.5 292.5 C-454.03797661 257.32736323 -430.79221878 229.86635387 -400.75 208.6875 C-400.11497559 208.23439453 -399.47995117 207.78128906 -398.82568359 207.31445312 C-382.03662464 195.41401165 -363.85367338 187.18970327 -344.75 179.6875 C-343.81317383 179.31657227 -342.87634766 178.94564453 -341.91113281 178.56347656 C-300.16508016 162.23189252 -255.49441903 152.53117449 -211.80004883 142.9675293 C-167.59971912 133.82276805 -167.59971912 133.82276805 -132.7734375 107.109375 C-126.91372317 97.93011807 -124.28647604 88.18167828 -126.1484375 77.375 C-128.16976193 69.81472161 -132.92611033 64.31459977 -139.30859375 59.9296875 C-177.80034404 38.68181425 -236.92966336 51.78180459 -277.48974609 61.16503906 C-279.95521019 61.73493463 -282.42479552 62.28486597 -284.89453125 62.8359375 C-295.16506542 65.16651896 -305.18628073 67.94805739 -315.1953125 71.21875 C-319.56108561 72.64370272 -323.96009942 73.92486388 -328.375 75.1875 C-336.96203687 77.67188158 -345.3596421 80.61019517 -353.75 83.6875 C-354.81710205 84.07687744 -354.81710205 84.07687744 -355.90576172 84.47412109 C-362.87082441 87.0222377 -369.7667506 89.61938421 -376.49804688 92.74462891 C-378.96615682 93.77800278 -381.4401757 94.54994841 -384.0078125 95.30078125 C-385.34416748 95.69390503 -385.34416748 95.69390503 -386.70751953 96.0949707 C-387.38153809 96.29050537 -388.05555664 96.48604004 -388.75 96.6875 C-387.79631591 93.22786902 -386.83663438 89.76992934 -385.875 86.3125 C-385.56256348 85.1881958 -385.25012695 84.0638916 -384.92822266 82.90551758 C-383.18610883 76.67879197 -381.39660465 70.47143516 -379.515625 64.28515625 C-378.9219956 62.32523178 -378.32938023 60.36500629 -377.73764038 58.4045105 C-377.32757066 57.04606134 -376.91644963 55.68792911 -376.50430298 54.33010864 C-373.48069062 44.31403683 -370.8738836 34.23610875 -368.46484375 24.0546875 C-368.18288147 22.87560318 -367.90091919 21.69651886 -367.6104126 20.48170471 C-366.19700227 14.56722494 -364.81425112 8.64841381 -363.47998047 2.71557617 C-362.96320015 0.53013168 -362.44519013 -1.65502249 -361.92578125 -3.83984375 C-361.70929428 -4.85390289 -361.49280731 -5.86796204 -361.26976013 -6.91275024 C-359.59681843 -13.75869669 -359.59681843 -13.75869669 -355.68994141 -16.3137207 C-354.38988906 -16.69516146 -353.0738592 -17.02435077 -351.75 -17.3125 C-350.99774643 -17.51254135 -350.24549286 -17.7125827 -349.47044373 -17.91868591 C-346.83605444 -18.59383696 -344.19220515 -19.18621529 -341.53515625 -19.765625 C-340.54403839 -19.98666901 -339.55292053 -20.20771301 -338.5317688 -20.43545532 C-335.29392378 -21.15349853 -332.05359482 -21.85927974 -328.8125 -22.5625 C-327.14122543 -22.92749603 -327.14122543 -22.92749603 -325.43618774 -23.29986572 C-280.2811005 -33.13642671 -234.86765771 -40.17025002 -188.75 -43.3125 C-187.18088867 -43.42053955 -187.18088867 -43.42053955 -185.58007812 -43.53076172 C-123.47897548 -47.59254446 -47.86600945 -45.36865243 0 0 Z " fill="#FEFEFE" transform="translate(1172.75,1254.3125)"/>
<path d="M0 0 C-1.44521908 3.00898207 -2.91484911 5.19256698 -5.23046875 7.609375 C-5.86919922 8.28226563 -6.50792969 8.95515625 -7.16601562 9.6484375 C-7.83310547 10.34195312 -8.50019531 11.03546875 -9.1875 11.75 C-13.69059823 16.46369088 -18.11055167 21.21645647 -22.38110352 26.14257812 C-24.66622432 28.76438465 -27.01686003 31.31857799 -29.375 33.875 C-34.28918367 39.21518102 -39.15480575 44.59708554 -44 50 C-48.84521141 55.40293359 -53.71212216 60.78360539 -58.625 66.125 C-61.62180011 69.38390494 -64.59914547 72.65499549 -67.5 76 C-70.86322638 79.87817013 -74.33335671 83.65527811 -77.80810547 87.43310547 C-82.24223628 92.25584891 -86.6251824 97.1234112 -91 102 C-92.49971128 103.66692647 -93.99971321 105.33359149 -95.5 107 C-96.23992188 107.82242187 -96.97984375 108.64484375 -97.7421875 109.4921875 C-99.26708244 111.18592894 -100.79315402 112.87861169 -102.3203125 114.5703125 C-107.86114741 120.71218712 -113.35464937 126.88701749 -118.71484375 133.1875 C-124.05658872 139.46033472 -129.46164546 145.63922067 -135.06982422 151.67529297 C-137.96748224 154.81503117 -140.70346573 158.04166489 -143.375 161.375 C-147.42666217 166.41416406 -151.77354616 171.10465771 -156.20263672 175.80810547 C-159.44548452 179.27061478 -162.53429479 182.79286848 -165.5 186.5 C-168.98563102 190.85703877 -172.67796785 194.94118055 -176.5 199 C-181.15434204 203.94368953 -185.54319273 209.00910876 -189.7890625 214.3125 C-193.6771157 219.03861414 -197.84149493 223.51159265 -202 228 C-199.93851239 233.33471185 -197.33552393 238.31224149 -194.6875 243.375 C-194.15406982 244.3966626 -193.62063965 245.4183252 -193.07104492 246.47094727 C-188.94367409 254.32144635 -184.61510471 262.04094615 -180.2097168 269.73779297 C-175.46727331 278.06969737 -170.97169172 286.52109165 -166.5 295 C-160.07164979 307.18130956 -153.44213465 319.22274962 -146.60351562 331.1796875 C-144.31998592 335.19602963 -142.07466231 339.23333722 -139.8269043 343.26977539 C-134.08538505 353.57781638 -128.22418347 363.8052731 -122.25024414 373.98022461 C-117.47122578 382.14035346 -112.8484641 390.38166608 -108.25 398.64453125 C-103.68967598 406.81850488 -98.99207498 414.905239 -94.25219727 422.97607422 C-89.45549847 431.16549463 -84.81838591 439.43785781 -80.21044922 447.73461914 C-75.59863353 456.00829755 -70.81104335 464.16839656 -65.90991211 472.27392578 C-65.39565674 473.13099121 -64.88140137 473.98805664 -64.3515625 474.87109375 C-63.89604004 475.62318115 -63.44051758 476.37526855 -62.97119141 477.15014648 C-62 479 -62 479 -62 481 C-118.43 481 -174.86 481 -233 481 C-246.20834774 456.78469582 -246.20834774 456.78469582 -252.375 444.625 C-258.54452808 432.56408657 -265.16993841 420.82433891 -272.10644531 409.18701172 C-274.18648787 405.68612524 -276.24813743 402.17487444 -278.3046875 398.66015625 C-278.67078125 398.03450272 -279.036875 397.40884918 -279.4140625 396.76423645 C-280.15609662 395.49591959 -280.89808061 394.2275734 -281.64001465 392.959198 C-283.44790844 389.86994233 -285.25894194 386.78253051 -287.0703125 383.6953125 C-287.41255859 383.11198654 -287.75480469 382.52866058 -288.10742188 381.92765808 C-291.33220101 376.4323283 -294.56256037 370.94029172 -297.79541016 365.44970703 C-301.21347311 359.64275613 -304.61107655 353.82401083 -308 348 C-309.15039081 349.15039081 -310.30044707 350.30111734 -311.44921875 351.453125 C-312.50916662 352.51040298 -313.57454233 353.56225995 -314.64453125 354.609375 C-318.31398721 358.22084859 -321.76787683 361.95180851 -325.1328125 365.84765625 C-331.79481566 373.5270783 -338.71519075 380.98180749 -345.59277344 388.46777344 C-348.35293835 391.47311608 -351.10926713 394.48197802 -353.86572266 397.49072266 C-356.20461437 400.04322703 -358.54567341 402.59368566 -360.890625 405.140625 C-365.38347998 410.02409668 -369.84424517 414.92705498 -374.19140625 419.94140625 C-376.4301125 422.4895665 -378.71410212 424.99410593 -381 427.5 C-386.01913521 433.00899075 -390.94120436 438.58723517 -395.78125 444.25390625 C-396.8124583 445.46097313 -397.84370948 446.66800337 -398.875 447.875 C-399.39473389 448.48359863 -399.91446777 449.09219727 -400.44995117 449.71923828 C-403.47905595 453.25642957 -406.55156303 456.74401054 -409.6875 460.1875 C-413.56466618 464.45871574 -417.23333093 468.87382419 -420.859375 473.359375 C-421.56578125 474.23078125 -422.2721875 475.1021875 -423 476 C-423.63838303 477.02852081 -424.27676605 478.05704163 -424.93449402 479.11672974 C-426.67633632 481.17904404 -427.6495742 481.91469635 -430.29680824 482.55910873 C-433.27503431 482.78104504 -436.20226092 482.80718344 -439.1887207 482.77294922 C-440.32179153 482.78357895 -441.45486237 482.79420868 -442.62226868 482.80516052 C-446.39055026 482.83336384 -450.15744037 482.81907375 -453.92578125 482.8046875 C-456.58380565 482.81596387 -459.24171818 482.82957722 -461.89970398 482.84622192 C-468.22440685 482.88066195 -474.54874984 482.88450103 -480.87352771 482.87749684 C-487.87720069 482.87116344 -494.88059354 482.89825456 -501.88418794 482.92869711 C-517.31853568 482.99455351 -532.75259876 483.00517862 -548.18708038 483.00071716 C-554.3752094 482.99955325 -560.56333638 483.00246362 -566.75146484 483.00488281 C-577.83431365 483.00842625 -588.91715277 483.00650481 -600 483 C-597.47216628 479.13242433 -595.03030779 475.8193705 -591.6875 472.625 C-588.9519545 469.95142478 -586.30075269 467.28006659 -583.8125 464.375 C-580.3980201 460.39804198 -576.83335512 456.57406394 -573.25 452.75 C-567.12105965 446.2072266 -561.04779152 439.61783373 -555 433 C-554.06410739 431.98018848 -553.12790516 430.96066102 -552.19140625 429.94140625 C-547.95963191 425.33477577 -543.73842913 420.71997771 -539.5625 416.0625 C-535.56551622 411.6079009 -531.50925591 407.21081521 -527.44384766 402.81884766 C-523.6852202 398.75388189 -519.97250157 394.65015094 -516.27734375 390.52734375 C-513.7019019 387.66917758 -511.10310304 384.83293383 -508.5 382 C-503.6305325 376.69881521 -498.80576933 371.35895141 -494 366 C-489.15478859 360.59706641 -484.28787784 355.21639461 -479.375 349.875 C-475.81746901 346.00632178 -472.31710425 342.09665875 -468.875 338.125 C-466.45449892 335.38176544 -463.9779759 332.69117094 -461.5 330 C-457.87909866 326.06715159 -454.31041075 322.09785988 -450.80859375 318.05859375 C-448.5698875 315.5104335 -446.28589788 313.00589407 -444 310.5 C-441.13528185 307.35916444 -438.28814098 304.20899244 -435.5 301 C-432.71185902 297.79100756 -429.86471815 294.64083556 -427 291.5 C-423.54424587 287.71065874 -420.1347711 283.88916302 -416.76953125 280.01953125 C-412.489052 275.13430438 -408.1218135 270.32371617 -403.7421875 265.52734375 C-399.96975803 261.38030021 -396.31580256 257.1900093 -392.8125 252.8125 C-386.92832734 245.52533955 -380.44290355 238.79116861 -374 232 C-375.29565805 227.79883268 -376.89146753 224.06626742 -378.984375 220.203125 C-379.5825 219.09316162 -380.180625 217.98319824 -380.796875 216.83959961 C-381.44780954 215.64300813 -382.09885414 214.4464765 -382.75 213.25 C-383.42752246 211.99706353 -384.10459861 210.74388563 -384.78125 209.49047852 C-386.17292892 206.91384042 -387.56705948 204.33855105 -388.96289062 201.76416016 C-390.84524634 198.28983571 -392.71372827 194.8082188 -394.578125 191.32421875 C-402.2970388 176.90775396 -410.17481725 162.58470774 -418.15185547 148.30957031 C-419.96061907 145.07052151 -421.76402123 141.82853909 -423.56640625 138.5859375 C-429.79618865 127.39626986 -436.1307636 116.2770741 -442.60961914 105.22973633 C-447.12877719 97.51785181 -451.57591611 89.76660427 -456 82 C-461.50727358 72.3338467 -467.07386437 62.7046751 -472.69555664 53.10449219 C-477.99760949 44.03596608 -483.21032167 34.91755202 -488.40820312 25.7890625 C-489.03533203 24.68820312 -489.66246094 23.58734375 -490.30859375 22.453125 C-490.91558105 21.38642578 -491.52256836 20.31972656 -492.14794922 19.22070312 C-494.63013627 14.9041975 -497.17651416 10.62638927 -499.73461914 6.35449219 C-501 4 -501 4 -501 2 C-444.57 2 -388.14 2 -330 2 C-319.18155842 21.47319485 -319.18155842 21.47319485 -315.21142578 28.89379883 C-309.81221777 38.98416636 -304.18743573 48.91363797 -298.38085938 58.77441406 C-291.96300164 69.70182964 -285.8410533 80.78869365 -279.72021484 91.88427734 C-277.17703921 96.49057986 -274.61995905 101.08911765 -272.0625 105.6875 C-271.26164035 107.12886269 -270.46084951 108.57026362 -269.66015625 110.01171875 C-268.83837891 111.49091797 -268.83837891 111.49091797 -268 113 C-263.50236041 109.2820607 -259.4084698 105.45880328 -255.5 101.125 C-255.02498047 100.60035156 -254.54996094 100.07570313 -254.06054688 99.53515625 C-250.95608799 96.09702083 -247.90202258 92.61668632 -244.8671875 89.1171875 C-242.02205329 85.89111482 -239.10367121 82.7326456 -236.19189453 79.56689453 C-231.75776372 74.74415109 -227.3748176 69.8765888 -223 65 C-221.50028872 63.33307353 -220.00028679 61.66640851 -218.5 60 C-217.38625 58.7625 -217.38625 58.7625 -216.25 57.5 C-205 45 -193.75 32.5 -182.5 20 C-181.76523438 19.18273438 -181.03046875 18.36546875 -180.2734375 17.5234375 C-178.6987273 15.77556329 -177.1203499 14.03098862 -175.5390625 12.2890625 C-174.34410156 10.97035156 -174.34410156 10.97035156 -173.125 9.625 C-172.40570312 8.83351563 -171.68640625 8.04203125 -170.9453125 7.2265625 C-168.99015373 5.1023178 -168.99015373 5.1023178 -167.66022205 2.8904829 C-166 1 -166 1 -163.92538738 0.510602 C-162.72043228 0.51808098 -162.72043228 0.51808098 -161.49113464 0.52571106 C-160.56588486 0.52165756 -159.64063507 0.51760406 -158.68734741 0.51342773 C-157.16604721 0.53735596 -157.16604721 0.53735596 -155.61401367 0.56176758 C-154.54320053 0.56278976 -153.47238739 0.56381195 -152.36912537 0.56486511 C-148.80173659 0.57279066 -145.23517976 0.60890716 -141.66796875 0.64453125 C-139.1625486 0.65454897 -136.65712003 0.66262931 -134.15168762 0.66886902 C-128.19034014 0.68773308 -122.22934138 0.7236131 -116.26815253 0.7684657 C-105.11621261 0.85167654 -93.96404498 0.8968157 -82.81189346 0.94137192 C-80.25830862 0.95180862 -77.7047271 0.96309203 -75.15114975 0.97522354 C-56.54112954 1.06086826 -37.96746467 0.85792793 -19.3684082 0.2253418 C-12.90943161 0.00596893 -6.46219714 -0.05635512 0 0 Z " fill="#0190E7" transform="translate(3709,1210)"/>
<path d="M0 0 C1.58289487 1.52071897 3.14588638 3.06244766 4.6875 4.625 C5.45707031 5.38425781 6.22664063 6.14351562 7.01953125 6.92578125 C28.41116028 29.19202544 32.4600444 59.76857992 31.98631287 89.30873108 C31.469299 114.40208603 27.3192073 138.02137674 18.6875 161.625 C18.28789062 162.759375 17.88828125 163.89375 17.4765625 165.0625 C3.92527848 202.16937167 -20.36834089 233.41174158 -56.3125 250.625 C-59.92730961 252.25765572 -63.4954352 253.54852532 -67.3125 254.625 C-68.36179687 254.92277344 -69.41109375 255.22054688 -70.4921875 255.52734375 C-95.1733582 261.28628358 -121.306445 259.22174494 -143.375 246.4375 C-154.77790562 239.28434575 -164.01980695 229.90771821 -171.3125 218.625 C-172.10720703 217.46291016 -172.10720703 217.46291016 -172.91796875 216.27734375 C-184.7007113 198.13373761 -186.90765715 177.050575 -186.75 155.9375 C-186.74795563 155.10370819 -186.74591125 154.26991638 -186.74380493 153.41085815 C-186.66566945 133.64117427 -184.23154278 114.53222847 -180.50404358 95.11605835 C-178.91025702 86.68822611 -177.66521877 78.20566988 -176.38027954 69.72640991 C-168.62006085 18.65680062 -168.62006085 18.65680062 -163.3125 0.625 C-163.06886719 -0.27476563 -162.82523438 -1.17453125 -162.57421875 -2.1015625 C-159.95438233 -6.82213462 -154.69101429 -7.61969367 -149.8046875 -9.0234375 C-147.60181117 -9.60978318 -145.39585346 -10.18463251 -143.1875 -10.75 C-142.00260986 -11.05381592 -140.81771973 -11.35763184 -139.59692383 -11.6706543 C-96.00217082 -22.5628881 -37.28639034 -32.4752432 0 0 Z " fill="#FEFEFE" transform="translate(2405.3125,1337.375)"/>
<path d="M0 0 C-1.27417016 14.58637397 -2.72546939 29.14376161 -4.34765625 43.6953125 C-4.5667151 45.67209673 -4.78566106 47.64889347 -5.00450134 49.6257019 C-5.45768807 53.71466037 -5.91247056 57.80343724 -6.3684082 61.89208984 C-6.95235946 67.13025512 -7.53176305 72.36891258 -8.10997868 77.6077137 C-8.5584221 81.66561344 -9.00941876 85.72322629 -9.46117973 89.7807579 C-9.67611669 91.71437182 -9.89021223 93.64807947 -10.10344124 95.58188248 C-10.39974491 98.26598933 -10.69953384 100.94968455 -11.00024414 103.63330078 C-11.08701416 104.42592316 -11.17378418 105.21854553 -11.26318359 106.03518677 C-11.64725415 109.4330023 -12.1214892 112.69688475 -13 116 C-40.98804484 124.58823183 -77.01260711 129.00063491 -104.41796875 116.44140625 C-112.70936356 111.81277587 -119.6988336 104.40122172 -122.875 95.375 C-125.20814798 86.42896512 -124.91552862 76.74658587 -122 68 C-121.74347656 67.21238281 -121.48695313 66.42476562 -121.22265625 65.61328125 C-118.89496284 59.08974564 -115.5727121 54.16597814 -111 49 C-110.36449219 48.27039062 -109.72898437 47.54078125 -109.07421875 46.7890625 C-95.5827434 32.30668783 -76.37378269 23.50838846 -58 17 C-57.1548584 16.69562012 -56.3097168 16.39124023 -55.43896484 16.07763672 C-44.96027815 12.30906544 -34.52550024 8.65526357 -23.71875 5.94140625 C-18.38646609 4.59153186 -13.10127103 3.07955507 -7.8112793 1.57348633 C-2.21645483 0 -2.21645483 0 0 0 Z " fill="#0072D3" transform="translate(967,1497)"/>
<path d="M0 0 C16.48982514 0.67083292 35.17100779 2.70752088 47.81640625 14.39453125 C53.89156695 21.07720803 56.15767591 28.4199404 56.02734375 37.30859375 C55.10757045 49.12938395 48.72274425 58.93819794 40.28515625 66.92578125 C28.44749582 76.96531605 14.0970023 81.73052094 -0.43359375 86.45703125 C-1.5539502 86.82368896 -2.67430664 87.19034668 -3.82861328 87.56811523 C-4.87903809 87.90141846 -5.92946289 88.23472168 -7.01171875 88.578125 C-7.95950195 88.88032959 -8.90728516 89.18253418 -9.88378906 89.49389648 C-12.18359375 90.01953125 -12.18359375 90.01953125 -14.18359375 89.01953125 C-12.90214839 77.56244807 -11.61603766 66.10589932 -10.32389164 54.65001774 C-9.72410881 49.33114429 -9.12596268 44.01209719 -8.53149414 38.69262695 C-7.95823261 33.56345924 -7.38075408 28.43478264 -6.80029106 23.30642509 C-6.57907843 21.34529103 -6.35941154 19.38398201 -6.14128304 17.42250252 C-5.83658562 14.68492255 -5.52650311 11.94800435 -5.21508789 9.21118164 C-5.12517578 8.39191193 -5.03526367 7.57264221 -4.94262695 6.72854614 C-4.16991678 0.02558231 -4.16991678 0.02558231 0 0 Z " fill="#27D6FE" transform="translate(992.18359375,1303.98046875)"/>
</svg>
